<?xml version="1.0" encoding="UTF-8"?>
<svg width="760" height="260" xmlns="http://www.w3.org/2000/svg" font-family="Arial,sans-serif">
<rect width="760" height="260" fill="white"/>
<rect x="20" y="20" width="720" height="220" rx="14" fill="#fff" stroke="#aaa" stroke-width="1.5"/>
<text x="380" y="46" text-anchor="middle" font-size="16" fill="#333" font-weight="bold">Service 1</text>
<text x="380" y="64" text-anchor="middle" font-size="11" fill="#666">tab = services  /  id = 1</text><rect x="55" y="85" width="190" height="100" rx="8" fill="#fff" stroke="#999" stroke-width="1.5"/>
<text x="150" y="135" text-anchor="middle" font-size="12" fill="#444" font-weight="bold">Image 1</text>
<text x="150" y="152" text-anchor="middle" font-size="10" fill="#777">service_id = 1</text>
<text x="150" y="167" text-anchor="middle" font-size="9" fill="#999">tab = service_images</text>
<rect x="275" y="85" width="190" height="100" rx="8" fill="#fff" stroke="#999" stroke-width="1.5"/>
<text x="370" y="135" text-anchor="middle" font-size="12" fill="#444" font-weight="bold">Image 2</text>
<text x="370" y="152" text-anchor="middle" font-size="10" fill="#777">service_id = 1</text>
<text x="370" y="167" text-anchor="middle" font-size="9" fill="#999">tab = service_images</text>
<rect x="495" y="85" width="190" height="100" rx="8" fill="#fff" stroke="#999" stroke-width="1.5"/>
<text x="590" y="135" text-anchor="middle" font-size="12" fill="#444" font-weight="bold">Image 3</text>
<text x="590" y="152" text-anchor="middle" font-size="10" fill="#777">service_id = 1</text>
<text x="590" y="167" text-anchor="middle" font-size="9" fill="#999">tab = service_images</text>
<rect x="55" y="200" width="300" height="35" rx="8" fill="#c8e6c9" stroke="#43a047" stroke-width="1.5"/>
<text x="205" y="210.5" text-anchor="middle" font-size="11" fill="#333" font-weight="bold">locale_services</text>
<text x="205" y="226.5" text-anchor="middle" font-size="9" fill="#666">us_service_id / ka_service_id → locale_services</text><rect x="375" y="200" width="300" height="35" rx="8" fill="#fff3e0" stroke="#ff9800" stroke-width="1.5"/>
<text x="525" y="210.5" text-anchor="middle" font-size="11" fill="#333" font-weight="bold">locale_services (KA)</text>
<text x="525" y="226.5" text-anchor="middle" font-size="9" fill="#666">title, short_description, text</text></svg>