<?xml version='1.0' encoding='UTF-8'?>
<svg xmlns="http://www.w3.org/2000/svg" width="780" height="310" font-family="Arial,sans-serif">
<rect width="780" height="310" fill="white" />
<rect x="10" y="10" width="780" height="300" rx="14" fill="#f3e5f5" stroke="#6a1b9a" stroke-width="1.5" />
<rect x="25" y="60" width="200" height="100" rx="8" fill="#ce93d8" stroke="#6a1b9a" stroke-width="1.5" />
<rect x="265" y="60" width="270" height="100" rx="8" fill="#e1bee7" stroke="#8e24aa" stroke-width="1.5" />
<rect x="575" y="60" width="185" height="100" rx="8" fill="#b3e5fc" stroke="#0288d1" stroke-width="1.5" />
<rect x="25" y="195" width="730" height="90" rx="6" fill="#fffde7" stroke="#f9a825" stroke-width="1" />
<line x1="225" y1="110" x2="263" y2="110" stroke="#555" stroke-width="1.5" />
<polygon points="263,110 254.6420182798114,113.33828422471684 254.6420182798114,106.66171577528316" fill="#555" /><line x1="535" y1="110" x2="573" y2="110" stroke="#555" stroke-width="1.5" />
<polygon points="573,110 564.6420182798114,113.33828422471684 564.6420182798114,106.66171577528316" fill="#555" /><text x="400" y="36" text-anchor="middle" font-size="16" fill="#333" font-weight="bold">Warehouse / Stock System</text>
<text x="125" y="80" text-anchor="middle" font-size="11" fill="#333" font-weight="bold">Warehouse</text>
<text x="125" y="94" text-anchor="middle" font-size="9" fill="#666">tab = warehouses</text><text x="40" y="110" text-anchor="start" font-size="10" fill="#333">id, name</text>
<text x="40" y="126" text-anchor="start" font-size="10" fill="#333">general (bool) — stock source</text>
<text x="400" y="80" text-anchor="middle" font-size="11" fill="#333" font-weight="bold">warehouses_product_options (pivot)</text>
<text x="280" y="96" text-anchor="start" font-size="10" fill="#555">warehouse_id → warehouses</text>
<text x="280" y="112" text-anchor="start" font-size="10" fill="#555">product_option_id → product_options</text>
<text x="280" y="128" text-anchor="start" font-size="10" fill="#555">quantity (stock count)</text>
<text x="667.5" y="80" text-anchor="middle" font-size="11" fill="#333" font-weight="bold">Product Option</text>
<text x="667.5" y="94" text-anchor="middle" font-size="9" fill="#666">tab = product_options</text><text x="590" y="110" text-anchor="start" font-size="10" fill="#333">id, product_id</text>
<text x="590" y="126" text-anchor="start" font-size="10" fill="#333">name, price, barcode</text>
<text x="45" y="214" text-anchor="start" font-size="11" fill="#555" font-weight="bold">Barcode Scan Endpoints:</text>
<text x="45" y="230" text-anchor="start" font-size="10" fill="#555">POST /api/set_warehouse/scan_barcode/{id}  →  body: { barcode, quantity }  →  adds product_option to warehouse</text>
<text x="45" y="246" text-anchor="start" font-size="10" fill="#555">GET  /api/set_product/set_product_option/find_by_barcode/{barcode}  →  returns option + product + total stock</text>
</svg>