<?xml version="1.0" standalone="no"?>
<!DOCTYPE svg PUBLIC "-//W3C//DTD SVG 20010904//EN"
 "http://www.w3.org/TR/2001/REC-SVG-20010904/DTD/svg10.dtd">
<svg version="1.0" xmlns="http://www.w3.org/2000/svg"
 width="200.000000pt" height="200.000000pt" viewBox="0 0 200.000000 200.000000"
 preserveAspectRatio="xMidYMid meet">
<metadata>
Created by potrace 1.16, written by Peter Selinger 2001-2019
</metadata>
<g transform="translate(0.000000,200.000000) scale(0.100000,-0.100000)"
fill="#000000" stroke="none">
<path d="M806 1698 l-196 -201 0 56 0 57 -120 0 -120 0 0 -177 0 -177 -120
-121 c-66 -67 -120 -129 -120 -138 0 -33 29 -47 96 -47 l64 0 0 -385 0 -385
130 0 c109 0 130 -2 130 -15 0 -10 11 -15 35 -15 l35 0 0 266 0 266 29 29 c27
26 36 29 95 29 54 0 69 -4 93 -24 26 -23 28 -30 29 -103 1 -43 5 -93 9 -111 6
-26 3 -38 -13 -55 -38 -42 -42 -63 -42 -206 l0 -141 35 0 35 0 0 133 c0 169 4
177 95 177 91 0 95 -8 95 -177 l0 -133 35 0 35 0 0 140 c0 153 -7 181 -56 219
l-26 20 21 27 c28 35 28 107 1 152 -25 41 -28 137 -4 171 23 32 74 51 139 51
67 0 115 -18 138 -53 15 -23 17 -62 17 -352 l0 -325 35 0 c24 0 35 5 35 15 0
13 22 15 140 15 l140 0 0 385 0 385 50 0 c37 0 55 5 70 20 39 39 92 -23 -514
608 -170 177 -315 322 -322 322 -7 0 -100 -91 -208 -202z m746 -448 l217 -225
-55 -3 -54 -3 0 -389 0 -390 -105 0 -105 0 0 285 c0 265 -1 289 -20 324 -23
46 -63 80 -103 88 l-28 6 36 24 c53 36 78 93 73 168 -3 50 -10 70 -32 100 -53
70 -150 93 -232 56 -64 -29 -97 -80 -102 -156 -5 -75 20 -132 73 -168 l36 -24
-29 -6 c-69 -14 -122 -90 -122 -175 0 -49 0 -50 -35 -54 -23 -3 -35 0 -35 8 0
7 -20 30 -45 52 l-44 39 24 23 c72 68 46 204 -49 249 -54 26 -88 26 -142 0
-96 -46 -117 -173 -43 -255 19 -20 19 -21 -12 -43 -66 -49 -69 -62 -69 -313
l0 -228 -95 0 -95 0 0 390 0 390 -62 0 -63 0 103 103 102 102 0 158 0 157 50
0 50 0 0 -100 c0 -55 4 -100 9 -100 5 0 112 106 237 235 l228 234 161 -167
c88 -92 258 -268 377 -392z m-273 -24 c84 -44 81 -170 -5 -211 -67 -32 -153
10 -167 82 -18 95 86 173 172 129z m-490 -211 c55 -28 63 -101 16 -145 -60
-57 -169 6 -149 86 8 30 58 74 85 74 11 0 33 -7 48 -15z"/>
</g>
</svg>
