<?xml version="1.0" encoding="UTF-8" standalone="no"?>
<!DOCTYPE svg PUBLIC "-//W3C//DTD SVG 1.1//EN" "http://www.w3.org/Graphics/SVG/1.1/DTD/svg11.dtd">
<svg version="1.1" xmlns="http://www.w3.org/2000/svg" xmlns:xlink="http://www.w3.org/1999/xlink" preserveAspectRatio="xMidYMid meet" viewBox="0 0 640 640" width="640" height="640"><defs><path d="M188.13 320C188.13 392.72 247.29 451.88 320 451.88C392.71 451.88 451.87 392.72 451.87 320C451.87 247.29 392.71 188.14 320 188.14C247.29 188.14 188.13 247.29 188.13 320ZM231.88 320C231.88 271.42 271.41 231.9 320 231.9C368.59 231.9 408.11 271.42 408.11 320C408.11 368.58 368.59 408.12 320 408.12C271.41 408.12 231.88 368.58 231.88 320Z" id="b4Rxpw2zzv"></path><path d="M341.88 135.37C341.88 124.37 341.88 36.38 341.88 25.38C341.88 13.3 332.08 3.5 320 3.5C307.92 3.5 298.12 13.3 298.12 25.38C298.12 36.38 298.12 124.37 298.12 135.37C298.12 147.45 307.91 157.25 320 157.25C332.08 157.25 341.88 147.45 341.88 135.37Z" id="i1N5UpGVf"></path><path d="M466.03 204.93C473.8 197.15 536.02 134.92 543.8 127.15C552.34 118.6 552.34 104.74 543.79 96.21C535.24 87.66 521.4 87.66 512.85 96.21C505.07 103.99 442.85 166.21 435.08 173.99C426.53 182.54 426.53 196.4 435.08 204.93C439.35 209.2 444.95 211.34 450.55 211.34C456.15 211.34 461.76 209.2 466.03 204.93Z" id="aE9Xjni5Z"></path><path d="M504.62 298.13C492.53 298.13 482.75 307.93 482.75 320.01C482.75 332.09 492.54 341.89 504.62 341.89C515.62 341.89 603.62 341.88 614.62 341.88C626.7 341.88 636.5 332.08 636.5 320C636.5 307.92 626.7 298.12 614.62 298.12C592.62 298.12 515.62 298.13 504.62 298.13Z" id="aXbhFqO7"></path><path d="M435.07 435.09C426.52 443.64 426.52 457.49 435.07 466.03C442.85 473.81 505.07 536.03 512.85 543.8C517.12 548.08 522.72 550.21 528.32 550.21C533.92 550.21 539.53 548.08 543.8 543.8C552.34 535.26 552.34 521.4 543.79 512.87C538.6 507.68 512.68 481.76 466.01 435.09C451.08 429.4 440.77 429.4 435.07 435.09Z" id="fWirLdoif"></path><path d="M298.11 504.62C298.11 515.62 298.12 603.62 298.12 614.62C298.12 626.7 307.92 636.5 320.01 636.5C332.09 636.5 341.88 626.7 341.88 614.62C341.88 603.62 341.87 515.62 341.87 504.62C341.87 492.55 332.07 482.75 319.98 482.75C307.89 482.75 298.11 492.54 298.11 504.62Z" id="f4sI9A9zZr"></path><path d="M96.2 512.87C87.66 521.41 87.66 535.27 96.21 543.8C100.48 548.08 106.08 550.21 111.68 550.21C117.28 550.21 122.87 548.08 127.15 543.8C134.92 536.03 197.13 473.8 204.91 466.02C213.46 457.48 213.46 443.62 204.91 435.08C196.36 426.53 182.51 426.53 173.96 435.08C158.41 450.64 103.97 505.09 96.2 512.87Z" id="c1icvxzjui"></path><path d="M135.37 298.12C124.37 298.12 36.38 298.12 25.38 298.12C13.3 298.12 3.5 307.92 3.5 320C3.5 332.09 13.3 341.88 25.38 341.88C36.38 341.88 124.37 341.88 135.37 341.88C147.45 341.88 157.25 332.08 157.25 320C157.25 307.92 147.45 298.12 135.37 298.12Z" id="a6NhNxymgC"></path><path d="M189.45 211.32C195.05 211.32 200.65 209.18 204.92 204.91C213.47 196.36 213.47 182.51 204.92 173.97C197.14 166.19 134.92 103.98 127.15 96.21C118.6 87.66 104.74 87.66 96.2 96.21C87.66 104.75 87.66 118.61 96.21 127.15C101.39 132.33 127.32 158.25 173.98 204.91C180.56 209.18 185.72 211.32 189.45 211.32Z" id="b8U8NwAsR"></path><path d="M320.73 437.87L322.18 208.68" id="a2DgDCYRdc"></path><path d="M360.16 207.97C364.16 209.07 369.11 211.87 372.17 214.89C375.08 217.76 375.7 222.74 378.35 225.44C380.86 227.98 385.18 229 387.45 230.89C389.28 232.42 390.14 234.36 391.45 235.62C392.56 236.7 393.43 236.63 394.72 238.17C397 240.88 400.92 246.38 403.45 252.72C406.78 261.06 408.03 276.38 411.46 285.46C414.32 293.05 419.7 296.64 421.64 304.38C423.99 313.7 423.88 329.06 422.37 338.58C421.13 346.4 418.59 351.35 415.09 358.22C411.06 366.15 400.91 380.45 398.72 383.32C398.05 384.2 398.29 383.53 397.63 384.42C395.47 387.31 385.16 402.04 381.62 409.88C378.69 416.39 378.87 422.95 376.53 428.07C374.48 432.56 372.22 436.5 368.89 439.35C365.56 442.2 360.88 444.08 356.52 445.17C352.15 446.27 347.09 446.89 342.7 445.9C338.23 444.88 333.09 442.1 329.97 438.98C327.04 436.06 325.18 432.32 324.15 428.07C323.1 423.75 323.74 419.86 324.06 413.53C323.27 412.1 322.75 410.59 322.27 408.94C321.35 405.71 321.65 403.44 321.55 398.03C321.36 388.5 319.78 363.54 322.27 352.92C322.32 352.73 322.37 352.53 322.41 352.34C322.34 351.44 322.31 350.55 322.34 349.68C321.54 346.47 321.22 343.16 321.62 340.45C321.85 338.89 322.39 337.27 323.14 335.68C323.11 334.7 323.13 333.75 323.21 332.86C323.26 332.29 323.35 331.71 323.46 331.12C322.72 328.33 322.2 325.57 321.96 323.19C321.62 319.75 322.02 316.24 322.72 312.92C322.57 312.27 322.42 311.61 322.27 310.93C320.57 302.94 321.25 291.22 321.55 280.37C321.87 268.54 324.54 251.38 324.46 242.53C324.4 236.87 322.16 234.54 323 230.16C323.98 225.05 327.86 217.39 331.37 213.79C334.27 210.83 337.81 209.46 341.56 208.7C343.43 208.32 345.59 208.2 347.76 208.3C348.27 208.18 348.77 208.07 349.25 207.97C353.25 207.15 356.52 206.98 360.16 207.97Z" id="dJqDU1Ou"></path><path d="M341.01 325.76L319.55 325.76L302.61 325.76L283.4 325.76L267.59 325.76L251.78 325.76L235.97 325.76" id="bWq1NqFeI"></path><path d="M255.17 330.28L372.17 330.28L372.17 413.86L255.17 413.86L255.17 330.28Z" id="esUKw8K1J"></path><path d="M223.82 328.3L357.61 328.3L357.61 388.32L223.82 388.32L223.82 328.3Z" id="dOlaUrJLb"></path><path d="M223.82 324.55L352.3 324.55L352.3 383.32L223.82 383.32L223.82 324.55Z" id="eLGnHmG1K"></path></defs><g><g><g><use xlink:href="#b4Rxpw2zzv" opacity="1" fill="#000000" fill-opacity="1"></use><g><use xlink:href="#b4Rxpw2zzv" opacity="1" fill-opacity="0" stroke="#000000" stroke-width="1" stroke-opacity="0"></use></g></g><g><use xlink:href="#i1N5UpGVf" opacity="1" fill="#000000" fill-opacity="1"></use><g><use xlink:href="#i1N5UpGVf" opacity="1" fill-opacity="0" stroke="#000000" stroke-width="1" stroke-opacity="0"></use></g></g><g><use xlink:href="#aE9Xjni5Z" opacity="1" fill="#000000" fill-opacity="1"></use><g><use xlink:href="#aE9Xjni5Z" opacity="1" fill-opacity="0" stroke="#000000" stroke-width="1" stroke-opacity="0"></use></g></g><g><use xlink:href="#aXbhFqO7" opacity="1" fill="#000000" fill-opacity="1"></use><g><use xlink:href="#aXbhFqO7" opacity="1" fill-opacity="0" stroke="#000000" stroke-width="1" stroke-opacity="0"></use></g></g><g><use xlink:href="#fWirLdoif" opacity="1" fill="#000000" fill-opacity="1"></use><g><use xlink:href="#fWirLdoif" opacity="1" fill-opacity="0" stroke="#000000" stroke-width="1" stroke-opacity="0"></use></g></g><g><use xlink:href="#f4sI9A9zZr" opacity="1" fill="#000000" fill-opacity="1"></use><g><use xlink:href="#f4sI9A9zZr" opacity="1" fill-opacity="0" stroke="#000000" stroke-width="1" stroke-opacity="0"></use></g></g><g><use xlink:href="#c1icvxzjui" opacity="1" fill="#000000" fill-opacity="1"></use><g><use xlink:href="#c1icvxzjui" opacity="1" fill-opacity="0" stroke="#000000" stroke-width="1" stroke-opacity="0"></use></g></g><g><use xlink:href="#a6NhNxymgC" opacity="1" fill="#000000" fill-opacity="1"></use><g><use xlink:href="#a6NhNxymgC" opacity="1" fill-opacity="0" stroke="#000000" stroke-width="1" stroke-opacity="0"></use></g></g><g><use xlink:href="#b8U8NwAsR" opacity="1" fill="#000000" fill-opacity="1"></use><g><use xlink:href="#b8U8NwAsR" opacity="1" fill-opacity="0" stroke="#000000" stroke-width="1" stroke-opacity="0"></use></g></g><g><use xlink:href="#a2DgDCYRdc" opacity="1" fill="#000000" fill-opacity="1"></use><g><use xlink:href="#a2DgDCYRdc" opacity="1" fill-opacity="0" stroke="#000000" stroke-width="1" stroke-opacity="1"></use></g></g><g><use xlink:href="#dJqDU1Ou" opacity="1" fill="#000000" fill-opacity="1"></use><g><use xlink:href="#dJqDU1Ou" opacity="1" fill-opacity="0" stroke="#000000" stroke-width="2" stroke-opacity="1"></use></g></g><g><g><use xlink:href="#bWq1NqFeI" opacity="1" fill-opacity="0" stroke="#000000" stroke-width="1" stroke-opacity="1"></use></g></g><g><use xlink:href="#esUKw8K1J" opacity="1" fill="#000000" fill-opacity="1"></use></g><g><use xlink:href="#dOlaUrJLb" opacity="1" fill="#000000" fill-opacity="1"></use></g><g><use xlink:href="#eLGnHmG1K" opacity="1" fill="#000000" fill-opacity="1"></use></g></g></g></svg>