<?xml version="1.0" encoding="UTF-8" standalone="no"?>
<!DOCTYPE svg PUBLIC "-//W3C//DTD SVG 1.1//EN" "http://www.w3.org/Graphics/SVG/1.1/DTD/svg11.dtd">
<svg version="1.1" xmlns="http://www.w3.org/2000/svg" xmlns:xlink="http://www.w3.org/1999/xlink" preserveAspectRatio="xMidYMid meet" viewBox="0 0 640 640" width="640" height="640"><defs><path d="M65 65L583.75 65L583.75 565L65 565L65 65Z" id="a1P8ATDiz6"></path><path d="M177.82 568.18L466.55 62.68" id="c5PsJ8DxSi"></path><path d="M65 65L186.32 65L186.32 565L65 565L65 65Z" id="a47fqV8Uy"></path><path d="M119.86 69.25L413.5 69.25L413.5 161.21L119.86 161.21L119.86 69.25Z" id="fixnuuUBi"></path><path d="" id="cVDqCzdfG"></path><path d="M117.55 138.41L262.05 138.41L262.05 426.64L117.55 426.64L117.55 138.41Z" id="bQIVrOVzX"></path><path d="M204.86 107.5L330.05 107.5L330.05 305.32L204.86 305.32L204.86 107.5Z" id="e3pcNECGGr"></path><path d="M160.05 391.09L224.18 391.09L224.18 486.91L160.05 486.91L160.05 391.09Z" id="b3HTj3mm"></path><path d="M308.41 115.23L381.05 115.23L381.05 224.18L308.41 224.18L308.41 115.23Z" id="dHORwryEC"></path><path d="M308.41 201L353.23 201L353.23 257.41L308.41 257.41L308.41 201Z" id="aeArSeVyB"></path><path d="M235 227.27L299.91 227.27L299.91 360.95L235 360.95L235 227.27Z" id="b87UgG3GV"></path><path d="M389.55 68.86L432.82 68.86L432.82 118.32L389.55 118.32L389.55 68.86Z" id="a1UUmgzz9R"></path><path d="M180.14 455.23L204.86 455.23L204.86 518.59L180.14 518.59L180.14 455.23Z" id="a4YlAEpyu"></path><path d="M195.59 463.73L218.77 463.73L218.77 505.45L195.59 505.45L195.59 463.73Z" id="d2L10CsisH"></path><path d="M177.82 509.32L199.45 509.32L199.45 539.45L177.82 539.45L177.82 509.32Z" id="buluFxdJ3"></path><path d="M207.18 405L252.77 405L252.77 452.14L207.18 452.14L207.18 405Z" id="b10g7I1ghb"></path><path d="M211.82 436.68L238.86 436.68L238.86 471.45L211.82 471.45L211.82 436.68Z" id="a1wpRwqklI"></path><path d="M405.77 65L452.91 65L452.91 91.27L405.77 91.27L405.77 65Z" id="b2L98eCUDU"></path><path d="M424.32 85.86L443.64 85.86L443.64 107.5L424.32 107.5L424.32 85.86Z" id="d4nbWbE6Z"></path><path d="M399.59 110.98L427.41 110.98L427.41 136.86L399.59 136.86L399.59 110.98Z" id="b1Vld4gdgc"></path><path d="M399.59 120.64L417.36 120.64L417.36 150.77L399.59 150.77L399.59 120.64Z" id="ipjyE2gh"></path><path d="M363.27 145.36L399.59 145.36L399.59 186.32L363.27 186.32L363.27 145.36Z" id="aPM5uuoT"></path><path d="M389.55 145.36L405.77 145.36L405.77 169.7L389.55 169.7L389.55 145.36Z" id="dpEfffzuH"></path><path d="M330.82 182.45L367.91 182.45L367.91 246.59L330.82 246.59L330.82 182.45Z" id="cp42PIUcd"></path><path d="M344.73 157.53L397.66 157.53L397.66 198.68L344.73 198.68L344.73 157.53Z" id="g7RsOuuPik"></path><path d="M327.73 239.64L349.36 239.64L349.36 271.32L327.73 271.32L327.73 239.64Z" id="gIDoSbU07"></path><path d="M324.38 252L344.73 252L344.73 289.86L324.38 289.86L324.38 252Z" id="d1iJ8AbxgA"></path><path d="M282.14 289.86L324.38 289.86L324.38 320L282.14 320L282.14 289.86Z" id="a14Bt3cT9"></path><path d="M292.18 305.32L310.73 305.32L310.73 340.09L292.18 340.09L292.18 305.32Z" id="b2yBljl1Ii"></path><path d="M246.59 347.05L287.55 347.05L287.55 384.14L246.59 384.14L246.59 347.05Z" id="a3kvMF7f1D"></path><path d="M248.91 372.55L274.41 372.55L274.41 405L248.91 405L248.91 372.55Z" id="b96TdxTPl"></path></defs><g><g><g><g><use xlink:href="#a1P8ATDiz6" opacity="1" fill-opacity="0" stroke="#000000" stroke-width="15" stroke-opacity="1"></use></g></g><g><g><use xlink:href="#c5PsJ8DxSi" opacity="1" fill-opacity="0" stroke="#000000" stroke-width="15" stroke-opacity="1"></use></g></g><g><use xlink:href="#a47fqV8Uy" opacity="1" fill="#000000" fill-opacity="1"></use></g><g><use xlink:href="#fixnuuUBi" opacity="1" fill="#000000" fill-opacity="1"></use></g><g><g><use xlink:href="#cVDqCzdfG" opacity="1" fill-opacity="0" stroke="#4009a2" stroke-width="15" stroke-opacity="1"></use></g></g><g><use xlink:href="#bQIVrOVzX" opacity="1" fill="#000000" fill-opacity="1"></use></g><g><use xlink:href="#e3pcNECGGr" opacity="1" fill="#000000" fill-opacity="1"></use></g><g><use xlink:href="#b3HTj3mm" opacity="1" fill="#000000" fill-opacity="1"></use></g><g><use xlink:href="#dHORwryEC" opacity="1" fill="#000000" fill-opacity="1"></use></g><g><use xlink:href="#aeArSeVyB" opacity="1" fill="#000000" fill-opacity="1"></use></g><g><use xlink:href="#b87UgG3GV" opacity="1" fill="#000000" fill-opacity="1"></use></g><g><use xlink:href="#a1UUmgzz9R" opacity="1" fill="#000000" fill-opacity="1"></use></g><g><use xlink:href="#a4YlAEpyu" opacity="1" fill="#000000" fill-opacity="1"></use></g><g><use xlink:href="#d2L10CsisH" opacity="1" fill="#000000" fill-opacity="1"></use></g><g><use xlink:href="#buluFxdJ3" opacity="1" fill="#000000" fill-opacity="1"></use></g><g><use xlink:href="#b10g7I1ghb" opacity="1" fill="#000000" fill-opacity="1"></use></g><g><use xlink:href="#a1wpRwqklI" opacity="1" fill="#000000" fill-opacity="1"></use></g><g><use xlink:href="#b2L98eCUDU" opacity="1" fill="#000000" fill-opacity="1"></use></g><g><use xlink:href="#d4nbWbE6Z" opacity="1" fill="#000000" fill-opacity="1"></use></g><g><use xlink:href="#b1Vld4gdgc" opacity="1" fill="#000000" fill-opacity="1"></use></g><g><use xlink:href="#ipjyE2gh" opacity="1" fill="#000000" fill-opacity="1"></use></g><g><use xlink:href="#aPM5uuoT" opacity="1" fill="#000000" fill-opacity="1"></use></g><g><use xlink:href="#dpEfffzuH" opacity="1" fill="#000000" fill-opacity="1"></use></g><g><use xlink:href="#cp42PIUcd" opacity="1" fill="#000000" fill-opacity="1"></use></g><g><use xlink:href="#g7RsOuuPik" opacity="1" fill="#000000" fill-opacity="1"></use></g><g><use xlink:href="#gIDoSbU07" opacity="1" fill="#000000" fill-opacity="1"></use></g><g><use xlink:href="#d1iJ8AbxgA" opacity="1" fill="#000000" fill-opacity="1"></use></g><g><use xlink:href="#a14Bt3cT9" opacity="1" fill="#000000" fill-opacity="1"></use></g><g><use xlink:href="#b2yBljl1Ii" opacity="1" fill="#000000" fill-opacity="1"></use></g><g><use xlink:href="#a3kvMF7f1D" opacity="1" fill="#000000" fill-opacity="1"></use></g><g><use xlink:href="#b96TdxTPl" opacity="1" fill="#000000" fill-opacity="1"></use></g></g></g></svg>