<?xml version="1.0" encoding="UTF-8" standalone="no"?>
<!DOCTYPE svg PUBLIC "-//W3C//DTD SVG 1.1//EN" "http://www.w3.org/Graphics/SVG/1.1/DTD/svg11.dtd">
<svg version="1.1" xmlns="http://www.w3.org/2000/svg" xmlns:xlink="http://www.w3.org/1999/xlink" preserveAspectRatio="xMidYMid meet" viewBox="0 0 640 640" width="640" height="640"><defs><path d="M65 65L583.75 65L583.75 565L65 565L65 65Z" id="a1P8ATDiz6"></path><path d="M438.84 565C402.25 481.66 329.06 315 219.28 65" id="d1y1RDVazM"></path><path d="M70 65L230.14 65L230.14 565L70 565L70 65Z" id="b2s6spNtBS"></path><path d="M139.57 406.59L375.07 406.59L375.07 565L139.57 565L139.57 406.59Z" id="c1attqQBsX"></path><path d="M166.38 243.55L304.06 243.55L304.06 481.96L166.38 481.96L166.38 243.55Z" id="a2JNY5PoMW"></path><path d="M191.74 210.22L286.67 210.22L286.67 258.77L191.74 258.77L191.74 210.22Z" id="dWK5SZHrz"></path><path d="M186.67 193.55L282.32 193.55L282.32 210.22L186.67 210.22L186.67 193.55Z" id="a42xU267eQ"></path><path d="M271.45 226.88L293.19 226.88L293.19 251.52L271.45 251.52L271.45 226.88Z" id="b4VkRWZ7U"></path><path d="M360.58 430.51L383.04 430.51L383.04 565L360.58 565L360.58 430.51Z" id="boLZDYcz3"></path><path d="M144.64 181.96L276.52 181.96L276.52 198.62L144.64 198.62L144.64 181.96Z" id="cWVTpVUgQ"></path><path d="M225.8 100.07L241.74 100.07L241.74 224.71L225.8 224.71L225.8 100.07Z" id="b3CYFf7krw"></path><path d="M234.49 124.71L253.33 124.71L253.33 212.39L234.49 212.39L234.49 124.71Z" id="aRNLGyERa"></path><path d="M239.2 149.35L263.48 149.35L263.48 193.55L239.2 193.55L239.2 149.35Z" id="azQjGmJTS"></path><path d="M286.67 264.57L314.93 264.57L314.93 425.43L286.67 425.43L286.67 264.57Z" id="h1nhDM6Buq"></path><path d="M265.65 389.93L369.28 389.93L369.28 408.77L265.65 408.77L265.65 389.93Z" id="aqvf13dYp"></path><path d="M340.29 544.28L431.59 544.28L431.59 555.87L340.29 555.87L340.29 544.28Z" id="lv3TlKz"></path><path d="M306.23 290.65L324.38 290.65L324.38 440.65L306.23 440.65L306.23 290.65Z" id="a7yisIpXP"></path><path d="M317.46 316.74L333.77 316.74L333.77 419.64L317.46 419.64L317.46 316.74Z" id="eHUbPRVK7"></path><path d="M322.17 337.75L343.91 337.75L343.91 412.39L322.17 412.39L322.17 337.75Z" id="crFgXAK5p"></path><path d="M306.23 379.78L363.48 379.78L363.48 399.35L306.23 399.35L306.23 379.78Z" id="bIYzzlKgc"></path><path d="M334.86 362.75L350.43 362.75L350.43 381.96L334.86 381.96L334.86 362.75Z" id="f4ft8dPypS"></path><path d="M371.81 454.42L396.09 454.42L396.09 565L371.81 565L371.81 454.42Z" id="b1ntc1Oia1"></path><path d="M366.38 513.84L421.45 513.84L421.45 566.74L366.38 566.74L366.38 513.84Z" id="aqcmZ5vKh"></path><path d="M419.28 555.87L434.49 555.87L434.49 566.74L419.28 566.74L419.28 555.87Z" id="bSfBKvizF"></path><path d="M381.59 497.75L417.1 497.75L417.1 526.16L381.59 526.16L381.59 497.75Z" id="fw9LklO4N"></path><path d="M383.95 473.99L401.88 473.99L401.88 503.7L383.95 503.7L383.95 473.99Z" id="dgLcUmh2X"></path></defs><g><g><g><g><use xlink:href="#a1P8ATDiz6" opacity="1" fill-opacity="0" stroke="#000000" stroke-width="15" stroke-opacity="1"></use></g></g><g><g><use xlink:href="#d1y1RDVazM" opacity="1" fill-opacity="0" stroke="#000000" stroke-width="15" stroke-opacity="1"></use></g></g><g><use xlink:href="#b2s6spNtBS" opacity="1" fill="#000000" fill-opacity="1"></use></g><g><use xlink:href="#c1attqQBsX" opacity="1" fill="#000000" fill-opacity="1"></use></g><g><use xlink:href="#a2JNY5PoMW" opacity="1" fill="#000000" fill-opacity="1"></use></g><g><use xlink:href="#dWK5SZHrz" opacity="1" fill="#000000" fill-opacity="1"></use></g><g><use xlink:href="#a42xU267eQ" opacity="1" fill="#000000" fill-opacity="1"></use></g><g><use xlink:href="#b4VkRWZ7U" opacity="1" fill="#000000" fill-opacity="1"></use></g><g><use xlink:href="#boLZDYcz3" opacity="1" fill="#000000" fill-opacity="1"></use></g><g><use xlink:href="#cWVTpVUgQ" opacity="1" fill="#000000" fill-opacity="1"></use></g><g><use xlink:href="#b3CYFf7krw" opacity="1" fill="#000000" fill-opacity="1"></use></g><g><use xlink:href="#aRNLGyERa" opacity="1" fill="#000000" fill-opacity="1"></use></g><g><use xlink:href="#azQjGmJTS" opacity="1" fill="#000000" fill-opacity="1"></use></g><g><use xlink:href="#h1nhDM6Buq" opacity="1" fill="#000000" fill-opacity="1"></use></g><g><use xlink:href="#aqvf13dYp" opacity="1" fill="#000000" fill-opacity="1"></use></g><g><use xlink:href="#lv3TlKz" opacity="1" fill="#000000" fill-opacity="1"></use></g><g><use xlink:href="#a7yisIpXP" opacity="1" fill="#000000" fill-opacity="1"></use></g><g><use xlink:href="#eHUbPRVK7" opacity="1" fill="#000000" fill-opacity="1"></use></g><g><use xlink:href="#crFgXAK5p" opacity="1" fill="#000000" fill-opacity="1"></use></g><g><use xlink:href="#bIYzzlKgc" opacity="1" fill="#000000" fill-opacity="1"></use></g><g><use xlink:href="#f4ft8dPypS" opacity="1" fill="#000000" fill-opacity="1"></use></g><g><use xlink:href="#b1ntc1Oia1" opacity="1" fill="#000000" fill-opacity="1"></use></g><g><use xlink:href="#aqcmZ5vKh" opacity="1" fill="#000000" fill-opacity="1"></use></g><g><use xlink:href="#bSfBKvizF" opacity="1" fill="#000000" fill-opacity="1"></use></g><g><use xlink:href="#fw9LklO4N" opacity="1" fill="#000000" fill-opacity="1"></use></g><g><use xlink:href="#dgLcUmh2X" opacity="1" fill="#000000" fill-opacity="1"></use></g></g></g></svg>