<?xml version="1.0" standalone="no"?>
<!DOCTYPE svg PUBLIC "-//W3C//DTD SVG 20010904//EN"
 "http://www.w3.org/TR/2001/REC-SVG-20010904/DTD/svg10.dtd">
<svg version="1.0" xmlns="http://www.w3.org/2000/svg"
 width="383.000000pt" height="280.000000pt" viewBox="0 0 383.000000 280.000000"
 preserveAspectRatio="xMidYMid meet">
<metadata>
Created by potrace 1.16, written by Peter Selinger 2001-2019
</metadata>
<g transform="translate(0.000000,280.000000) scale(0.100000,-0.100000)"
fill="#000000" stroke="none">
<path d="M1322 2678 c-56 -24 -162 -97 -162 -112 0 -4 41 -51 90 -104 157
-165 254 -334 281 -486 7 -43 9 -115 6 -190 -6 -125 -19 -181 -71 -303 -14
-34 -26 -67 -26 -72 0 -15 1053 -931 1071 -931 21 0 107 50 149 88 54 47 93
115 115 197 19 75 19 146 -1 242 -13 65 -289 917 -346 1071 l-19 52 -98 0
c-215 0 -295 48 -529 315 -58 66 -123 137 -146 158 -97 89 -215 118 -314 75z
m943 -772 c40 -17 55 -42 55 -91 0 -51 -44 -95 -95 -95 -101 0 -133 146 -42
185 40 18 41 18 82 1z m128 -356 c55 -43 44 -135 -19 -165 -69 -32 -134 10
-134 87 0 81 91 127 153 78z m114 -352 c62 -58 22 -168 -62 -168 -41 0 -84 30
-96 67 -9 27 -7 40 8 70 31 65 99 79 150 31z"/>
<path d="M895 2278 c-92 -106 -172 -204 -178 -217 -10 -22 -7 -28 43 -74 99
-91 564 -487 572 -487 12 0 44 68 67 144 29 93 30 287 2 367 -27 79 -73 166
-123 234 -54 72 -173 202 -199 215 -16 9 -41 -16 -184 -182z"/>
<path d="M551 1880 c-34 -39 -68 -84 -76 -100 -14 -27 -13 -30 11 -59 45 -54
1080 -955 1727 -1504 l137 -117 640 0 639 0 15 22 c12 17 16 48 16 125 l0 103
-596 0 -595 0 -617 533 c-339 293 -747 645 -907 782 -159 136 -300 257 -311
267 -21 19 -22 19 -83 -52z"/>
<path d="M100 1250 l0 -100 210 0 210 0 0 100 0 100 -210 0 -210 0 0 -100z"/>
<path d="M2900 1056 c0 -1 -2 -75 -3 -166 l-2 -165 -38 -80 c-21 -43 -54 -98
-73 -122 l-35 -43 455 0 c251 0 456 2 456 5 0 3 -7 41 -16 83 -58 282 -270
434 -671 480 -40 5 -73 8 -73 8z"/>
<path d="M100 790 l0 -100 455 0 455 0 0 100 0 100 -455 0 -455 0 0 -100z"/>
<path d="M102 328 l3 -103 730 0 730 0 0 95 0 95 -30 6 c-16 4 -346 7 -733 8
l-703 1 3 -102z"/>
</g>
</svg>
