<?xml version="1.0" standalone="no"?>
<!DOCTYPE svg PUBLIC "-//W3C//DTD SVG 20010904//EN"
 "http://www.w3.org/TR/2001/REC-SVG-20010904/DTD/svg10.dtd">
<svg version="1.0" xmlns="http://www.w3.org/2000/svg"
 width="512.000000pt" height="512.000000pt" viewBox="0 0 512.000000 512.000000"
 preserveAspectRatio="xMidYMid meet">
<metadata>
Created by potrace 1.16, written by Peter Selinger 2001-2019
</metadata>
<g transform="translate(0.000000,512.000000) scale(0.100000,-0.100000)"
fill="#000000" stroke="none">
<path d="M2437 5108 c-28 -22 -37 -63 -27 -117 14 -77 35 -117 88 -174 60 -64
72 -85 72 -132 0 -46 -12 -69 -65 -125 -79 -82 -113 -185 -94 -284 5 -27 8
-51 6 -52 -1 -2 -43 -8 -92 -14 -50 -6 -98 -13 -107 -16 -27 -8 -51 49 -46
107 4 41 13 56 60 107 63 69 86 112 97 185 17 102 -11 189 -87 270 -57 60 -67
77 -76 132 -10 55 -40 85 -86 85 -54 0 -85 -36 -82 -97 3 -80 29 -139 89 -204
98 -105 100 -161 11 -258 -99 -107 -122 -201 -83 -343 6 -25 4 -27 -37 -38
-82 -22 -233 -82 -342 -136 -547 -272 -949 -770 -1105 -1370 -10 -39 -14 -42
-54 -48 -210 -33 -368 -188 -399 -394 -38 -255 138 -488 399 -528 l41 -6 22
-86 c80 -322 265 -650 510 -906 230 -241 460 -393 805 -531 158 -63 218 -78
400 -100 77 -9 162 -20 188 -26 63 -12 179 -12 264 1 38 6 138 19 223 30 178
23 206 31 379 101 330 134 562 287 781 515 251 260 439 592 521 917 19 79 24
88 48 92 108 21 197 70 268 149 126 139 155 340 74 513 -57 121 -192 229 -316
252 -25 5 -48 10 -50 13 -2 2 -20 58 -40 123 -130 429 -359 766 -720 1061
-194 159 -519 320 -770 381 -78 19 -105 30 -122 50 -48 59 -37 121 37 199 69
73 100 145 100 233 0 96 -22 150 -90 226 -54 59 -80 110 -80 156 0 27 -44 59
-81 59 -67 -1 -96 -49 -80 -136 13 -70 40 -120 91 -169 52 -50 70 -84 70 -130
0 -46 -12 -69 -65 -125 -24 -25 -53 -63 -64 -86 -26 -49 -45 -147 -37 -188 l6
-31 -86 3 c-84 3 -86 4 -105 35 -12 20 -19 50 -19 80 0 43 4 52 56 108 77 84
106 151 106 242 0 91 -24 149 -90 220 -57 60 -67 77 -76 132 -10 55 -40 85
-86 85 -20 0 -44 -6 -53 -12z m400 -1074 c214 -31 408 -91 590 -183 213 -106
344 -201 509 -365 304 -305 487 -664 555 -1096 18 -111 18 -438 0 -550 -66
-418 -251 -787 -541 -1080 -84 -85 -289 -254 -297 -246 -2 2 11 45 29 97 31
90 32 101 33 244 0 176 -13 233 -81 370 -116 236 -319 389 -582 441 -111 21
-163 19 -203 -11 -127 -92 -166 -108 -274 -108 -108 0 -147 16 -274 108 -41
30 -92 32 -206 10 -302 -58 -541 -272 -635 -570 -32 -100 -39 -294 -15 -401
10 -44 26 -101 37 -128 10 -27 17 -50 15 -52 -4 -4 -140 100 -217 166 -81 71
-206 212 -282 319 -372 522 -459 1182 -238 1788 61 166 160 345 274 498 76
102 267 293 371 372 260 196 553 320 880 373 145 24 407 26 552 4z m-2354
-1651 c-5 -16 -8 -144 -8 -286 l0 -258 -25 6 c-42 10 -124 70 -152 111 -100
144 -49 352 104 428 70 35 91 35 81 -1z m4270 -21 c74 -50 122 -144 122 -237
0 -66 -14 -109 -56 -171 -27 -39 -110 -104 -133 -104 -8 0 -11 79 -11 252 0
139 -3 265 -8 280 -7 27 -6 27 20 17 16 -5 45 -22 66 -37z m-2510 -881 c111
-76 205 -106 332 -106 127 0 226 32 330 107 l41 28 78 -15 c127 -24 233 -82
330 -178 94 -94 145 -182 176 -303 82 -319 -108 -666 -412 -752 -42 -12 -79
-22 -82 -22 -4 0 5 22 18 48 94 186 69 419 -64 592 -15 19 -32 58 -39 85 -28
113 -111 213 -219 263 -50 24 -69 27 -157 27 -87 0 -107 -3 -156 -26 -107 -51
-186 -142 -216 -250 -10 -37 -33 -85 -54 -114 -78 -106 -109 -201 -109 -332 0
-96 16 -166 56 -245 14 -27 21 -48 17 -48 -40 0 -170 50 -225 87 -191 126
-298 342 -285 572 9 158 63 282 173 400 117 124 237 184 417 210 5 0 27 -12
50 -28z m425 -417 c127 -63 161 -226 69 -330 -88 -101 -236 -101 -324 0 -93
105 -61 264 66 329 70 35 121 35 189 1z m-266 -539 c110 -50 229 -52 334 -5
58 25 127 81 151 120 9 17 20 30 24 30 15 0 31 -105 27 -165 -7 -79 -43 -159
-99 -220 -67 -73 -75 -75 -273 -75 l-175 0 -58 54 c-78 72 -115 146 -121 243
-3 43 1 91 8 118 l13 45 56 -59 c36 -39 76 -69 113 -86z"/>
<path d="M1695 2697 c-157 -53 -264 -185 -273 -340 -4 -60 -2 -71 19 -93 16
-17 33 -24 58 -24 60 1 81 28 95 120 10 64 51 119 115 152 66 35 119 36 188 4
60 -28 109 -89 118 -145 14 -81 18 -93 38 -111 30 -29 87 -26 116 4 21 22 23
32 19 93 -8 135 -96 262 -223 319 -71 33 -203 43 -270 21z"/>
<path d="M3235 2696 c-163 -52 -272 -192 -276 -354 -2 -68 25 -102 81 -102 50
0 76 30 89 105 15 81 52 133 120 168 70 35 121 35 189 1 66 -33 106 -89 121
-169 6 -32 11 -60 11 -61 0 -2 10 -12 22 -24 31 -29 88 -27 117 4 21 22 23 33
19 93 -9 155 -120 291 -274 338 -59 18 -164 18 -219 1z"/>
</g>
</svg>
