<?xml version="1.0" encoding="utf-8"?>
<!-- Svg Vector Icons : http://www.onlinewebfonts.com/icon -->
<!DOCTYPE svg PUBLIC "-//W3C//DTD SVG 1.1//EN" "http://www.w3.org/Graphics/SVG/1.1/DTD/svg11.dtd">
<svg version="1.1" xmlns="http://www.w3.org/2000/svg" xmlns:xlink="http://www.w3.org/1999/xlink" x="0px" y="0px" viewBox="0 0 256 256" enable-background="new 0 0 256 256" xml:space="preserve">
<metadata> Svg Vector Icons : http://www.onlinewebfonts.com/icon </metadata>
<g><g><g><path fill="#000000" d="M75,10.6c-17.5,3.3-29.8,15.9-37.1,38.1c-7.4,22.3-8.3,47.6-3.2,89.7c2.2,18.5,6.6,46.4,9.5,60.4c5.4,26.1,16.7,42.4,32.3,46.1c4.2,1,22.9,1.5,26.2,0.7c6.2-1.4,14.7-6.5,22.7-13.3c5.9-5,10.9-10.4,17.5-18.7c12.5-15.6,23.1-28.8,41.5-51.6c26.1-32.2,29.4-36.8,34.2-46.7c4.7-9.6,6-15.4,5.9-26.1c-0.1-31.8-15.6-51-53-65.9c-15.7-6.2-29.4-9.9-45.4-12.1c-6.1-0.8-9.9-1-27.4-1.2C82.8,9.9,77.7,10.1,75,10.6z M119,20.1c19.8,1.6,42,8,61.1,17.4c17.3,8.5,27.7,18.9,32.1,32c2.8,8.3,3.9,22,2.4,29.3c-1.3,6-4.1,12.6-8.2,19.4c-3.3,5.4-8.9,12.5-32.9,42.3c-31,38.3-29.7,36.7-36.3,45.2c-6.6,8.5-16.4,18.5-22.3,23c-2.3,1.7-6.3,4.2-8.9,5.4c-4.5,2.3-4.9,2.4-7.7,2.2c-2.4-0.1-3.4-0.5-5.4-1.7c-4.7-3-9.4-10.4-13.1-20.5c-5.5-14.8-12.5-53.9-16-89.5c-1.2-12.4-1.7-36.4-0.9-44.8c2.5-26.8,10.3-45.7,22.5-54.4C93.3,19.6,100.4,18.5,119,20.1z M74.4,22.2c-3.9,4.1-7.2,8.9-10.3,15c-13.5,27.3-14.7,67.2-3.9,132.5c5.8,34.8,10.4,51.1,18.1,63l2.2,3.3l-1.8-0.3c-6.9-1.2-14.1-8.2-18.9-18.2c-4.2-8.8-6-15.7-9.6-37.5c-6.3-37.4-9.5-66.5-9.5-86.5c0-30.6,8-56,21.1-66.8c4.1-3.4,10.4-6.4,13.9-6.6C76.2,20,75.6,21,74.4,22.2z"/><path fill="#000000" d="M89.3,60c-4.8,1.8-9.5,13.1-11.8,28.3c-1,6.5-1.4,32.6-0.7,41.1c1.3,15.5,5.8,38.8,9.9,51.2c2.4,7.1,4.2,9,8.3,9c4.9,0,9.8-4,15.8-13c7.1-10.6,9.2-16.1,10.4-26.5c0.6-5.9,0.5-7.7-2.1-20.7c-1.1-5.7-3-15.4-4.2-21.5c-2.5-13-3.4-16.7-5.6-23.3C105,72.2,98.6,61.9,94,60.1C92.8,59.6,90.4,59.6,89.3,60z M93.7,73.2c4.6,7.3,8.1,17.7,11,32.2c1.2,6,3.3,16.5,4.7,23.5c2.7,13.9,3,17.3,1.8,24c-1,5.6-2.1,8.6-5.3,13.7c-4.8,7.9-9.2,13.3-9.9,12.2c-0.9-1.6-4.7-16.8-6.3-25.3c-3.5-18.5-3.9-23.7-3.9-41.3c0-14.9,0.3-19.1,1.8-27.4c1.1-5.8,3.6-13.6,4.4-13.6C92.3,71.2,93,72.1,93.7,73.2z"/><path fill="#000000" d="M161.8,62.6c-5.5,1.3-11.6,5.5-15.4,10.5c-7.1,9.2-8.4,22.6-3.5,33c9,19,31.5,22.9,45.3,7.8c5.4-5.9,8.2-13.1,8.1-21.3c0-6-1-9.9-3.6-15.2c-3.8-7.3-10.5-12.8-17.9-14.8C171.4,61.9,165.2,61.8,161.8,62.6z M172.5,71.9c5.4,1.4,10.9,6.7,13.1,12.5c1.4,3.7,1.7,9.6,0.8,13.4c-1.7,6.4-5.6,11.5-10.8,14.1c-2.8,1.4-3.4,1.5-7.5,1.5c-3.8,0-4.8-0.2-7.1-1.2c-5.6-2.6-10.3-9.4-11.5-16.3c-1.1-6.6,1.4-14.4,6.2-19.1C160.7,71.9,166.2,70.3,172.5,71.9z"/></g></g></g>
</svg>