<?xml version="1.0" encoding="utf-8"?>
<svg version="1.1" id="Capa_1" x="0px" y="0px" width="405.897px" height="405.897px" viewBox="0 0 405.897 405.897" style="enable-background:new 0 0 405.897 405.897;" xmlns="http://www.w3.org/2000/svg">
  <g>
    <g>
      <path d="M202.948,118.395c-46.623,0-84.561,37.931-84.561,84.554c0,46.631,37.938,84.562,84.561,84.562 c46.624,0,84.561-37.931,84.561-84.562C287.509,156.325,249.571,118.395,202.948,118.395z M202.948,259.451 c-31.155,0-56.502-25.349-56.502-56.502c0-31.148,25.347-56.495,56.502-56.495c31.155,0,56.502,25.347,56.502,56.495 C259.45,234.102,234.103,259.451,202.948,259.451z"/>
      <path d="M202.948,98.59c7.749,0,14.03-6.282,14.03-14.029V14.03c0-7.748-6.281-14.029-14.03-14.029 c-7.748,0-14.029,6.281-14.029,14.029v70.531C188.918,92.308,195.199,98.59,202.948,98.59z"/>
      <path d="M286.659,133.274c3.59,0,7.187-1.37,9.926-4.11l49.871-49.878c5.474-5.479,5.474-14.365-0.008-19.838 c-5.479-5.48-14.357-5.48-19.838,0l-49.871,49.877c-5.48,5.48-5.48,14.365,0,19.839 C279.479,131.904,283.069,133.274,286.659,133.274z"/>
      <path d="M391.866,188.919l-70.531,0.007c-7.754,0-14.028,6.281-14.028,14.029s6.282,14.029,14.028,14.029l70.531-0.007 c7.748,0,14.031-6.28,14.031-14.029C405.897,195.2,399.614,188.919,391.866,188.919z"/>
      <path d="M296.571,276.748c-5.48-5.479-14.357-5.479-19.838,0c-5.481,5.479-5.48,14.365,0,19.839l49.877,49.87 c2.74,2.74,6.33,4.109,9.92,4.109s7.186-1.369,9.926-4.109c5.474-5.479,5.474-14.365-0.008-19.838L296.571,276.748z"/>
      <path d="M202.934,307.306c-7.748,0-14.022,6.282-14.022,14.028l0.007,70.531c0,7.748,6.281,14.031,14.036,14.031 c7.748,0,14.023-6.283,14.023-14.031l-0.008-70.531C216.97,313.589,210.688,307.306,202.934,307.306z"/>
      <path d="M109.303,276.74L59.44,326.619c-5.474,5.479-5.474,14.365,0.007,19.838c2.74,2.74,6.329,4.109,9.919,4.109 s7.18-1.369,9.919-4.109l49.864-49.877c5.48-5.479,5.48-14.364,0-19.84C123.668,271.26,114.783,271.26,109.303,276.74z"/>
      <path d="M98.589,202.949c0-7.748-6.282-14.029-14.029-14.029H14.029C6.281,188.92,0,195.201,0,202.949 c0,7.749,6.281,14.03,14.029,14.03H84.56C92.307,216.977,98.589,210.697,98.589,202.949z"/>
      <path d="M109.317,129.15c2.74,2.74,6.33,4.11,9.92,4.11c3.589,0,7.179-1.37,9.919-4.11c5.48-5.48,5.48-14.365,0-19.839 L79.285,59.448c-5.479-5.48-14.365-5.48-19.845,0c-5.474,5.479-5.474,14.365,0.007,19.838L109.317,129.15z"/>
    </g>
  </g>
  <g/>
  <g/>
  <g/>
  <g/>
  <g/>
  <g/>
  <g/>
  <g/>
  <g/>
  <g/>
  <g/>
  <g/>
  <g/>
  <g/>
  <g/>
  <line style="stroke: rgb(0, 0, 0);" x1="203.4150487064902" y1="278.5293212792997" x2="204.3481452601897" y2="131.56661407162898"/>
  <path stroke-width="0" d="M 221.703 131.115 C 224.269 130.586 226.368 130.475 228.701 131.115 C 231.267 131.818 234.436 133.612 236.399 135.547 C 238.267 137.388 238.664 140.581 240.365 142.312 C 241.971 143.946 244.742 144.596 246.197 145.811 C 247.37 146.79 247.925 148.033 248.763 148.844 C 249.476 149.533 250.031 149.487 250.862 150.476 C 252.323 152.214 254.839 155.744 256.461 159.807 C 258.595 165.155 259.394 174.979 261.593 180.802 C 263.429 185.665 266.876 187.97 268.124 192.932 C 269.628 198.909 269.559 208.759 268.591 214.86 C 267.795 219.875 266.166 223.049 263.925 227.457 C 261.339 232.544 254.832 241.713 253.428 243.553 C 252.999 244.115 253.151 243.686 252.728 244.253 C 251.342 246.111 244.733 255.554 242.464 260.582 C 240.581 264.756 240.698 268.965 239.198 272.246 C 237.882 275.124 236.436 277.65 234.3 279.477 C 232.16 281.306 229.16 282.509 226.368 283.209 C 223.563 283.914 220.319 284.316 217.504 283.676 C 214.637 283.024 211.341 281.241 209.339 279.244 C 207.461 277.369 206.267 274.971 205.607 272.246 C 204.936 269.475 205.349 266.982 205.55 262.92 C 205.047 262.004 204.71 261.039 204.407 259.982 C 203.812 257.905 204.008 256.452 203.941 252.984 C 203.822 246.87 202.805 230.866 204.407 224.058 C 204.436 223.933 204.466 223.81 204.496 223.687 C 204.446 223.11 204.429 222.538 204.452 221.983 C 203.933 219.919 203.731 217.801 203.987 216.06 C 204.135 215.059 204.483 214.025 204.964 213.004 C 204.941 212.375 204.955 211.767 205.007 211.194 C 205.041 210.828 205.095 210.456 205.167 210.081 C 204.692 208.289 204.36 206.52 204.207 204.996 C 203.985 202.786 204.244 200.539 204.695 198.407 C 204.596 197.993 204.5 197.568 204.407 197.131 C 203.315 192.01 203.749 184.491 203.941 177.536 C 204.15 169.953 205.86 158.949 205.807 153.276 C 205.773 149.642 204.336 148.15 204.874 145.344 C 205.503 142.066 207.986 137.152 210.239 134.847 C 212.099 132.944 214.366 132.069 216.771 131.581 C 217.974 131.337 219.357 131.26 220.746 131.326 C 221.078 131.248 221.399 131.178 221.703 131.115 Z" style="stroke-width: 2px; stroke: rgb(0, 0, 0);"/>
</svg>