<?xml version="1.0" encoding="utf-8"?>
<svg version="1.1" id="Capa_1" x="0px" y="0px" width="405.897px" height="405.897px" viewBox="0 0 405.897 405.897" style="enable-background:new 0 0 405.897 405.897;" xmlns="http://www.w3.org/2000/svg">
  <g>
    <g>
      <path d="M202.948,118.395c-46.623,0-84.561,37.931-84.561,84.554c0,46.631,37.938,84.562,84.561,84.562 c46.624,0,84.561-37.931,84.561-84.562C287.509,156.325,249.571,118.395,202.948,118.395z M202.948,259.451 c-31.155,0-56.502-25.349-56.502-56.502c0-31.148,25.347-56.495,56.502-56.495c31.155,0,56.502,25.347,56.502,56.495 C259.45,234.102,234.103,259.451,202.948,259.451z"/>
      <path d="M202.948,98.59c7.749,0,14.03-6.282,14.03-14.029V14.03c0-7.748-6.281-14.029-14.03-14.029 c-7.748,0-14.029,6.281-14.029,14.029v70.531C188.918,92.308,195.199,98.59,202.948,98.59z"/>
      <path d="M286.659,133.274c3.59,0,7.187-1.37,9.926-4.11l49.871-49.878c5.474-5.479,5.474-14.365-0.008-19.838 c-5.479-5.48-14.357-5.48-19.838,0l-49.871,49.877c-5.48,5.48-5.48,14.365,0,19.839 C279.479,131.904,283.069,133.274,286.659,133.274z"/>
      <path d="M391.866,188.919l-70.531,0.007c-7.754,0-14.028,6.281-14.028,14.029s6.282,14.029,14.028,14.029l70.531-0.007 c7.748,0,14.031-6.28,14.031-14.029C405.897,195.2,399.614,188.919,391.866,188.919z"/>
      <path d="M296.571,276.748c-5.48-5.479-14.357-5.479-19.838,0c-5.481,5.479-5.48,14.365,0,19.839l49.877,49.87 c2.74,2.74,6.33,4.109,9.92,4.109s7.186-1.369,9.926-4.109c5.474-5.479,5.474-14.365-0.008-19.838L296.571,276.748z"/>
      <path d="M202.934,307.306c-7.748,0-14.022,6.282-14.022,14.028l0.007,70.531c0,7.748,6.281,14.031,14.036,14.031 c7.748,0,14.023-6.283,14.023-14.031l-0.008-70.531C216.97,313.589,210.688,307.306,202.934,307.306z"/>
      <path d="M109.303,276.74L59.44,326.619c-5.474,5.479-5.474,14.365,0.007,19.838c2.74,2.74,6.329,4.109,9.919,4.109 s7.18-1.369,9.919-4.109l49.864-49.877c5.48-5.479,5.48-14.364,0-19.84C123.668,271.26,114.783,271.26,109.303,276.74z"/>
      <path d="M98.589,202.949c0-7.748-6.282-14.029-14.029-14.029H14.029C6.281,188.92,0,195.201,0,202.949 c0,7.749,6.281,14.03,14.029,14.03H84.56C92.307,216.977,98.589,210.697,98.589,202.949z"/>
      <path d="M109.317,129.15c2.74,2.74,6.33,4.11,9.92,4.11c3.589,0,7.179-1.37,9.919-4.11c5.48-5.48,5.48-14.365,0-19.839 L79.285,59.448c-5.479-5.48-14.365-5.48-19.845,0c-5.474,5.479-5.474,14.365,0.007,19.838L109.317,129.15z"/>
    </g>
  </g>
  <g/>
  <g/>
  <g/>
  <g/>
  <g/>
  <g/>
  <g/>
  <g/>
  <g/>
  <g/>
  <g/>
  <g/>
  <g/>
  <g/>
  <g/>
  <line style="stroke: rgb(0, 0, 0);" x1="203.4150487064902" y1="278.5293212792997" x2="204.3481452601897" y2="131.56661407162898"/>
  <path stroke-width="0" d="M 198.309 276.078 C 195.638 278.459 191.103 279.993 187.578 279.81 C 184.026 279.626 179.762 277.431 177.081 274.912 C 174.691 272.666 173.055 269.325 171.897 265.929 C 171.529 265.79 171.178 265.641 170.849 265.481 C 168.233 264.208 165.994 262.213 164.551 260.115 C 163.189 258.136 163.644 255.471 162.218 253.35 C 160.582 250.919 156.573 248.641 154.753 246.585 C 153.338 244.987 152.931 243.528 151.721 242.153 C 150.46 240.721 148.706 240.209 147.288 238.187 C 145.304 235.359 142.893 230.786 141.69 225.591 C 140.18 219.073 139.521 209.885 140.29 201.33 C 141.134 191.941 145.934 179.441 147.288 171.471 C 148.293 165.559 147.799 160.818 148.688 157.008 C 149.371 154.078 150.056 152.313 151.487 150.01 C 153.106 147.406 155.87 144.174 158.252 142.312 C 160.332 140.686 162.339 139.611 164.784 139.046 C 167.118 138.506 170.193 139.455 172.691 139.211 C 173.781 136.6 175.274 134.523 176.781 132.981 C 178.641 131.078 180.908 130.203 183.313 129.715 C 185.857 129.198 189.209 129.43 191.71 130.182 C 194.077 130.892 196.36 132.105 198.009 133.914 C 199.298 135.329 200.233 136.746 200.987 138.922 C 203.195 137.265 205.689 136.217 208.639 135.78 C 212.483 135.211 217.147 135.437 222.169 137.18 C 228.63 139.422 238.307 146.09 244.097 150.243 C 248.721 153.56 251.915 155.861 255.061 159.807 C 258.451 164.059 261.589 169.341 263.459 175.203 C 265.51 181.634 265.044 191.307 266.258 197.131 C 267.184 201.571 268.963 204.033 269.524 207.862 C 270.12 211.932 270.683 217.146 269.524 220.925 C 268.439 224.462 265.58 228.136 263.226 230.023 C 261.297 231.569 258.24 230.661 256.927 232.356 C 255.408 234.316 256.735 239.224 255.528 241.92 C 254.393 244.454 251.794 246.679 250.162 248.218 C 248.902 249.408 247.829 249.72 246.663 250.784 C 245.341 251.992 244.654 254.12 242.697 255.217 C 240.218 256.606 234.877 255.806 232.2 257.549 C 229.686 259.186 229.223 262.959 226.835 265.014 C 224.264 267.227 220.05 269.369 217.037 270.146 C 214.529 270.793 212.459 270.94 210.039 270.146 C 208.087 269.505 205.506 267.867 203.449 266.2 C 202.708 269.216 200.739 273.91 198.309 276.078 Z" style="stroke-width: 2px; fill: rgb(6, 9, 0); stroke: rgb(0, 0, 0);"/>
</svg>