<?xml version="1.0" encoding="iso-8859-1"?>
<!-- Generator: Adobe Illustrator 16.0.0, SVG Export Plug-In . SVG Version: 6.00 Build 0)  -->
<!DOCTYPE svg PUBLIC "-//W3C//DTD SVG 1.1//EN" "http://www.w3.org/Graphics/SVG/1.1/DTD/svg11.dtd">
<svg version="1.1" id="Capa_1" xmlns="http://www.w3.org/2000/svg" xmlns:xlink="http://www.w3.org/1999/xlink" x="0px" y="0px"
	 width="405.897px" height="405.897px" viewBox="0 0 405.897 405.897" style="enable-background:new 0 0 405.897 405.897;"
	 xml:space="preserve">
<g>
	<g>
		<path d="M202.948,118.395c-46.623,0-84.561,37.931-84.561,84.554c0,46.631,37.938,84.562,84.561,84.562
			c46.624,0,84.561-37.931,84.561-84.562C287.509,156.325,249.571,118.395,202.948,118.395z M202.948,259.451
			c-31.155,0-56.502-25.349-56.502-56.502c0-31.148,25.347-56.495,56.502-56.495c31.155,0,56.502,25.347,56.502,56.495
			C259.45,234.102,234.103,259.451,202.948,259.451z"/>
		<path d="M202.948,98.59c7.749,0,14.03-6.282,14.03-14.029V14.03c0-7.748-6.281-14.029-14.03-14.029
			c-7.748,0-14.029,6.281-14.029,14.029v70.531C188.918,92.308,195.199,98.59,202.948,98.59z"/>
		<path d="M286.659,133.274c3.59,0,7.187-1.37,9.926-4.11l49.871-49.878c5.474-5.479,5.474-14.365-0.008-19.838
			c-5.479-5.48-14.357-5.48-19.838,0l-49.871,49.877c-5.48,5.48-5.48,14.365,0,19.839
			C279.479,131.904,283.069,133.274,286.659,133.274z"/>
		<path d="M391.866,188.919l-70.531,0.007c-7.754,0-14.028,6.281-14.028,14.029s6.282,14.029,14.028,14.029l70.531-0.007
			c7.748,0,14.031-6.28,14.031-14.029C405.897,195.2,399.614,188.919,391.866,188.919z"/>
		<path d="M296.571,276.748c-5.48-5.479-14.357-5.479-19.838,0c-5.481,5.479-5.48,14.365,0,19.839l49.877,49.87
			c2.74,2.74,6.33,4.109,9.92,4.109s7.186-1.369,9.926-4.109c5.474-5.479,5.474-14.365-0.008-19.838L296.571,276.748z"/>
		<path d="M202.934,307.306c-7.748,0-14.022,6.282-14.022,14.028l0.007,70.531c0,7.748,6.281,14.031,14.036,14.031
			c7.748,0,14.023-6.283,14.023-14.031l-0.008-70.531C216.97,313.589,210.688,307.306,202.934,307.306z"/>
		<path d="M109.303,276.74L59.44,326.619c-5.474,5.479-5.474,14.365,0.007,19.838c2.74,2.74,6.329,4.109,9.919,4.109
			s7.18-1.369,9.919-4.109l49.864-49.877c5.48-5.479,5.48-14.364,0-19.84C123.668,271.26,114.783,271.26,109.303,276.74z"/>
		<path d="M98.589,202.949c0-7.748-6.282-14.029-14.029-14.029H14.029C6.281,188.92,0,195.201,0,202.949
			c0,7.749,6.281,14.03,14.029,14.03H84.56C92.307,216.977,98.589,210.697,98.589,202.949z"/>
		<path d="M109.317,129.15c2.74,2.74,6.33,4.11,9.92,4.11c3.589,0,7.179-1.37,9.919-4.11c5.48-5.48,5.48-14.365,0-19.839
			L79.285,59.448c-5.479-5.48-14.365-5.48-19.845,0c-5.474,5.479-5.474,14.365,0.007,19.838L109.317,129.15z"/>
	</g>
</g>
<g>
</g>
<g>
</g>
<g>
</g>
<g>
</g>
<g>
</g>
<g>
</g>
<g>
</g>
<g>
</g>
<g>
</g>
<g>
</g>
<g>
</g>
<g>
</g>
<g>
</g>
<g>
</g>
<g>
</g>
</svg>
