<?xml version="1.0" encoding="UTF-8"?>
<svg width="1090" height="615" xmlns="http://www.w3.org/2000/svg" font-family="Arial,sans-serif">
<rect width="1090" height="615" fill="white"/>
<rect x="15" y="15" width="1060" height="580" rx="16" fill="#f8f8f8" stroke="#ccc" stroke-width="1.5"/>
<text x="545" y="41" text-anchor="middle" font-size="16" fill="#333" font-weight="bold"></text>
<rect x="25" y="30" width="500" height="550" rx="12" fill="#fff" stroke="#aaa" stroke-width="1.5"/>
<text x="275" y="56" text-anchor="middle" font-size="16" fill="#333" font-weight="bold">Climbing Spot 1</text>
<text x="275" y="74" text-anchor="middle" font-size="11" fill="#666">tab = "articles"</text><rect x="45" y="75" width="460" height="50" rx="8" fill="#fff9c4" stroke="#d6b656" stroke-width="1.5"/>
<text x="275" y="105" text-anchor="middle" font-size="13" fill="#555" font-weight="bold">Region 1  (tab = "regions")</text>
<rect x="45" y="140" width="140" height="35" rx="8" fill="#ffe6cc" stroke="#d79b00" stroke-width="1.5"/>
<text x="115" y="150.5" text-anchor="middle" font-size="11" fill="#333" font-weight="bold">Rock img 1</text>
<text x="115" y="166.5" text-anchor="middle" font-size="9" fill="#666">spot_rocks_images</text><rect x="200" y="140" width="140" height="35" rx="8" fill="#ffe6cc" stroke="#d79b00" stroke-width="1.5"/>
<text x="270" y="150.5" text-anchor="middle" font-size="11" fill="#333" font-weight="bold">Rock img 2</text>
<text x="270" y="166.5" text-anchor="middle" font-size="9" fill="#666">spot_rocks_images</text><rect x="355" y="140" width="140" height="35" rx="8" fill="#ffe6cc" stroke="#d79b00" stroke-width="1.5"/>
<text x="425" y="150.5" text-anchor="middle" font-size="11" fill="#333" font-weight="bold">Rock img 3</text>
<text x="425" y="166.5" text-anchor="middle" font-size="9" fill="#666">spot_rocks_images</text><rect x="45" y="185" width="200" height="45" rx="8" fill="#dae8fc" stroke="#6c8ebf" stroke-width="1.5"/>
<text x="145" y="213" text-anchor="middle" font-size="11" fill="#555" font-weight="bold">Spot local image</text>
<rect x="45" y="240" width="460" height="320" rx="10" fill="#f0f8ff" stroke="#6c8ebf" stroke-width="1.5"/>
<text x="275" y="266" text-anchor="middle" font-size="16" fill="#333" font-weight="bold">Sector 1</text>
<text x="275" y="284" text-anchor="middle" font-size="11" fill="#666">tab = "sectors"</text><rect x="60" y="285" width="130" height="35" rx="8" fill="#ffe6cc" stroke="#d79b00" stroke-width="1.5"/>
<text x="125" y="295.5" text-anchor="middle" font-size="11" fill="#333" font-weight="bold">Sector img 1</text>
<text x="125" y="311.5" text-anchor="middle" font-size="9" fill="#666">sector_images</text><rect x="205" y="285" width="130" height="35" rx="8" fill="#ffe6cc" stroke="#d79b00" stroke-width="1.5"/>
<text x="270" y="295.5" text-anchor="middle" font-size="11" fill="#333" font-weight="bold">Sector img 2</text>
<text x="270" y="311.5" text-anchor="middle" font-size="9" fill="#666">sector_images</text><rect x="350" y="285" width="130" height="35" rx="8" fill="#ffe6cc" stroke="#d79b00" stroke-width="1.5"/>
<text x="415" y="295.5" text-anchor="middle" font-size="11" fill="#333" font-weight="bold">Sector img 3</text>
<text x="415" y="311.5" text-anchor="middle" font-size="9" fill="#666">sector_images</text><rect x="60" y="330" width="130" height="44" rx="8" fill="#d5e8d4" stroke="#82b366" stroke-width="1.5"/>
<text x="125" y="345" text-anchor="middle" font-size="11" fill="#333" font-weight="bold">Route 1</text>
<text x="125" y="361" text-anchor="middle" font-size="9" fill="#666">tab = routes</text><rect x="60" y="382" width="130" height="44" rx="8" fill="#d5e8d4" stroke="#82b366" stroke-width="1.5"/>
<text x="125" y="397" text-anchor="middle" font-size="11" fill="#333" font-weight="bold">Route 2</text>
<text x="125" y="413" text-anchor="middle" font-size="9" fill="#666">tab = routes</text><rect x="60" y="434" width="130" height="44" rx="8" fill="#d5e8d4" stroke="#82b366" stroke-width="1.5"/>
<text x="125" y="449" text-anchor="middle" font-size="11" fill="#333" font-weight="bold">Route 3</text>
<text x="125" y="465" text-anchor="middle" font-size="9" fill="#666">tab = routes</text><rect x="60" y="486" width="130" height="44" rx="8" fill="#d5e8d4" stroke="#82b366" stroke-width="1.5"/>
<text x="125" y="501" text-anchor="middle" font-size="11" fill="#333" font-weight="bold">Route 4</text>
<text x="125" y="517" text-anchor="middle" font-size="9" fill="#666">tab = routes</text><rect x="220" y="325" width="270" height="220" rx="8" fill="#e8eaf6" stroke="#5c6bc0" stroke-width="1.5"/>
<text x="355" y="351" text-anchor="middle" font-size="16" fill="#333" font-weight="bold">Multi-pitch 1</text>
<text x="355" y="369" text-anchor="middle" font-size="11" fill="#666">tab = "mtps"</text><rect x="235" y="370" width="230" height="44" rx="8" fill="#c5cae9" stroke="#5c6bc0" stroke-width="1.5"/>
<text x="350" y="385" text-anchor="middle" font-size="11" fill="#333" font-weight="bold">Pitch 1</text>
<text x="350" y="401" text-anchor="middle" font-size="9" fill="#666">tab = mtp_pitchs</text><rect x="235" y="420" width="230" height="44" rx="8" fill="#c5cae9" stroke="#5c6bc0" stroke-width="1.5"/>
<text x="350" y="435" text-anchor="middle" font-size="11" fill="#333" font-weight="bold">Pitch 2</text>
<text x="350" y="451" text-anchor="middle" font-size="9" fill="#666">tab = mtp_pitchs</text><rect x="235" y="470" width="230" height="44" rx="8" fill="#c5cae9" stroke="#5c6bc0" stroke-width="1.5"/>
<text x="350" y="485" text-anchor="middle" font-size="11" fill="#333" font-weight="bold">Pitch 3</text>
<text x="350" y="501" text-anchor="middle" font-size="9" fill="#666">tab = mtp_pitchs</text><rect x="545" y="30" width="520" height="550" rx="12" fill="#fff" stroke="#aaa" stroke-width="1.5"/>
<text x="805" y="56" text-anchor="middle" font-size="16" fill="#333" font-weight="bold">Climbing Spot 2</text>
<rect x="565" y="75" width="480" height="50" rx="8" fill="#fff9c4" stroke="#d6b656" stroke-width="1.5"/>
<text x="805" y="105" text-anchor="middle" font-size="13" fill="#555" font-weight="bold">Region 1  (tab = "regions")</text>
<rect x="565" y="140" width="480" height="420" rx="10" fill="#f0f8ff" stroke="#6c8ebf" stroke-width="1.5"/>
<text x="805" y="166" text-anchor="middle" font-size="16" fill="#333" font-weight="bold">Sector 2</text>
<text x="805" y="184" text-anchor="middle" font-size="11" fill="#666">tab = "sectors"</text><rect x="580" y="185" width="140" height="35" rx="8" fill="#ffe6cc" stroke="#d79b00" stroke-width="1.5"/>
<text x="650" y="195.5" text-anchor="middle" font-size="11" fill="#333" font-weight="bold">Sector img 3</text>
<text x="650" y="211.5" text-anchor="middle" font-size="9" fill="#666">sector_images</text><rect x="735" y="185" width="140" height="35" rx="8" fill="#ffe6cc" stroke="#d79b00" stroke-width="1.5"/>
<text x="805" y="195.5" text-anchor="middle" font-size="11" fill="#333" font-weight="bold">Sector img 4</text>
<text x="805" y="211.5" text-anchor="middle" font-size="9" fill="#666">sector_images</text><rect x="890" y="185" width="140" height="35" rx="8" fill="#ffe6cc" stroke="#d79b00" stroke-width="1.5"/>
<text x="960" y="195.5" text-anchor="middle" font-size="11" fill="#333" font-weight="bold">Sector img 5</text>
<text x="960" y="211.5" text-anchor="middle" font-size="9" fill="#666">sector_images</text><rect x="580" y="230" width="130" height="44" rx="8" fill="#d5e8d4" stroke="#82b366" stroke-width="1.5"/>
<text x="645" y="245" text-anchor="middle" font-size="11" fill="#333" font-weight="bold">Route 4</text>
<text x="645" y="261" text-anchor="middle" font-size="9" fill="#666">tab = routes</text><rect x="580" y="280" width="130" height="44" rx="8" fill="#d5e8d4" stroke="#82b366" stroke-width="1.5"/>
<text x="645" y="295" text-anchor="middle" font-size="11" fill="#333" font-weight="bold">Route 5</text>
<text x="645" y="311" text-anchor="middle" font-size="9" fill="#666">tab = routes</text><rect x="580" y="330" width="130" height="44" rx="8" fill="#d5e8d4" stroke="#82b366" stroke-width="1.5"/>
<text x="645" y="345" text-anchor="middle" font-size="11" fill="#333" font-weight="bold">Route 6</text>
<text x="645" y="361" text-anchor="middle" font-size="9" fill="#666">tab = routes</text><rect x="580" y="380" width="130" height="44" rx="8" fill="#d5e8d4" stroke="#82b366" stroke-width="1.5"/>
<text x="645" y="395" text-anchor="middle" font-size="11" fill="#333" font-weight="bold">Route 7</text>
<text x="645" y="411" text-anchor="middle" font-size="9" fill="#666">tab = routes</text><rect x="580" y="430" width="130" height="44" rx="8" fill="#d5e8d4" stroke="#82b366" stroke-width="1.5"/>
<text x="645" y="445" text-anchor="middle" font-size="11" fill="#333" font-weight="bold">Route 8</text>
<text x="645" y="461" text-anchor="middle" font-size="9" fill="#666">tab = routes</text><rect x="740" y="230" width="290" height="210" rx="8" fill="#e8eaf6" stroke="#5c6bc0" stroke-width="1.5"/>
<text x="885" y="256" text-anchor="middle" font-size="16" fill="#333" font-weight="bold">Multi-pitch 2</text>
<text x="885" y="274" text-anchor="middle" font-size="11" fill="#666">tab = "mtps"</text><rect x="755" y="275" width="260" height="36" rx="8" fill="#c5cae9" stroke="#5c6bc0" stroke-width="1.5"/>
<text x="885" y="286" text-anchor="middle" font-size="11" fill="#333" font-weight="bold">Pitch 4</text>
<text x="885" y="302" text-anchor="middle" font-size="9" fill="#666">tab = mtp_pitchs</text><rect x="755" y="315" width="260" height="36" rx="8" fill="#c5cae9" stroke="#5c6bc0" stroke-width="1.5"/>
<text x="885" y="326" text-anchor="middle" font-size="11" fill="#333" font-weight="bold">Pitch 5</text>
<text x="885" y="342" text-anchor="middle" font-size="9" fill="#666">tab = mtp_pitchs</text><rect x="755" y="355" width="260" height="36" rx="8" fill="#c5cae9" stroke="#5c6bc0" stroke-width="1.5"/>
<text x="885" y="366" text-anchor="middle" font-size="11" fill="#333" font-weight="bold">Pitch 6</text>
<text x="885" y="382" text-anchor="middle" font-size="9" fill="#666">tab = mtp_pitchs</text><rect x="755" y="395" width="260" height="36" rx="8" fill="#c5cae9" stroke="#5c6bc0" stroke-width="1.5"/>
<text x="885" y="406" text-anchor="middle" font-size="11" fill="#333" font-weight="bold">Pitch 7</text>
<text x="885" y="422" text-anchor="middle" font-size="9" fill="#666">tab = mtp_pitchs</text></svg>