<?xml version="1.0" encoding="UTF-8"?>
<svg width="720" height="260" xmlns="http://www.w3.org/2000/svg" font-family="Arial,sans-serif">
<rect width="720" height="260" fill="white"/>
<rect x="20" y="20" width="680" height="220" rx="14" fill="#f5f5f5" stroke="#999" stroke-width="1.5"/>
<text x="360" y="46" text-anchor="middle" font-size="16" fill="#333" font-weight="bold">Article 1  (tab = articles, id = 1)</text>
<rect x="60" y="65" width="600" height="118" rx="6" fill="#dae8fc" stroke="#6c8ebf" stroke-width="1.5"/>
<text x="360" y="86" text-anchor="middle" font-size="12" fill="#222" font-weight="bold">article_comments</text>
<line x1="60" y1="95" x2="660" y2="95" stroke="#bbb" stroke-width="0.8"/>
<text x="120" y="109.3" text-anchor="middle" font-size="10" fill="#444">id</text>
<line x1="180" y1="95" x2="180" y2="117" stroke="#ccc" stroke-width="0.8"/>
<text x="240" y="109.3" text-anchor="middle" font-size="10" fill="#444">text</text>
<line x1="300" y1="95" x2="300" y2="117" stroke="#ccc" stroke-width="0.8"/>
<text x="360" y="109.3" text-anchor="middle" font-size="10" fill="#444">email</text>
<line x1="420" y1="95" x2="420" y2="117" stroke="#ccc" stroke-width="0.8"/>
<text x="480" y="109.3" text-anchor="middle" font-size="10" fill="#444">name</text>
<line x1="540" y1="95" x2="540" y2="117" stroke="#ccc" stroke-width="0.8"/>
<text x="600" y="109.3" text-anchor="middle" font-size="10" fill="#444">article_id</text>
<line x1="60" y1="117" x2="660" y2="117" stroke="#bbb" stroke-width="0.8"/>
<text x="120" y="131.3" text-anchor="middle" font-size="10" fill="#444">1</text>
<line x1="180" y1="117" x2="180" y2="139" stroke="#ccc" stroke-width="0.8"/>
<text x="240" y="131.3" text-anchor="middle" font-size="10" fill="#444">text 1</text>
<line x1="300" y1="117" x2="300" y2="139" stroke="#ccc" stroke-width="0.8"/>
<text x="360" y="131.3" text-anchor="middle" font-size="10" fill="#444">user1@m.com</text>
<line x1="420" y1="117" x2="420" y2="139" stroke="#ccc" stroke-width="0.8"/>
<text x="480" y="131.3" text-anchor="middle" font-size="10" fill="#444">Name 1</text>
<line x1="540" y1="117" x2="540" y2="139" stroke="#ccc" stroke-width="0.8"/>
<text x="600" y="131.3" text-anchor="middle" font-size="10" fill="#444">1</text>
<line x1="60" y1="139" x2="660" y2="139" stroke="#bbb" stroke-width="0.8"/>
<text x="120" y="153.3" text-anchor="middle" font-size="10" fill="#444">2</text>
<line x1="180" y1="139" x2="180" y2="161" stroke="#ccc" stroke-width="0.8"/>
<text x="240" y="153.3" text-anchor="middle" font-size="10" fill="#444">text 2</text>
<line x1="300" y1="139" x2="300" y2="161" stroke="#ccc" stroke-width="0.8"/>
<text x="360" y="153.3" text-anchor="middle" font-size="10" fill="#444">user2@m.com</text>
<line x1="420" y1="139" x2="420" y2="161" stroke="#ccc" stroke-width="0.8"/>
<text x="480" y="153.3" text-anchor="middle" font-size="10" fill="#444">Name 2</text>
<line x1="540" y1="139" x2="540" y2="161" stroke="#ccc" stroke-width="0.8"/>
<text x="600" y="153.3" text-anchor="middle" font-size="10" fill="#444">1</text>
<line x1="60" y1="161" x2="660" y2="161" stroke="#bbb" stroke-width="0.8"/>
<text x="120" y="175.3" text-anchor="middle" font-size="10" fill="#444">3</text>
<line x1="180" y1="161" x2="180" y2="183" stroke="#ccc" stroke-width="0.8"/>
<text x="240" y="175.3" text-anchor="middle" font-size="10" fill="#444">text 3</text>
<line x1="300" y1="161" x2="300" y2="183" stroke="#ccc" stroke-width="0.8"/>
<text x="360" y="175.3" text-anchor="middle" font-size="10" fill="#444">user3@m.com</text>
<line x1="420" y1="161" x2="420" y2="183" stroke="#ccc" stroke-width="0.8"/>
<text x="480" y="175.3" text-anchor="middle" font-size="10" fill="#444">Name 3</text>
<line x1="540" y1="161" x2="540" y2="183" stroke="#ccc" stroke-width="0.8"/>
<text x="600" y="175.3" text-anchor="middle" font-size="10" fill="#444">1</text>
</svg>