<?xml version='1.0' encoding='UTF-8'?>
<svg xmlns="http://www.w3.org/2000/svg" width="760" height="300" font-family="Arial,sans-serif">
<rect width="760" height="300" fill="white" />
<rect x="20" y="30" width="380" height="118" rx="6" fill="#dae8fc" stroke="#6c8ebf" stroke-width="1.5" />
<line x1="20" y1="60" x2="400" y2="60" stroke="#bbb" stroke-width="0.8" />
<line x1="96" y1="60" x2="96" y2="82" stroke="#ccc" stroke-width="0.8" />
<line x1="172" y1="60" x2="172" y2="82" stroke="#ccc" stroke-width="0.8" />
<line x1="248" y1="60" x2="248" y2="82" stroke="#ccc" stroke-width="0.8" />
<line x1="324" y1="60" x2="324" y2="82" stroke="#ccc" stroke-width="0.8" />
<line x1="20" y1="82" x2="400" y2="82" stroke="#bbb" stroke-width="0.8" />
<line x1="96" y1="82" x2="96" y2="104" stroke="#ccc" stroke-width="0.8" />
<line x1="172" y1="82" x2="172" y2="104" stroke="#ccc" stroke-width="0.8" />
<line x1="248" y1="82" x2="248" y2="104" stroke="#ccc" stroke-width="0.8" />
<line x1="324" y1="82" x2="324" y2="104" stroke="#ccc" stroke-width="0.8" />
<line x1="20" y1="104" x2="400" y2="104" stroke="#bbb" stroke-width="0.8" />
<line x1="96" y1="104" x2="96" y2="126" stroke="#ccc" stroke-width="0.8" />
<line x1="172" y1="104" x2="172" y2="126" stroke="#ccc" stroke-width="0.8" />
<line x1="248" y1="104" x2="248" y2="126" stroke="#ccc" stroke-width="0.8" />
<line x1="324" y1="104" x2="324" y2="126" stroke="#ccc" stroke-width="0.8" />
<line x1="20" y1="126" x2="400" y2="126" stroke="#bbb" stroke-width="0.8" />
<line x1="96" y1="126" x2="96" y2="148" stroke="#ccc" stroke-width="0.8" />
<line x1="172" y1="126" x2="172" y2="148" stroke="#ccc" stroke-width="0.8" />
<line x1="248" y1="126" x2="248" y2="148" stroke="#ccc" stroke-width="0.8" />
<line x1="324" y1="126" x2="324" y2="148" stroke="#ccc" stroke-width="0.8" />
<rect x="480" y="30" width="250" height="74" rx="6" fill="#f8cecc" stroke="#b85450" stroke-width="1.5" />
<line x1="480" y1="60" x2="730" y2="60" stroke="#bbb" stroke-width="0.8" />
<line x1="563.3333333333334" y1="60" x2="563.3333333333334" y2="82" stroke="#ccc" stroke-width="0.8" />
<line x1="646.6666666666666" y1="60" x2="646.6666666666666" y2="82" stroke="#ccc" stroke-width="0.8" />
<line x1="480" y1="82" x2="730" y2="82" stroke="#bbb" stroke-width="0.8" />
<line x1="563.3333333333334" y1="82" x2="563.3333333333334" y2="104" stroke="#ccc" stroke-width="0.8" />
<line x1="646.6666666666666" y1="82" x2="646.6666666666666" y2="104" stroke="#ccc" stroke-width="0.8" />
<rect x="480" y="190" width="250" height="74" rx="6" fill="#e1d5e7" stroke="#9673a6" stroke-width="1.5" />
<line x1="480" y1="220" x2="730" y2="220" stroke="#bbb" stroke-width="0.8" />
<line x1="563.3333333333334" y1="220" x2="563.3333333333334" y2="242" stroke="#ccc" stroke-width="0.8" />
<line x1="646.6666666666666" y1="220" x2="646.6666666666666" y2="242" stroke="#ccc" stroke-width="0.8" />
<line x1="480" y1="242" x2="730" y2="242" stroke="#bbb" stroke-width="0.8" />
<line x1="563.3333333333334" y1="242" x2="563.3333333333334" y2="264" stroke="#ccc" stroke-width="0.8" />
<line x1="646.6666666666666" y1="242" x2="646.6666666666666" y2="264" stroke="#ccc" stroke-width="0.8" />
<line x1="400" y1="72" x2="478" y2="65" stroke="#555" stroke-width="1.5" />
<polygon points="478,65 469.97386396930585,69.07199464842397 469.37708314017317,62.42215112380227" fill="#555" /><line x1="605" y1="100" x2="605" y2="188" stroke="#555" stroke-width="1.5" />
<polygon points="605,188 601.6617157752831,179.6420182798114 608.3382842247169,179.6420182798114" fill="#555" /><line x1="605" y1="65" x2="200" y2="75" stroke="#e91e63" stroke-width="2" stroke-dasharray="5,3" />
<polygon points="200,75 210,70 210,80" fill="#e91e63" /><text x="210" y="51" text-anchor="middle" font-size="12" fill="#222" font-weight="bold">article_comments</text>
<text x="58" y="74.3" text-anchor="middle" font-size="10" fill="#444">id</text>
<text x="134" y="74.3" text-anchor="middle" font-size="10" fill="#444">text</text>
<text x="210" y="74.3" text-anchor="middle" font-size="10" fill="#444">email</text>
<text x="286" y="74.3" text-anchor="middle" font-size="10" fill="#444">name</text>
<text x="362" y="74.3" text-anchor="middle" font-size="10" fill="#444">article_id</text>
<text x="58" y="96.3" text-anchor="middle" font-size="10" fill="#444">1</text>
<text x="134" y="96.3" text-anchor="middle" font-size="10" fill="#444">text 1</text>
<text x="210" y="96.3" text-anchor="middle" font-size="10" fill="#444">user1@m.com</text>
<text x="286" y="96.3" text-anchor="middle" font-size="10" fill="#444">Name 1</text>
<text x="362" y="96.3" text-anchor="middle" font-size="10" fill="#444">1</text>
<text x="58" y="118.3" text-anchor="middle" font-size="10" fill="#444">2</text>
<text x="134" y="118.3" text-anchor="middle" font-size="10" fill="#444">text 2</text>
<text x="210" y="118.3" text-anchor="middle" font-size="10" fill="#444">user2@m.com</text>
<text x="286" y="118.3" text-anchor="middle" font-size="10" fill="#444">Name 2</text>
<text x="362" y="118.3" text-anchor="middle" font-size="10" fill="#444">1</text>
<text x="58" y="140.3" text-anchor="middle" font-size="10" fill="#444">3</text>
<text x="134" y="140.3" text-anchor="middle" font-size="10" fill="#444">text 3</text>
<text x="210" y="140.3" text-anchor="middle" font-size="10" fill="#444">user3@m.com</text>
<text x="286" y="140.3" text-anchor="middle" font-size="10" fill="#444">Name 3</text>
<text x="362" y="140.3" text-anchor="middle" font-size="10" fill="#444">1</text>
<text x="605" y="51" text-anchor="middle" font-size="12" fill="#222" font-weight="bold">article_comment_queries</text>
<text x="521.6666666666666" y="74.3" text-anchor="middle" font-size="10" fill="#444">ID</text>
<text x="605" y="74.3" text-anchor="middle" font-size="10" fill="#444">comment_id</text>
<text x="688.3333333333333" y="74.3" text-anchor="middle" font-size="10" fill="#444">user_id</text>
<text x="521.6666666666666" y="96.3" text-anchor="middle" font-size="10" fill="#444">1</text>
<text x="605" y="96.3" text-anchor="middle" font-size="10" fill="#444">2</text>
<text x="688.3333333333333" y="96.3" text-anchor="middle" font-size="10" fill="#444">4</text>
<text x="605" y="211" text-anchor="middle" font-size="12" fill="#222" font-weight="bold">users</text>
<text x="521.6666666666666" y="234.3" text-anchor="middle" font-size="10" fill="#444">ID</text>
<text x="605" y="234.3" text-anchor="middle" font-size="10" fill="#444">name</text>
<text x="688.3333333333333" y="234.3" text-anchor="middle" font-size="10" fill="#444">email</text>
<text x="521.6666666666666" y="256.3" text-anchor="middle" font-size="10" fill="#444">4</text>
<text x="605" y="256.3" text-anchor="middle" font-size="10" fill="#444">User 1</text>
<text x="688.3333333333333" y="256.3" text-anchor="middle" font-size="10" fill="#444">user2@m.com</text>
<text x="435" y="60" text-anchor="middle" font-size="9" fill="#888">comment_id=2</text><text x="615" y="145" text-anchor="start" font-size="9" fill="#888">user_id=4</text><text x="400" y="20" text-anchor="middle" font-size="10" fill="#c62828">"Is it your comment?" sent to user 4 because email matches comment 2</text></svg>