<?xml version='1.0' encoding='UTF-8'?>
<svg xmlns="http://www.w3.org/2000/svg" width="850" height="160" font-family="Arial,sans-serif">
<rect width="850" height="160" fill="white" />
<rect x="20" y="20" width="440" height="118" rx="6" fill="#dae8fc" stroke="#6c8ebf" stroke-width="1.5" />
<line x1="20" y1="50" x2="460" y2="50" stroke="#bbb" stroke-width="0.8" />
<line x1="108" y1="50" x2="108" y2="72" stroke="#ccc" stroke-width="0.8" />
<line x1="196" y1="50" x2="196" y2="72" stroke="#ccc" stroke-width="0.8" />
<line x1="284" y1="50" x2="284" y2="72" stroke="#ccc" stroke-width="0.8" />
<line x1="372" y1="50" x2="372" y2="72" stroke="#ccc" stroke-width="0.8" />
<line x1="20" y1="72" x2="460" y2="72" stroke="#bbb" stroke-width="0.8" />
<line x1="108" y1="72" x2="108" y2="94" stroke="#ccc" stroke-width="0.8" />
<line x1="196" y1="72" x2="196" y2="94" stroke="#ccc" stroke-width="0.8" />
<line x1="284" y1="72" x2="284" y2="94" stroke="#ccc" stroke-width="0.8" />
<line x1="372" y1="72" x2="372" y2="94" stroke="#ccc" stroke-width="0.8" />
<line x1="20" y1="94" x2="460" y2="94" stroke="#bbb" stroke-width="0.8" />
<line x1="108" y1="94" x2="108" y2="116" stroke="#ccc" stroke-width="0.8" />
<line x1="196" y1="94" x2="196" y2="116" stroke="#ccc" stroke-width="0.8" />
<line x1="284" y1="94" x2="284" y2="116" stroke="#ccc" stroke-width="0.8" />
<line x1="372" y1="94" x2="372" y2="116" stroke="#ccc" stroke-width="0.8" />
<line x1="20" y1="116" x2="460" y2="116" stroke="#bbb" stroke-width="0.8" />
<line x1="108" y1="116" x2="108" y2="138" stroke="#ccc" stroke-width="0.8" />
<line x1="196" y1="116" x2="196" y2="138" stroke="#ccc" stroke-width="0.8" />
<line x1="284" y1="116" x2="284" y2="138" stroke="#ccc" stroke-width="0.8" />
<line x1="372" y1="116" x2="372" y2="138" stroke="#ccc" stroke-width="0.8" />
<rect x="540" y="20" width="280" height="74" rx="6" fill="#f8cecc" stroke="#b85450" stroke-width="1.5" />
<line x1="540" y1="50" x2="820" y2="50" stroke="#bbb" stroke-width="0.8" />
<line x1="610" y1="50" x2="610" y2="72" stroke="#ccc" stroke-width="0.8" />
<line x1="680" y1="50" x2="680" y2="72" stroke="#ccc" stroke-width="0.8" />
<line x1="750" y1="50" x2="750" y2="72" stroke="#ccc" stroke-width="0.8" />
<line x1="540" y1="72" x2="820" y2="72" stroke="#bbb" stroke-width="0.8" />
<line x1="610" y1="72" x2="610" y2="94" stroke="#ccc" stroke-width="0.8" />
<line x1="680" y1="72" x2="680" y2="94" stroke="#ccc" stroke-width="0.8" />
<line x1="750" y1="72" x2="750" y2="94" stroke="#ccc" stroke-width="0.8" />
<line x1="460" y1="64" x2="538" y2="64" stroke="#555" stroke-width="1.5" />
<polygon points="538,64 529.6420182798114,67.33828422471684 529.6420182798114,60.661715775283156" fill="#555" /><text x="240" y="41" text-anchor="middle" font-size="12" fill="#222" font-weight="bold">article_comments</text>
<text x="64" y="64.3" text-anchor="middle" font-size="10" fill="#444">id</text>
<text x="152" y="64.3" text-anchor="middle" font-size="10" fill="#444">text</text>
<text x="240" y="64.3" text-anchor="middle" font-size="10" fill="#444">email</text>
<text x="328" y="64.3" text-anchor="middle" font-size="10" fill="#444">name</text>
<text x="416" y="64.3" text-anchor="middle" font-size="10" fill="#444">article_id</text>
<text x="64" y="86.3" text-anchor="middle" font-size="10" fill="#444">1</text>
<text x="152" y="86.3" text-anchor="middle" font-size="10" fill="#444">text 1</text>
<text x="240" y="86.3" text-anchor="middle" font-size="10" fill="#444">user1@m.com</text>
<text x="328" y="86.3" text-anchor="middle" font-size="10" fill="#444">Name 1</text>
<text x="416" y="86.3" text-anchor="middle" font-size="10" fill="#444">1</text>
<text x="64" y="108.3" text-anchor="middle" font-size="10" fill="#444">2</text>
<text x="152" y="108.3" text-anchor="middle" font-size="10" fill="#444">text 2</text>
<text x="240" y="108.3" text-anchor="middle" font-size="10" fill="#444">user2@m.com</text>
<text x="328" y="108.3" text-anchor="middle" font-size="10" fill="#444">Name 2</text>
<text x="416" y="108.3" text-anchor="middle" font-size="10" fill="#444">1</text>
<text x="64" y="130.3" text-anchor="middle" font-size="10" fill="#444">3</text>
<text x="152" y="130.3" text-anchor="middle" font-size="10" fill="#444">text 3</text>
<text x="240" y="130.3" text-anchor="middle" font-size="10" fill="#444">user3@m.com</text>
<text x="328" y="130.3" text-anchor="middle" font-size="10" fill="#444">Name 3</text>
<text x="416" y="130.3" text-anchor="middle" font-size="10" fill="#444">1</text>
<text x="680" y="41" text-anchor="middle" font-size="12" fill="#222" font-weight="bold">article_comment_complaints</text>
<text x="575" y="64.3" text-anchor="middle" font-size="10" fill="#444">ID</text>
<text x="645" y="64.3" text-anchor="middle" font-size="10" fill="#444">comment_id</text>
<text x="715" y="64.3" text-anchor="middle" font-size="10" fill="#444">user_id/email</text>
<text x="785" y="64.3" text-anchor="middle" font-size="10" fill="#444">complaint</text>
<text x="575" y="86.3" text-anchor="middle" font-size="10" fill="#444">1</text>
<text x="645" y="86.3" text-anchor="middle" font-size="10" fill="#444">2</text>
<text x="715" y="86.3" text-anchor="middle" font-size="10" fill="#444">user_id = 3</text>
<text x="785" y="86.3" text-anchor="middle" font-size="10" fill="#444">"spam"</text>
<text x="498" y="58" text-anchor="middle" font-size="9" fill="#888">complaint on comment_id=2</text></svg>