<?xml version="1.0" encoding="UTF-8"?>
<svg width="1020" height="180" xmlns="http://www.w3.org/2000/svg" font-family="Arial,sans-serif">
<rect width="1020" height="180" fill="white"/>
<rect x="20" y="30" width="180" height="52" rx="8" fill="#f5f5f5" stroke="#999" stroke-width="1"/>
<text x="110" y="56" text-anchor="middle" font-size="12" fill="#222" font-weight="bold">Article 1</text>
<text x="110" y="70" text-anchor="middle" font-size="9" fill="#666">tab = "articles"  id = 1</text>
<rect x="250" y="20" width="240" height="118" rx="6" fill="#d5e8d4" stroke="#82b366" stroke-width="1.5"/>
<text x="370" y="41" text-anchor="middle" font-size="12" fill="#222" font-weight="bold">gallery_image_article</text>
<line x1="250" y1="50" x2="490" y2="50" stroke="#bbb" stroke-width="0.8"/>
<text x="290" y="64.3" text-anchor="middle" font-size="10" fill="#444">id</text>
<line x1="330" y1="50" x2="330" y2="72" stroke="#ccc" stroke-width="0.8"/>
<text x="370" y="64.3" text-anchor="middle" font-size="10" fill="#444">article_id</text>
<line x1="410" y1="50" x2="410" y2="72" stroke="#ccc" stroke-width="0.8"/>
<text x="450" y="64.3" text-anchor="middle" font-size="10" fill="#444">image_id</text>
<line x1="250" y1="72" x2="490" y2="72" stroke="#bbb" stroke-width="0.8"/>
<text x="290" y="86.3" text-anchor="middle" font-size="10" fill="#444">1</text>
<line x1="330" y1="72" x2="330" y2="94" stroke="#ccc" stroke-width="0.8"/>
<text x="370" y="86.3" text-anchor="middle" font-size="10" fill="#444">1</text>
<line x1="410" y1="72" x2="410" y2="94" stroke="#ccc" stroke-width="0.8"/>
<text x="450" y="86.3" text-anchor="middle" font-size="10" fill="#444">1</text>
<line x1="250" y1="94" x2="490" y2="94" stroke="#bbb" stroke-width="0.8"/>
<text x="290" y="108.3" text-anchor="middle" font-size="10" fill="#444">2</text>
<line x1="330" y1="94" x2="330" y2="116" stroke="#ccc" stroke-width="0.8"/>
<text x="370" y="108.3" text-anchor="middle" font-size="10" fill="#444">1</text>
<line x1="410" y1="94" x2="410" y2="116" stroke="#ccc" stroke-width="0.8"/>
<text x="450" y="108.3" text-anchor="middle" font-size="10" fill="#444">3</text>
<line x1="250" y1="116" x2="490" y2="116" stroke="#bbb" stroke-width="0.8"/>
<text x="290" y="130.3" text-anchor="middle" font-size="10" fill="#444">3</text>
<line x1="330" y1="116" x2="330" y2="138" stroke="#ccc" stroke-width="0.8"/>
<text x="370" y="130.3" text-anchor="middle" font-size="10" fill="#444">1</text>
<line x1="410" y1="116" x2="410" y2="138" stroke="#ccc" stroke-width="0.8"/>
<text x="450" y="130.3" text-anchor="middle" font-size="10" fill="#444">2</text>
<rect x="540" y="20" width="240" height="162" rx="6" fill="#f8cecc" stroke="#b85450" stroke-width="1.5"/>
<text x="660" y="41" text-anchor="middle" font-size="12" fill="#222" font-weight="bold">gallery_images</text>
<line x1="540" y1="50" x2="780" y2="50" stroke="#bbb" stroke-width="0.8"/>
<text x="580" y="64.3" text-anchor="middle" font-size="10" fill="#444">id</text>
<line x1="620" y1="50" x2="620" y2="72" stroke="#ccc" stroke-width="0.8"/>
<text x="660" y="64.3" text-anchor="middle" font-size="10" fill="#444">category_id</text>
<line x1="700" y1="50" x2="700" y2="72" stroke="#ccc" stroke-width="0.8"/>
<text x="740" y="64.3" text-anchor="middle" font-size="10" fill="#444">image_type</text>
<line x1="540" y1="72" x2="780" y2="72" stroke="#bbb" stroke-width="0.8"/>
<text x="580" y="86.3" text-anchor="middle" font-size="10" fill="#444">1</text>
<line x1="620" y1="72" x2="620" y2="94" stroke="#ccc" stroke-width="0.8"/>
<text x="660" y="86.3" text-anchor="middle" font-size="10" fill="#444">1</text>
<line x1="700" y1="72" x2="700" y2="94" stroke="#ccc" stroke-width="0.8"/>
<text x="740" y="86.3" text-anchor="middle" font-size="10" fill="#444">Article image</text>
<line x1="540" y1="94" x2="780" y2="94" stroke="#bbb" stroke-width="0.8"/>
<text x="580" y="108.3" text-anchor="middle" font-size="10" fill="#444">2</text>
<line x1="620" y1="94" x2="620" y2="116" stroke="#ccc" stroke-width="0.8"/>
<text x="660" y="108.3" text-anchor="middle" font-size="10" fill="#444">1</text>
<line x1="700" y1="94" x2="700" y2="116" stroke="#ccc" stroke-width="0.8"/>
<text x="740" y="108.3" text-anchor="middle" font-size="10" fill="#444">Article image</text>
<line x1="540" y1="116" x2="780" y2="116" stroke="#bbb" stroke-width="0.8"/>
<text x="580" y="130.3" text-anchor="middle" font-size="10" fill="#444">3</text>
<line x1="620" y1="116" x2="620" y2="138" stroke="#ccc" stroke-width="0.8"/>
<text x="660" y="130.3" text-anchor="middle" font-size="10" fill="#444">3</text>
<line x1="700" y1="116" x2="700" y2="138" stroke="#ccc" stroke-width="0.8"/>
<text x="740" y="130.3" text-anchor="middle" font-size="10" fill="#444">Article image</text>
<line x1="540" y1="138" x2="780" y2="138" stroke="#bbb" stroke-width="0.8"/>
<text x="580" y="152.3" text-anchor="middle" font-size="10" fill="#444">4</text>
<line x1="620" y1="138" x2="620" y2="160" stroke="#ccc" stroke-width="0.8"/>
<text x="660" y="152.3" text-anchor="middle" font-size="10" fill="#444">2</text>
<line x1="700" y1="138" x2="700" y2="160" stroke="#ccc" stroke-width="0.8"/>
<text x="740" y="152.3" text-anchor="middle" font-size="10" fill="#444">Index gallery</text>
<line x1="540" y1="160" x2="780" y2="160" stroke="#bbb" stroke-width="0.8"/>
<text x="580" y="174.3" text-anchor="middle" font-size="10" fill="#444">5</text>
<line x1="620" y1="160" x2="620" y2="182" stroke="#ccc" stroke-width="0.8"/>
<text x="660" y="174.3" text-anchor="middle" font-size="10" fill="#444">3</text>
<line x1="700" y1="160" x2="700" y2="182" stroke="#ccc" stroke-width="0.8"/>
<text x="740" y="174.3" text-anchor="middle" font-size="10" fill="#444">Head slider</text>
<rect x="830" y="20" width="160" height="118" rx="6" fill="#e1d5e7" stroke="#9673a6" stroke-width="1.5"/>
<text x="910" y="41" text-anchor="middle" font-size="12" fill="#222" font-weight="bold">gallery_categories</text>
<line x1="830" y1="50" x2="990" y2="50" stroke="#bbb" stroke-width="0.8"/>
<text x="870" y="64.3" text-anchor="middle" font-size="10" fill="#444">id</text>
<line x1="910" y1="50" x2="910" y2="72" stroke="#ccc" stroke-width="0.8"/>
<text x="950" y="64.3" text-anchor="middle" font-size="10" fill="#444">name</text>
<line x1="830" y1="72" x2="990" y2="72" stroke="#bbb" stroke-width="0.8"/>
<text x="870" y="86.3" text-anchor="middle" font-size="10" fill="#444">1</text>
<line x1="910" y1="72" x2="910" y2="94" stroke="#ccc" stroke-width="0.8"/>
<text x="950" y="86.3" text-anchor="middle" font-size="10" fill="#444">category 1</text>
<line x1="830" y1="94" x2="990" y2="94" stroke="#bbb" stroke-width="0.8"/>
<text x="870" y="108.3" text-anchor="middle" font-size="10" fill="#444">2</text>
<line x1="910" y1="94" x2="910" y2="116" stroke="#ccc" stroke-width="0.8"/>
<text x="950" y="108.3" text-anchor="middle" font-size="10" fill="#444">category 2</text>
<line x1="830" y1="116" x2="990" y2="116" stroke="#bbb" stroke-width="0.8"/>
<text x="870" y="130.3" text-anchor="middle" font-size="10" fill="#444">3</text>
<line x1="910" y1="116" x2="910" y2="138" stroke="#ccc" stroke-width="0.8"/>
<text x="950" y="130.3" text-anchor="middle" font-size="10" fill="#444">category 3</text>
<line x1="200" y1="55" x2="248" y2="52" stroke="#555" stroke-width="1.5"/>
<polygon points="248,52 239.86653124188965,55.853139753609085 239.45005834461622,49.1895733972343" fill="#555"/><line x1="490" y1="52" x2="538" y2="52" stroke="#555" stroke-width="1.5"/>
<polygon points="538,52 529.6420182798114,55.338284224716844 529.6420182798114,48.661715775283156" fill="#555"/><line x1="490" y1="63" x2="538" y2="63" stroke="#555" stroke-width="1.5"/>
<polygon points="538,63 529.6420182798114,66.33828422471684 529.6420182798114,59.661715775283156" fill="#555"/><line x1="490" y1="75" x2="538" y2="75" stroke="#555" stroke-width="1.5"/>
<polygon points="538,75 529.6420182798114,78.33828422471684 529.6420182798114,71.66171577528316" fill="#555"/><line x1="780" y1="52" x2="828" y2="52" stroke="#555" stroke-width="1.5"/>
<polygon points="828,52 819.6420182798114,55.338284224716844 819.6420182798114,48.661715775283156" fill="#555"/><line x1="780" y1="63" x2="828" y2="63" stroke="#555" stroke-width="1.5"/>
<polygon points="828,63 819.6420182798114,66.33828422471684 819.6420182798114,59.661715775283156" fill="#555"/><line x1="780" y1="75" x2="828" y2="75" stroke="#555" stroke-width="1.5"/>
<polygon points="828,75 819.6420182798114,78.33828422471684 819.6420182798114,71.66171577528316" fill="#555"/></svg>