<?xml version='1.0' encoding='UTF-8'?>
<svg xmlns="http://www.w3.org/2000/svg" width="980" height="480" font-family="Arial,sans-serif">
<rect width="980" height="480" fill="white" />
<rect x="20" y="20" width="200" height="118" rx="6" fill="#dae8fc" stroke="#6c8ebf" stroke-width="1.5" />
<line x1="20" y1="50" x2="220" y2="50" stroke="#bbb" stroke-width="0.8" />
<line x1="120" y1="50" x2="120" y2="72" stroke="#ccc" stroke-width="0.8" />
<line x1="20" y1="72" x2="220" y2="72" stroke="#bbb" stroke-width="0.8" />
<line x1="120" y1="72" x2="120" y2="94" stroke="#ccc" stroke-width="0.8" />
<line x1="20" y1="94" x2="220" y2="94" stroke="#bbb" stroke-width="0.8" />
<line x1="120" y1="94" x2="120" y2="116" stroke="#ccc" stroke-width="0.8" />
<line x1="20" y1="116" x2="220" y2="116" stroke="#bbb" stroke-width="0.8" />
<line x1="120" y1="116" x2="120" y2="138" stroke="#ccc" stroke-width="0.8" />
<rect x="270" y="20" width="300" height="162" rx="6" fill="#f8cecc" stroke="#b85450" stroke-width="1.5" />
<line x1="270" y1="50" x2="570" y2="50" stroke="#bbb" stroke-width="0.8" />
<line x1="370" y1="50" x2="370" y2="72" stroke="#ccc" stroke-width="0.8" />
<line x1="470" y1="50" x2="470" y2="72" stroke="#ccc" stroke-width="0.8" />
<line x1="270" y1="72" x2="570" y2="72" stroke="#bbb" stroke-width="0.8" />
<line x1="370" y1="72" x2="370" y2="94" stroke="#ccc" stroke-width="0.8" />
<line x1="470" y1="72" x2="470" y2="94" stroke="#ccc" stroke-width="0.8" />
<line x1="270" y1="94" x2="570" y2="94" stroke="#bbb" stroke-width="0.8" />
<line x1="370" y1="94" x2="370" y2="116" stroke="#ccc" stroke-width="0.8" />
<line x1="470" y1="94" x2="470" y2="116" stroke="#ccc" stroke-width="0.8" />
<line x1="270" y1="116" x2="570" y2="116" stroke="#bbb" stroke-width="0.8" />
<line x1="370" y1="116" x2="370" y2="138" stroke="#ccc" stroke-width="0.8" />
<line x1="470" y1="116" x2="470" y2="138" stroke="#ccc" stroke-width="0.8" />
<line x1="270" y1="138" x2="570" y2="138" stroke="#bbb" stroke-width="0.8" />
<line x1="370" y1="138" x2="370" y2="160" stroke="#ccc" stroke-width="0.8" />
<line x1="470" y1="138" x2="470" y2="160" stroke="#ccc" stroke-width="0.8" />
<line x1="270" y1="160" x2="570" y2="160" stroke="#bbb" stroke-width="0.8" />
<line x1="370" y1="160" x2="370" y2="182" stroke="#ccc" stroke-width="0.8" />
<line x1="470" y1="160" x2="470" y2="182" stroke="#ccc" stroke-width="0.8" />
<rect x="620" y="20" width="200" height="162" rx="6" fill="#fff9c4" stroke="#d6b656" stroke-width="1.5" />
<line x1="620" y1="50" x2="820" y2="50" stroke="#bbb" stroke-width="0.8" />
<line x1="720" y1="50" x2="720" y2="72" stroke="#ccc" stroke-width="0.8" />
<line x1="620" y1="72" x2="820" y2="72" stroke="#bbb" stroke-width="0.8" />
<line x1="720" y1="72" x2="720" y2="94" stroke="#ccc" stroke-width="0.8" />
<line x1="620" y1="94" x2="820" y2="94" stroke="#bbb" stroke-width="0.8" />
<line x1="720" y1="94" x2="720" y2="116" stroke="#ccc" stroke-width="0.8" />
<line x1="620" y1="116" x2="820" y2="116" stroke="#bbb" stroke-width="0.8" />
<line x1="720" y1="116" x2="720" y2="138" stroke="#ccc" stroke-width="0.8" />
<line x1="620" y1="138" x2="820" y2="138" stroke="#bbb" stroke-width="0.8" />
<line x1="720" y1="138" x2="720" y2="160" stroke="#ccc" stroke-width="0.8" />
<line x1="620" y1="160" x2="820" y2="160" stroke="#bbb" stroke-width="0.8" />
<line x1="720" y1="160" x2="720" y2="182" stroke="#ccc" stroke-width="0.8" />
<line x1="420" y1="130" x2="420" y2="190" stroke="#555" stroke-width="1.5" />
<polygon points="420,190 416.66171577528314,181.6420182798114 423.33828422471686,181.6420182798114" fill="#555" /><rect x="20" y="200" width="940" height="260" rx="14" fill="#f8f8f8" stroke="#aaa" stroke-width="1.5" />
<rect x="50" y="235" width="270" height="200" rx="8" fill="#dae8fc" stroke="#6c8ebf" stroke-width="1.5" />
<rect x="60" y="270" width="250" height="80" rx="6" fill="#fff9c4" stroke="#d6b656" stroke-width="1.5" />
<rect x="70" y="300" width="100" height="40" rx="6" fill="#fff" stroke="#aaa" stroke-width="1.5" />
<rect x="190" y="300" width="100" height="40" rx="6" fill="#fff" stroke="#aaa" stroke-width="1.5" />
<rect x="360" y="235" width="270" height="200" rx="8" fill="#dae8fc" stroke="#6c8ebf" stroke-width="1.5" />
<rect x="370" y="270" width="250" height="80" rx="6" fill="#fff9c4" stroke="#d6b656" stroke-width="1.5" />
<rect x="380" y="300" width="100" height="40" rx="6" fill="#fff" stroke="#aaa" stroke-width="1.5" />
<rect x="500" y="300" width="100" height="40" rx="6" fill="#fff" stroke="#aaa" stroke-width="1.5" />
<rect x="670" y="235" width="270" height="200" rx="8" fill="#dae8fc" stroke="#6c8ebf" stroke-width="1.5" />
<rect x="680" y="270" width="250" height="80" rx="6" fill="#fff9c4" stroke="#d6b656" stroke-width="1.5" />
<rect x="690" y="300" width="100" height="40" rx="6" fill="#fff" stroke="#aaa" stroke-width="1.5" />
<text x="120" y="41" text-anchor="middle" font-size="12" fill="#222" font-weight="bold">sector_local_images</text>
<text x="70" y="64.3" text-anchor="middle" font-size="10" fill="#444">id</text>
<text x="170" y="64.3" text-anchor="middle" font-size="10" fill="#444">image</text>
<text x="70" y="86.3" text-anchor="middle" font-size="10" fill="#444">1</text>
<text x="170" y="86.3" text-anchor="middle" font-size="10" fill="#444">image 1</text>
<text x="70" y="108.3" text-anchor="middle" font-size="10" fill="#444">2</text>
<text x="170" y="108.3" text-anchor="middle" font-size="10" fill="#444">image 2</text>
<text x="70" y="130.3" text-anchor="middle" font-size="10" fill="#444">3</text>
<text x="170" y="130.3" text-anchor="middle" font-size="10" fill="#444">image 3</text>
<text x="420" y="41" text-anchor="middle" font-size="12" fill="#222" font-weight="bold">sector_local_image_sector (pivot)</text>
<text x="320" y="64.3" text-anchor="middle" font-size="10" fill="#444">id</text>
<text x="420" y="64.3" text-anchor="middle" font-size="10" fill="#444">sector_id</text>
<text x="520" y="64.3" text-anchor="middle" font-size="10" fill="#444">image_id</text>
<text x="320" y="86.3" text-anchor="middle" font-size="10" fill="#444">1</text>
<text x="420" y="86.3" text-anchor="middle" font-size="10" fill="#444">1</text>
<text x="520" y="86.3" text-anchor="middle" font-size="10" fill="#444">1</text>
<text x="320" y="108.3" text-anchor="middle" font-size="10" fill="#444">2</text>
<text x="420" y="108.3" text-anchor="middle" font-size="10" fill="#444">4</text>
<text x="520" y="108.3" text-anchor="middle" font-size="10" fill="#444">1</text>
<text x="320" y="130.3" text-anchor="middle" font-size="10" fill="#444">3</text>
<text x="420" y="130.3" text-anchor="middle" font-size="10" fill="#444">2</text>
<text x="520" y="130.3" text-anchor="middle" font-size="10" fill="#444">2</text>
<text x="320" y="152.3" text-anchor="middle" font-size="10" fill="#444">4</text>
<text x="420" y="152.3" text-anchor="middle" font-size="10" fill="#444">2</text>
<text x="520" y="152.3" text-anchor="middle" font-size="10" fill="#444">3</text>
<text x="320" y="174.3" text-anchor="middle" font-size="10" fill="#444">5</text>
<text x="420" y="174.3" text-anchor="middle" font-size="10" fill="#444">3</text>
<text x="520" y="174.3" text-anchor="middle" font-size="10" fill="#444">5</text>
<text x="720" y="41" text-anchor="middle" font-size="12" fill="#222" font-weight="bold">sectors</text>
<text x="670" y="64.3" text-anchor="middle" font-size="10" fill="#444">id</text>
<text x="770" y="64.3" text-anchor="middle" font-size="10" fill="#444">name</text>
<text x="670" y="86.3" text-anchor="middle" font-size="10" fill="#444">1</text>
<text x="770" y="86.3" text-anchor="middle" font-size="10" fill="#444">Sector 1</text>
<text x="670" y="108.3" text-anchor="middle" font-size="10" fill="#444">2</text>
<text x="770" y="108.3" text-anchor="middle" font-size="10" fill="#444">Sector 2</text>
<text x="670" y="130.3" text-anchor="middle" font-size="10" fill="#444">3</text>
<text x="770" y="130.3" text-anchor="middle" font-size="10" fill="#444">Sector 3</text>
<text x="670" y="152.3" text-anchor="middle" font-size="10" fill="#444">4</text>
<text x="770" y="152.3" text-anchor="middle" font-size="10" fill="#444">Sector 4</text>
<text x="670" y="174.3" text-anchor="middle" font-size="10" fill="#444">5</text>
<text x="770" y="174.3" text-anchor="middle" font-size="10" fill="#444">Sector 5</text>
<text x="440" y="165" text-anchor="middle" font-size="10" fill="#888">result grouped
by image</text><text x="490" y="226" text-anchor="middle" font-size="16" fill="#333" font-weight="bold">Result Array (grouped by image_id)</text>
<text x="185" y="258" text-anchor="middle" font-size="11" fill="#555" font-weight="bold">image id = 1</text>
<text x="185" y="290" text-anchor="middle" font-size="11" fill="#555" font-weight="bold">Sectors</text>
<text x="120" y="325" text-anchor="middle" font-size="10" fill="#555">sector id = 1</text>
<text x="240" y="325" text-anchor="middle" font-size="10" fill="#555">sector id = 4</text>
<text x="495" y="258" text-anchor="middle" font-size="11" fill="#555" font-weight="bold">image id = 2</text>
<text x="495" y="290" text-anchor="middle" font-size="11" fill="#555" font-weight="bold">Sectors</text>
<text x="430" y="325" text-anchor="middle" font-size="10" fill="#555">sector id = 2</text>
<text x="550" y="325" text-anchor="middle" font-size="10" fill="#555">sector id = 3</text>
<text x="805" y="258" text-anchor="middle" font-size="11" fill="#555" font-weight="bold">image id = 3</text>
<text x="805" y="290" text-anchor="middle" font-size="11" fill="#555" font-weight="bold">Sectors</text>
<text x="740" y="325" text-anchor="middle" font-size="10" fill="#555">sector id = 5</text>
</svg>