<?xml version="1.0" encoding="UTF-8"?>
<svg width="800" height="300" xmlns="http://www.w3.org/2000/svg" font-family="Arial,sans-serif">
<rect width="800" height="300" fill="white"/>
<rect x="20" y="20" width="360" height="260" rx="14" fill="#f5f5f5" stroke="#999" stroke-width="1.5"/>
<text x="200" y="46" text-anchor="middle" font-size="16" fill="#333" font-weight="bold">Sector 1</text>
<text x="200" y="64" text-anchor="middle" font-size="11" fill="#666">id = 1</text><rect x="50" y="90" width="95" height="130" rx="8" fill="#fff" stroke="#aaa" stroke-width="1.5"/>
<text x="97.5" y="148" text-anchor="middle" font-size="11" fill="#333" font-weight="bold">Image 1</text>
<text x="97.5" y="164" text-anchor="middle" font-size="9" fill="#666">id = 1
sector_id = 1</text><text x="95" y="135" text-anchor="middle" font-size="10" fill="#555">id = 1</text>
<text x="95" y="150" text-anchor="middle" font-size="10" fill="#555">sector_id = 1</text>
<rect x="160" y="90" width="95" height="130" rx="8" fill="#fff" stroke="#aaa" stroke-width="1.5"/>
<text x="207.5" y="148" text-anchor="middle" font-size="11" fill="#333" font-weight="bold">Image 2</text>
<text x="207.5" y="164" text-anchor="middle" font-size="9" fill="#666">id = 2
sector_id = 1</text><text x="205" y="135" text-anchor="middle" font-size="10" fill="#555">id = 2</text>
<text x="205" y="150" text-anchor="middle" font-size="10" fill="#555">sector_id = 1</text>
<rect x="270" y="90" width="95" height="130" rx="8" fill="#fff" stroke="#aaa" stroke-width="1.5"/>
<text x="317.5" y="148" text-anchor="middle" font-size="11" fill="#333" font-weight="bold">Image 3</text>
<text x="317.5" y="164" text-anchor="middle" font-size="9" fill="#666">id = 3
sector_id = 1</text><text x="315" y="135" text-anchor="middle" font-size="10" fill="#555">id = 3</text>
<text x="315" y="150" text-anchor="middle" font-size="10" fill="#555">sector_id = 1</text>
<rect x="410" y="20" width="360" height="260" rx="14" fill="#f5f5f5" stroke="#999" stroke-width="1.5"/>
<text x="590" y="46" text-anchor="middle" font-size="16" fill="#333" font-weight="bold">Sector 2</text>
<text x="590" y="64" text-anchor="middle" font-size="11" fill="#666">id = 2</text><rect x="440" y="90" width="95" height="130" rx="8" fill="#fff" stroke="#aaa" stroke-width="1.5"/>
<text x="487.5" y="148" text-anchor="middle" font-size="11" fill="#333" font-weight="bold">Image 4</text>
<text x="487.5" y="164" text-anchor="middle" font-size="9" fill="#666">id = 4
sector_id = 2</text><text x="485" y="135" text-anchor="middle" font-size="10" fill="#555">id = 4</text>
<text x="485" y="150" text-anchor="middle" font-size="10" fill="#555">sector_id = 2</text>
<rect x="550" y="90" width="95" height="130" rx="8" fill="#fff" stroke="#aaa" stroke-width="1.5"/>
<text x="597.5" y="148" text-anchor="middle" font-size="11" fill="#333" font-weight="bold">Image 5</text>
<text x="597.5" y="164" text-anchor="middle" font-size="9" fill="#666">id = 5
sector_id = 2</text><text x="595" y="135" text-anchor="middle" font-size="10" fill="#555">id = 5</text>
<text x="595" y="150" text-anchor="middle" font-size="10" fill="#555">sector_id = 2</text>
</svg>