<svg xmlns="http://www.w3.org/2000/svg" preserveAspectRatio="none slice" data-name="Layer 1" width="862.7999877929688" height="146.5"><rect id="backgroundrect" width="100%" height="100%" x="0" y="0" fill="none" stroke="none"/><title>mountains</title><g class="currentLayer" style=""><title>Layer 1</title><polygon points="240.3 23.6 240.3 23.6 240.3 23.6 240.3 23.6" id="svg_1" class="" fill="#484848" fill-opacity="1"/><path d="M558.9,15.5l.8-.7c1.4-1.3,2.8-2.5,5-2s1.3-.3,1.4-1.1a2.2,2.2,0,0,1,.4-1.1c.6-.7,1.2-.6,1.5.3s.3.7.6.8a35.2,35.2,0,0,0,3.6.7c1.7,0,2-.3,1.9-2a1.9,1.9,0,0,1,.9-2.1c.4-.3.9-.3,1.1.1a2.2,2.2,0,0,0,2.7,1.5,1.4,1.4,0,0,1,.8.3c.4.2.9.3,1.3-.1a1,1,0,0,0,.1-1.3,5.5,5.5,0,0,1-.7-2.5,1.9,1.9,0,0,0-.8-1.5L576.1,3l-1.2-.2a4.1,4.1,0,0,0-2.4.8,29.5,29.5,0,0,0-4.2,3.2,1.7,1.7,0,0,1-1,.7,9.3,9.3,0,0,0-4,2.6,9.1,9.1,0,0,1-2.7,2,5.3,5.3,0,0,0-2.3,2.2,1.9,1.9,0,0,0-.3.8C558,15.5,558.4,15.8,558.9,15.5Z" id="svg_2" class="" fill="#484848" fill-opacity="1"/><path d="M135.8,33.4l5.6,1.4a2.7,2.7,0,0,1,1.8.7l.2.2a.7.7,0,0,0,1-.2,1.1,1.1,0,0,1,1.8-.3,2.4,2.4,0,0,0,1.3.3h0c.4-1.4.2-1.7-1-2.2l-2.4-.9a3.8,3.8,0,0,0-2.2-.3,7.9,7.9,0,0,1-2.7-.1,5.8,5.8,0,0,0-3.4.3c-.3.1-.7.3-.7.7S135.5,33.3,135.8,33.4Z" id="svg_3" class="" fill="#484848" fill-opacity="1"/><path d="M584.4,13.7a1.2,1.2,0,0,0,1.5.5l2.1-.4h.1a1,1,0,0,0,1-1.1,3.1,3.1,0,0,0-1.3-2.9,6.6,6.6,0,0,0-3-1.1c-1.1-.1-1.8.4-1.7,1.4A8,8,0,0,0,584.4,13.7Z" id="svg_4" class="" fill="#484848" fill-opacity="1"/><path d="M644.7,23.7c.8.1,1.1-.3,1.5-1.2s1-1.7,2.5-1.3l1.3.4,1,.3a.6.6,0,0,0,.6-.3.5.5,0,0,0-.3-.6,7,7,0,0,0-2.4-.9c-1.3-.3-2.6-.1-3.8-.4a2.8,2.8,0,0,0-1.7.4c-.9.5-1.2,1.1-1,1.8A2.9,2.9,0,0,0,644.7,23.7Z" id="svg_5" class="" fill="#484848" fill-opacity="1"/><path d="M591.2,20.5a1.4,1.4,0,0,0-1.6.9,1.4,1.4,0,0,0,.6,1.6,1.8,1.8,0,0,0,2,.3,2.8,2.8,0,0,1,3,.4,2.9,2.9,0,0,0,1.7.6c.4,0,1-.1,1.1-.6s-.3-.8-.7-1a4.1,4.1,0,0,0-1.7-.5,6.4,6.4,0,0,1-3.4-1.3Z" id="svg_6" class="" fill="#484848" fill-opacity="1"/><path d="M578.2,12.6v.2a1.1,1.1,0,0,0,1,1.3c.8.1,1.4.3,1.5,1.3v.2a1.2,1.2,0,0,0,1.5.7,1.3,1.3,0,0,0,.7-1.6,5.3,5.3,0,0,0-3.6-2.9A1,1,0,0,0,578.2,12.6Z" id="svg_7" class="" fill="#484848" fill-opacity="1"/><path d="M596.3,19.5a5.4,5.4,0,0,1,3.1,1.1c.4.3.9.1,1.1-.4h.1a.8.8,0,0,0-.5-1l-3.4-1.2c-.6,0-1.1,0-1.3.6v.2A.9.9,0,0,0,596.3,19.5Z" id="svg_8" class="" fill="#484848" fill-opacity="1"/><path d="M580.3,18.1c-.1.3-.1.4.1.6a18.5,18.5,0,0,0,2.7,1.6c.4.2.6-.1.6-.6a2.8,2.8,0,0,0-2.4-2A.9.9,0,0,0,580.3,18.1Z" id="svg_9" class="" fill="#484848" fill-opacity="1"/><path d="M127.4,27.7a4.7,4.7,0,0,0,4.6-.6,6,6,0,0,0-2.7-.5,4.3,4.3,0,0,0-1.8.4l-.3.3A.3.3,0,0,0,127.4,27.7Z" id="svg_10" class="" fill="#484848" fill-opacity="1"/><path d="M561.3,10.8c.7-.4,1.1-1.1,1.6-1.7a.5.5,0,0,0,.1-.3c-.2-.4-.6-.4-1-.4s-1.1,1-1.5,1.6-.4.6-.1.8A.7.7,0,0,0,561.3,10.8Z" id="svg_11" class="" fill="#484848" fill-opacity="1"/><path d="M199.9,31.8a13.8,13.8,0,0,0,3.9.2h0a.5.5,0,0,0,.6-.4,32.3,32.3,0,0,1-4.3-.8h0a.6.6,0,0,0-.7.3C199.2,31.5,199.6,31.7,199.9,31.8Z" id="svg_12" class="" fill="#484848" fill-opacity="1"/><path d="M590.1,8A2.5,2.5,0,0,0,592,9.1a.8.8,0,0,0,.9-.3.5.5,0,0,0-.1-.6,3.3,3.3,0,0,0-2.2-1.2C590.1,7.1,589.8,7.5,590.1,8Z" id="svg_13" class="" fill="#484848" fill-opacity="1"/><path d="M603.1,20.4a.9.9,0,0,0,.9-.9,1.2,1.2,0,0,0-1.3-1c-.6,0-1,.3-1,.9a1.3,1.3,0,0,0,1.3,1.1Z" id="svg_14" class="" fill="#484848" fill-opacity="1"/><path d="M588.2,5.7l1.7.3h1c.3-.1.5-.1.6-.4s-.1-.3-.3-.4a4.3,4.3,0,0,0-2.8-.4c-.3.1-.5.2-.5.5A.5.5,0,0,0,588.2,5.7Z" id="svg_15" class="" fill="#484848" fill-opacity="1"/><path d="M587.3,7.7c.4,0,1-.1,1-.6s-.5-.8-1-.8-1.3-.3-1.5.5S586.4,7.7,587.3,7.7Z" id="svg_16" class="" fill="#484848" fill-opacity="1"/><path d="M576.5,11.5a.7.7,0,0,0-.6.8c0,.5.2.9.8.9s.8-.4.8-.9a.8.8,0,0,0-.8-.8Z" id="svg_17" class="" fill="#484848" fill-opacity="1"/><path d="M436.9,26.7c.1-.4-.1-.6-.4-.6a2.1,2.1,0,0,0-1.9.2,3.4,3.4,0,0,0,1.7.8C436.5,27.1,436.8,27.1,436.9,26.7Z" id="svg_18" class="" fill="#484848" fill-opacity="1"/><path d="M138.1,28.3c.4,0,.8-.1.8-.6s-.4-.4-.9-.5-.8,0-.8.5S137.7,28.3,138.1,28.3Z" id="svg_19" class="" fill="#484848" fill-opacity="1"/><path d="M862.5,1.7a4.2,4.2,0,0,1-1.8,1.2,20.5,20.5,0,0,0-6.5,3.5c-1.8,1.5-4.1,2.1-5.9,3.4s-3.9,2.2-5.7,3.5-4.8,2.2-6.4,4.2l-.4.3c-1.8.2-3.7,1.1-5.6.1a37,37,0,0,0-3.7-1.5,3.6,3.6,0,0,0-3.4.4,5.6,5.6,0,0,1-4.3.7,9.3,9.3,0,0,0-6.6,1,2.4,2.4,0,0,1-2.7.1,4.5,4.5,0,0,0-4.4-.2l-1.3.6a2,2,0,0,1-1.9,0c-1.3-.8-2.7-.5-4.1-.8s-.4,0-.5.3.1.4.3.5l.4.2c1,.6,1,1.1,0,1.7a3.6,3.6,0,0,1-1.6.5c-.4.1-.8.1-1-.2s.1-.6.3-.9a.7.7,0,0,0,.2-.7A2.7,2.7,0,0,0,793,18a41.1,41.1,0,0,1-7.8,1.6,6.7,6.7,0,0,0-3.9,1.6,5.3,5.3,0,0,1-2.7,1.3,6.5,6.5,0,0,0-2.4,1,7.8,7.8,0,0,1-5.3,1,19.4,19.4,0,0,0-4.3-.4,1.9,1.9,0,0,1-1.1-.4l-1.9-.9a3.1,3.1,0,0,0-3.7.3,4.5,4.5,0,0,1-1.8.8l-2.9.8a4.2,4.2,0,0,0-2.9,2.2h0a1.2,1.2,0,0,1-1.5.8c-.7-.2-.8-.5-.5-1.2s.3-1.1-.6-1.1h-.9a1.4,1.4,0,0,1-1-.1,6.1,6.1,0,0,0-3.3-1.3c-.3,0-.5-.4-.6-.6s-1.9-1.4-3.1-1.6-1,.3-1.3.6-1.1.6-1.7-.2a13.9,13.9,0,0,1-1.3-2,2.6,2.6,0,0,0-2.6-1.5,2.6,2.6,0,0,1-2.4-1.3,3.8,3.8,0,0,0-3.4-1.8,26.9,26.9,0,0,1-9.4-2.2,7.6,7.6,0,0,0-5.5-.5c-2.7.8-5.3,1.6-7.2,4a2.7,2.7,0,0,1-1.1.8,52.9,52.9,0,0,0-6.8,3.5,13.9,13.9,0,0,1-5.2,1.6,5.5,5.5,0,0,0-3.4,1.6c-.8.8-1.8,1.3-2.5,2.2a.8.8,0,0,1-.8.3l-2.7-.3a8.3,8.3,0,0,0-3.1-.2h-.8c-1-.1-1.5-.9-.6-1.6s.8-.6.8-1.1-.8-.2-1.1-.1l-3.4.3a.8.8,0,0,0-.6.4h0a.5.5,0,0,0,.3.6c.5.3.9.6.6,1.3s-1,1.7-2.1,1.8a3.2,3.2,0,0,1-1.7-.5l-2.4-1.6a2.4,2.4,0,0,1-.8-1.3c-.3-1.1-.5-1.3-1.5-1.2a6.3,6.3,0,0,1-4.8-1,1.2,1.2,0,0,0-1-.2,21.5,21.5,0,0,1-4,.9,19.6,19.6,0,0,0-6.1,2.5c-1.1.7-2.5,1.1-3.7,1.8a4.3,4.3,0,0,1-3.6.6,12.3,12.3,0,0,0-1.5,0c-1.1-.1-1.6-.7-1.4-1.8a5.9,5.9,0,0,0-1.7-5.1l-1.9-1.5a3.6,3.6,0,0,1-1.7-2.3c-.2-1.1-2.3-1.8-3.6-1.1L630,17.3a2.2,2.2,0,0,1-1.8.1,3.5,3.5,0,0,0-2.5,0c-.7.2-1.3.2-1.7-.6s-.6-.5-1.1-.4-1.2,0-1-.7a2.2,2.2,0,0,0-1-2.8l-.2-.2c-.6-1.6-2.1-1.9-3.6-2.2L614,9.5l-1.3-.3a.8.8,0,0,0-1,.4c-.3.4,0,.6.2.9a3.5,3.5,0,0,0,2.9,1.7,3,3,0,0,1,1.5.3c.4.3.5.8.1.9s-2.5,1.3-3.9.8a8.8,8.8,0,0,0-3.1-.6h-.9c-.8-.3-1-.8-.5-1.5s1-.8,1-1.5-.7-1.3-1.2-1.9a3.6,3.6,0,0,0-3.2-1.3h-2c-.6.1-1.1.2-1.3.8s-.8.9-1.5.8h-1.1a1.9,1.9,0,0,0-1.9.9c-1,1.5-1.3,1.6-3,1.1l-1.6-.5c-.9-.1-1.3.5-1.1,1.3a2.2,2.2,0,0,0,1.8,1.6l3.2.6a59,59,0,0,1,11,3.7,6.4,6.4,0,0,0,3.4.9,1.7,1.7,0,0,1,1.2.6c1.7,1.7,4,2.6,6.2,3.5a2.9,2.9,0,0,0,1.8,0,3.1,3.1,0,0,1,3.2,1.1,2.7,2.7,0,0,0,1.1.8c.8.4.8.5.1,1.1l-.4.4c-1.3,1.3-1.8,1.4-3.3.2s-1-.5-1.5,0l-.2.2a1,1,0,0,0,.4,1.3,1.9,1.9,0,0,1,.9,1.9,2.3,2.3,0,0,0,.6,1.4c.4.5.3,1-.4,1.1l-3.6.9a2.2,2.2,0,0,1-1.8-.3,19.3,19.3,0,0,0-3.5-1.6,45.5,45.5,0,0,1-5.3-2.5,5.6,5.6,0,0,0-5.5-.3,3.7,3.7,0,0,1-3.4.1l-.9-.3a3.7,3.7,0,0,1-3.3-2,1.7,1.7,0,0,0-1.8-.7,8,8,0,0,1-5.5-1.6l-.7-.4c-1.3-.6-1.7-.5-2.2.9s-.6,1-1.3.6l-1.1-.8a2,2,0,0,1-.6-2.8l.6-1.1c.3-.8-.1-1.4-1-1.4a2.8,2.8,0,0,0-2.3,1.1l-.8,1.1c-.4.7-1,1.3-1.8,1.1a2.2,2.2,0,0,1-2.2-1.4c-.6-1.5-.5-1.8.7-3s.8-.8.1-1.6l-.8-1.1c-.6-1.3-2-1.7-2.9-2.6s-.6-.1-.9-.1a10.7,10.7,0,0,0-5.5,3.9c-.4.5-.2,1,0,1.6s.5,1.9-1.2,2.6a19.7,19.7,0,0,0-7.8,5h-.1a19.3,19.3,0,0,1-6,1.8.8.8,0,0,1-.9-.4c-.1-.4.3-.6.5-.8l3.1-2.5L556,19c1.1-1,1.1-1,2.5-.3l.4.2c.5.1,1.1.2,1.4-.3s-.2-.9-.6-1.2-2.9-1.3-4.4-.1a1,1,0,0,1-1.1.3c.1-.5.5-.6.8-.8a3.3,3.3,0,0,0,1.5-1.9c.2-.9-.3-1.4-1.2-1.2a3.4,3.4,0,0,0-1.3.7l-2,1.5a1.8,1.8,0,0,0-1,1.5,2.2,2.2,0,0,1-1.8,1.8,1.2,1.2,0,0,1-1.5-.3c-.4-.6-1-.5-1.5-.3l-3.9,1.6a1.5,1.5,0,0,0-.8,1,2.8,2.8,0,0,1-.8,1.3,1.6,1.6,0,0,1-1.8.4,4.2,4.2,0,0,0-3.2,1.4,1.9,1.9,0,0,0,.1,1.3c.4,1.8-.6,2.9-2.4,2.5l-1.1-.4a12.1,12.1,0,0,0-6.5-1.3,2.8,2.8,0,0,0-2.1,1,2.3,2.3,0,0,1-3.1.8c-.7-.3-1.3-.7-2.1-.5s0,.5.1.7.4.7.1,1.1a1.1,1.1,0,0,1-1.1.1l-.4-.3c-1.7-2.2-4.3-2.3-6.7-2.6a38.6,38.6,0,0,0-7.6.4,7.3,7.3,0,0,0-2.1.5,68.2,68.2,0,0,0-8.3,4.2,12.2,12.2,0,0,0-3.3,2.7,1.6,1.6,0,0,1-.7.6,18.3,18.3,0,0,0-4.1,2.5,2,2,0,0,1-1.7.3,4.8,4.8,0,0,1-2.1-.9,23.8,23.8,0,0,1-4-4c-.8-1-.8-1.3.1-2.2s1-.8.7-1.4-1-.5-1.5-.6a3.3,3.3,0,0,0-2,.5c-.6.3-1.3.5-1.3,1.5s-.6.7-1,.6-2.4-.7-2.7-2.2-.8-1.1-1.6-1.1a30.2,30.2,0,0,1-8.5-1.6,12.2,12.2,0,0,0-5.2-.8,1.5,1.5,0,0,1-1-.2,3.6,3.6,0,0,0-2.8-.3l-2.9.6H446c-1.4.8-2.7,1.5-4.3.6s-.4,0-.7.1-.6.3-.6.8a.7.7,0,0,0,.8.6,15.6,15.6,0,0,0,5.1-.1,35.2,35.2,0,0,1,4.5-.6h.9a14.4,14.4,0,0,0,3.3.5.7.7,0,0,1,.8.6c-.5.4-1.1.1-1.6.2s-1.1.3-1,1.3-.2,1.5-1.3,1a6.6,6.6,0,0,0-4.1-.2,18,18,0,0,1-7.6.4,39.1,39.1,0,0,0-7.2-1.5,6.3,6.3,0,0,1-3.1-1.3c-2.4-1.4-4.8-2.9-7.6-3.5a1.9,1.9,0,0,1-1.4-.9,4,4,0,0,1,2.3,0l2.8.8,1.2.2c.4,0,.8-.1.8-.5s-.3-.4-.6-.6l-.9-.2a23.6,23.6,0,0,1-9.4-4.5,32,32,0,0,0-5.3-3.3c-.9-.4-1.8-.9-2.5.3s-.7.3-1.1.1c-1.9-1.3-4.2-2.2-5.6-4.2a2.7,2.7,0,0,0-2.7-1.1,1.2,1.2,0,0,0-1.1.7c-.2.6.2.9.6,1.1s.3.3.3.5-.7.2-1.1.1c-1.9-.7-3.4.3-4.7,1.4s-.8.7-1.4.6a1.9,1.9,0,0,0-1.8.7l-1.2,1.2c-.7.8-.6,1.1.3,1.6a4.6,4.6,0,0,0,1.9.3c.4,0,.7.2.6.6s-.4.4-.8.3l-1-.4c-1-.3-2-.4-2.7.6a2,2,0,0,1-1.8.6,3.4,3.4,0,0,0-2.7,1.2c-.5.4-.3.9.4,1.1a3.5,3.5,0,0,0,1.8-.2,3.9,3.9,0,0,1,3.2.2,8.6,8.6,0,0,1,2.1,1.2l2.7,2.2a26.4,26.4,0,0,0,3,1.5,3.5,3.5,0,0,1-2.4-.1c-.9-.3-1.7-.7-2.5-1a2.3,2.3,0,0,1-1-.9,4.7,4.7,0,0,0-5.3-1.9,8.3,8.3,0,0,1-5.4-.1l-8.7-2.8a10.8,10.8,0,0,0-5.8-.6,3.8,3.8,0,0,1-2.5-.6,29.7,29.7,0,0,0-9.2-3,35,35,0,0,1-7.6-1.6l-2.1-.3-6.2-.6a23.2,23.2,0,0,0-7.5,1.1,2.8,2.8,0,0,0-1.3.9q-1.3,1.5.6,2.3a4,4,0,0,1,1.3.9.6.6,0,0,1,.1.6.6.6,0,0,1-.6.4,2.9,2.9,0,0,1-1.6-.5l-3.6-1.7c-5.8-2.7-11.8-4.9-17.8-7.2-3.6-1.5-7.5-2.6-11.2-3.7a60.5,60.5,0,0,1-6.9-2.7,22.7,22.7,0,0,0-6.4-2.1,6.4,6.4,0,0,0-3.7.4l-2.3.8c-1.8.8-3.7,1.6-5.6,2.3a2.6,2.6,0,0,0-1.3,1.4c-.3.6-.6.7-1.2.3a1.4,1.4,0,0,0-1.6,0c-2.8,1.1-5.7,2.2-8.6,3.2l-2.5,1.1c-2.2,1.2-4.2,2.6-6.4,3.9a80.5,80.5,0,0,1-8.4,4.3l-5,2.3a49.1,49.1,0,0,1-7.3,3,35.1,35.1,0,0,0-9.3,4.4,17.9,17.9,0,0,1-7.6,2.5,2.5,2.5,0,0,1-2-.6,1.1,1.1,0,0,0-1.7-.1c-1.1,1.1-2.7,1.3-4.2,1.6a7.8,7.8,0,0,1-5.3-.3,3.9,3.9,0,0,0-2.5-.1,5.1,5.1,0,0,1-4.4-.7,8.7,8.7,0,0,0-2.1-.9,6.2,6.2,0,0,1-2.5-1.5c-1-1-2.4-1.1-3.6-1.5a1.1,1.1,0,0,0-.8.3,1.9,1.9,0,0,1-2.3.1l-2-.8a2.8,2.8,0,0,0-2.7.3,2.1,2.1,0,0,1-1.9.3,12.1,12.1,0,0,1-3.6-1.3c-1.2-.8-1.6-.8-2.7.3a12.8,12.8,0,0,1-4.3,2.5,6,6,0,0,1-4.6.1,15.7,15.7,0,0,0-3-.6c-3.1-.6-6-1.4-9.1-2.1a13.2,13.2,0,0,0-4.2-.5c-.5.1-1.3-.1-1.4.6s.6.9,1.1,1.2a1.5,1.5,0,0,0,1.5,0h0a1.1,1.1,0,0,1,1.6.3,19.4,19.4,0,0,0,3.1,2.4,4.8,4.8,0,0,0,3.4,1h1.1c.4.2.8.3.8.8s-.5.4-.8.4l-1.1.4a10.6,10.6,0,0,1-4.4,1.2l-3.2,1.8a2.6,2.6,0,0,1-2.4,0,17.1,17.1,0,0,0-8.1-1.6,5.3,5.3,0,0,1-3.1-.7c-1.8-1.3-3.8-1.1-5.8-.9-.4,0-.9.3-1.3-.1a.5.5,0,0,1,.1-.3c1.3-.9,1.3-1.1.3-2.3a3.8,3.8,0,0,0-2.5-1.5l-2.2-.4a3.3,3.3,0,0,1-2-1c-1.1-1.1-2.6-1.3-4-1.7a6,6,0,0,0-4.3.1c-1.5.6-3.1.7-4.3,1.8l-.7.3c-1.8-.1-3.7.2-5.4-.7a5.9,5.9,0,0,0-5.8,0,2.1,2.1,0,0,1-1.6.4,2.2,2.2,0,0,0-2.5,1.3,11.7,11.7,0,0,1-4,3.9c-.6.4-1.1.8-1.9.2a2,2,0,0,1-.8-2.4c.4-.8.1-1-.5-1.3-2.2-1.1-4.6-1.6-6.8-2.6a2.8,2.8,0,0,0-2.7.3l-1,.5a2.5,2.5,0,0,1-2.5.4l-1.8-.4c-1.9-.5-4-2.6-5.6-1.6s-2-.9-3.4-1.2a1,1,0,0,0-1.1.6c-.8,1.5-2.6-.8-4.1-.7a10.6,10.6,0,0,1-4.6-.8c-1.1-.4-2-.9-3.2-.7s-.6,2.2-.9,1.8a3.4,3.4,0,0,0-2.3-1.1,1.4,1.4,0,0,1-1-.4,10.3,10.3,0,0,0-5-2.8,15.4,15.4,0,0,1-4-1.8c-1.5-1.1-1.6-2-2.8-3.2s-4-2.2-5.4-3c-2.5-4.8-4-1.5-6.1-4.1s-1.6-3.1-3.2-3.3a4.5,4.5,0,0,1-2.9-1.1c-1.1-.9-.3-.4-1.4-1.2l-.4-.3c-1.4.1-2.2-1-3.2-1.8a4.8,4.8,0,0,0-4.3-.4,6.5,6.5,0,0,1-2.4.4V146.5h864V.8ZM604.7,12.4a.5.5,0,0,1-.7.3c-.4-.1-.8-.2-.8-.7s.4-.6.8-.5a.8.8,0,0,1,.8.7ZM3.7,22.7l-.3,2.5c0,1.5,1.7,3-.8,2.3S.8,18,3.7,22.7ZM5.3,46.2c-.3,1.7,0,6.1-2.8,5.5-.2-1.7.5-3.9.8-5.6a53.6,53.6,0,0,0,.4-7.4C7.2,40.4,6,42.6,5.3,46.2Zm5.7-10.4c-1.1-.1-1.7-3.2-1.9-4.1v.3a3.3,3.3,0,0,1,0-.9c1.7.2,3.1.8,3.1,2.6S11.9,35.8,11.1,35.8ZM9.6,17.5c-.9-.9-3-3.8-4.1-4.2s1-.9,2-.4,3.1,4.5,6.9,11.2C13.6,23.5,11.4,19.3,9.6,17.5Zm10.8,3.7a7.8,7.8,0,0,0-2-1.9,24.2,24.2,0,0,1-3.1-2.6c-1.1-1-2.2-1.9-3.3-3A37,37,0,0,1,7.8,9.1c-.4-.6-.5-1.3-1.2-1.9s-1.8-1-1.1-1.7,1.5,1,1.8,1.3A5.7,5.7,0,0,0,9.2,8.5c-.1,0-.1,0-.1.2a5.8,5.8,0,0,1,2.9,1.4c.6.5,2,1,2.2,1.8S11.6,9.7,10.5,10s.6.6,1,.9a9.4,9.4,0,0,1,1.8,1.8,9.5,9.5,0,0,0,1.4,1.7,24.3,24.3,0,0,1,2.6,2.1,29.4,29.4,0,0,0,2,2.4A17.4,17.4,0,0,1,21,20.5a9.8,9.8,0,0,1,1,2.1,15.4,15.4,0,0,1,.9,1.5A32.2,32.2,0,0,0,20.4,21.2ZM38.7,36.2c-.6.6-1,.7-1.7.1a10.3,10.3,0,0,1-3.2-4.8l-.5-1.6c1.6.8,2.9,1.1,3.7,2.5a16.5,16.5,0,0,0,1.5,1.5A1.7,1.7,0,0,1,38.7,36.2Zm38.4.9h0c-.1.3-.1.6-.2,1.1s-.4.9-1,.7a1.1,1.1,0,0,1-.8-1.3,2,2,0,0,1,.8-1.3.9.9,0,0,1,1-.3C77.2,36.2,77.2,36.6,77.1,37.1ZM84.6,40c-.8,1.4-1.9,1.5-3.1.4s-.4-1.1.3-1.2l2.9-.2h0C84.9,39.5,84.6,39.7,84.6,40Zm30.4,8.2a2.6,2.6,0,0,1-2.3-1.7.9.9,0,0,1,.6-1.1h.1a.7.7,0,0,1,1,.4,7.2,7.2,0,0,0,1,1.8.4.4,0,0,1,.1.3h0C115.3,48,115.1,48.1,114.9,48.1ZM129,55.4h-.3a19.9,19.9,0,0,1-8.8-4.6c-.1-.1-.1-.3-.1-.4l.3-.2c1.3.8,2.7,1,3.9,1.9a34.3,34.3,0,0,1,3.2,2.1c.5.4,1.3.4,1.9.5s.5.2.4.5S129.2,55.4,129,55.4Zm68.6-10.2a7.5,7.5,0,0,1-5,2.2c-.3.1-.5.1-.6-.2a.5.5,0,0,1,.1-.7l1-1.1,3-2.3c.7-.5,1-.4,1.6.4S198.3,44.6,197.6,45.2Zm22.2-14c.3,0,.6.4.6.8a.9.9,0,0,1,0,.1.9.9,0,0,1-1,.8h-.1a.6.6,0,0,1-.5-.6C218.8,31.8,219.5,31.1,219.9,31.2Zm-6.9,6.1a4.7,4.7,0,0,1-2.7,2.2h-.1c-.3-.1-.4-.2-.3-.4a4.3,4.3,0,0,1,1.6-2.5,1.2,1.2,0,0,1,1.3-.1C212.9,36.7,213.1,36.9,212.9,37.2ZM243,25a.5.5,0,0,1-.1.7.7.7,0,0,1-.8.1c-1.1-.9-1.8-.1-2.4.6l-.6.8a2,2,0,0,1-2.5.8,2.4,2.4,0,0,0-2.9.8,12.4,12.4,0,0,0-1.6,2,1.9,1.9,0,0,0-.3,1.9c.4.7.1,1.1-.4,1.6l-.6.4c-2.5,1.3-4.5,3.2-6.9,4.6a3.7,3.7,0,0,0-1.7,1.8,1.2,1.2,0,0,1-1.3.9,2,2,0,0,0-1.7.9l-.4.4c-.3.2-.6.3-.8.1a.7.7,0,0,1-.1-.7,2.3,2.3,0,0,1,1.4-1.8,12.1,12.1,0,0,0,3.6-2.5l.2-.2a8.1,8.1,0,0,1,3.3-3.2,1.3,1.3,0,0,0,.4-.6c.4-2,2-3.2,3.2-4.6a32.4,32.4,0,0,0,2.8-3.8,2.9,2.9,0,0,1,1.7-1.5,14.1,14.1,0,0,0,2.5-1.5l1.1-.6c1.5-.7,1.7-.6,2.4,1a2.6,2.6,0,0,0,1.3-1.2c.4-.3.8-.7,1.3-.4s.3.9.1,1.3S242.5,24.5,243,25Zm3.1,1.8a.7.7,0,0,1-.6-.5,1,1,0,0,1,1-.9h.1a.4.4,0,0,1,.3.6C246.9,26.4,246.7,26.8,246.1,26.8Zm2.7,3.9c-.4.3-.9.6-1.4.3a1.1,1.1,0,0,1-.5-1.3l.3-.7c.3-.5.4-1.3,1.2-1.1a1.2,1.2,0,0,1,1,1.2C249.3,29.8,249.2,30.3,248.8,30.7Zm77.7-3,.8-.6c.4-.3.6-.9,1.3-.5a2.7,2.7,0,0,1,.7,2.1,1.1,1.1,0,0,1-1.2.7h-.3l-1.1-.2C325.8,28.8,325.7,28.3,326.4,27.7Zm-12.1-3.5h0a.8.8,0,0,1,.8.8h0a.5.5,0,0,1-.5.5c-.5.1-.7-.3-.8-.7h0A.5.5,0,0,1,314.3,24.1Zm-18.2-.3a.7.7,0,0,1-1-.3c-.9-1.1-1.9-2.1-2.9-3.2s-.5-.7-.1-1.1.7-.1,1,.1l1.9,1.2a2.9,2.9,0,0,1,1.5,2.2C296.5,23.4,296.4,23.7,296.1,23.8Zm9.7,20.3a3.4,3.4,0,0,1-.6,1,4.3,4.3,0,0,0-1.1,2.4,3.3,3.3,0,0,1-1.1,2.1h-.6c-.3-.1-.4-.3-.3-.5a13.8,13.8,0,0,1,2.9-5.8c.1-.1.3-.1.4-.1S305.9,43.7,305.8,44.1Zm2-18a1.4,1.4,0,0,1-1.3.8,1.3,1.3,0,0,1-1.1-.9l-.6-1.6a7.5,7.5,0,0,0-2.4-3.9,4.4,4.4,0,0,1-1.5-1.9c-.3-.9-.1-1.2.8-1.5l1.3-.4c.4.1.6.3.4.6s.3,1.5.8,2.2a7.4,7.4,0,0,1,1.5,2.6c.2.8.9,1.1,1.5,1.6A1.6,1.6,0,0,1,307.8,26.2Zm1.7,2.4c-.1-1.3.4-2,1.8-2.3h.9l2.4.3a2.8,2.8,0,0,0,3.2-1.8c.2-.4.3-1.2,1-1.2s.7.8.9,1.3a1.7,1.7,0,0,0,1.7,1.1c.6.1,1.5-.1,1.7.8s-.6,1-1.2,1.3l-1.6.9c-1.1.5-1.7.3-2.2-.8s-1-1.3-1.9-.4a6.8,6.8,0,0,1-4.4,2.2C310.2,29.9,309.7,29.6,309.5,28.6Zm8.1,16.3c-1.3,1.2-1.9,2.5-.8,4.2s0,1-.2,1.5a2,2,0,0,0-.3,1.6,6.3,6.3,0,0,1-.4,4.6,26.2,26.2,0,0,0-1.6,5.7.9.9,0,0,1-.4.8,3,3,0,0,1-.4-2.1,3,3,0,0,0-.1-2.1,1.8,1.8,0,0,1,.1-1.6c.4-.7.2-1.1-.5-1.5l-.6-.3c-.7-.4-.8-.8-.4-1.5a6.2,6.2,0,0,1,1.5-1.7,3.5,3.5,0,0,0,1.1-1.2c.2-.3.4-.7.2-1s-.6-.3-1-.2a5.4,5.4,0,0,0-1.7.7l-.6.4c-.4.3-1,.7-1.5.1s0-.9.4-1.3a16.8,16.8,0,0,1,4.2-3.7,4.3,4.3,0,0,0,1.8-2c.4-.9,1-1.2,1.3-.8A1,1,0,0,1,317.7,44.9Zm13.2-13.1-1.6.9a3.6,3.6,0,0,0-1.8,2.5c-.2,1.3-1.3,1.8-2.2,2.6s-.8.1-1.3-.1a2.6,2.6,0,0,0-3.7.6,2.1,2.1,0,0,1-1.5.8l-2.2.4a1.1,1.1,0,0,1-1.2-.4,1.1,1.1,0,0,1,0-1.4,2.8,2.8,0,0,0,.4-3.1,1.7,1.7,0,0,1,.3-1.7c.5-.8,1.2-1,1.8-.7a1.6,1.6,0,0,1,.6,2.1l-.6,1c-.2.6.2.9.8.8a2.1,2.1,0,0,0,1.2-.9c1-1.5,2.6-2.3,3.8-3.7a2.3,2.3,0,0,1,2.7-.6,4.4,4.4,0,0,0,3.2,0h1.3a.4.4,0,0,1,.4.5Zm85.7-9.7a.6.6,0,0,1,.3.6c-.1.4-.4.3-.8.3a3.8,3.8,0,0,1-2-1.3A3,3,0,0,1,416.6,22.1Zm-6.8-1.1h.1a1.3,1.3,0,0,1,1.1,1c.1.3-.1.4-.3.4a1.6,1.6,0,0,1-1.5-.9C409.2,21.1,409.4,20.9,409.8,20.9Zm-5.1-.3c.3-.6,1-.1,1.5,0a1.2,1.2,0,0,1,.9,1c0,.3-.2.4-.4.3l-1.1-.5C405.2,21.2,404.5,21.1,404.7,20.6Zm-43.1,6.1c.3-.2.6,0,.8.2l4.8,3.3c.9.6,1.7,1.2,2.7,1.7a19.2,19.2,0,0,1,3.9,2.8h.1c2.9,1.1,4.8,3.4,7.3,4.9.3.2.6.3.4.7a.8.8,0,0,1-.6.4h-.3a3.9,3.9,0,0,1-1.8-.5c-3.6-.6-6.5-2.6-9.2-4.7a70.6,70.6,0,0,1-7.1-6,3.8,3.8,0,0,1-1.2-1.9A.8.8,0,0,1,361.6,26.7Zm-26.4-4.9c-.1.5-.7.6-1.1.5l-.6-.3a.6.6,0,0,1-.3-.6c.1-.4.4-.3.7-.3h.5C334.8,21.2,335.4,21.2,335.3,21.9Zm.6,1.9a3,3,0,0,1,2.2.1,7.6,7.6,0,0,0,4.1.9c.5,0,1.3-.1,1.3.6s-.9.4-1.4.4a21.9,21.9,0,0,1-4.6-1.1,3,3,0,0,1-1.6-.9Zm20.8,22.1H356a1.1,1.1,0,0,1-.8-1.4l.4-.8a1.1,1.1,0,0,0-.6-1.4,1.1,1.1,0,0,0-1.5.1c-1,.9-1,.9-1.8.1a6.1,6.1,0,0,0-3.2-1.9c-.6-.1-.8-.5-1.1-.9a2.1,2.1,0,0,0-2.2-1.2,5.8,5.8,0,0,1-4.4-1.6L338.2,35c-.3-.3-.8-.3-.8-.9a4.6,4.6,0,0,1,3,.2,46.4,46.4,0,0,1,7.1,3.5,19.1,19.1,0,0,0,6.9,2.6,3.9,3.9,0,0,1,3.4,3.7A1.6,1.6,0,0,1,356.6,45.8ZM350.5,34c-2.2-1.6-4.6-3-6.5-5a4.8,4.8,0,0,0-2.1-1.1l-.9-.3h-.1a.4.4,0,0,1-.2-.5h0a.5.5,0,0,1,.6-.3l.7.2a14.3,14.3,0,0,1,3.4,2.1,4.2,4.2,0,0,0,1.7,1.1,36.4,36.4,0,0,1,7.8,4.5,16.7,16.7,0,0,0,4.7,2.5,4.6,4.6,0,0,1,3.5,4,13.6,13.6,0,0,1-4-1.4A76.1,76.1,0,0,1,350.5,34Zm15.8,18.2c-.2.4-.6.3-1,.3h-1.6a1.3,1.3,0,0,1-1-1.3,1,1,0,0,1,.4-1.1,1.2,1.2,0,0,1,1.4.1l1.4,1.1A.7.7,0,0,1,366.2,52.2Zm27.5.3a8.7,8.7,0,0,0-2-1.3,3,3,0,0,1-1.7-1.6l-.3-.5c-2.2-1.7-4.4-3.7-7.5-3.5a35.3,35.3,0,0,1-8.9-1,15.7,15.7,0,0,1-3.9-1.4,3.1,3.1,0,0,1-1.4-1.1,4.9,4.9,0,0,0-3.1-2.3l-.4-.3c-.1-.1-.1-.1-.1-.4,1.5.2,3-.2,4.4.4a51.2,51.2,0,0,0,10.2,3.2l1.3.4a19.5,19.5,0,0,0,6.5,1.9h.6a1.6,1.6,0,0,1,1.5,1.6c0,.8.4,1.1,1.2,1.3a3.5,3.5,0,0,1,2.8,1.9,4.8,4.8,0,0,0,1.4,1.6,3.3,3.3,0,0,1,1.2,1.4A1.5,1.5,0,0,1,393.7,52.5Zm11.9,1.1c-.6-.3-1-1-.8-1.5s.9-.5,1.5-.3l.6.2c.5.2,1,.5.8,1.1s-.6.6-1.2.6Zm6.1,3.8a1.3,1.3,0,0,1-1.7.1c-.5-.4-.8-1-1.4-1.3a5.3,5.3,0,0,1-1.9-.9h0c1.8-.2,3.2-.3,4.5.8S412,56.8,411.7,57.4Zm1.6-3.7a.5.5,0,0,1-.6.1l-1.7-1-2.4-1.8c-.3-.2-.4-.4-.3-.8s.4-.3.8-.3h.7a7.9,7.9,0,0,1,3.1,2.3,3.5,3.5,0,0,1,.5.9A.5.5,0,0,1,413.3,53.7Zm13.5,5.6c-.2.4-.5.3-.8.3a1.5,1.5,0,0,1-1.5-1.1.4.4,0,0,1,.2-.5,1.7,1.7,0,0,1,1.7.4C426.7,58.6,427,58.9,426.9,59.3Zm28.5-10.1a.8.8,0,0,1-.8.4,33.3,33.3,0,0,1-5.6-.4,9.2,9.2,0,0,0-3.9-.1,20.5,20.5,0,0,1-3.4.6h-.1a1.2,1.2,0,0,0-1.3,1.1c-.1.8-.6.9-1.3,1.1a23.6,23.6,0,0,1-5.1.4,2.2,2.2,0,0,1-1.4-.5,24.8,24.8,0,0,0-3.9-2.3,7.2,7.2,0,0,0-4.6-.8,6.2,6.2,0,0,1-3.7-.4,1.4,1.4,0,0,0-1-.1,1.1,1.1,0,0,0-.8,1.8,4,4,0,0,0,2,1.5,5.4,5.4,0,0,1,1.7.7c-.3.5-.7.3-1,.5a.9.9,0,0,0-.1,1.5,1.7,1.7,0,0,0,1.8.4c1.8-.6,3.5-.2,5.3,0a6,6,0,0,0,3.2-.2c.3-.1.8-.2.9.3s-.3.6-.6.7a15.6,15.6,0,0,1-7.8.3l-3.2-.9c-.6-.2-1.1-.5-1.1-1.3a2,2,0,0,0-.4-1.6,3.1,3.1,0,0,0-2-1,8.3,8.3,0,0,1-4.9-2.2,20.3,20.3,0,0,0-3.5-2.2L407,45.4a4.1,4.1,0,0,0-2.2-1.1,2.7,2.7,0,0,1-2.1-1.6,9,9,0,0,0-5.5-4.5,15.1,15.1,0,0,1-5-2.9l-.9-.8a.7.7,0,0,1-.2-.9c.3-.4.7-.4,1.1-.2l1.3.8a9.6,9.6,0,0,0,4.7,2.1l1.7.7c2.8,1.2,5.4,3,8.7,2.7a7.3,7.3,0,0,1,3.2.6c5.2,2,10.4,3.8,16,4.4a77.2,77.2,0,0,1,9.3,1.7,65.5,65.5,0,0,0,7.1,1.1,46.7,46.7,0,0,0,6.7.6,12.7,12.7,0,0,1,4.5,1.1Zm8.8-4.7c-.1.4-.6.4-1,.4s-1.3-.3-1.6-.9-.1-.6.1-.7a2.1,2.1,0,0,1,1.8.3C464,43.8,464.3,44.1,464.2,44.5Zm9.1-4.7a5.9,5.9,0,0,0-3.4,1h-.4c-.5,0-.6-.3-.8-.8s-.2-1.1.4-1.3l3-1a1.4,1.4,0,0,1,1.7.8C474.1,39.2,473.9,39.8,473.2,39.8Zm87.9,5.8a.4.4,0,0,1-.5.3c-.4-.1-.7-.3-.7-.8s.3-.4.6-.4h.1a.7.7,0,0,1,.6.8Zm2-23.6a2.8,2.8,0,0,1-1.7.8c-.4,0-.8,0-1-.4s.2-.6.6-.8a2.5,2.5,0,0,1,1.9.1C563.1,21.7,563.2,21.9,563.1,22ZM566,50a4.1,4.1,0,0,1-2.3-1.6c-.2-.4-.3-.7.1-1a.9.9,0,0,1,1-.1c1,.4,1.8,1.3,1.8,2h0C566.5,49.7,566.4,50,566,50Zm14-15.8c-.1.2-.4.1-.6.1l-1.3-.2c-2.4.4-3.9-1.1-5.5-2.3a1.5,1.5,0,0,1-.6-.7,1,1,0,0,1,0-1,.8.8,0,0,1,1-.2,4.9,4.9,0,0,1,1.8.8,7.6,7.6,0,0,0,3,1.4,3,3,0,0,1,2.1,1.4A.5.5,0,0,1,580,34.1Zm18.3-3.8h1.3a4.1,4.1,0,0,1,2,.3c.3.2.6.4.5.8s-.3.4-.6.6a3.8,3.8,0,0,1-3.4-.8C597.7,30.7,597.8,30.5,598.3,30.3Zm16.3,13.4c-.1.4-.5.4-.9.3l-1.7-.8a2.4,2.4,0,0,0-2.6-.1,1.7,1.7,0,0,1-2.1-.3l-3.7-2.7a2,2,0,0,0-1.6-.5h-.6a4.8,4.8,0,0,1-5.3-1.8,3.9,3.9,0,0,0-1.9-1.4,11.3,11.3,0,0,1-3.3-1.8l-3.1-2a3.7,3.7,0,0,1-1.3-1.3,12.6,12.6,0,0,0-2.5-3c-.4-.3-1-.8-.5-1.4s1.1-.5,1.7.1a4,4,0,0,0,2.5,1.5l.8.4A123.7,123.7,0,0,0,600,37a28.2,28.2,0,0,0,5.9,2.4,6.5,6.5,0,0,1,1.8,1c.8.6,1.8,1.1,2.7,1.7a1.6,1.6,0,0,0,1.2.1,3.7,3.7,0,0,1,2.5.8C614.4,43.2,614.7,43.4,614.5,43.8Zm6.4-7.1c.7,0,1.3.4,1.3.8s-.6.8-1,.9-1-.6-1-1.2S620.6,36.7,620.9,36.7ZM634.6,62h0a17.2,17.2,0,0,1-7.2-2.4l-.4-.4a5.1,5.1,0,0,0-3.2-2.5,17,17,0,0,1-3.2-2,1.6,1.6,0,0,1-.7-1.6,1.2,1.2,0,0,1,1.5-1.3l1.3.4a8.5,8.5,0,0,0,3,1.1,4.7,4.7,0,0,1,2.2,1.1l2.3,1.8c.7.4,1.3.9,1.3,1.9s.6.8,1.1,1.1a7.4,7.4,0,0,1,2.7,1.7.8.8,0,0,1,.3.7A.7.7,0,0,1,634.6,62Zm13.7-28.9c.1-.4.6-.4.9-.4h.9a1.8,1.8,0,0,0,2.1-.8c.4-.7,1-.7,1.7-.3l1.4.9a3.3,3.3,0,0,0,3.1.5l1-.3c1-.2,1.5,0,1.7,1s.7,2,2,2.4.5.6.1,1a1.7,1.7,0,0,1-1.8.3l-2.4-1a10.7,10.7,0,0,0-6.4-1.5,6.2,6.2,0,0,1-2.4-.4l-1.2-.6C648.5,33.8,648.1,33.6,648.3,33.1Zm-5.8.1a.7.7,0,0,1,.8-.6c.8,0,1.7.7,1.7,1.3s-.3.8-.8.8h0a1.8,1.8,0,0,1-1.7-1.4A.7.7,0,0,1,642.5,33.1Zm-6,3.8c-.3-.1-.5-.2-.5-.5s.3-.4.6-.6a2.3,2.3,0,0,1,3,1.5h0A5,5,0,0,1,636.5,36.9ZM665,46.5l-2.5-.6a2.5,2.5,0,0,0-2.3.3,2.8,2.8,0,0,1-1.6.5c-1.1.1-1.5,0-1.8-1.1a2,2,0,0,0-1.3-1.3,1.1,1.1,0,0,0-1.5.4,1.1,1.1,0,0,0,.3,1.5l2.2,1.6c.3.3,1,.4.8.9s-.9.3-1.3.1l-1-.4a3.7,3.7,0,0,1-3.2-2.4,2.5,2.5,0,0,0-2.4-1.4c-.4,0-1,.1-1.3-.3s-1.2-.6-2-.4a8.5,8.5,0,0,1-5.8-1.4,1,1,0,0,1-.6-1.1c.1-.6.6-.6,1.1-.6a9.8,9.8,0,0,1,3.3.3l1.3.4c.4.1.8.2,1.1-.3s0-.6-.2-.9l-.3-.5c-.2-.4.1-.6.4-.5l1.1.4,3.6,1.7c1,.4,1.5.2,1.8-.9s.2-1.1.3-1.6,1.1-1.8,2.6-1.6,1.9.8,1.9,2.2V40c0,.2,0,.4.2.3s.4,1.3,1.3.9l2.2-1.1,1.2-.6h.2a.8.8,0,0,1,.9.5c.3.9.6,1.7.9,2.6s-.1.8-.7.9a3.9,3.9,0,0,1-1.8-.6,2.6,2.6,0,0,0-3.1.7c-.3.3-.5.7-.2,1.1s.7.3,1.1.1l.8-.4a.9.9,0,0,1,1-.1,10.6,10.6,0,0,0,3.6,1.5c.3.1.6.2.6.6S665.3,46.5,665,46.5Zm7.2-11.1a4.4,4.4,0,0,0-.3,2,1.1,1.1,0,0,1-1.3,1.3c-.6,0-.8-.3-.6-.8a12.7,12.7,0,0,1,1.4-3c.1-.3.4-.4.6-.3A.5.5,0,0,1,672.2,35.3Zm1-4.6a2.8,2.8,0,0,1-2.4.2c-.3-.1-.6-.3-.6-.6s.2-.6.5-.8a3.2,3.2,0,0,1,1.8-.4h.4c.4.1,1,.2,1.1.7S673.5,30.5,673.1,30.7Zm5.3,11.1-1.1.6c-.5.3-1,.4-1.1-.4s-.4-.7-.9-.8a2,2,0,0,1-1.1-.7c-.3-.4-.4-.8-.2-1.1a9.8,9.8,0,0,0,1.1-2.2l.3-.3c.6,0,.8.2.9.4a3.7,3.7,0,0,0,2,2.3l.4.4C679.4,41,679.4,41.3,678.4,41.9Zm44.9-6.2a.4.4,0,0,1-.6.1c-.4-.1-.9-.3-.8-.8s.3-.3.6-.3.8.3.9.8Zm1.1-12.1a8.6,8.6,0,0,0-4.1,2.2c-.8.7-2,.7-2.9,1.1h0a.6.6,0,0,1-.7-.4l-.2-.6c-.4-1.2-1.1-1.3-2-.5s-1.5,1.4-2.3-.3a1.7,1.7,0,0,0-1.7-.9,2.9,2.9,0,0,0-2.5,1.5,2.8,2.8,0,0,1-2,1.5,3.2,3.2,0,0,0-2.2,1.6l-.4.6a1.9,1.9,0,0,1-2.4.1c-.4-.4-.5-1.1.1-1.8s1.9-3.3,3.6-4.2.5-.6.8-.9.2-.2,1-.4-.4.9-.6,1.3-.1.8.3,1.1a1,1,0,0,0,1-.1c.8-.6,1.1-1.5,1.7-2.3a2.5,2.5,0,0,0,.2-2.6,2.2,2.2,0,0,1,1.3-2.7c.7-.3,1.1,0,1,.8l-.6,3.3c-.1.5-.5.8-.9,1.1s-.4.4-.3.8a.7.7,0,0,0,.8.3l1.6-.6,1.7-.7a3,3,0,0,0,2.6-1.6.4.4,0,0,1,.5-.1.5.5,0,0,1,.1.6,4.1,4.1,0,0,1-1.1,1.6c-.6.8-.4,1.2.5,1.5a3.9,3.9,0,0,0,4.3-2,13.7,13.7,0,0,0,.8-2.3c.4-1.1,1-1.2,1.8-.4s.8.8.8,1.5a2.8,2.8,0,0,0,.6,2C725.2,23,725,23.4,724.4,23.5Zm16.6,10.2h-.3a2.5,2.5,0,0,1-2.4-1.8h0a.9.9,0,0,1,.5-1.1h.2a.8.8,0,0,1,1.1.5c.3.6.5,1.1,1.2,1.3s.7.3.6.7S741.5,33.7,741.1,33.7Zm23.3-1.1c.2-.4.6-.4,1-.4h.1a1.4,1.4,0,0,1,1.3,1.1.6.6,0,0,1-.3.6c-.6.3-1,.1-1.5-.3l-.3-.2C764.5,33.2,764.2,32.9,764.3,32.6Zm3.5,5.2H767a2.9,2.9,0,0,1-3.1-1.8c-.3-.7,0-1.1.7-1a9.5,9.5,0,0,1,3.4,1.6C768.5,37.1,768.4,37.6,767.8,37.7Zm13.7-11.3c-.4,0-.7-.1-.7-.6s.4-.8.9-.9.7.3.8.7S782.1,26.4,781.5,26.4Zm60.8-4A5.4,5.4,0,0,1,840,24a.8.8,0,0,1-.8-.3.7.7,0,0,1,.1-.8,6.1,6.1,0,0,1,2.2-1.5h.3a.7.7,0,0,1,.6.7h0Zm9.2-7.5a5.5,5.5,0,0,0-1.8,1.6,3.6,3.6,0,0,1-1,.9,17.6,17.6,0,0,0-3.3,2.4,1,1,0,0,1-.7.3h0q-.4-.1-.2-.6l.6-.7a14.8,14.8,0,0,0,2.7-3.2l1.3-1.5a1.2,1.2,0,0,1,1.1-.4,1.8,1.8,0,0,0,2-1.3c.4-.8,1.1-1.6,1.6-2.4a1.9,1.9,0,0,1,.8-.9c.2-.1.4-.1.6.1a.4.4,0,0,1,.1.4l-.5,1.3A9.5,9.5,0,0,1,851.6,14.9Zm4.6,8.3h0a1,1,0,0,1-1.1,1c-.5-.1-1.3-.6-1.3-1h0a1,1,0,0,1,1.1-1c.6.1,1.3.6,1.3,1.1Zm3.8-8.1h-.3a.4.4,0,0,1-.3-.4,2.2,2.2,0,0,1,.8-1.9.5.5,0,0,1,.7-.1.9.9,0,0,1,.3.6A2.9,2.9,0,0,1,860,15.2Z" id="svg_20" class="" fill="#484848" fill-opacity="1"/></g></svg>