<?xml version="1.0" encoding="utf-8"?>
<!-- Generator: Adobe Illustrator 20.0.0, SVG Export Plug-In . SVG Version: 6.00 Build 0)  -->
<svg version="1.1" id="Calque_1" xmlns="http://www.w3.org/2000/svg" xmlns:xlink="http://www.w3.org/1999/xlink" x="0px" y="0px"
	 viewBox="0 0 305.9 208.6" style="enable-background:new 0 0 305.9 208.6;" xml:space="preserve">
<style type="text/css">
	.st0{fill:#666666;}
	.st1{fill:none;stroke:#1A171B;stroke-width:0.8;stroke-linecap:round;stroke-linejoin:round;}
	.st2{fill:none;stroke:#000000;stroke-width:0.8;}
	.st3{fill:#FFFFFF;stroke:#000000;stroke-width:0.8;}
	.st4{fill:url(#SVGID_1_);stroke:#000000;stroke-width:0.8;}
	.st5{fill:#FFFFFF;stroke:#1A171B;stroke-width:0.8;stroke-linecap:round;stroke-linejoin:round;}
	.st6{fill:#FFFFFF;stroke:#1A171B;stroke-width:0.8;}
	.st7{fill:url(#SVGID_2_);stroke:#1A171B;stroke-width:0.8;stroke-linecap:round;stroke-linejoin:round;}
	.st8{fill:url(#SVGID_3_);stroke:#1A171B;stroke-width:0.8;stroke-linecap:round;stroke-linejoin:round;}
	.st9{fill:url(#SVGID_4_);stroke:#000000;stroke-width:0.8;stroke-miterlimit:10;}
	.st10{fill:url(#SVGID_5_);}
	.st11{fill:#E75300;}
	.st12{fill:#FFFFFF;}
	.st13{fill-rule:evenodd;clip-rule:evenodd;fill:#1A171B;}
</style>
<g>
	<polygon class="st0" points="139.9,87 166,101.2 139.9,115.3 	"/>
</g>
<g>
	<g>
		<path class="st1" d="M232.3,98.5c0,0,2.1-1.1,2.9-1.6"/>
	</g>
</g>
<path class="st2" d="M207.1,72c0,0,4.6-0.5,6.1-1.2c1.5-0.7,2.5-1.9,5.5-1.1c3,0.8,3.7,1.9,11.7,2"/>
<path class="st3" d="M208,84.3c0,0,4.4,0.1,8.9,0.1c2.6,0,6.6,1.1,9.2,1.2c2.6,0.1,5.9,0.6,8.4,0.6c2.1,0,11.8-1.9,13.5-5.1
	c1.2-2.1,0.6-5,0.6-5s-0.7-3-4.2-3.2c-3.5-0.2-4.8,0-4.8,0"/>
<path class="st2" d="M217.1,69.4c0,0-1.9,0.5-1.9,2.8c0,2.3,1.3,4.9,5,6.9c3.7,2.1,10.6,3.7,15.1,3.1c3.7-0.4,9.1-1,11.8-2.9
	c0,0,1.6-1.3,1.4-3.3"/>
<path class="st2" d="M237.2,75.2c1.2,0.4,2,0.8,2,1.4c0,1.1-3.3,2-7.4,2c-4.1,0-7.4-0.9-7.4-2c0-0.8,1.9-1.5,4.5-1.8"/>
<path class="st2" d="M226.9,78.1c0.3-0.1,0.5-0.1,0.8-0.2"/>
<path class="st2" d="M207.5,79.1c0,0,1.5,0.1,2.5,0.2c1,0.1,2.8,0.3,5.1,1.5c2.3,1.2,6.4,4.2,9.5,4.6"/>
<linearGradient id="SVGID_1_" gradientUnits="userSpaceOnUse" x1="269.4761" y1="60.9061" x2="284.5021" y2="54.7604">
	<stop  offset="0" style="stop-color:#FFFFFF"/>
	<stop  offset="1" style="stop-color:#E75300"/>
</linearGradient>
<path class="st4" d="M250.2,43.2c0,0,3.7,16,6.4,12.4c4-5.5,5-23,5-23s-1.6,25.2,4,27.9c5.6,2.6,22.4-15.4,31.7-24
	c0,0-24.6,28.9-22.7,32.3c1.9,3.4,16.4,1.4,31.2,2c0,0-44.8,4.1-27.8,18.3"/>
<path class="st5" d="M263.3,77c0,0,1.3,5.3,1.6,6.7c0.3,1.4,1.4,5.9,1.7,7.4c0.3,1.4,1.3,6,1.4,6.8c0.2,0.8,1.2,6.1,1.4,7.2
	c0.2,1.1,0.9,5.1,1.2,6.8c0.3,1.7,0.8,4.3,0.8,5.5c0.1,1.2-0.1,3-0.8,5.1c-0.4,1.2-1.1,2.4-2,3.5c-0.7,0.8-1.6,1.7-2.6,2.4
	c-0.9,0.6-1.8,1-2.6,1.3c-0.8,0.3-2.5,0.8-5.1,0.7c-2.6-0.1-4.8-0.4-7-1.2c-2.2-0.8-4.1-1.6-5.4-2.4c-1.4-0.9-2.6-2.1-3.1-2.7
	c-0.3-0.3-1.6-2.5-2-4.6c-0.2-1.1,1-1.7,2.3-2c1.3-0.3,3-0.6,3.8,0.5c1.3,1.8,4.1,3.1,5.6,3.6c1.7,0.6,5.3,1,6,1
	c0.7,0,1.5,0.1,2.9-0.6c1.9-0.9,2.2-2.4,2.4-3.3c0.2-0.9-0.1-1.6-0.1-1.6s-0.1-0.6-0.5-2.9c-0.5-2.6-1.2-6.8-1.4-8.2
	c-0.3-1.4-1.1-5.6-1.4-7.2c-0.3-1.6-1.2-5.8-1.2-5.8s-0.7-3.2-1.1-4.7c-0.4-1.6-1.1-4.8-1.1-4.8l1.3-0.5l0.5-2.3L263.3,77z"/>
<path class="st5" d="M235.7,78.3c0.6-1.1,1.3-2.3,2.2-3.4c2.3-3.1,4.1-4.7,4.1-4.7s0.2-0.1,0.4-0.3c0.2-0.2,1-1.1,2.7-1.2
	c1.6-0.1,2.2,0.3,3.1,0.9c0.8,0.6,1.3,1.6,1.3,1.8c0.1,0.2,0.5,1,0.7,1.4l1.2-0.9l0.6-1.8l4.5-2.2c-1.3-2.5-2.6-3.7-3.5-4.4
	c-1.3-0.9-3.3-2.5-6.2-2.7c-3.1-0.3-4.9,0.5-5.7,0.8c-0.8,0.3-2.7,1.1-5.3,3.6c-2.8,2.7-4.1,4.7-5.4,6.6c-1.3,1.9-2.4,4.5-2.8,5.4
	c-0.1,0.2-0.2,0.5-0.3,0.8c0,0,1.5,0.3,2.8,0.4c1.3,0.1,2.3,0.1,3.5,0C234.8,78.4,235.7,78.3,235.7,78.3z"/>
<path class="st5" d="M233.1,86.1c-0.4,2.2-0.4,3.9-0.4,3.9l0,0.6c1.5,5.1,3.2,6.8,3.5,7.5c0.5,1-4,3-4.6,2.5c-0.7-0.6-1-0.8-3.1-3
	c-0.7-0.8-0.9-1-1.4-1.8c-0.4-0.4-1-1-1.5-2.1c-0.4-1-0.4-1.6-0.4-2c0-0.4-0.2-1.7-0.1-3.2c0-0.7,0.1-1.8,0.2-2.9
	c0,0,1.4,0.1,1.9,0.1c0.5,0,1.8,0.1,2.4,0.2c0.6,0,1.3,0.1,2.1,0.2C232.5,86.1,233.1,86.1,233.1,86.1z"/>
<path class="st1" d="M233.2,92.6c-0.8,0.5-4.8,2.5-4.8,2.5"/>
<path class="st6" d="M230.7,96.4c-0.6-1.3,0.6-2.1,1.4-2.6c0.8-0.5,3.1-1.1,3.1-1.1s1.3-0.3,2.1,1.8c3.2,8.4,10.5,26.3,10.5,26.3
	c0.8,2-0.5,2.4-0.5,2.4s-0.3,0.2-1.1,0.4c-1.3,0.3-2,0.4-2.5,0.5c-1.5,0.4-2.1-1.4-2.1-1.4S237.1,109.8,230.7,96.4z"/>
<path class="st5" d="M244.5,119.4c0,0,1.3-0.2,1.4,1c0.2,1.1-0.9,1.4-0.9,1.4s-1.2,0.2-1.4-0.9C243.4,119.8,244.2,119.5,244.5,119.4
	L244.5,119.4z"/>
<path class="st2" d="M4.5,70.6c0,0,4.9-0.6,6.6-1.3c1.7-0.7,2.7-2,5.9-1.2c3.2,0.8,5.1,2.1,13.7,2.2"/>
<path class="st2" d="M5.4,83.8c0,0,4.8,0.1,9.5,0.1c2.8,0,7.1,1.2,9.9,1.3c2.7,0.1,6.3,0.6,9,0.6c2.7,0,16,0.4,14.9-10.2
	c0,0-0.2-1.5-0.7-2.3"/>
<path class="st2" d="M15.3,67.8c0,0-2.1,0.6-2.1,3c0,2.4,1.4,5.2,5.3,7.4c3.9,2.2,11.4,3.9,16.2,3.4c4.9-0.6,12.4-1.3,14-4.6"/>
<path class="st2" d="M4.9,78.3c0,0,1.6,0.1,2.7,0.2c1,0.1,3,0.3,5.4,1.6c2.4,1.3,6.8,4.5,10.2,5"/>
<path class="st2" d="M38.9,75.6c0,1.2-3.5,2.1-7.9,2.1c-4.4,0-7.9-1-7.9-2.1c0-1.2,3.5-2.1,7.9-2.1C35.3,73.4,38.9,74.4,38.9,75.6z"
	/>
<path class="st2" d="M25.7,77.2c1.4-0.3,3.2-0.5,5.2-0.5c2,0,3.9,0.2,5.3,0.5"/>
<g>
	<g>
		<path class="st1" d="M39.6,106.3c0,0,1.7-2.1,2.3-2.9"/>
	</g>
</g>
<linearGradient id="SVGID_2_" gradientUnits="userSpaceOnUse" x1="51.8637" y1="89.1864" x2="37.1991" y2="79.7415">
	<stop  offset="0" style="stop-color:#FFFFFF"/>
	<stop  offset="1" style="stop-color:#E75300"/>
</linearGradient>
<path class="st7" d="M35.9,77.2c0.8-2.5,1.4-3.9,1.4-3.9s0.1-0.2,0.3-0.4c0.1-0.2,0.4-0.7,0.9-1.4c0.7-1.1,2.6-1.7,4.4-1.2
	c2.3,0.7,4.4,2.7,4.4,2.7c1.4,1.2,5,4.1,5,4.1s2.8,2.4,4.2,3.5c1.3,1.1,4.1,3.5,4.1,3.5s3.5,3.1,4.9,4.3c1.3,1.2,4.9,4.4,6,5.5
	c1.1,1,4.5,4.3,6.7,6.3c1.9,1.8,2.4,2.2,2.4,2.2s0.7,0.5,1.2,1.3c0.4,0.8,1.2,2.4,0.1,4.4c-0.8,1.5-1.5,1.9-2.2,2.4
	c-0.7,0.4-4.2,2.4-6,3.1c-1.6,0.5-5,1.2-7.3,0.5c-1.4-0.4-2.7,0.9-3.7,2c-1,1.1-1.6,2.5-0.8,3.3c1.8,1.6,4.3,2.6,4.8,2.7
	c0.8,0.1,2.7,0.4,4.5,0.3c1.8-0.1,4-0.7,6.4-1.4c2.4-0.8,4.6-2,7-3.6c2.4-1.6,3.5-3.2,4-4c0.6-0.8,1-1.7,1.5-2.8
	c0.5-1.3,0.7-2.6,0.8-3.8c0.1-1.6-0.1-3.1-0.5-4.4c-0.7-2.3-1.7-4-2.6-5c-0.8-1-3-3-4.3-4.3c-1.4-1.3-4.6-4.3-5.5-5.2
	c-0.9-0.9-5.3-4.9-6-5.5c-0.6-0.6-4.5-4-5.7-5c-1.2-1.1-5.1-4.4-6.4-5.4c-1.2-1-5.8-4.8-5.8-4.8s-2.1-1.6-2.8-2.2
	c-2.4-2-4.3-2.7-5.5-3c-0.4-0.1-0.8-0.2-1.4-0.3c-5.3-0.6-8.1,1-8.1,1c-1.9,0.9-2.9,2-3.4,2.5c-0.6,0.6-2.3,2.3-3.8,6
	c-1.1,2.6-1.7,4.5-2.1,6.3c0,0,1.1,0.2,1.6,0.2c0.5,0,2,0.1,3,0.1c1,0,1.8-0.1,2.6-0.2C34.7,77.4,35.9,77.2,35.9,77.2z"/>
<linearGradient id="SVGID_3_" gradientUnits="userSpaceOnUse" x1="34.6137" y1="93.9203" x2="34.4479" y2="80.4994">
	<stop  offset="0" style="stop-color:#FFFFFF"/>
	<stop  offset="1" style="stop-color:#E75300"/>
</linearGradient>
<path class="st8" d="M34.4,85.8c-0.1,1.9,0.1,3.6,0.4,5.4c0.5,3.6,1.6,6.3,1.6,6.3l0.3,0.6c3.7,4.6,6.1,5.5,6.8,6.1
	c0.9,0.7-2.7,4.8-3.6,4.5c-0.9-0.3-1.3-0.4-4.4-1.8c-1-0.5-1.3-0.6-2.2-1.2c-0.6-0.2-1.4-0.6-2.4-1.5c-0.9-0.9-1.1-1.5-1.3-1.8
	c-0.2-0.4-1-1.7-1.5-3.2c-0.5-1.5-1.6-4.6-1.8-6.2c-0.3-2.5-0.6-5-0.6-6.1c0-0.3,0-0.9,0-1.5c0,0,1.5,0.1,2,0.2
	c0.6,0,2.4,0.2,3.2,0.3C31.8,85.7,34.4,85.8,34.4,85.8z"/>
<path class="st1" d="M38,99.9c-0.6,0.8-3.8,4.5-3.8,4.5"/>
<path class="st6" d="M37.8,105.6c-1.4-0.7-0.8-2.3-0.5-3.2c0.4-0.9,2-3,2-3s0.9-1.1,3,0.2C50.7,105,68.9,116,68.9,116
	c2,1.2,1.1,2.4,1.1,2.4s-0.1,0.4-0.7,1.1c-1,1.1-1.5,1.7-1.8,2.1c-1.1,1.3-2.8,0.2-2.8,0.2S52.3,113.2,37.8,105.6z"/>
<path class="st5" d="M65,116.9c0,0,1-1,1.9-0.1c0.9,0.9,0.1,1.8,0.1,1.8s-1,1-1.8,0.2C64.3,117.9,64.8,117.2,65,116.9L65,116.9z"/>
<g>
	<path d="M66.1,64.8c-0.1-0.3-0.1-0.6-0.2-0.9l11.7-2.5c0.1,0.5,0.2,1,0.3,1.4L66.1,64.8z M28,58.5l-10.6-5.7
		c0.2-0.4,0.5-0.9,0.7-1.3l10.3,6.1C28.3,57.9,28.2,58.2,28,58.5z M63.8,58.1c-0.2-0.3-0.3-0.5-0.5-0.8L73.5,51
		c0.3,0.4,0.5,0.8,0.7,1.3L63.8,58.1z M32.4,52.9l-8-8.9c0.4-0.3,0.7-0.6,1.1-0.9l7.6,9.3C32.9,52.5,32.7,52.7,32.4,52.9z
		 M59.3,52.7c-0.2-0.2-0.5-0.4-0.7-0.6l7.4-9.4c0.4,0.3,0.8,0.6,1.1,0.9L59.3,52.7z M38.4,49.2L34,38c0.5-0.2,0.9-0.4,1.4-0.5
		l4,11.3C39,49,38.7,49.1,38.4,49.2z M53.2,49c-0.3-0.1-0.6-0.2-0.9-0.3l3.7-11.4c0.5,0.2,0.9,0.3,1.4,0.5L53.2,49z M45.3,47.7
		l-0.4-12c0.3,0,0.7,0,1,0l0.5,0l-0.2,12l-0.3,0C45.7,47.7,45.5,47.7,45.3,47.7z"/>
</g>
<path class="st2" d="M7.8,13.9c-1,8.8-2.8,33.3-3.3,37.5c-0.5,4.2-0.2,17.4,0,22.3c0.2,4.9,1,4.7,0.5,11c-0.5,6.4-2.7,11.8-3.4,17.4
	c-0.7,5.6-1.7,12.8-0.7,17.9c1,5.2,1.7,13.3,2.7,14.2c1,1,1.7-9.1,1.5-12c-0.2-2.9,0-13.5,1.2-17.4C7.4,101,9.3,84,9.3,84"/>
<path class="st2" d="M9.9,69.6c0,0,1.5-7.1,1.7-9.3C11.9,58,11.5,44,11,37.6c-0.5-6.4-1.9-16.4-3.1-23.7"/>
<path class="st2" d="M210.6,14.5c-1,8.8-2.8,33.3-3.3,37.5c-0.5,4.2-0.2,17.4,0,22.3c0.2,4.9,1,4.7,0.5,11s-2.7,11.8-3.4,17.4
	c-0.7,5.6-1.7,12.8-0.7,17.9c1,5.2,1.7,13.3,2.7,14.2c1,1,1.7-9.1,1.5-12c-0.2-2.9,0-13.5,1.2-17.4c1.2-3.9,3.1-20.9,3.1-20.9"/>
<path class="st2" d="M212.7,70.1c0,0,1.5-7.1,1.7-9.3c0.2-2.2-0.1-16.2-0.6-22.6c-0.5-6.4-1.9-16.4-3.1-23.7"/>
<linearGradient id="SVGID_4_" gradientUnits="userSpaceOnUse" x1="1256.4397" y1="864.5469" x2="1256.4397" y2="817.5596" gradientTransform="matrix(1 0 0 1 -999.6465 -656.3672)">
	<stop  offset="0" style="stop-color:#919294"/>
	<stop  offset="0.3207" style="stop-color:#C0C0C1"/>
	<stop  offset="0.6087" style="stop-color:#E2E2E3"/>
	<stop  offset="0.8449" style="stop-color:#F7F7F8"/>
	<stop  offset="1" style="stop-color:#FFFFFF"/>
</linearGradient>
<polyline class="st9" points="267.2,161.2 267.2,186 275.3,186 256.8,208.2 256.8,208.2 238.3,186 246.3,186 246.3,161.2 "/>
<g>
	
		<linearGradient id="SVGID_5_" gradientUnits="userSpaceOnUse" x1="-1091.5406" y1="-1392.3857" x2="-1091.5406" y2="-1435.2266" gradientTransform="matrix(-1 0 0 -1 -836.5424 -1250.4229)">
		<stop  offset="0.4982" style="stop-color:#FFFFFF"/>
		<stop  offset="1" style="stop-color:#FFFFFF;stop-opacity:0"/>
	</linearGradient>
	<rect x="230.6" y="142" class="st10" width="48.9" height="42.8"/>
</g>
<path class="st3" d="M111.9,129.2l-20.2-17.1c0,0-3.9-3.1-6.1-4.3c-2.1-1.3-4.7-3.7-5.9-2.3c-1.2,1.4-5.2,6.8-5.2,6.8
	c-0.3,0.4,3.6,4.7,4.9,6.1c1.3,1.4,4.1,3.8,4.1,3.8c4.6,3.8,9.7,8,11.6,9.6c3.5,2.9,1.8,1.9,8.8,7.6"/>
<path class="st3" d="M251.2,163.4v-31.1c0,0,0.1-4.5,0.5-6.8c0.3-2.2,0.1-5.4,1.8-5.4c1.7,0,7.8,0.3,7.8,0.3c0.5,0,1.2,5.2,1.4,7
	c0.2,1.7,0.3,5.1,0.3,5.1c0,5.5,0,11.5,0,13.7c0,4.1,0,0.4,0,8.6c0,2,0,4.9,0,8.2"/>
<g>
	<g>
		<g>
			<g>
				<path class="st11" d="M172.7,34L155.9,3.6l0,0l0-0.1c-1.2-2.1-3.5-3.5-5.9-3.5c-2.5,0-4.8,1.4-6,3.5l0,0l0,0L127,34.1
					c-1.2,2.1-1.1,4.6,0.1,6.6c1.2,2.1,3.6,3.4,6.1,3.3H133h33.7h-0.1c2.5,0.1,4.8-1.2,6-3.4C173.8,38.6,173.8,36.1,172.7,34z"/>
			</g>
			<path class="st12" d="M169.2,35.8c0.5,0.9,0.6,2,0,2.9c-0.5,0.9-1.5,1.5-2.6,1.5H133c-1,0-2-0.4-2.6-1.4c-0.5-0.9-0.5-2,0-2.9
				l16.9-30.6c0.5-0.9,1.4-1.5,2.5-1.5c1.1,0,2,0.6,2.5,1.5L169.2,35.8z"/>
		</g>
	</g>
	<path class="st13" d="M160.7,22c-0.3-0.4-1.7,0-1.8-0.6c-0.1-0.5-0.3-2.3-1.4-1.4c-1.1,0.9-0.4,1.8-0.6,2.1
		c-0.3,0.2-1.2,0.8-1.9,1.3c-0.7-0.6-1.6-3.2-5.8-2.8c-2.7,0.3-3.3,1.5-3.8,1.5c-0.4-0.4-1.1-0.9-0.7-1.9c0.5-1,0.8-2.4-0.1-2.6
		c-0.9-0.1-1.7,0.2-1.8,0.7c-0.1,0.5,0,1.2-0.7,1.2c-0.5,0-1,0.4-1,1.2c0.2,0.8,0.4,1,0.8,0.9c0.4-0.1,1.1-0.3,1.2,0.2
		c0.1,0.4,0.7,1,0.8,1.6c-0.4,0.7-1.2,1.7-1.3,2.9c-0.2,1.8,0.7,2.9,0.3,3.2c-0.4,0.3-2.4,2.4-2.9,2.4c-0.6,0-2.2-1.2-2.8-0.3
		c-0.6,0.9-0.7,1.7,0,2.1c0.7,0.3,1.1,0.2,1.2,0.9c0.1,0.7,0.8,1.1,1.5,0.8c0.7-0.3,1.2-1,1.2-1.5c0-0.5,0.2-1.1,0.7-1.4
		c0.5-0.2,1.1-0.8,1.4-1c0.5-0.4,1.1-0.8,1.3-0.9c0.4,0.1,0.6,0,0.8,0.3c-0.2,0.4-0.3,0.8-0.3,0.9c-0.1,0.2-0.2,0.5,0.9,0.6
		c0.4,0.1,0.6,0.2,0.8-0.4c0.1-0.3,0.1-0.4,0.4-0.8c0.7,0.2,1.7,0.4,1.6,0.8c-0.2,0.5-0.5,1.1-0.3,1.3c0.5,0.1,1.4,0.2,2.8-0.2
		c0.4,1.2,1.9,2.4,1.2,3.7c-0.3,0.5,0.2,1.7,1.2,1.6c1.2-0.1,0.8-0.8,1.5-1.6c0.6-0.8,2.8,0.3,1.7-2.4c-0.4-1.1-1.6,0.3-2.2-0.2
		c-0.6-0.4-2.4-3-2.4-3.2c0-0.2-0.3-1.3,0.3-1.5c0.6-0.2,1.6-0.6,2-1.5c0.4-0.7,0.9-2,1-3.2c0.9-0.3,1.8-1.4,2.2-1.2
		c0.4,0.1,1.8,1.1,2.6,0.5S161,22.4,160.7,22z M145.6,28c-1.2,0.3-1.1-1-1.3-1.9c-0.2-0.9,0.3-2.1,1.2-2
		C147.2,24.1,146.8,27.7,145.6,28z M150.1,27.1c-1.3,1.9-2.6,1.7-2.7,0c-0.1-1.6,0.4-3,1.3-3.1C150,24,151,25.9,150.1,27.1z"/>
</g>
</svg>
