<?xml version="1.0" encoding="utf-8"?>
<!-- Generator: Adobe Illustrator 20.0.0, SVG Export Plug-In . SVG Version: 6.00 Build 0)  -->
<svg version="1.1" id="Calque_1" xmlns="http://www.w3.org/2000/svg" xmlns:xlink="http://www.w3.org/1999/xlink" x="0px" y="0px"
	 viewBox="0 0 287 258.7" style="enable-background:new 0 0 287 258.7;" xml:space="preserve">
<style type="text/css">
	.st0{fill:#FFFFFF;stroke:#1A171B;stroke-width:0.8;}
	.st1{fill:none;stroke:#000000;stroke-width:0.5;stroke-dasharray:3,3;}
	.st2{enable-background:new    ;}
	.st3{fill:none;stroke:#1A171B;stroke-width:0.8;stroke-linecap:round;stroke-linejoin:round;}
	.st4{fill:#FFFFFF;stroke:#1A171B;stroke-width:0.8;stroke-linecap:round;stroke-linejoin:round;}
	.st5{fill:#FFFFFF;stroke:#000000;stroke-width:0.8;}
	.st6{fill:url(#SVGID_1_);}
	.st7{fill:none;stroke:#000000;stroke-width:8;stroke-dasharray:1.2,6;}
	.st8{fill:url(#SVGID_2_);stroke:#1A171B;stroke-width:0.8;}
	.st9{fill:#FFFFFF;}
	.st10{fill:#666666;}
	.st11{fill:url(#SVGID_3_);stroke:#000000;stroke-width:0.8;stroke-miterlimit:10;}
	.st12{fill:url(#SVGID_4_);}
	.st13{fill:none;stroke:#1A171B;stroke-width:0.8;}
	.st14{fill:#E75300;}
	.st15{fill:#1A171B;}
	.st16{fill:url(#SVGID_5_);}
	.st17{fill:none;stroke:#FFFFFF;stroke-width:0.8;}
	.st18{fill:none;stroke:#000000;stroke-width:0.8;}
	.st19{fill:url(#SVGID_6_);}
</style>
<path class="st0" d="M200.6,114.5c0.7-0.9,1.4-1.4,3.7-1.5l0,0c1.7,0,2.8,0.6,4,1.9l3.8-3.4c-1.9-2.1-4.7-3.6-7.8-3.5l0,0
	c-3.3-0.1-6.3,1.3-7.9,3.6"/>
<line class="st1" x1="150" y1="54.5" x2="150" y2="223.6"/>
<line class="st1" x1="232.9" y1="54.5" x2="232.9" y2="223.6"/>
<g>
	<g class="st2">
		<path d="M159.7,135.9c-0.1-4.6,2.1-8.2,6.3-8.2c3.2,0,5.9,2.4,5.9,6.4c0,6.2-5.6,6.7-8.1,10.8h8.2v3.5h-12.7
			c0-4.7,2.5-6.7,5.5-9.1c1.5-1.2,3.6-2.5,3.6-5c0-1.9-1.1-3.1-2.6-3.1c-2.1,0-2.7,2.5-2.7,4.7H159.7z"/>
	</g>
</g>
<g>
	<g class="st2">
		<path d="M248.5,136.4c1.5,0.1,3.7-0.2,3.7-2.5c0-1.7-1.2-2.7-2.4-2.7c-1.8,0-2.7,1.5-2.7,3.6h-3.3c0.1-4.2,2.4-7,6-7
			c2.8,0,5.8,2,5.8,5.6c0,1.9-0.8,3.6-2.4,4.2v0.1c1.9,0.5,3.1,2.3,3.1,4.6c0,4.3-3.1,6.7-6.4,6.7c-3.9,0-6.5-2.7-6.4-7.4h3.3
			c0.1,2.2,1,4,3,4c1.6,0,2.8-1.2,2.8-3.2c0-3.1-2.3-3-4-3V136.4z"/>
	</g>
</g>
<path class="st3" d="M270,147c3.6,0,9.6,0.9,11.1,7.5"/>
<path class="st3" d="M265.4,143.6c0,0,16.8-3.5,19.9,10.1"/>
<g>
	<path class="st4" d="M268.3,100.3c0.5-1.4,2.1-2.8,2.9-3.4c1-0.7,3.3-1.6,3.7-1.8c0.5-0.2,1-0.3,2-0.2c1.4,0.2,1.9,1.2,2.1,1.7
		c0.3,0.5,0.2,1.1,0.2,1.1s0,0.4,0.2,2c0.2,1.8,0.5,4.7,0.6,5.6s0.3,3.8,0.4,4.9s0.3,4,0.3,4s0.1,2.2,0.2,3.3
		c0.1,1.1,0.2,3.3,0.2,3.3s0.1,4.1,0.1,4.4s0,0.9,0,1s0.1,0.9-0.2,1.5c-0.3,0.7-0.5,1.1-1.5,1.6s-1.8,0.2-2,0.2s-0.3,0-0.3,0
		s-1.6-0.3-4-1.4c-2.4-1-4.1-2.4-5.7-4c-1.5-1.6-2.4-3.1-2.4-3.1l-0.2-0.4c-0.8-3.5-0.4-5-0.4-5.5c0-0.7-3.3-0.4-3.5,0.1
		c-0.2,0.6-0.3,0.8-0.8,2.8c-0.1,0.7-0.2,0.9-0.2,1.5c-0.1,0.4-0.3,0.9-0.2,1.7c0.1,0.8,0.3,1.1,0.4,1.3c0.1,0.2,0.5,1.1,1,1.9
		s1.6,2.5,2.4,3.2c1.1,1.1,2.2,2.1,2.7,2.6c0.6,0.4,2.1,1.5,3.5,2.2s2.8,1.4,5.3,2c2.4,0.6,3.8,0.4,4.3,0.4c0.6-0.1,1.9-0.2,3.6-1.4
		c1.6-1.1,2.3-2.7,2.7-3.7c0.3-0.7,0.7-1.8,0.6-3.8c0-0.5-0.1-2.2-0.1-2.2s-0.1-3.6-0.2-4.6c0-1-0.2-4.1-0.3-5.1
		c-0.1-1-0.3-4.1-0.3-4.7c0-0.5-0.4-4.2-0.5-4.9c-0.1-0.8-0.3-3.5-0.5-4.6c-0.1-1.2-0.3-2.9-0.5-3.7c-0.2-0.8-0.6-1.9-1.5-3.1
		c-0.5-0.7-1.1-1.3-1.9-1.9c-0.6-0.4-1.3-0.8-2.2-1c-0.7-0.2-1.3-0.3-1.9-0.3s-1.7-0.1-3.4,0.5c-1.7,0.6-3,1.2-4.3,2.1
		s-2.3,1.8-3.1,2.6c-0.7,0.8-1.3,1.9-1.5,2.3c-0.1,0.3-0.6,1.9-0.4,3.3c0.1,0.7,1,0.9,1.9,0.8C266.8,101.2,267.9,101.1,268.3,100.3z
		"/>
</g>
<g>
	<path class="st0" d="M264.3,100v0.8c0,0,0,0.6-0.4,0.9c0,0,0.7,2.9,0.4,5.5c-0.2,1.6-0.3,3.8-1,5.1c0,0-0.1,0.6-0.1,1l0,0
		c0,0.7-0.5,1.3-0.6,1.8c-0.2,0.6-0.6,0.9-0.8,1.9c-0.2,0.9,0.8,1.2,1.4,1.4c0.6,0.2,1.8,0.4,1.8,0.4s0.2,0.1,0.6,0
		c0,0,0.2-0.1,0.3-0.1l0,0c0,0,0.4-0.3,0.6-1.3s0.6-2.4,0.6-2.4s0.3-0.8,0.4-1c0.1-0.3,0.4-1.3,0.4-1.4c0.1-0.8,0.2-0.9,0.5-2
		c0.2-1.1,0.6-2.9,0.4-5.2c-0.2-3.2-0.2-3.2-0.2-3.2s-0.3-0.4-0.3-1s-0.1-1.5-0.1-2.2v-0.2c0,0,0-0.1,0-0.2v-0.8
		c-0.1-0.9-0.4-1.1-0.4-1.1s-0.2-0.1-0.8-0.1c-0.9,0-2.2,0.1-2.5,0.2s-0.4,1.1-0.4,1.1L264.3,100z"/>
</g>
<g>
	<g>
		<path class="st4" d="M264.5,119.5c-0.6,0-3.6,0.2-3.6,0.2"/>
	</g>
	<path class="st4" d="M265.9,99.9c0,0,0.9,0.1,0.9-0.7c0.1-0.8-0.7-0.9-0.7-0.9s-0.8-0.1-0.9,0.7C265.2,99.7,265.7,99.8,265.9,99.9
		L265.9,99.9z"/>
</g>
<path class="st5" d="M279.4,70.4c0,2.3,0,4.4,0,6c0,5.5,0,21.3,0,21.3h-8V82.2V70.4"/>
<path class="st5" d="M271.4,88.2c0,0-1.4,0.6-1.8,1.3c0,0,2.1,2,2.1,3.3s0,5.4,1.3,5.4s2.3,0,2.3,0l0,0c0,0,1,0,2.3,0
	s1.4-4.1,1.4-5.4s2.1-3.3,2.1-3.3c-0.3-0.8-1.8-1.3-1.8-1.3s-0.6-0.1-1,0.2c-0.5,0.3-2.5,0.3-3,0.3s-2.4-0.1-2.8-0.2
	S271.7,88.1,271.4,88.2z"/>
<path class="st0" d="M280,240.4c0.5-12.7,1.9-27.4,2.7-32.5l0,0c0.5-3.8,1.7-13.8,1.7-24.3l0,0c0-7.6-0.6-15.4-2.4-21.6l0,0
	c-1-3.1-2.3-5.9-4.2-8l0,0c-1.9-2.1-4.7-3.6-7.8-3.5l0,0c-3.3-0.1-6.3,1.3-7.9,3.7l0,0c-0.6,0.8-1,1.7-1.3,2.7c0,0-0.6,1.8-0.7,4.2
	c0,0.5,0,0.9,0,1.4l0,0c0,6,1.8,13.3,3.4,20.9l0,0c1.7,7.6,3.3,15.4,3.3,21.7l0,0c0,9.8-2.6,23.7-5.2,35l0,0c0,0.2-0.1,0.3-0.1,0.5
	l5.3-0.1c2.6-11.3,5.1-25.1,5.1-35.5l0,0c0-7.1-1.7-15.2-3.4-22.8l0,0c-1.7-7.5-3.3-14.6-3.3-19.6c-0.1-2.5,0.4-4.1,0.4-4.1
	c0.2-0.6,0.4-1.2,0.7-1.5l0,0c0.7-0.9,1.4-1.4,3.7-1.5l0,0c1.7,0,2.8,0.6,4,1.9l0,0c3.8,3.8,5.4,15.3,5.3,26.2l0,0
	c0,10.2-1.1,20-1.6,23.6l0,0c-0.8,5.5-2.2,20.4-2.7,33.4L280,240.4z"/>
<linearGradient id="SVGID_1_" gradientUnits="userSpaceOnUse" x1="270.9" y1="22.9334" x2="270.9" y2="31.3987" gradientTransform="matrix(1 0 0 -1 0 259.53)">
	<stop  offset="0" style="stop-color:#FFFFFF"/>
	<stop  offset="1" style="stop-color:#FFFFFF;stop-opacity:0"/>
</linearGradient>
<rect x="257.5" y="226.3" class="st6" width="26.8" height="16.4"/>
<path class="st7" d="M187.8,126.1c-2.7-2-4.7-4.9-5.7-8.2c-0.3-1.2-0.6-2.4-0.6-3.7c-0.4-7.8,4.8-14.6,12.1-16.5"/>
<g>
	<path class="st4" d="M201.1,100.3c0.5-1.4,2.1-2.8,2.9-3.4c1-0.7,3.3-1.6,3.7-1.8c0.5-0.2,1-0.3,2-0.2c1.4,0.2,1.9,1.2,2.2,1.7
		s0.2,1.1,0.2,1.1s0,0.4,0.2,2c0.2,1.8,0.5,4.7,0.6,5.6s0.3,3.8,0.4,4.9c0.1,1.1,0.3,4,0.3,4s0.1,2.2,0.2,3.3
		c0.1,1.1,0.2,3.3,0.2,3.3s0.1,4.1,0.1,4.4s0,0.9,0,1s0.1,0.9-0.2,1.5c-0.3,0.7-0.5,1.1-1.5,1.6s-1.8,0.2-2,0.2s-0.3,0-0.3,0
		s-1.6-0.3-4-1.4c-2.4-1-4.1-2.4-5.7-4c-1.5-1.6-2.4-3.1-2.4-3.1l-0.2-0.4c-0.8-3.5-0.4-5-0.4-5.5c0-0.7-3.4-0.4-3.6,0.1
		c-0.2,0.6-0.3,0.8-0.8,2.8c-0.1,0.7-0.2,0.9-0.2,1.5c-0.1,0.4-0.3,0.9-0.2,1.7c0.1,0.8,0.3,1.1,0.4,1.3c0.1,0.2,0.5,1.1,1,1.9
		s1.6,2.5,2.4,3.2c1.1,1.1,2.2,2.1,2.7,2.6c0.5,0.4,2.1,1.5,3.5,2.2s2.8,1.4,5.3,2c2.4,0.6,3.8,0.4,4.3,0.4c0.6-0.1,1.9-0.2,3.6-1.4
		c1.6-1.1,2.3-2.7,2.7-3.7c0.3-0.7,0.6-1.8,0.6-3.8c0-0.5-0.1-2.2-0.1-2.2s-0.1-3.6-0.2-4.6c0-1-0.2-4.1-0.3-5.1s-0.3-4.1-0.3-4.7
		c0-0.5-0.4-4.2-0.5-4.9c-0.1-0.8-0.3-3.5-0.5-4.6c-0.1-1.2-0.3-2.9-0.5-3.7c-0.2-0.8-0.6-1.9-1.5-3.1c-0.5-0.7-1.1-1.3-1.9-1.9
		c-0.6-0.4-1.3-0.8-2.2-1c-0.7-0.2-1.3-0.3-1.9-0.3c-0.6,0-1.7-0.1-3.4,0.5s-3,1.2-4.3,2.1s-2.3,1.8-3.1,2.6
		c-0.7,0.8-1.3,1.9-1.5,2.3c-0.1,0.3-0.6,1.9-0.4,3.3c0.1,0.7,1,0.9,1.9,0.8C199.7,101.2,200.8,101.1,201.1,100.3z"/>
</g>
<path class="st5" d="M212.2,70.4c0,2.3,0,4.4,0,6c0,5.5,0,21.3,0,21.3h-8V82.2V70.4"/>
<path class="st5" d="M204.3,88.2c0,0-1.4,0.6-1.8,1.3c0,0,2.1,2,2.1,3.3s0,5.4,1.3,5.4s2.3,0,2.3,0l0,0c0,0,1,0,2.3,0
	s1.3-4.1,1.3-5.4s2.1-3.3,2.1-3.3c-0.3-0.8-1.8-1.3-1.8-1.3s-0.5-0.1-1,0.2c-0.5,0.3-2.5,0.3-3,0.3s-2.4-0.1-2.8-0.2
	C205,88.4,204.5,88.1,204.3,88.2z"/>
<g>
	<path class="st4" d="M197.7,119.5c-0.6,0-3.6,0.2-3.6,0.2"/>
</g>
<g>
	
		<linearGradient id="SVGID_2_" gradientUnits="userSpaceOnUse" x1="202.2151" y1="151.1452" x2="199.8333" y2="157.9492" gradientTransform="matrix(1 0 0 -1 0 259.53)">
		<stop  offset="0" style="stop-color:#E75300"/>
		<stop  offset="0.2286" style="stop-color:#EE8245"/>
		<stop  offset="0.5082" style="stop-color:#F5B794"/>
		<stop  offset="0.7392" style="stop-color:#FADECE"/>
		<stop  offset="0.9092" style="stop-color:#FEF6F2"/>
		<stop  offset="1" style="stop-color:#FFFFFF"/>
	</linearGradient>
	<path class="st8" d="M197.7,100.6l0.3,0.7c0,0,0.2,0.5,0,1c0,0,1.7,2.4,2.4,4.9c0.4,1.6,1.2,3.6,1.1,5.1c0,0,0.1,0.6,0.2,0.9l0,0
		c0.3,0.6,0.1,1.4,0.1,1.9c0,0.7-0.3,1.1,0,2.1c0.2,0.9,1.2,0.8,1.8,0.8c0.6-0.1,1.8-0.3,1.8-0.3s0.2,0,0.6-0.2c0,0,0.2-0.1,0.3-0.2
		l0,0c0,0,0.3-0.4,0.1-1.4c-0.1-1-0.4-2.5-0.4-2.5s0-0.8,0-1.1c0-0.3-0.1-1.3-0.1-1.5c-0.2-0.7-0.1-0.9-0.3-2s-0.6-2.9-1.6-5
		c-1.4-2.9-1.4-2.8-1.4-2.8s-0.5-0.3-0.7-0.8c-0.3-0.6-0.7-1.3-1-2l-0.1-0.1c0,0,0-0.1-0.1-0.2l-0.3-0.8c-0.5-0.8-0.8-0.8-0.8-0.8
		s-0.3,0-0.8,0.2c-0.8,0.3-2,0.9-2.3,1.1s0.1,1.1,0.1,1.1L197.7,100.6z"/>
</g>
<g>
	<path class="st4" d="M198.8,99.9c0,0,0.9,0.1,0.9-0.7c0.1-0.8-0.7-0.9-0.7-0.9s-0.8-0.1-0.9,0.7C198,99.7,198.6,99.8,198.8,99.9
		L198.8,99.9z"/>
</g>
<path class="st9" d="M207.5,113.5c0,0,1.1,0.8,1.9,1.9l2.6-2.9c0,0-0.6-0.9-1.8-2L207.5,113.5z"/>
<g>
	<polygon class="st10" points="16.4,97.2 42.2,111.2 16.4,125.2 	"/>
</g>
<linearGradient id="SVGID_3_" gradientUnits="userSpaceOnUse" x1="1092.3965" y1="-655.1371" x2="1092.3965" y2="-614.4372" gradientTransform="matrix(1 0 0 -1 -999.6465 -396.8372)">
	<stop  offset="0" style="stop-color:#919294"/>
	<stop  offset="0.3207" style="stop-color:#C0C0C1"/>
	<stop  offset="0.6087" style="stop-color:#E2E2E3"/>
	<stop  offset="0.8449" style="stop-color:#F7F7F8"/>
	<stop  offset="1" style="stop-color:#FFFFFF"/>
</linearGradient>
<polyline class="st11" points="101.8,217.6 101.8,239.1 108.8,239.1 92.8,258.3 92.8,258.3 76.7,239.1 83.7,239.1 83.7,217.6 "/>
<g>
	
		<linearGradient id="SVGID_4_" gradientUnits="userSpaceOnUse" x1="-1448.9713" y1="1861.8279" x2="-1448.9713" y2="1898.9279" gradientTransform="matrix(-1 0 0 1 -1357.7213 -1660.8768)">
		<stop  offset="0.4982" style="stop-color:#FFFFFF"/>
		<stop  offset="1" style="stop-color:#FFFFFF;stop-opacity:0"/>
	</linearGradient>
	<rect x="70.1" y="201" class="st12" width="42.3" height="37.1"/>
</g>
<g>
	<g class="st2">
		<path d="M87.4,148.5h-3.5v-13.2h-4.3v-3.1c2.4,0.1,4.7-0.9,5.1-4h2.8V148.5z"/>
	</g>
</g>
<path class="st13" d="M96.3,87.6c0,0,5.2-11.1,15-5.5"/>
<path class="st13" d="M95.7,81.5c0,0,1.8-4,6.8-3.7"/>
<g>
	<path class="st4" d="M114.5,100.3c0.5-1.4,2.1-2.8,2.9-3.4c1-0.7,3.3-1.6,3.7-1.8c0.5-0.2,0.9-0.3,2-0.2c1.4,0.2,1.9,1.2,2.1,1.7
		c0.3,0.5,0.2,1.1,0.2,1.1s0,0.4,0.2,2c0.2,1.8,0.5,4.7,0.6,5.6s0.3,3.8,0.4,4.9s0.3,4,0.3,4s0.1,2.2,0.2,3.3
		c0.1,1.1,0.2,3.3,0.2,3.3s0.1,4.1,0.1,4.4s0,0.9,0,1s0.1,0.9-0.2,1.5c-0.3,0.7-0.5,1.1-1.5,1.6s-1.8,0.2-2,0.2s-0.3,0-0.3,0
		s-1.6-0.3-4-1.4c-2.4-1-4.1-2.4-5.7-4c-1.5-1.6-2.4-3.1-2.4-3.1l-0.2-0.4c-0.8-3.5-0.4-5-0.4-5.5c0-0.7-3.3-0.4-3.5,0.1
		c-0.2,0.6-0.3,0.8-0.8,2.8c-0.1,0.7-0.2,0.9-0.2,1.5c-0.1,0.4-0.3,0.9-0.2,1.7c0.1,0.8,0.3,1.1,0.4,1.3c0.1,0.2,0.5,1.1,1,1.9
		s1.6,2.5,2.4,3.2c1.1,1.1,2.2,2.1,2.7,2.6c0.5,0.4,2.1,1.5,3.5,2.2s2.8,1.4,5.3,2c2.4,0.6,3.8,0.4,4.3,0.4c0.6-0.1,1.9-0.2,3.6-1.4
		c1.6-1.1,2.3-2.7,2.7-3.7c0.3-0.7,0.7-1.8,0.6-3.8c0-0.5-0.1-2.2-0.1-2.2s-0.1-3.6-0.2-4.6c0-1-0.2-4.1-0.3-5.1s-0.3-4.1-0.3-4.7
		c0-0.5-0.4-4.2-0.5-4.9c-0.1-0.8-0.3-3.5-0.5-4.6c-0.1-1.2-0.3-2.9-0.5-3.7c-0.2-0.8-0.6-1.9-1.5-3.1c-0.5-0.7-1.1-1.3-1.9-1.9
		c-0.6-0.4-1.3-0.8-2.2-1c-0.7-0.2-1.3-0.3-1.9-0.3s-1.7-0.1-3.4,0.5c-1.7,0.6-3,1.2-4.3,2.1s-2.3,1.8-3.1,2.6
		c-0.7,0.8-1.3,1.9-1.5,2.3c-0.1,0.3-0.6,1.9-0.4,3.3c0.1,0.7,1,0.9,1.9,0.8C113,101.2,114.2,101.1,114.5,100.3z"/>
</g>
<g>
	<path class="st0" d="M110.6,100v0.8c0,0,0,0.6-0.4,0.9c0,0,0.7,2.9,0.4,5.5c-0.2,1.6-0.3,3.8-1,5.1c0,0-0.1,0.6-0.1,1l0,0
		c0,0.7-0.5,1.3-0.6,1.8c-0.2,0.6-0.6,0.9-0.8,1.9c-0.2,0.9,0.8,1.2,1.4,1.4c0.6,0.2,1.8,0.4,1.8,0.4s0.2,0.1,0.6,0
		c0,0,0.2-0.1,0.3-0.1l0,0c0,0,0.4-0.3,0.6-1.3s0.6-2.4,0.6-2.4s0.3-0.8,0.4-1c0.1-0.3,0.4-1.3,0.4-1.4c0.1-0.8,0.2-0.9,0.5-2
		c0.2-1.1,0.6-2.9,0.4-5.2c-0.2-3.2-0.2-3.2-0.2-3.2s-0.3-0.4-0.3-1s-0.1-1.5-0.1-2.2v-0.2c0,0,0-0.1,0-0.2v-0.8
		c-0.1-0.9-0.4-1.1-0.4-1.1s-0.2-0.1-0.8-0.1c-0.9,0-2.2,0.1-2.5,0.2s-0.4,1.1-0.4,1.1L110.6,100z"/>
</g>
<g>
	<g>
		<path class="st4" d="M110.7,119.5c-0.6,0-3.6,0.2-3.6,0.2"/>
	</g>
	<path class="st4" d="M112.1,99.9c0,0,0.9,0.1,0.9-0.7c0.1-0.8-0.7-0.9-0.7-0.9s-0.8-0.1-0.9,0.7C111.4,99.7,111.9,99.8,112.1,99.9
		L112.1,99.9z"/>
</g>
<path class="st5" d="M125.6,70.4c0,2.3,0,4.4,0,6c0,5.5,0,21.3,0,21.3h-7.9V82.2V70.4"/>
<path class="st5" d="M117.6,88.2c0,0-1.4,0.6-1.8,1.3c0,0,2.1,2,2.1,3.3s0,5.4,1.3,5.4s2.3,0,2.3,0l0,0c0,0,1,0,2.3,0
	s1.3-4.1,1.3-5.4s2.1-3.3,2.1-3.3c-0.3-0.8-1.8-1.3-1.8-1.3s-0.6-0.1-1,0.2c-0.5,0.3-2.5,0.3-3,0.3s-2.4-0.1-2.8-0.2
	C118.4,88.4,117.9,88.1,117.6,88.2z"/>
<path class="st0" d="M125.3,117.4c-0.5-1.8-1.1-3.7-1.6-5.7c-1.3-4.6-2.6-9.3-4-13.5c0,0-0.5,0.1-0.7-0.1c-0.2-0.1-0.5-0.5-0.5-0.5
	h-0.9v-0.9c0,0-0.9,0.6-1.2,0.9c-0.3,0.3-0.8,0.8-1.1,1.2c-0.3,0.4-0.6,0.8-0.6,0.8c1.5,4.3,2.9,9.2,4,13.4c0.6,2,1.1,3.9,1.6,5.8"
	/>
<path class="st0" d="M106.3,88.8c1-0.5,1.6-0.3,2.1-0.1c1.5,0.7,3,2.8,4.3,5.7c0,0,0.7-0.7,1.2-1.1s1.6-1.2,2-1.5
	c0.5-0.3,1-0.5,1-0.5l-0.9-1.6c-1.6-2.6-3.3-4.6-5.4-5.6c-2-0.9-4.2-0.9-6.4,0.1"/>
<path class="st9" d="M120.6,117c0,0,0.6,1.9,0.8,2.7l3.6-0.8c0,0-0.6-2.1-0.8-2.9L120.6,117z"/>
<g>
	<g>
		<g>
			<g>
				<path class="st14" d="M46.5,34L29.8,3.6l0,0V3.5c-1.3-2.2-3.5-3.5-6-3.5s-4.8,1.4-6,3.5l0,0l0,0L0.9,34.1
					c-1.2,2.1-1.1,4.6,0.1,6.6c1.2,2.1,3.6,3.4,6.1,3.3H6.9h33.7h-0.1c2.5,0.1,4.8-1.2,6-3.4C47.7,38.6,47.7,36.1,46.5,34z"/>
			</g>
			<path class="st9" d="M43.1,35.8c0.5,0.9,0.6,2,0,2.9c-0.5,0.9-1.5,1.5-2.6,1.5H6.9c-1,0-2-0.4-2.6-1.4c-0.5-0.9-0.5-2,0-2.9
				L21.2,5.3c0.5-0.9,1.4-1.5,2.5-1.5s2,0.6,2.5,1.5L43.1,35.8z"/>
		</g>
	</g>
	<path class="st15" d="M34.6,22c-0.3-0.4-1.7,0-1.8-0.6s-0.3-2.3-1.4-1.4s-0.4,1.8-0.6,2.1c-0.3,0.2-1.2,0.8-1.9,1.3
		c-0.7-0.6-1.6-3.2-5.8-2.8c-2.7,0.3-3.3,1.5-3.8,1.5c-0.4-0.4-1.1-0.9-0.7-1.9c0.5-1,0.8-2.4-0.1-2.6c-0.9-0.1-1.7,0.2-1.8,0.7
		c-0.1,0.5,0,1.2-0.7,1.2c-0.5,0-1,0.4-1,1.2c0.2,0.8,0.4,1,0.8,0.9c0.4-0.1,1.1-0.3,1.2,0.2c0.1,0.4,0.7,1,0.8,1.6
		c-0.4,0.7-1.2,1.7-1.3,2.9c-0.2,1.8,0.7,2.9,0.3,3.2c-0.4,0.3-2.4,2.4-2.9,2.4c-0.6,0-2.2-1.2-2.8-0.3c-0.6,0.9-0.7,1.7,0,2.1
		c0.7,0.3,1.1,0.2,1.2,0.9c0.1,0.7,0.8,1.1,1.5,0.8s1.2-1,1.2-1.5s0.2-1.1,0.7-1.4c0.5-0.2,1.1-0.8,1.4-1c0.5-0.4,1.1-0.8,1.3-0.9
		c0.4,0.1,0.6,0,0.8,0.3c-0.2,0.4-0.3,0.8-0.3,0.9c-0.1,0.2-0.2,0.5,0.9,0.6c0.4,0.1,0.6,0.2,0.8-0.4c0.1-0.3,0.1-0.4,0.4-0.8
		c0.7,0.2,1.7,0.4,1.6,0.8c-0.2,0.5-0.5,1.1-0.3,1.3c0.5,0.1,1.4,0.2,2.8-0.2c0.4,1.2,1.9,2.4,1.2,3.7c-0.3,0.5,0.2,1.7,1.2,1.6
		c1.2-0.1,0.8-0.8,1.5-1.6c0.6-0.8,2.8,0.3,1.7-2.4c-0.4-1.1-1.6,0.3-2.2-0.2c-0.6-0.4-2.4-3-2.4-3.2s-0.3-1.3,0.3-1.5
		c0.6-0.2,1.6-0.6,2-1.5c0.4-0.7,0.9-2,1-3.2c0.9-0.3,1.8-1.4,2.2-1.2c0.4,0.1,1.8,1.1,2.6,0.5C35.1,23.5,34.9,22.4,34.6,22z
		 M19.5,28c-1.2,0.3-1.1-1-1.3-1.9c-0.2-0.9,0.3-2.1,1.2-2C21.1,24.1,20.7,27.7,19.5,28z M24,27.1c-1.3,1.9-2.6,1.7-2.7,0
		c-0.1-1.6,0.4-3,1.3-3.1C23.8,24,24.8,25.9,24,27.1z"/>
</g>
<path class="st0" d="M125.3,117.4c4.5,15.5,4.6,39.6,2.8,55.5c-1.9,16.2-1.3,40.5-1.3,40.7l-5.1,0.1c0-1-0.6-24.9,1.3-41.4
	c1.8-15.4,1.7-38.7-2.6-53.5"/>
<path class="st0" d="M105.3,83.7c-0.4,0.1-1.2,0.5-1.2,0.5c-2.3,1.1-3.9,3-4.5,5.4c-1.9,7.3,5.3,18.7,9.7,24.8l0.2,0.3
	c3,4.2,9.4,16,5.6,35.5c-1.2,6.1-2.7,12.3-4.2,18.2c-3.5,14.3-7.2,29.2-6.4,44.3l5.1-0.3c-0.8-14.4,2.6-28.2,6.2-42.8
	c1.5-6,3-12.2,4.2-18.5c4.2-21.4-3.1-34.7-6.5-39.4l-0.2-0.3c-6.4-8.8-9.9-16.9-8.9-20.6c0.2-1,0.8-1.6,1.7-2c0,0,0.7-0.3,0.9-0.3"
	/>
<linearGradient id="SVGID_5_" gradientUnits="userSpaceOnUse" x1="115.5" y1="50.3145" x2="115.5" y2="58.0421" gradientTransform="matrix(1 0 0 -1 0 259.53)">
	<stop  offset="0" style="stop-color:#FFFFFF"/>
	<stop  offset="1" style="stop-color:#FFFFFF;stop-opacity:0"/>
</linearGradient>
<rect x="102.9" y="199.8" class="st16" width="25.2" height="15"/>
<g>
	<path d="M89.4,179.1c0.3,0.6,0.7,1.1,0.9,1.9c-0.1,0-0.1,0-0.2,0.1c0.1,0.3,0.3,0.8,0.4,1.2c-0.1,0-0.1,0-0.2,0.1
		c0.1,0.4,0.3,0.2,0.3,0.4c-0.1,0-0.1,0-0.2,0.1l0.1,0.3c-0.1,0-0.1,0-0.2,0.1c0,0.3,0.2,0.6,0.3,0.8c-0.1,0-0.1,0-0.2,0.1
		c0.1,0.7,0.3,0.9,0.4,1.5c-0.1,0-0.1,0-0.2,0.1l0.1,0.3c-0.1,0-0.1,0-0.2,0.1c0,0.2,0.2,0.4,0.2,0.7c-0.7,0.3-0.2-0.2-0.5-0.2
		l-0.3,0.1c0,0.4,0.1,0.3,0.1,0.7c0,0-0.1,0-0.2,0.1c0,0.2,0.2,0.5,0.2,0.7c-0.1,0-0.1,0-0.2,0.1l0.1,0.3c-0.1,0-0.1,0-0.2,0.1
		c0,0.2,0.4,0.1,0.3,0.3c-0.4,0.4,0.3,1.9,0.6,2.6c-0.1,0-0.1,0-0.2,0.1c-0.1,0-0.3-0.7-0.3-0.8c-0.1,0-0.1,0-0.2,0.1
		c0,0.1,0.2,0.4,0.2,0.5c-0.1,0-0.1,0-0.2,0.1c0.1,0.6,0.9,2.8,1.2,3.3c0.1,0,0.1,0,0.2-0.1c0.2,0.3,0.2,0.6,0.5,0.8h0.4
		c0.2,0.3,0,0.1-0.1,0.2c0.2,0.3,0.2,0.2,0.4,0.6c0.4-0.1,0.8-0.4,1.2-0.4c0,0.1,0,0.1,0.1,0.2l0.3-0.1c0,0.1,0,0.1,0.1,0.2
		c0.1,0,0.3-0.2,0.5-0.2c0,0.1,0,0.1,0.1,0.2c0.4,0,0.7,0.3,1.1,0.4c0,0.1,0,0.1,0.1,0.2l0.6,0.1c0.2,0.2,0.5,0.9,0.8,1
		s0.1-0.2,0.1-0.2l0.3-0.1c0.3,0.2,0.4,0.3,0.7,0.3c0,0.1,0,0.1,0.1,0.2c0.1,0,0.1,0,0.2-0.1c0.1,0.1,0.2,0.4,0.3,0.4l0.3-0.1
		l0.1,0.3c0.1,0,0.1,0,0.2-0.1c0.2,0.4,0.6,0.8,0.7,1.4c-0.1,0-0.1,0-0.2,0.1c0.1,0.2,0.1,0.3,0.2,0.5c-0.1,0-0.1,0-0.2,0.1
		c0.1,0.6,0.5,1.3,0.7,1.8c0.1,0,0.1,0,0.2-0.1c0.1,0.3,0.3,0.8,0.4,1.2c-0.1,0-0.1,0-0.2,0.1c0.1,0.3,0.3,0.6,0.3,0.8
		c0.1,0,0.1,0,0.2-0.1c0.1,0.2,0.1,0.6,0.3,0.8h0.4c0.1,0.1,0.3,0.4,0.4,0.6c0.1,0,0.1,0,0.2-0.1l0.1,0.3c0.3,0.2,0.1-0.2,0.1-0.2
		c0.1,0,0.1,0,0.2-0.1c0.2,0.3,0.1,0.2,0.4,0.4l0.3-0.1c0.1,0.1,0.1,0.5,0.2,0.7c0.1,0,0.1,0,0.2-0.1c0.1,0.3,0.2,0.5,0.3,0.8
		c-0.1,0-0.1,0-0.2,0.1c0,0.2,0.2,0.5,0.2,0.7c-0.3-0.1-0.5,0-0.8-0.1l-0.1-0.3l-0.6-0.1l-0.1-0.3l-0.6-0.1l-0.1-0.3
		c-0.2-0.1-0.4,0.1-0.6,0c-0.3-0.2-0.2-0.4-0.4-0.6c-0.1-0.1-0.3,0-0.6,0l-0.1-0.3c-0.1,0-0.1,0-0.2,0.1c-0.1-0.1-0.1-0.5-0.2-0.7
		c-0.1,0-0.1,0-0.2,0.1c-0.2-0.4-0.3-0.9-0.5-1.3c-0.1,0-0.1,0-0.2,0.1c-0.1-0.4-0.4-0.8-0.4-1.2l0.3-0.3c0-0.1-0.1-0.4-0.2-0.5
		c0.1,0,0.1,0,0.2-0.1c-0.1-0.8-0.6-1.6-0.9-2.3c-0.1,0-0.1,0-0.2,0.1c-0.1-0.1-0.1-0.4-0.2-0.5l-0.3,0.1c0,0,0-0.3,0-0.4
		c-0.2,0-0.7-0.3-0.7-0.3c-0.5,0-1,0.4-1.3,0.5l-0.1-0.3c-0.1,0-0.1,0-0.2,0.1l-0.1-0.3c0,0-0.3,0-0.4,0c0-0.1,0-0.1-0.1-0.2
		c-0.1,0.1-0.6,0.2-0.7,0.2c0,0.1,0.3,0.8,0.3,0.8c-0.3,0.3-0.4-0.3-0.7,0.1c0.3,0.6,0.3,0.8,0.7,1.4c0.1,0,0.1,0,0.2-0.1
		c0.1,0.2,0.2,0.5,0.3,0.7c0,0,0.1,0,0.2-0.1c0.1,0.2,0.1,0.5,0.2,0.7c0.1,0,0.1,0,0.2-0.1l0.1,0.3c0.1,0,0.1,0,0.2-0.1l0.1,0.3
		c0.1,0,0.2-0.2,0.3-0.3c0.2,0.3-0.1,0.1,0.2,0.1c0.1,0.4,0.2,0.6,0.4,1c0.1,0,0.1,0,0.2-0.1c0.3,0.7,0.5,1.4,0.8,2.1
		c-0.1,0-0.1,0.1-0.2,0.1c0.1,0.3,0,0.1,0.2,0.1l0.1,0.3c-0.5-0.2,0.2,0.6,0.2,0.7c-0.1-0.1-0.2,0.8,0.2,0.7
		c0.3,0.7,0.5,1.7,0.9,2.3h0.4c0.3,0.4,0.3,0.8,0.6,1.1c0.1,0.1,0.4-0.1,0.6,0c0,0,0.3,0.5,0.4,0.6c0.1,0,0.1,0,0.2-0.1
		c0.1,0.1,0.1,0.4,0.2,0.5h0.4c0.2,0.3,0,0.1-0.1,0.2c0.1,0.1,0.1,0.4,0.2,0.5c0,0,0.3,0,0.3,0.4c0,0-0.3,0.3-0.2,0.4
		c-0.2,0-0.3,0.2-0.5,0.2c0-0.1,0-0.1-0.1-0.2l-0.3,0.1c0-0.1,0-0.1-0.1-0.2l-0.3,0.1l-0.1-0.3h-0.4l-0.1-0.3c0,0-0.3,0-0.4,0
		c0-0.1-0.1-0.4-0.2-0.5c-0.1,0-0.1,0-0.2,0.1c-0.4-0.7-0.4-1.6-0.9-2.3c-0.1,0-0.1,0-0.2,0.1c0-0.1-0.1-0.4-0.2-0.5
		c-0.1,0-0.1,0-0.2,0.1c-0.1-0.2-0.1-0.5-0.2-0.7c-0.1,0-0.1,0-0.2,0.1c-0.2-0.3-0.2-0.3-0.4-0.6c-0.1,0-0.1,0-0.2,0.1
		c-0.1-0.1-0.1-0.4-0.2-0.5h-0.4c-0.1-0.1-0.1-0.4-0.2-0.5c-0.1,0-0.1,0-0.2,0.1c-0.4-0.6-0.6-1.5-0.8-2.1c0,0,0.1,0,0.2-0.1
		c-0.1-0.5-0.4-0.9-0.5-1.3c-0.1,0-0.1,0-0.2,0.1c-0.1-0.3-0.2-0.9-0.4-1.2h-0.6l-0.1-0.3l-0.6-0.1c-0.1-0.1-0.1-0.4-0.2-0.5
		c-0.1,0-0.1,0-0.2,0.1c-0.3-0.4-0.3-0.6-0.5-0.9c-0.7,0.2,0-0.3-0.5-0.2c-0.1,0-0.3,0.4-0.4,0.5c-0.1-0.2,0-0.4-0.3-0.3
		c-0.2-0.2-0.3-0.5-0.4-0.6c-0.1,0-0.1,0-0.2,0.1c-0.1-0.2-0.1-0.5-0.2-0.7c-0.1,0-0.1,0-0.2,0.1c-0.1-0.3-0.2-0.5-0.3-0.8
		c-0.1,0-0.1,0-0.2,0.1c-0.1-0.2-0.1-0.6-0.3-0.8c-0.1-0.1-0.3,0-0.6,0c-0.3-0.6-0.4-0.8-0.7-1.4c-0.1,0-0.1,0-0.2,0.1
		c-0.1-0.2-0.2-0.6-0.3-0.8c-0.1,0-0.1,0-0.2,0.1c-0.4-0.6-0.4-1-0.8-1.6c-0.1,0-0.1,0-0.2,0.1c0-0.1-0.1-0.4-0.2-0.5
		c-0.1,0-0.1,0-0.2,0.1c-0.1-0.2-0.1-0.5-0.2-0.7c-0.1,0-0.1,0-0.2,0.1c-0.3-0.4-0.3-0.6-0.5-0.9c-0.1,0-0.1,0-0.2,0.1
		c-0.1-0.1-0.1-0.4-0.2-0.5c-0.4,0.3-0.5-0.1-0.7,0.1c-0.1,0.1,0,0.3,0,0.6c-0.1,0.1-0.6,0.1-0.7,0.2c-0.3-0.3-0.2-0.5-0.5-0.8
		c-0.1,0-0.1,0-0.2,0.1l-0.1-0.3c-0.1,0-0.1,0-0.2,0.1c-0.1-0.2-0.1-0.5-0.2-0.7c-0.1,0-0.1,0-0.2,0.1c-0.1-0.2-0.1-0.5-0.2-0.7
		c-0.1,0-0.1,0-0.2,0.1l-0.1-0.3l-0.6-0.1l-0.1-0.3c-0.1,0-0.1,0-0.2,0.1c-0.2-0.3-0.2-0.3-0.4-0.6c-0.1,0-0.1,0-0.2,0.1
		c-0.3-0.3-0.2-0.6-0.5-0.9c-0.1,0-0.1,0-0.2,0.1l-0.1-0.3c-0.1,0-0.1,0-0.2,0.1c-0.1-0.1-0.1-0.4-0.2-0.5c-0.1,0-0.1,0-0.2,0.1
		c-0.1-0.2-0.2-0.5-0.2-0.7c-0.1,0-0.1,0-0.2,0.1c-0.2-0.3-0.2-0.5-0.3-0.8c0,0-0.1,0-0.2,0.1c-0.2-0.3-0.2-0.7-0.4-1h-0.4
		c-0.1-0.3-0.2-0.5-0.3-0.8c0.1,0,0.1,0,0.2-0.1c0-0.5-0.1-0.6-0.2-1.1c0.1,0,0.1,0,0.2-0.1c0.2,0.3,0.3,0.5,0.5,0.9
		c0.1,0,0.1,0,0.2-0.1c0.1,0.1,0.1,0.4,0.2,0.5c0.1,0,0.1,0,0.2-0.1c0.2,0.4,0.2,0.8,0.4,1.2c0.1,0,0.1,0,0.2-0.1
		c0.2,0.4,0.3,1.2,0.6,1.5c0.1,0,0.1,0,0.2-0.1c0,0.1,0,0.1,0.1,0.2c0.2-0.1,0.5-0.2,0.7-0.2c0.1,0.2,0.1,0.5,0.2,0.7
		c0.1,0,0.1,0,0.2-0.1c0.2,0.4,0.3,0.6,0.5,0.9c0.1,0,0.1,0,0.2-0.1c0.1,0.2,0.1,0.5,0.2,0.7c0.1,0,0.1,0,0.2-0.1
		c0,0.1,0,0.1,0.1,0.2c0.4,0,0.6,0.3,1.1,0.4c0,0.1,0,0.1,0.1,0.2c0.1,0,0.1,0,0.2-0.1c0.3,0.2,0.2,0.4,0.5,0.8c0.1,0,0.1,0,0.2-0.1
		l0.1,0.3c0.1,0,0.1,0,0.2-0.1c0.1,0.1,0.1,0.4,0.2,0.5c0.1,0,0.1,0,0.2-0.1c0.1,0.1,0.1,0.3,0.2,0.5c0.4,0,0-0.2,0.2,0.1
		c0.5-0.3,0.3-0.5,0.4-0.5c0,0,0.6-0.1,0.4,0c0.1,0,0.1,0,0.2-0.1c0.2,0.2,0.1,0.2,0.3,0.4c0.1,0,0.1,0,0.2-0.1
		c-0.1-0.4-0.1,0,0.1-0.2c-0.3-0.8-0.6-2.2-1-2.8c-0.1,0-0.1,0-0.2,0.1L85,190c0,0-1-0.4-1.1-0.4c0-0.1,0-0.1-0.1-0.2
		c0.1,0.5-0.5-0.8-0.5-0.8l0.4-0.4c0,0,0-0.3,0-0.4c0.3-0.1,0.5-0.2,0.8-0.3l0.3,0.3c0.2,0,0.5-0.2,0.7-0.2c0,0.1,0,0.1,0.1,0.2
		c0.7,0.3-1.1-1.6,0.3,0.3c0.1,0,0.1,0,0.2-0.1c0.5,0.7,0.7,2,1,2.8c0.3,0,0.1-0.2,0.2,0.1c0.4-0.2,0.4-0.1,0.7-0.1
		c0.1-0.3,0.3-0.3,0.4-0.5l-0.1-0.3c0.1,0,0.1,0,0.2-0.1l-0.1-0.3c0.1,0,0.1,0,0.2-0.1c0-0.2-0.2-0.5-0.2-0.7c0.1,0,0.1,0,0.2-0.1
		c-0.1-0.3,0-0.1-0.2-0.1c-0.1-0.4-0.1,0,0.1-0.2c0-0.1-0.2-0.4-0.2-0.5l0.3-0.1c0-0.3-0.3-0.6-0.4-1c0.3-0.1,0.2,0.2,0.4,0.4
		l0.3-0.1c0-0.4-0.1-0.3-0.1-0.7c0.1,0,0.1,0,0.2-0.1c0-0.2-0.2-0.3-0.2-0.5c0.1,0,0.1,0,0.2-0.1l-0.1-0.3c0-0.1,0.6-0.7,0.6-0.8
		c0.1-0.4-0.4-0.4-0.4-0.6l0.4-0.3c0-0.2-0.2-0.4-0.2-0.5c0.1,0,0.1,0,0.2-0.1c-0.1-0.2-0.1-0.3-0.2-0.5c0.1,0,0.1,0,0.2-0.1
		c-0.1-0.8-0.6-1.6-0.9-2.3C89.3,179.2,89.4,179.1,89.4,179.1z"/>
</g>
<line class="st17" x1="84" y1="185.7" x2="84" y2="161.7"/>
<line class="st17" x1="88.2" y1="192.7" x2="88.2" y2="168.3"/>
<line class="st17" x1="92.3" y1="196.9" x2="92.3" y2="172.7"/>
<line class="st17" x1="96" y1="203" x2="96" y2="178"/>
<line class="st17" x1="100.7" y1="202.9" x2="100.7" y2="178.4"/>
<line class="st18" x1="84.1" y1="185.7" x2="84.1" y2="161.7"/>
<line class="st18" x1="88.4" y1="192.7" x2="88.4" y2="168.3"/>
<line class="st18" x1="92.5" y1="196.9" x2="92.5" y2="172.7"/>
<line class="st18" x1="96.2" y1="203" x2="96.2" y2="178"/>
<line class="st18" x1="100.9" y1="202.9" x2="100.9" y2="178.4"/>
<path class="st0" d="M212,111.5L212,111.5c1.9,2.1,3.2,4.9,4.2,8l0,0c1.9,6.2,2.4,14.1,2.5,21.6l0,0c0,10.6-1.1,20.5-1.7,24.3l0,0
	c-0.9,6.1-2.7,26-2.8,39.6c0,0,0,6.6,0.4,8.7h-5.2c-0.3-3.4-0.3-8.8-0.3-8.8c0.1-14,2-33.7,2.9-40.2l0,0c0.5-3.6,1.6-13.4,1.6-23.6
	l0,0c0.1-10.9-1.5-22.4-5.3-26.2l0,0"/>
<path class="st0" d="M200.6,114.5L200.6,114.5c-0.3,0.4-0.5,0.9-0.7,1.5c0,0-0.5,1.6-0.4,4.1c0,5,1.6,12.1,3.3,19.6l0,0
	c1.7,7.6,3.4,15.7,3.4,22.8l0,0c0,12.7-3.8,30.3-6.8,42.5c0,0-1.8,6.1-2.9,8.8h-5.7c1.5-2.2,3.3-8.8,3.3-8.8
	c0.6-2.3,1.2-4.8,1.8-7.5l0,0c2.6-11.3,5.2-25.2,5.2-35l0,0c0-6.3-1.6-14.1-3.3-21.7l0,0c-1.7-7.6-3.4-15-3.4-20.9l0,0
	c0-0.5,0-0.9,0-1.4c0.2-2.4,0.7-4.2,0.7-4.2c0.3-1,0.7-1.9,1.3-2.7l0,0"/>
<linearGradient id="SVGID_6_" gradientUnits="userSpaceOnUse" x1="203" y1="49.684" x2="203" y2="57.9303" gradientTransform="matrix(1 0 0 -1 0 259.53)">
	<stop  offset="0" style="stop-color:#FFFFFF"/>
	<stop  offset="1" style="stop-color:#FFFFFF;stop-opacity:0"/>
</linearGradient>
<rect x="189.2" y="199.8" class="st19" width="27.6" height="16"/>
</svg>
