<?xml version="1.0" encoding="utf-8"?>
<!-- Generator: Adobe Illustrator 20.0.0, SVG Export Plug-In . SVG Version: 6.00 Build 0)  -->
<svg version="1.1" id="Calque_1" xmlns="http://www.w3.org/2000/svg" xmlns:xlink="http://www.w3.org/1999/xlink" x="0px" y="0px"
	 viewBox="0 0 326.7 303" style="enable-background:new 0 0 326.7 303;" xml:space="preserve">
<style type="text/css">
	.st0{fill:#FFFFFF;stroke:#1A171B;stroke-width:0.8;}
	.st1{fill:none;stroke:#1A171B;stroke-width:0.8;}
	.st2{fill:#9B9C9E;stroke:#1A171B;stroke-width:0.8;stroke-linecap:round;stroke-linejoin:round;}
	.st3{fill:#D8D9DA;stroke:#1A171B;stroke-width:0.8;}
	.st4{fill:#1A171B;}
	.st5{fill:url(#SVGID_1_);}
	.st6{fill:url(#SVGID_2_);}
	.st7{fill:url(#SVGID_3_);}
	.st8{fill:url(#SVGID_4_);}
</style>
<path class="st0" d="M247.5,125.4c0.1-0.1,0-0.2,0.2-0.1c0.3,0.7,2.1,0.9,2.8,0.9c0.7,0.1,1.4,0,2.1,0.1c0.7,0.1,1.4,0.3,2.1,0.5
	c1.4,0.4,2.6,1,4,1.5c1.4,0.6,2.9,1.1,4.2,1.9c1.3,0.8,2.5,1.9,3.7,2.8c1.2,0.9,2.6,1.6,3.7,2.6c1.3,1.1,2.7,2,4,3.1
	c1.3,1.3,2.6,2.5,3.7,3.9c1,1.3,1.8,2.6,2.4,4.1c0.5,1,1.2,2.4,1.3,3.6c-0.7,0.2-1.3,1-2,1.4c-1.5,0.7-3.3,0.8-4.9,0.8
	c-3.9,0.2-8.2,0-11.6-2.1c-1.5-1-2.9-2.3-4.3-3.4c-1.5-1.1-2.9-2.2-4.2-3.6c-2.1-2.5-2.6-5.4-3.5-8.4c-0.6-2.2-1.5-4.1-2.6-6.1
	c-0.3-0.7-0.6-1.5-0.8-2.2c-0.1-0.5,0.1-1.3-0.3-1.5"/>
<path class="st0" d="M276.2,157.6c1.8-1.2,3.6-2.8,5.8-4.8c2.2-2,5-5.3,7.1-8.4c2.1-3.1,3-5.9,3.4-7.9c0.4-1.9,0.4-3.2,0.4-5.1
	c0-2-0.2-2.6-1-3.1c-0.8-0.5-1.4-0.2-2.1,0c-0.6,0.1-0.7,0.4-0.7,0.4s-0.7,0.1-2.3,0.3c-1.5,0.2-1.7,1.7-1.8,2.3
	c-0.2,0.6-0.4,1.3-0.7,1.9c-0.3,0.7-0.4,1.2-0.4,1.4c0,0.2-0.1,0.3-1.3,2.6c-1.2,2.4-2.4,3.4-2.7,3.8c-0.3,0.4-1,0.9-1.8,1.8
	c-0.8,0.9-2.4,2.5-3.6,3.6c-0.9,0.8-2.1,1.8-3,2.5"/>
<path class="st0" d="M251.6,100.9c1.3-0.5,2.8-0.6,4.4-0.6c0.7,0,1.6,0.1,2.2,0.3c0.7,0.2,0.9,0.6,1.7,0.7c2.9,0.2,5.9-0.6,8.3,1.4
	c2.4,2,1.6,5.3-0.1,7.5c-1,1.2-1.7,2.4-3,3.2c-1.1,0.7-2.6,1.4-3.9,1.8c-1,0.4-2,0.3-3.2,0.5c-0.5,0.1-1,0.3-1.6,0.3
	c-0.6,0.1-1.2-0.1-1.7-0.1c-1,0.1-1.7,1-2.7,1.4"/>
<path class="st0" d="M258.1,243.8c0,0,7.8-26,9.1-28.5c1.2-2.5,3.7-5,4.5-7.4c0.8-2.5,2.4-7.1,2.4-7.1c1.2-1,2.3-2.2,3.4-3.3
	c5.8-5.5,8.8-12.5,12-19.6c0.8-1.8,1.7-4.9,2.9-6.4c1.4-1.8,1.1-4.8,1-7.1c-0.2-4.1-1.2-5-1.7-9.1c-0.6-4.3-0.7-8.8-1.5-13.1
	c-0.4-1.9-1-4-1.9-5.8c-0.4-1-0.9-1.9-1.1-3c-0.1-0.7,0-2-0.7-2.3c-2,2.2-2.7,5-3.3,7.8c-0.6,2.8-3.1,4.5-3,7.5
	c-1.2-1.2-3,1.3-4.1,2c-3.1,2-7.5-0.9-10.5-2.2c-1.7-0.8-3-1.7-4.6-2.7c-0.8-0.5-1.7-0.9-2.6-1.2c-0.8-0.2-2-0.2-2.7-0.7l-0.8-0.2
	c0,0.1-0.2-0.4-0.2-0.5c-1-2.7-1.2-5.8-2.5-8.5c-0.7-1.5-1.1-2.9-1.7-4.4c-0.5-1.3-1.3-2.7-1.9-3.9l-0.1,0.1
	c0.2-0.4,0.2-0.7,0.2-1.2c0-0.4,0-1.2-0.1-1.5l0,0c-0.2-1-0.8-2.4-0.9-3.4c0.9,0,2.2-0.5,3-0.8l-0.4-16.5c-2.9,1.1-6,1-8.9,2.3
	c-1.2,0.5-2.4,1.2-3.5,1.9c-0.8,0.5-2.8,1.4-3.2,1.7l0.1-0.1c-2.1,1.2-5.1,2.3-6.2,4.5c-1.5,3-0.2,6.7,0.3,9.6c0.4,3,0.7,6.3,1,9.4
	c0.1,1.2,0.8,3.9,0.4,4.9c-0.4,0.8-2.3,1.5-3.2,1.9c-2.3,1.1-5.7,1.9-7.5,3.5c-2.7,2.4-3.1,4.9-3,8.3c-3,4.5-1.3,9.1-0.4,12
	c0.6,1.9,0.6,2.8,0.5,4.9c-0.1,1.7,0.7,4.4,0.8,6.1c0.2,3,1.4,7.7,2,10.7c0.6,2.9,1,5.5,1.6,8.5c0.4,2,0.8,5.3,1.4,6.8
	c0,0-6,23.7-6.8,25.3"/>
<path class="st1" d="M0.2,222.9c3.8-2,10.1-6.9,12.7-10.9c3.3-5.1,5.5-11.1,7.2-16.9c1.8-6.1,4.6-11.6,7-17.3
	c2.2-5.1,0.8-13.3,0.8-18.6c0-10,1.7-6.5,5.2-10.8c-0.1,0.2,1.2-3.2,1.2-3c3.4-3.4,3.5-3.9,7.2-7.2c3.5-3.1,8.5-6.8,13-6.9l0.9-0.1
	c1.8-0.2,3.5,0.9,4.5,2.2c1.4,1.7,1.3,4.5-0.2,6.1c1.1,0.8,1.6,2.4,1.2,3.6l-0.2,0.4c-1.8,3.8-4,6-7.8,8.3c1.3,2.3,1,6.1-0.6,8.1
	c3.4-1.3,9.5-0.7,10.6,3c1.1,3.6-3.2,6.4-5.8,7.2c5.2,9,9.3,23.3,22,17.2c8.5-4,20.7-16.2,31-10.1c12,7.3-6,19.3-12.7,22.4
	c-5.1,2.3-10.9,3.6-15.9,6.6c-4.8,2.9-8.5,9.1-11.8,13.6c-3.2,4.4-5.8,7.4-10.4,10.5c-5,3.4-11,5.1-15.3,9.4
	c-3.8,3.7-5.5,7.1-9.8,9.9c-4.8,3.1-10,5.4-14.8,8.5c-1.8,1.2-3.6,2.5-4.8,4.3"/>
<path class="st1" d="M18.5,206.4c0.1-1.7,1.1-3.7,1.6-5.3c0.7-2.1,1.7-4.1,2.5-6.2c0.8-2.2,1.8-4.4,2.9-6.5c0.5-1,2.9-4.4,2.7-4.8"
	/>
<path class="st1" d="M31.9,175c-0.5-1,1.1-4.7,1.2-6.1c0.3-2.4,0.8-4.5,0.8-7c0-2.4-0.2-4.6-0.4-6.9c-0.2-2-0.9-5.1-0.2-7"/>
<path class="st1" d="M59.8,139.5c-0.6,1.3-2.7,3.4-4.8,4.1c-0.2,1.8-1.1,2.8-2.5,4c-0.4,0.4-1.6,1.1-1.9,1.5c-0.4,0.7,0,1.7,0.1,2.5
	c0.4,3.5-1.1,6.8,0.9,10.1c2,3.4,3.2,6.1,6.1,9"/>
<path class="st1" d="M52.2,139.8c0.7,0.9,2.8,2.8,2.5,3.7"/>
<path class="st1" d="M45.8,144.5c1.1-0.5,2.5,1,3.2,1.8c1.1,1.4,0.9,2.6,1.4,4.2"/>
<path class="st1" d="M50.8,148.9c0.9-1,2.3,3.7,2.6,4.2"/>
<path class="st1" d="M54.4,145.3c0.9,0.9,1.8,2.5,1.5,3.5"/>
<path class="st1" d="M52.6,159.7c-0.4,0.3-1.1,1.2-1.3,1.8"/>
<path class="st1" d="M57.8,177.3c-0.9,0.9-0.4,5.6,0.7,5.6"/>
<path class="st1" d="M88.7,186.1c-1.2,0.3,1,4.8,1.4,5.6c0.8,1.5,2.5,3,3.7,3.9"/>
<path class="st1" d="M91,186.1c0,0-0.3,0.1-0.1,0.1c1.5,0.1,2.5,1.2,3.4,2.3c0.6,0.8,2.2,3.2,2,3.7"/>
<path class="st1" d="M104.8,176c-1.4,0.3-2.8,2-3.8,3c-1.5,1.6-1.5,2.3-0.4,4.1c1.6,2.7,2.8,5.7,6,7c1.1,0.5,2,0.6,3,0
	c0.8-0.4,1.7-1.5,2.5-1.5"/>
<path class="st0" d="M102.4,108.7c0,0-0.8,0.2-1.1,0.2c-0.3,0-0.9-0.1-1.3-0.4c-0.3-0.3-0.8-0.9-1.5-1.6c-0.7-0.7-2.6-2.5-2.6-2.5
	c0,0-0.2,0.1-0.6-0.2c-0.4-0.3-1.4-1.2-2.1-1.7c-0.7-0.5-1.9-1.1-2.8-1.5c-1-0.4-1.1-0.5-1.4-0.9c-0.3-0.4-1.4-1.8-3.3-1.8
	c-1.9,0-4,1.7-4.6,3.1c-0.6,1.4-0.6,2.2-0.6,3.8c0,1.6-0.2,5.2-0.2,6.2c0,1-0.1,2.7-0.1,3.8c0,1.1,0,4.1,0,5.5c0,1.4,0,6.1,0,7.3
	c0,1.2,0.1,7,0.2,9.4c0.1,2.4,0.3,6.5,0.4,8c0.1,1.5,0.3,2.8,1.9,4.2c1.7,1.5,3.9,1.3,4.9,0.9c1-0.4,1.5-0.9,1.7-1
	c0.2-0.1,0.5-0.2,0.9-0.3c0.4-0.1,2-0.6,2.9-1.1s2.6-1.9,3.7-3c1.2-1.1,2.7-2.7,3.5-3.6c0.8-0.9,1.4-1.4,1.7-1.8
	c0.3-0.3,1.5-1.4,2.6-3.7c1.2-2.3,1.2-2.4,1.2-2.6c0-0.2,0.1-0.7,0.4-1.4c0.3-0.7,0.5-1.3,0.7-1.9c0.2-0.6,0.3-2.1,1.8-2.3
	c1.5-0.2,2.2-0.3,2.2-0.3s0.1-0.2,0.7-0.4c0.6-0.1,1.2-0.4,2,0c0.8,0.5,1,1.1,1,3c0,1.9,0,3.1-0.4,5c-0.4,1.9-1.2,4.7-3.3,7.8
	c-2.1,3-4.8,6.3-7,8.2c-2.2,2-4,3.5-5.7,4.7c-1.8,1.2-4.8,2.8-7.9,3.6c-3.1,0.7-7.8,1.4-12.8-2c-5.1-3.5-5.8-8.4-6-9.5
	c-0.2-1.1-0.2-3.5-0.2-6.7c0-3.2,0-6.9-0.1-9.8c0-2.9,0-10.3-0.1-12.3c0-2,0-7.8-0.1-11.1c0-3.3-0.2-7.1,1.2-10.3
	c1.5-3.2,3.6-5.2,5.5-6.4c1.9-1.3,5.3-2.6,8.7-2.6c3.4,0,6.8,2.1,7.8,2.8c1,0.7,3.8,2.9,6.6,5.2c2.8,2.3,5,4,5.5,4.5
	c0.6,0.5,1.9,2.2,0.7,4.4C106,107.9,103.3,108.4,102.4,108.7z"/>
<path class="st1" d="M102.5,103.6c0-0.7,0.6-1.3,1.3-1.3c0.7,0,1.3,0.6,1.3,1.4c0,0.7-0.6,1.3-1.3,1.3
	C103.1,104.9,102.5,104.3,102.5,103.6z"/>
<path class="st1" d="M107.6,105.3c-0.6,2.1-2.1,7-2.1,7l-1.3-2.9"/>
<line class="st1" x1="111.3" y1="127.4" x2="103.7" y2="108.4"/>
<path class="st1" d="M101.3,109c0,0,4.8,12.7,7.2,19"/>
<path class="st1" d="M107.9,142c0,0-0.5-0.3-2.8,0.7c-1.6,0.6-1.9,0.7-4.3,3.1c-2.4,2.5-6.8,6.4-10,7.7c-3.3,1.2-7.6,2.4-11.2-1.1
	c-3.6-3.5-2-14-2-16.2c0-2.2,0-12.7-0.2-17.3c-0.1-4.6-0.6-11.9-0.5-14.2c0.1-2.3,1-5.3,2.8-7c1.8-1.7,2.4-1.8,3.4-2.2
	c1.1-0.4,3.2-0.7,3.2-2.7c0-1.9,0.1-2.4-1.3-2.2c-1.4,0.1-6.7,1-9.9,5.7c-3.2,4.7-2.6,8.6-2.5,16c0.1,7.5,0.2,18.4,0.2,22.3
	c0,3.8,0,8.9,0.2,11.1c0.2,2.2,0.7,6.3,4.7,9.6c4,3.3,9.8,3.8,15.4,1.3c5.5-2.5,10.2-6.9,12.3-9.5
	C107.7,144.7,109.8,142.9,107.9,142z"/>
<path class="st1" d="M100.5,97.1c0,0-0.7,0.2-1.4,0.4c-0.7,0.2-1.7,0.4-2.2,0.3c-0.5-0.2-1.5-1.4-3.3-2.8c-1.9-1.4-4.7-3.6-6.7-2.4"
	/>
<path class="st1" d="M100.4,105.6c-0.1-0.1-0.5-0.3-1.4-0.9c-0.9-0.6-8.8-6.7-9.4-7.2c-0.6-0.5-0.8-1-0.8-1.7c0-0.7-0.1-1.3,0.2-2.1
	C89.3,92.9,90,93,90,93s0.6,0,2.3,1.3c1.7,1.3,2.6,2.2,3.5,3c0.9,0.9,1.5,1.1,2.2,1.6c0.7,0.5,2.3,2.1,3.6,4.3"/>
<path class="st1" d="M105.7,107.3c1.6-0.8,2.5-2.5,2.4-4.3c-0.2-2.3-2.1-3.9-4.3-3.9"/>
<polygon class="st0" points="90.7,2.7 82,2.7 82.3,102 90.9,100.8 "/>
<path class="st0" d="M86.4,84.6l-4.8,0.1l-0.3,0.5l0.1,3c2.2,6.2,1.9,14.3,1.9,14.3l7.1-0.2c0,0-0.7-8.2,1.2-14.4l-0.1-3l-0.3-0.5
	L86.4,84.6L86.4,84.6z"/>
<path class="st1" d="M100.3,182.5c0.1-0.1,1.5,0.5,1.9,0.7c0.5,0.4,1.1,1,1.5,1.6c0.6,0.9,1.3,3.1,0.8,4"/>
<path class="st2" d="M99.2,285.2L99.2,285.2c0-2.6,2.6-48.9,2.6-62l0,0c0-8.2-0.2-17.2-0.9-25.1c0,0,1.9-1.3,3.6-2.3
	c1.7-1,4.2-3.1,4.2-3.1c1.1,9.5,1.4,20.4,1.4,30.5l0,0c0,13.3-2.6,60.1-2.6,62l0,0"/>
<path class="st2" d="M74.6,250.5L74.6,250.5L74.6,250.5L74.6,250.5L74.6,250.5L74.6,250.5z M64.5,287c0-12.7,1.9-37.2,1.9-37.2l0,0
	c0-0.1,2.4-27.9,8.1-49.2l0,0c2.2-8.2,5-15.8,8.2-21.6l0,0c3.3-5.6,6.4-10.4,12.7-10.9l0,0c2.5,0,4.8,1.3,6.4,3l0,0
	c0.9,1,1.6,2.1,2.3,3.4c0,0-3.5,1-5.1,1.4c-1.6,0.4-3.1,1-3.1,1c-0.3-0.4-0.4-0.5-0.6-0.6l0,0c0,0-0.1,0-0.3,0.1l0,0
	c-0.3,0.2-0.8,0.5-1.3,1l0,0c-1.1,1.1-2.5,3-3.8,5.5l0,0c-2.7,4.9-5.4,12-7.5,19.7l0,0c-5.4,20.1-7.8,47.7-7.8,47.7
	s-1.3,13.2-1.6,36.2"/>
<path class="st0" d="M258.1,142c-0.1-1.2-0.1-2.5-0.1-3.4c-0.1-2.5-0.2-8.3-0.2-9.5c0-1.3,0-6,0-7.5c0-1.4,0-4.5,0-5.6
	c0-1.1,0-2.8,0.1-3.8c0-1,0.2-4.7,0.2-6.3c0-1.6,0.1-2.4,0.7-3.8c0.6-1.4,2.7-3.2,4.7-3.2c1.9,0,3.1,1.4,3.4,1.8
	c0.3,0.4,0.5,0.6,1.5,0.9c1,0.4,2.2,1,2.9,1.5c0.7,0.5,1.7,1.3,2.1,1.7c0.4,0.4,0.6,0.2,0.6,0.2c0,0,2,1.9,2.7,2.6
	c0.7,0.7,1.1,1.4,1.5,1.6c0.3,0.3,1,0.5,1.3,0.4c0.3,0,1.1-0.2,1.1-0.2c0.9-0.2,3.7-0.8,4.9-3c1.2-2.2-0.1-3.9-0.7-4.5
	c-0.6-0.5-2.8-2.3-5.6-4.6c-2.9-2.3-5.7-4.6-6.7-5.3c-1.1-0.7-4.5-2.8-7.9-2.9c-3.5,0-6.9,1.4-8.8,2.7c-1.9,1.3-4.1,3.3-5.6,6.5
	c-1.5,3.3-1.3,7.1-1.3,10.5c0,3.4,0.1,9.3,0.1,11.3c0,0.7,0,2.1,0,3.8c0,0,1.6,3,2,4.1c0.4,1.1,1.3,3.4,1.5,3.9
	c0.3,0.5,1.2,3.4,1.3,3.9c0.1,0.5,0.9,4.7,1.6,5.2c0.7,0.6,2,1,2.6,1L258.1,142z"/>
<path class="st1" d="M280.5,104.3c0-0.7,0.6-1.4,1.4-1.4c0.8,0,1.4,0.6,1.4,1.4c0,0.8-0.6,1.4-1.4,1.4
	C281.1,105.6,280.5,105,280.5,104.3z"/>
<path class="st1" d="M285.4,106.3c-1.3,1.7-5,6-5,6l0.2-3.3"/>
<path class="st1" d="M254.9,140.2c0.1-1.3,0.2-2.2,0.2-2.8c0.1-2.2,0-12.9-0.2-17.7c-0.1-4.7-0.6-12.1-0.5-14.4
	c0.1-2.3,1.1-5.4,2.9-7.1c1.8-1.7,2.4-1.9,3.5-2.3c1.1-0.4,3.3-0.7,3.2-2.7c0-2,0.1-2.4-1.3-2.3c-1.5,0.1-6.8,1-10.1,5.8
	c-3.2,4.8-2.6,8.8-2.6,16.3c0,4,0.1,8.9,0.2,13.3"/>
<path class="st1" d="M278.4,97.7c0,0-0.7,0.2-1.5,0.4c-0.7,0.2-1.7,0.5-2.2,0.3c-0.5-0.2-1.5-1.4-3.4-2.9c-1.9-1.4-4.8-3.6-6.8-2.4"
	/>
<path class="st1" d="M278.3,106.3c-0.1-0.1-0.5-0.3-1.4-1c-0.9-0.6-8.9-6.8-9.5-7.3c-0.6-0.5-0.8-1-0.8-1.7c0-0.7-0.1-1.3,0.2-2.1
	c0.2-0.8,0.9-0.7,0.9-0.7s0.6,0,2.4,1.3c1.8,1.3,2.6,2.2,3.6,3.1c0.9,0.9,1.5,1.1,2.2,1.6c0.7,0.5,2.3,2.1,3.7,4.4"/>
<path class="st1" d="M283.7,108.1c1.6-0.8,2.6-2.5,2.4-4.4c-0.2-2.3-2.2-4-4.4-4"/>
<polygon class="st0" points="268.4,2.7 259.6,2.7 259.9,102.6 268.6,101.4 "/>
<path class="st0" d="M264.1,85l-4.9,0.1l-0.3,0.5l0.1,3.1c2.3,6.3,2,14.6,2,14.6l7.2-0.2c0,0-0.7-8.3,1.2-14.7l-0.1-3.1l-0.3-0.5
	L264.1,85L264.1,85z"/>
<path class="st1" d="M286.4,131.1c0-2.9,0.3-8,3.2-10.8c3-2.8,7.2-0.1,9.1,2.8c1.9,2.9,2.7,6.3,4.6,9.3c1.2,1.8,1.7,2.8,1.5,5.1
	c-0.2,2-0.6,3.6-1.4,5.4c-2.9,7.2-6.9,14.1-8.7,21.5c-0.3,1.4-1.6,3.3-1.4,4.8"/>
<path class="st1" d="M242.2,108.6c1.4,1.2,3,2.7,3.9,4.3c0.5,0.8,0.9,1.7,1.2,2.6c0.4,1.1,0.4,2.3,1,3.3"/>
<path class="st1" d="M231.5,139.6c-0.7,0.8-1,2.2-1.1,3.2c-0.2,1.8-0.3,4.3,0.2,6"/>
<path class="st1" d="M217,148.4c-0.3,0.6,0.2,1.5,0.3,2.1c0.2,1.1,0.4,2.2,0.7,3.4"/>
<path class="st1" d="M258.8,135.8c0.2,1.1,0.5,2.4,0.3,3.5c-0.1,1-0.7,1.9-0.6,3"/>
<path class="st1" d="M260.3,136.5c0.7,0.6,0.6,2.7,0.4,3.5c-0.2,0.8-0.8,2.2-1,2.6"/>
<path class="st1" d="M269.9,148.4c0.6-1.4,1.2-2.5,2.1-3.7c0.7-0.9,2.3-2.1,2.6-2.9"/>
<path class="st1" d="M294,119.6c-1.4,0.4-2.2,1.1-2.2,2.7c0,1.1,0.7,2.4,1.7,3c1.9,1.3,4,2.4,6.1,3.4c0.9,0.4,2,1.2,1.7-0.2"/>
<path class="st1" d="M295.3,126.5c1.8,0,3.5,0.8,4.5,2.4c0,0,0-0.1,0-0.2"/>
<path class="st2" d="M283.6,190.5c1.2,18.2,7.3,89.4,8.8,108.5l0,0l-8.2,0.6c-1.2-15.9-7.1-85.3-8.2-100
	C275.9,199.7,280.3,196,283.6,190.5z"/>
<path class="st2" d="M274,146.7c0.6-10.8,2.1-17.9,4.6-22.4l0,0c1.1-1.8,2.7-3.7,5.4-4.2l0,0l0,0c0.4-0.1,0.7-0.1,0.9-0.1l0,0
	c1.6,0,2.8,0.7,3.5,1.4l0,0c0.8,0.7,1.2,1.3,1.6,2l0,0c0.8,1.4,1.3,2.9,1.9,4.6l0,0c1.1,3.5,2.1,8.2,3,13.4l0,0
	c1.8,10.4,3.4,23.3,4.6,33.4l0,0c3.4,28.3,12,123.6,12,123.6l0,0h0l-8.2,0.8c0-0.1-8.6-95.3-11.9-123.4l0,0
	c-1.6-13.7-4-32.5-6.5-42.6l0,0c-0.1-0.6-0.3-1.1-0.4-1.6l0,0c-0.2,0.5-0.3,1.1-0.5,1.7l0,0c-0.1,0.6-0.3,1.2-0.4,1.9
	c0,0-0.2,0.3-0.4,0.8c-0.2,0.5-0.7,1.4-1.1,2c-0.3,0.6-1.7,2.1-2.3,2.8c-0.6,0.6-2.3,2.3-2.9,3C276.2,144.6,274,146.7,274,146.7z"/>
<path class="st0" d="M277.3,136.3c0,0-0.6,0.1-0.6,0.5c0,0.4,0,2,0,2s0.6,0.6,1.6,0.6c1.1,0,1.7-0.5,1.7-0.5s0.1-0.4,0.2-1.3
	c0-1.1-0.2-1.2-0.5-1.2"/>
<path class="st0" d="M280.6,109.5l-0.8,26.9c0,0-0.3,0.2-1.2,0.2c-0.7,0-1.1-0.2-1.1-0.2c0-6.9,0.6-27,0.6-27s0.6,0.5,1,0.5
	C279.5,109.9,280.6,109.5,280.6,109.5z"/>
<path class="st3" d="M284.4,131.7c0,0-0.7-5.1-2.2-4.9"/>
<path class="st4" d="M103.4,116.6l4.2,0.4c0,0-1.6-6.3-0.6-8.9l-1.5-0.8c0,0-0.6,0.6-1.9,1l0.4,0.9l-2.5,1.1l-0.3-0.9l-0.5,0.1
	L103.4,116.6z"/>
<path class="st4" d="M277,116.5l3.7,1.9c0,0,0.9-6.4,2.8-8.4l-1.1-1.3c0,0-0.8,0.3-2.1,0.2l0,1l-2.8,0l0-1l-0.5-0.1L277,116.5z"/>
<linearGradient id="SVGID_1_" gradientUnits="userSpaceOnUse" x1="87.685" y1="6.8599" x2="87.685" y2="37.5112">
	<stop  offset="0" style="stop-color:#FFFFFF"/>
	<stop  offset="1" style="stop-color:#FFFFFF;stop-opacity:0"/>
</linearGradient>
<rect x="76.7" class="st5" width="22" height="42"/>
<linearGradient id="SVGID_2_" gradientUnits="userSpaceOnUse" x1="263.685" y1="6.8599" x2="263.685" y2="37.5112">
	<stop  offset="0" style="stop-color:#FFFFFF"/>
	<stop  offset="1" style="stop-color:#FFFFFF;stop-opacity:0"/>
</linearGradient>
<rect x="252.7" class="st6" width="22" height="42"/>
<linearGradient id="SVGID_3_" gradientUnits="userSpaceOnUse" x1="-1129.8149" y1="4086.8599" x2="-1129.8149" y2="4117.5112" gradientTransform="matrix(-1 0 0 -1 -1040.63 4370)">
	<stop  offset="0" style="stop-color:#FFFFFF"/>
	<stop  offset="1" style="stop-color:#FFFFFF;stop-opacity:0"/>
</linearGradient>
<rect x="57.7" y="248" class="st7" width="63" height="42"/>
<linearGradient id="SVGID_4_" gradientUnits="userSpaceOnUse" x1="-1335.8149" y1="4075.9832" x2="-1335.8149" y2="4116.1216" gradientTransform="matrix(-1 0 0 -1 -1040.63 4370)">
	<stop  offset="0" style="stop-color:#FFFFFF"/>
	<stop  offset="1" style="stop-color:#FFFFFF;stop-opacity:0"/>
</linearGradient>
<rect x="263.7" y="248" class="st8" width="63" height="55"/>
</svg>
