<?xml version="1.0" encoding="utf-8"?>
<!-- Generator: Adobe Illustrator 20.0.0, SVG Export Plug-In . SVG Version: 6.00 Build 0)  -->
<svg version="1.1" id="Calque_1" xmlns="http://www.w3.org/2000/svg" xmlns:xlink="http://www.w3.org/1999/xlink" x="0px" y="0px"
	 viewBox="0 0 387.8 333.7" style="enable-background:new 0 0 387.8 333.7;" xml:space="preserve">
<style type="text/css">
	.st0{fill:#666666;}
	.st1{fill:url(#SVGID_1_);stroke:#000000;stroke-width:0.8;stroke-miterlimit:10;}
	.st2{fill:url(#SVGID_2_);}
	.st3{fill:url(#SVGID_3_);stroke:#000000;stroke-width:0.8;stroke-miterlimit:10;}
	.st4{fill:url(#SVGID_4_);}
	.st5{fill:url(#SVGID_5_);stroke:#58585A;stroke-width:0.8;}
	.st6{fill:#FFFFFF;stroke:#1A171B;stroke-width:0.8;stroke-linecap:round;stroke-linejoin:round;}
	.st7{fill:url(#SVGID_6_);stroke:#1A171B;stroke-width:0.8;}
	.st8{fill:none;stroke:#1A171B;stroke-width:0.8;stroke-linecap:round;stroke-linejoin:round;}
	.st9{fill:#FFFFFF;stroke:#1A171B;stroke-width:0.8;}
	.st10{fill:#FFFFFF;stroke:#000000;stroke-width:0.8;}
	.st11{fill:#9B9C9E;stroke:#1A171B;stroke-width:0.8;stroke-linecap:round;stroke-linejoin:round;}
	.st12{fill:none;stroke:#FFFFFF;stroke-width:0.8;}
	.st13{fill:none;stroke:#000000;stroke-width:0.8;}
	.st14{fill:url(#SVGID_7_);}
	.st15{fill:url(#SVGID_8_);stroke:#58585A;stroke-width:0.8;}
	.st16{fill:url(#SVGID_9_);stroke:#000000;stroke-width:0.8;}
	.st17{fill:url(#SVGID_10_);}
	.st18{fill:none;stroke:#000000;stroke-width:0.5;stroke-dasharray:3,3;}
	.st19{fill:#E75300;}
	.st20{fill:#FFFFFF;}
	.st21{fill-rule:evenodd;clip-rule:evenodd;fill:#1A171B;}
</style>
<g>
	<polygon class="st0" points="12.6,129.7 38.8,143.9 12.6,158 	"/>
</g>
<linearGradient id="SVGID_1_" gradientUnits="userSpaceOnUse" x1="1180.3297" y1="989.6456" x2="1180.3297" y2="939.1358" gradientTransform="matrix(1 0 0 1 -999.6465 -656.3672)">
	<stop  offset="0" style="stop-color:#919294"/>
	<stop  offset="0.3207" style="stop-color:#C0C0C1"/>
	<stop  offset="0.6087" style="stop-color:#E2E2E3"/>
	<stop  offset="0.8449" style="stop-color:#F7F7F8"/>
	<stop  offset="1" style="stop-color:#FFFFFF"/>
</linearGradient>
<polyline class="st1" points="191.9,282.8 191.9,309.4 200.6,309.4 180.7,333.3 180.7,333.3 160.8,309.4 169.5,309.4 169.5,282.8 
	"/>
<g>
	
		<linearGradient id="SVGID_2_" gradientUnits="userSpaceOnUse" x1="-1110.6843" y1="-1433.6738" x2="-1110.6843" y2="-1479.7227" gradientTransform="matrix(-1 0 0 -1 -931.9283 -1171.5654)">
		<stop  offset="0.4982" style="stop-color:#FFFFFF"/>
		<stop  offset="1" style="stop-color:#FFFFFF;stop-opacity:0"/>
	</linearGradient>
	<rect x="152.5" y="262.1" class="st2" width="52.5" height="46"/>
</g>
<linearGradient id="SVGID_3_" gradientUnits="userSpaceOnUse" x1="1350.8907" y1="989.6456" x2="1350.8907" y2="939.1358" gradientTransform="matrix(1 0 0 1 -999.6465 -656.3672)">
	<stop  offset="0" style="stop-color:#919294"/>
	<stop  offset="0.3207" style="stop-color:#C0C0C1"/>
	<stop  offset="0.6087" style="stop-color:#E2E2E3"/>
	<stop  offset="0.8449" style="stop-color:#F7F7F8"/>
	<stop  offset="1" style="stop-color:#FFFFFF"/>
</linearGradient>
<polyline class="st3" points="362.5,282.8 362.5,309.4 371.1,309.4 351.3,333.3 351.2,333.3 331.3,309.4 340,309.4 340,282.8 "/>
<g>
	
		<linearGradient id="SVGID_4_" gradientUnits="userSpaceOnUse" x1="-1281.2454" y1="-1433.6738" x2="-1281.2454" y2="-1479.7227" gradientTransform="matrix(-1 0 0 -1 -931.9283 -1171.5654)">
		<stop  offset="0.4982" style="stop-color:#FFFFFF"/>
		<stop  offset="1" style="stop-color:#FFFFFF;stop-opacity:0"/>
	</linearGradient>
	<rect x="323.1" y="262.1" class="st4" width="52.5" height="46"/>
</g>
<linearGradient id="SVGID_5_" gradientUnits="userSpaceOnUse" x1="124.9647" y1="174.57" x2="89.4845" y2="156.6828">
	<stop  offset="0" style="stop-color:#666666"/>
	<stop  offset="0.2585" style="stop-color:#959595"/>
	<stop  offset="0.605" style="stop-color:#CECECE"/>
	<stop  offset="0.8625" style="stop-color:#F2F2F2"/>
	<stop  offset="1" style="stop-color:#FFFFFF"/>
</linearGradient>
<path class="st5" d="M117.2,93.8c-1,2.9-2.2,3.4-2.7,6.6c-0.7,4.7-2.9,14.4-3.4,19.2c-0.8,8.1,1.9,16.2,1.1,23.9
	c-0.4,3.7,4.8,4.3,3.4,9.3c-2.6,9.5-28,19.3-37.6,26.8c-9.6,7.6-18.2,26.5-27.3,34.4"/>
<g>
	<path class="st6" d="M120.2,138.9c0.9-2.2,3.3-4.4,4.6-5.3c1.5-1.1,5.1-2.6,5.8-2.8c0.7-0.2,1.5-0.5,3.1-0.3c2.2,0.4,3,1.8,3.4,2.6
		c0.4,0.8,0.3,1.7,0.3,1.7s0.1,0.7,0.3,3.1c0.3,2.8,0.8,7.3,0.9,8.8c0.1,1.5,0.5,6,0.7,7.8c0.1,1.7,0.4,6.2,0.4,6.2s0.2,3.5,0.3,5.1
		c0.1,1.7,0.3,5.3,0.3,5.3s0.2,6.5,0.2,6.9c0,0.5,0.1,1.4,0.1,1.7c0,0.2,0.1,1.4-0.3,2.3c-0.5,1.1-0.8,1.8-2.4,2.5
		c-1.6,0.8-2.8,0.4-3.1,0.3c-0.3-0.1-0.5-0.1-0.5-0.1s-2.4-0.5-6.2-2.1c-3.8-1.6-6.5-3.7-8.9-6.2c-2.4-2.5-3.8-4.9-3.8-4.9l-0.3-0.6
		c-1.3-5.5-0.7-7.9-0.7-8.7c0-1.1-5.3-0.7-5.6,0.2c-0.3,0.9-0.4,1.3-1.2,4.4c-0.2,1-0.3,1.4-0.3,2.4c-0.2,0.6-0.4,1.4-0.2,2.7
		c0.2,1.2,0.5,1.7,0.7,2c0.2,0.3,0.7,1.7,1.6,3c0.8,1.3,2.6,3.9,3.7,5c1.7,1.7,3.4,3.3,4.3,4c0.9,0.7,3.3,2.4,5.5,3.5
		c2.2,1.1,4.4,2.2,8.4,3.2c3.7,1,5.9,0.7,6.8,0.5c0.9-0.1,3-0.3,5.7-2.2c2.6-1.8,3.6-4.3,4.3-5.8c0.5-1.1,1-2.9,0.9-5.9
		c0-0.9-0.1-3.4-0.1-3.4s-0.2-5.7-0.3-7.3c-0.1-1.5-0.3-6.4-0.4-8c-0.1-1.6-0.5-6.5-0.5-7.3c-0.1-0.8-0.6-6.6-0.7-7.8
		c-0.1-1.2-0.5-5.4-0.8-7.3c-0.2-1.8-0.5-4.6-0.8-5.8c-0.3-1.2-0.9-3-2.3-4.9c-0.8-1.1-1.8-2.1-3-2.9c-1-0.6-2.1-1.3-3.4-1.6
		c-1.1-0.3-2.1-0.5-3-0.5c-0.9,0-2.7-0.1-5.4,0.8c-2.6,0.9-4.7,1.9-6.8,3.3c-2,1.4-3.7,2.8-4.8,4.1c-1.1,1.3-2,2.9-2.4,3.6
		c-0.2,0.4-0.9,3-0.7,5.2c0.1,1.1,1.6,1.4,3,1.3C117.9,140.4,119.7,140.2,120.2,138.9z"/>
</g>
<g>
	<linearGradient id="SVGID_6_" gradientUnits="userSpaceOnUse" x1="120.8746" y1="159.3359" x2="116.5281" y2="136.6699">
		<stop  offset="0" style="stop-color:#E75300"/>
		<stop  offset="0.2286" style="stop-color:#EE8245"/>
		<stop  offset="0.5082" style="stop-color:#F5B794"/>
		<stop  offset="0.7392" style="stop-color:#FADECE"/>
		<stop  offset="0.9092" style="stop-color:#FEF6F2"/>
		<stop  offset="1" style="stop-color:#FFFFFF"/>
	</linearGradient>
	<path class="st7" d="M114.4,139l0.4,1.2c0,0,0.2,0.8-0.3,1.5c0,0,2.1,4.1,2.6,8.2c0.3,2.6,1,5.9,0.4,8.2c0,0,0.1,0.9,0.1,1.5l0,0
		c0.2,1.1-0.2,2.2-0.3,2.9c-0.1,1-0.7,1.6-0.5,3.2c0.1,1.5,1.7,1.6,2.6,1.6c0.9,0,2.9,0,2.9,0s0.4,0,0.9-0.3c0,0,0.3-0.2,0.4-0.2
		l0,0c0,0,0.5-0.6,0.5-2.2c0-1.6,0-3.9,0-3.9s0.2-1.3,0.2-1.7c0-0.4,0.2-2.1,0.1-2.3c-0.1-1.2,0-1.5,0-3.2c-0.1-1.8-0.2-4.6-1.3-8.1
		c-1.4-4.8-1.5-4.7-1.5-4.7s-0.6-0.5-0.9-1.5c-0.3-0.9-0.7-2.2-1-3.4l0-0.2c0-0.1-0.1-0.2-0.1-0.3l-0.3-1.2c-0.5-1.4-1-1.5-1-1.5
		s-0.4-0.1-1.3,0.1c-1.4,0.3-3.4,0.9-3.8,1.2c-0.5,0.2-0.2,1.8-0.2,1.8L114.4,139z"/>
</g>
<g>
	<g>
		<path class="st8" d="M114.3,169.2c-1,0-5.7,0.2-5.7,0.2"/>
	</g>
	<path class="st6" d="M116.5,138.3c0,0,1.3,0.1,1.5-1.1c0.1-1.2-1.1-1.4-1.1-1.4s-1.3-0.1-1.4,1C115.4,138,116.2,138.2,116.5,138.3
		L116.5,138.3z"/>
</g>
<path class="st9" d="M136.9,92.7c0,9.3,0.1,20.4,0.1,26.9v14.9h-12.6v-10.4c0,0,0.4-18,0.6-31.4"/>
<path class="st10" d="M124.6,119.7c0,0-2.3,0.9-2.8,2.1c0,0,3.3,3.1,3.3,5.2c0,2.1,0,8.6,2.1,8.6c2.1,0,3.6,0,3.6,0h0
	c0,0,1.5,0,3.6,0c2.1,0,2.1-6.4,2.1-8.6c0-2.1,3.3-5.2,3.3-5.2c-0.5-1.2-2.8-2.1-2.8-2.1s-0.9-0.1-1.6,0.3c-0.7,0.5-3.9,0.5-4.6,0.5
	c-0.7,0-3.8-0.1-4.4-0.3C125.8,119.9,125,119.5,124.6,119.7z"/>
<path class="st11" d="M126,266.7c-0.2-9.7,0-18,0.3-23.2c1.3-26.6,3.9-47.1,4.5-51c0,0,1,0.3,1.8,0.4c0.8,0.1,1.8,0.3,2.4,0.4
	c0.6,0,1.7,0.1,2.1,0.1c0.3,0,0.3,0,0.3,0c-0.8,5.3-5.4,35.7-4.8,73.4"/>
<path class="st11" d="M163.5,266.7c-1.1-20.8-3-43.4-5.9-59.9c-5.4-31.4-16.3-30.2-19.9-29.5c-3.6,0.6-5.5,6.6-5.5,6.6
	s0.7,0.4,1.9,0.6c1.1,0.2,2.7,0.6,4,0c0.3-0.1,0.8-0.6,1.1-1.1c0.3-0.5,3.1,0.1,3.8,1.3c0.6,1.1,11.4,8.8,13.6,81.9"/>
<g>
	<path d="M181.3,201.5c0.7,1.3,1.6,2.6,2.1,4.5c-0.1,0-0.3,0.1-0.4,0.1c0.2,0.8,0.7,1.9,1,2.7c-0.1,0-0.3,0.1-0.4,0.1
		c0.2,0.8,0.7,0.4,0.8,1c-0.1,0-0.3,0.1-0.4,0.1l0.3,0.8c-0.1,0-0.3,0.1-0.4,0.1c0.1,0.7,0.5,1.3,0.7,1.9c-0.1,0.1-0.3,0.1-0.4,0.1
		c0.2,1.6,0.7,2.1,0.9,3.6c-0.1,0-0.2,0.1-0.4,0.1l0.3,0.8c-0.1,0-0.2,0.1-0.4,0.1c0,0.5,0.5,1,0.6,1.5c-1.7,0.7-0.4-0.4-1.1-0.5
		l-0.8,0.3c0,1,0.1,0.7,0.2,1.7c-0.1,0.1-0.2,0.1-0.4,0.1c0,0.5,0.5,1.1,0.6,1.5c-0.1,0-0.3,0.1-0.4,0.1l0.3,0.8
		c-0.1,0-0.3,0.1-0.4,0.1c0,0.4,0.9,0.3,0.7,0.6c-0.8,0.9,0.7,4.4,1.4,6c-0.1,0-0.3,0.1-0.4,0.1c-0.2,0-0.6-1.7-0.7-1.9
		c-0.1,0-0.2,0.1-0.4,0.1c0.1,0.2,0.4,0.9,0.4,1.2c-0.1,0-0.3,0.1-0.4,0.1c0.2,1.3,2.2,6.5,2.9,7.7c0.1,0,0.3-0.1,0.4-0.1
		c0.5,0.7,0.5,1.3,1.1,1.8l0.9,0.1c0.5,0.6-0.1,0.3-0.2,0.5c0.6,0.8,0.4,0.6,1,1.4c0.9-0.2,1.8-0.9,2.7-1c0,0.1,0.1,0.3,0.1,0.4
		l0.8-0.3c0.1,0.1,0.1,0.3,0.1,0.4c0.3,0,0.8-0.5,1.2-0.4c0,0.1,0.1,0.3,0.1,0.4c0.9,0.1,1.6,0.7,2.5,0.8c0,0.1,0.1,0.3,0.1,0.4
		l1.4,0.3c0.6,0.5,1.1,2.1,1.8,2.4c0.7,0.3,0.2-0.5,0.2-0.5l0.8-0.3c0.6,0.4,0.9,0.6,1.6,0.7c0,0.1,0.1,0.3,0.1,0.4
		c0.1,0,0.3-0.1,0.4-0.2c0.3,0.3,0.5,1,0.8,1l0.8-0.3l0.3,0.8c0.1,0,0.3-0.1,0.4-0.2c0.5,0.9,1.4,1.8,1.7,3.3
		c-0.1,0-0.3,0.1-0.4,0.1c0.2,0.5,0.3,0.7,0.4,1.1c-0.1,0.1-0.3,0.1-0.4,0.1c0.3,1.4,1.1,2.9,1.6,4.2c0.1,0,0.3-0.1,0.4-0.1
		c0.3,0.8,0.7,1.9,1,2.7c-0.1,0-0.3,0.1-0.4,0.1c0.1,0.6,0.6,1.3,0.7,1.9c0.1,0,0.3-0.1,0.4-0.1c0.2,0.5,0.3,1.5,0.7,1.9l0.9,0.1
		c0.3,0.2,0.6,0.9,1,1.4c0.1,0,0.3-0.1,0.4-0.1l0.3,0.8c0.7,0.4,0.2-0.5,0.2-0.5c0.1,0,0.3-0.1,0.4-0.1c0.5,0.6,0.3,0.6,0.8,1
		l0.8-0.3c0.3,0.3,0.2,1.2,0.6,1.5c0.1-0.1,0.3-0.1,0.4-0.1c0.3,0.6,0.5,1.2,0.7,1.9c-0.1,0-0.3,0.1-0.4,0.1
		c0.1,0.5,0.5,1.1,0.6,1.5c-0.7-0.3-1.2,0.1-1.8-0.2l-0.3-0.8l-1.4-0.3l-0.3-0.8l-1.4-0.3l-0.3-0.8c-0.5-0.2-0.9,0.3-1.3,0.1
		c-0.6-0.4-0.4-1-1-1.4c-0.3-0.2-0.8,0-1.3,0l-0.3-0.8c-0.1,0.1-0.3,0.1-0.4,0.1c-0.3-0.3-0.4-1.2-0.6-1.5c-0.1,0.1-0.3,0.1-0.4,0.1
		c-0.4-1-0.7-2.1-1.1-3.1c-0.1,0-0.2,0.1-0.4,0.1c-0.3-0.8-0.9-1.8-1-2.7l0.6-0.7c0-0.3-0.3-0.9-0.4-1.2c0.1,0,0.3-0.1,0.4-0.1
		c-0.3-1.8-1.4-3.7-2-5.4c-0.1,0-0.2,0.1-0.4,0.1c-0.2-0.3-0.2-0.9-0.4-1.2l-0.8,0.3c0,0,0.1-0.8,0.1-0.9c-0.5,0-1.6-0.7-1.6-0.7
		c-1.1-0.1-2.2,0.8-3.1,1.1l-0.3-0.8c-0.1,0.1-0.2,0.1-0.4,0.1l-0.3-0.8c0,0-0.8-0.1-0.9-0.1c0-0.1-0.1-0.3-0.2-0.4
		c-0.1,0.2-1.3,0.5-1.5,0.6c0.1,0.2,0.8,1.8,0.7,1.9c-0.8,0.8-0.9-0.6-1.7,0.2c0.7,1.3,0.8,1.9,1.7,3.3c0.1-0.1,0.3-0.1,0.4-0.1
		c0.2,0.4,0.3,1.1,0.6,1.5c0.1,0,0.3-0.1,0.4-0.1c0.2,0.4,0.3,1.2,0.6,1.5c0.1,0,0.3-0.1,0.4-0.1l0.3,0.8c0.1,0,0.3-0.1,0.4-0.1
		l0.3,0.8c0.3,0.1,0.5-0.5,0.6-0.7c0.4,0.7-0.2,0.2,0.5,0.2c0.3,0.8,0.4,1.5,0.9,2.3c0.1,0,0.3-0.1,0.4-0.1c0.8,1.5,1.3,3.4,1.9,5
		c-0.1,0-0.2,0.1-0.4,0.1c0.2,0.7,0,0.2,0.5,0.2l0.3,0.8c-1.2-0.4,0.4,1.5,0.6,1.5c-0.2-0.3-0.5,1.9,0.6,1.5c0.6,1.7,1.1,3.8,2,5.4
		l0.9,0.1c0.7,0.8,0.7,1.9,1.4,2.5c0.3,0.3,0.9-0.2,1.3,0c0,0,0.7,1.1,1,1.4c0.1,0,0.3-0.1,0.4-0.1c0.2,0.3,0.2,0.9,0.4,1.1l0.9,0.1
		c0.4,0.6,0,0.3-0.2,0.5c0.1,0.2,0.3,0.9,0.4,1.1c0,0,0.7,0.1,0.8,1c0,0-0.6,0.6-0.5,1.1c-0.4,0-0.8,0.4-1.2,0.4
		c0-0.1-0.1-0.3-0.1-0.4l-0.8,0.3c0-0.1-0.1-0.2-0.1-0.4l-0.8,0.3l-0.3-0.8l-0.9-0.1l-0.3-0.8c-0.1-0.1-0.8-0.1-0.9-0.1
		c-0.1-0.3-0.2-0.9-0.4-1.2c-0.1,0-0.3,0.1-0.4,0.1c-1-1.6-1-3.8-2-5.4c-0.1,0-0.3,0.1-0.4,0.1c-0.1-0.2-0.3-0.9-0.4-1.2
		c-0.1,0-0.3,0.1-0.4,0.1c-0.2-0.4-0.3-1.2-0.6-1.5c-0.1,0-0.3,0.1-0.4,0.1c-0.6-0.6-0.4-0.7-1-1.4c-0.1,0.1-0.3,0.1-0.4,0.1
		c-0.2-0.3-0.2-0.9-0.4-1.2c0,0-0.9-0.1-0.9-0.1c-0.1-0.3-0.2-0.9-0.4-1.2c-0.1,0.1-0.3,0.1-0.4,0.1c-0.9-1.4-1.3-3.4-1.9-5
		c0.1,0,0.3-0.1,0.4-0.1c-0.3-1.1-0.8-2-1.2-3.1c-0.1,0-0.2,0.1-0.4,0.2c-0.3-0.7-0.5-2.1-1-2.7l-1.3,0l-0.3-0.8l-1.4-0.3
		c-0.3-0.2-0.2-0.9-0.4-1.2c-0.1,0.1-0.2,0.1-0.4,0.1c-0.6-1-0.7-1.4-1.2-2.2c-1.6,0.5-0.1-0.7-1-0.5c-0.2,0-0.8,1-0.9,1.2
		c-0.3-0.4,0-1-0.7-0.6c-0.4-0.5-0.6-1-1-1.4c-0.1,0.1-0.2,0.1-0.4,0.1c-0.3-0.4-0.3-1.1-0.6-1.5c-0.1,0.1-0.2,0.1-0.4,0.1
		c-0.3-0.7-0.4-1.3-0.7-1.9c-0.1,0-0.2,0.1-0.4,0.1c-0.3-0.5-0.3-1.4-0.7-1.9c-0.2-0.2-0.7,0-1.3,0c-0.7-1.3-0.9-1.9-1.7-3.3
		c-0.1,0-0.2,0.1-0.4,0.1c-0.3-0.5-0.4-1.4-0.7-1.9c-0.1,0.1-0.3,0.1-0.4,0.2c-0.9-1.5-0.9-2.4-1.8-3.7c-0.1,0-0.3,0.1-0.4,0.1
		c-0.1-0.2-0.3-0.9-0.4-1.2c-0.1,0-0.3,0.1-0.4,0.1c-0.3-0.4-0.3-1.1-0.6-1.5c-0.1,0-0.3,0.1-0.4,0.1c-0.6-0.9-0.6-1.3-1.2-2.2
		c-0.1,0-0.3,0.1-0.4,0.1c-0.2-0.3-0.2-0.8-0.4-1.2c-1,0.7-1.2-0.1-1.7,0.2c-0.2,0.2,0,0.7,0.1,1.3c-0.3,0.1-1.3,0.3-1.5,0.6
		c-0.6-0.7-0.5-1-1.1-1.8c-0.1,0-0.3,0.1-0.4,0.1l-0.3-0.8c-0.1,0-0.3,0.1-0.4,0.1c-0.3-0.4-0.3-1.1-0.6-1.5
		c-0.1,0.1-0.2,0.1-0.4,0.1c-0.2-0.4-0.3-1.2-0.6-1.5c-0.1,0-0.3,0.1-0.4,0.1l-0.3-0.8l-1.4-0.3l-0.3-0.8c-0.1,0-0.2,0.1-0.4,0.1
		c-0.5-0.7-0.4-0.8-1-1.4c-0.1,0-0.3,0.1-0.4,0.1c-0.7-0.8-0.6-1.4-1.2-2.2c-0.1,0-0.2,0.1-0.4,0.1l-0.3-0.8
		c-0.1,0.1-0.3,0.1-0.4,0.2c-0.3-0.3-0.2-0.9-0.4-1.2c-0.1,0.1-0.3,0.1-0.4,0.1c-0.2-0.4-0.4-1.1-0.6-1.5c-0.1,0.1-0.2,0.1-0.4,0.1
		c-0.4-0.7-0.4-1.3-0.7-1.9c-0.1,0-0.2,0.1-0.4,0.1c-0.4-0.8-0.4-1.6-0.9-2.3c0,0-0.8-0.1-0.9-0.1c-0.3-0.7-0.5-1.2-0.7-1.9
		c0.1,0,0.3-0.1,0.4-0.1c-0.1-1-0.3-1.4-0.5-2.5c0.1,0,0.3-0.1,0.4-0.1c0.5,0.7,0.6,1.2,1.2,2.2c0.1,0,0.3-0.1,0.4-0.1
		c0.1,0.2,0.3,0.9,0.4,1.1c0.1,0,0.3-0.1,0.4-0.1c0.5,0.8,0.5,1.8,1,2.7c0.1,0,0.3-0.1,0.4-0.1c0.4,0.9,0.6,2.7,1.3,3.4
		c0.1,0,0.3-0.1,0.4-0.1c0,0.1,0.1,0.3,0.1,0.4c0.4-0.2,1.1-0.5,1.5-0.6c0.3,0.4,0.3,1.1,0.6,1.5c0.1-0.1,0.2-0.1,0.4-0.1
		c0.5,0.9,0.6,1.3,1.2,2.2c0.1,0,0.3-0.1,0.4-0.1c0.2,0.4,0.3,1.2,0.6,1.5c0.1,0,0.3-0.1,0.4-0.1c0,0.1,0.1,0.3,0.1,0.4
		c1,0.1,1.5,0.7,2.5,0.8c0,0.1,0.1,0.3,0.1,0.4c0.1,0,0.3-0.1,0.4-0.1c0.7,0.5,0.4,1,1.1,1.8c0.1,0,0.3-0.1,0.4-0.1l0.3,0.8
		c0.1,0,0.3-0.1,0.4-0.2c0.3,0.3,0.2,0.9,0.4,1.2c0.1,0,0.3-0.1,0.4-0.1c0.2,0.3,0.3,0.8,0.4,1.2c0.9,0.1-0.1-0.5,0.5,0.2
		c1.1-0.6,0.7-1.1,0.9-1.2c0.1-0.1,1.4-0.3,0.9,0.1c0.1-0.1,0.3-0.1,0.4-0.1c0.5,0.4,0.3,0.4,0.8,1c0.1,0,0.3-0.1,0.4-0.1
		c-0.2-0.8-0.2-0.1,0.2-0.5c-0.7-1.8-1.4-5.1-2.4-6.5c-0.1,0-0.3,0.1-0.4,0.1l-0.3-0.8c0,0-2.4-0.8-2.5-0.8c0-0.1-0.1-0.3-0.1-0.4
		c0.1,1.2-1.1-1.8-1.1-1.8l1-0.8c0,0,0.1-0.8,0.1-0.9c0.7-0.2,1.2-0.6,1.9-0.7l0.7,0.6c0.4,0,1.2-0.4,1.5-0.6
		c0.1,0.1,0.1,0.3,0.1,0.4c1.7,0.7-2.5-3.8,0.7,0.6c0.1,0,0.3-0.1,0.4-0.1c1.2,1.6,1.7,4.6,2.4,6.5c0.6,0.1,0.1-0.5,0.5,0.2
		c0.9-0.5,1-0.1,1.7-0.2c0.2-0.7,0.8-0.8,0.9-1.2l-0.3-0.8c0.1,0,0.3-0.1,0.4-0.1l-0.3-0.8c0.1,0,0.3-0.1,0.4-0.1
		c-0.1-0.5-0.5-1.1-0.6-1.5c0.1-0.1,0.3-0.1,0.4-0.1c-0.2-0.7-0.1-0.2-0.5-0.2c-0.1-1-0.3,0.1,0.2-0.5c-0.1-0.2-0.4-0.9-0.4-1.2
		l0.8-0.3c-0.1-0.8-0.8-1.5-0.9-2.3c0.7-0.3,0.5,0.5,0.8,1l0.8-0.3c0-0.8-0.1-0.8-0.2-1.7c0.1,0,0.3-0.1,0.4-0.1
		c0-0.4-0.4-0.8-0.4-1.2c0.1,0,0.3-0.1,0.4-0.1l-0.3-0.8c0.1-0.3,1.5-1.7,1.5-1.9c0.2-1-1-0.9-1-1.4l1-0.8c0-0.4-0.4-0.8-0.4-1.2
		c0.1,0,0.3-0.1,0.4-0.1c-0.2-0.5-0.3-0.7-0.4-1.1c0.1,0,0.3-0.1,0.4-0.2c-0.3-1.8-1.4-3.7-2-5.4C181,201.6,181.1,201.6,181.3,201.5
		z"/>
</g>
<line class="st12" x1="168.5" y1="216.8" x2="168.5" y2="161"/>
<line class="st12" x1="178.4" y1="233" x2="178.4" y2="176.4"/>
<line class="st12" x1="188" y1="242.8" x2="188" y2="186.6"/>
<line class="st12" x1="196.4" y1="257" x2="196.4" y2="198.9"/>
<line class="st12" x1="207.4" y1="256.7" x2="207.4" y2="199.9"/>
<line class="st13" x1="168.9" y1="216.8" x2="168.9" y2="161"/>
<line class="st13" x1="178.8" y1="233" x2="178.8" y2="176.4"/>
<line class="st13" x1="188.3" y1="242.8" x2="188.3" y2="186.6"/>
<line class="st13" x1="196.8" y1="257" x2="196.8" y2="198.9"/>
<line class="st13" x1="207.7" y1="256.7" x2="207.7" y2="199.9"/>
<linearGradient id="SVGID_7_" gradientUnits="userSpaceOnUse" x1="144.401" y1="258.3014" x2="144.401" y2="244.5092">
	<stop  offset="0" style="stop-color:#FFFFFF"/>
	<stop  offset="1" style="stop-color:#FFFFFF;stop-opacity:0"/>
</linearGradient>
<rect x="121.9" y="241.5" class="st14" width="44.9" height="26.7"/>
<linearGradient id="SVGID_8_" gradientUnits="userSpaceOnUse" x1="309.5461" y1="171.0817" x2="275.13" y2="153.7309">
	<stop  offset="0" style="stop-color:#666666"/>
	<stop  offset="0.2585" style="stop-color:#959595"/>
	<stop  offset="0.605" style="stop-color:#CECECE"/>
	<stop  offset="0.8625" style="stop-color:#F2F2F2"/>
	<stop  offset="1" style="stop-color:#FFFFFF"/>
</linearGradient>
<path class="st15" d="M302.1,92.7c-1,2.8-2.2,3.3-2.6,6.4c-0.7,4.6-2.8,14-3.3,18.6c-0.8,7.8,1.9,15.7,1,23.2
	c-0.4,3.6,4.6,4.1,3.3,9c-2.5,9.2-27.2,18.7-36.4,26c-9.4,7.3-17.6,25.7-26.5,33.3"/>
<g>
	<path class="st10" d="M318.4,191.9c3.6-0.8,4.8-1.9,5.5-2.2c0.8-0.4,1.3-0.5,3.9-2.3c2.5-1.8,3.5-4.6,4.1-6.1
		c0.5-1.1,1-2.8,0.9-5.7c0-0.8-0.1-3.3-0.1-3.3s-0.2-5.5-0.3-7c-0.1-1.5-0.3-6.3-0.4-7.8c-0.1-1.5-0.5-6.3-0.5-7.1
		c-0.1-0.8-0.6-6.4-0.7-7.5c-0.1-1.2-0.5-5.3-0.7-7.1c-0.2-1.8-0.5-4.5-0.8-5.7c-0.3-1.2-0.9-2.9-2.3-4.8c-0.8-1-1.7-2-3-2.9
		c-1-0.6-2-1.2-3.3-1.6c-1.1-0.3-2-0.5-2.9-0.5c-0.9,0-2.7-0.1-5.2,0.8c-2.6,0.9-4.6,1.8-6.6,3.2c-2,1.4-3.6,2.7-4.7,4
		c-1.1,1.2-1.9,2.8-2.3,3.5c-0.2,0.4-0.9,2.9-0.7,5.1c0.1,1.1,1.5,1.4,2.9,1.3c1.4-0.1,3.1-0.3,3.6-1.6c0.8-2.1,3.2-4.3,4.5-5.2
		c1.5-1,5-2.5,5.7-2.8c0.7-0.2,1.5-0.5,3-0.3c2.2,0.4,2.9,1.8,3.3,2.6c0.4,0.8,0.3,1.6,0.3,1.6s0.1,0.6,0.3,3
		c0.3,2.7,0.8,7.1,0.9,8.5c0.1,1.4,0.5,5.9,0.7,7.5c0.1,1.7,0.4,6,0.4,6s0.2,3.3,0.3,5c0.1,1.6,0.3,5.1,0.3,5.1s0.2,6.3,0.2,6.7
		c0,0.4,0,1.4,0.1,1.6c0,0.2,0.1,1.3-0.3,2.3c-0.5,1-0.8,2-2,3.1c-1.4,1.3-4.1,2.1-4.4,2.2c-0.3,0.1-0.4,0.2-0.4,0.2l1.4,4.2
		l-1.1,2.4L318.4,191.9z"/>
</g>
<g>
	<path class="st9" d="M299.3,136.6l0.4,1.2c0,0,0.2,0.8-0.3,1.5c0,0,2,4,2.5,7.9c0.3,2.5,0.9,5.7,0.4,8c0,0,0.1,0.9,0.1,1.5l0,0
		c0.3,1-0.2,2.1-0.3,2.8c-0.1,1-0.6,1.5-0.5,3.1c0.1,1.5,1.6,1.5,2.6,1.6c0.9,0,2.8,0,2.8,0s0.4,0,0.9-0.2c0,0,0.3-0.2,0.4-0.2l0,0
		c0,0,0.5-0.6,0.5-2.1c0-1.5,0-3.8,0-3.8s0.2-1.3,0.2-1.7c0-0.4,0.2-2,0.1-2.3c-0.1-1.2,0-1.4,0-3.1c-0.1-1.8-0.2-4.5-1.2-7.8
		c-1.4-4.6-1.5-4.6-1.5-4.6s-0.6-0.5-0.9-1.4c-0.3-0.9-0.7-2.2-1-3.3l0-0.2c0-0.1,0-0.1,0-0.2l-0.3-1.2c-0.5-1.4-1-1.4-1-1.4
		s-0.4-0.1-1.2,0.1c-1.4,0.3-3.3,0.9-3.7,1.1c-0.4,0.2-0.1,1.7-0.1,1.7L299.3,136.6z"/>
</g>
<g>
	<path class="st6" d="M301.4,135.9c0,0,1.3,0.1,1.4-1.1c0.1-1.2-1.1-1.4-1.1-1.4s-1.3-0.1-1.4,1C300.2,135.6,301,135.8,301.4,135.9
		L301.4,135.9z"/>
</g>
<path class="st9" d="M321.1,91.7c0,9,0.1,19.8,0.1,26.1v14.4H309v-10.1c0,0,0.4-17.5,0.6-30.4"/>
<path class="st10" d="M309.2,117.8c0,0-2.2,0.8-2.7,2c0,0,3.2,3,3.2,5c0,2,0,8.3,2,8.3c2.1,0,3.5,0,3.5,0h0c0,0,1.5,0,3.5,0
	c2,0,2-6.3,2-8.3c0-2,3.2-5,3.2-5c-0.5-1.2-2.7-2-2.7-2s-0.8-0.1-1.5,0.3c-0.7,0.5-3.8,0.5-4.5,0.5s-3.7-0.1-4.3-0.3
	C310.4,118.1,309.6,117.7,309.2,117.8z"/>
<linearGradient id="SVGID_9_" gradientUnits="userSpaceOnUse" x1="610.2444" y1="99.3151" x2="623.2914" y2="93.9788" gradientTransform="matrix(0.1236 0.9923 -0.9923 0.1236 357.0483 -421.5362)">
	<stop  offset="0" style="stop-color:#FFFFFF"/>
	<stop  offset="1" style="stop-color:#E75300"/>
</linearGradient>
<path class="st16" d="M347.1,177.8c0,0-13.4,4.9-10,6.8c5.1,2.8,20.3,1.9,20.3,1.9s-21.9,1.3-23.6,6.4c-1.7,5.1,15.7,17.6,24.1,24.8
	c0,0-27.6-18.1-30.3-16.1c-2.7,2,0.6,14.3,1.6,27.1c0,0-8.4-38.1-18.8-22"/>
<g>
	<path d="M351.7,215.5c0.7,1.3,1.5,2.5,2,4.3c-0.1,0-0.3,0.1-0.4,0.1c0.2,0.8,0.7,1.8,1,2.6c-0.1,0-0.2,0.1-0.4,0.1
		c0.2,0.8,0.7,0.4,0.8,1c-0.1,0-0.2,0.1-0.4,0.1l0.3,0.7c-0.1,0-0.2,0.1-0.4,0.1c0.1,0.6,0.5,1.2,0.7,1.9c-0.1,0.1-0.3,0.1-0.4,0.1
		c0.2,1.5,0.7,2,0.9,3.5c-0.1,0-0.2,0.1-0.4,0.1l0.3,0.7c-0.1,0-0.2,0.1-0.4,0.1c0,0.5,0.5,1,0.6,1.5c-1.6,0.7-0.4-0.4-1-0.5
		l-0.7,0.3c0,0.9,0.1,0.7,0.2,1.6c-0.1,0-0.2,0.1-0.4,0.1c0,0.5,0.5,1,0.6,1.5c-0.1,0-0.2,0.1-0.4,0.1l0.3,0.7
		c-0.1,0-0.2,0.1-0.4,0.1c0,0.4,0.9,0.3,0.7,0.6c-0.8,0.9,0.7,4.2,1.3,5.9c-0.1,0-0.2,0.1-0.4,0.1c-0.2,0-0.6-1.7-0.7-1.9
		c-0.1,0-0.3,0.1-0.4,0.1c0.1,0.2,0.4,0.9,0.4,1.1c-0.1,0-0.2,0.1-0.4,0.1c0.2,1.3,2.1,6.3,2.8,7.4c0.1,0,0.3-0.1,0.4-0.1
		c0.5,0.7,0.5,1.3,1.1,1.7l0.9,0.1c0.5,0.6,0,0.3-0.2,0.5c0.6,0.7,0.4,0.5,0.9,1.3c0.9-0.2,1.7-0.9,2.6-1c0,0.1,0.1,0.3,0.1,0.4
		l0.7-0.3c0,0.1,0.1,0.3,0.1,0.4c0.3,0,0.8-0.5,1.1-0.4c0,0.1,0.1,0.3,0.1,0.4c0.9,0.1,1.5,0.7,2.4,0.8c0.1,0.1,0.1,0.2,0.1,0.4
		l1.4,0.3c0.5,0.5,1,2.1,1.7,2.3c0.6,0.2,0.2-0.5,0.2-0.5l0.8-0.3c0.6,0.3,0.8,0.6,1.5,0.7c0.1,0.1,0.1,0.3,0.1,0.4
		c0.1,0,0.3-0.1,0.4-0.1c0.3,0.3,0.5,1,0.8,1l0.7-0.3l0.3,0.7c0.1,0,0.3-0.1,0.4-0.1c0.5,0.9,1.4,1.7,1.6,3.2
		c-0.1,0-0.2,0.1-0.4,0.1c0.2,0.4,0.3,0.6,0.4,1.1c-0.1,0.1-0.2,0.1-0.4,0.1c0.3,1.3,1,2.8,1.5,4.1c0.1,0,0.3-0.1,0.4-0.1
		c0.3,0.8,0.7,1.8,1,2.6c-0.1,0-0.2,0.1-0.4,0.1c0.1,0.6,0.6,1.3,0.7,1.9c0.1,0,0.3-0.1,0.4-0.1c0.2,0.5,0.3,1.5,0.7,1.9l0.9,0.1
		c0.3,0.2,0.6,0.9,0.9,1.3c0.1,0,0.3-0.1,0.4-0.1l0.3,0.8c0.7,0.4,0.2-0.5,0.2-0.5c0.1,0,0.3-0.1,0.4-0.1c0.5,0.6,0.3,0.6,0.8,1
		l0.8-0.3c0.3,0.3,0.2,1.2,0.5,1.5c0.1-0.1,0.3-0.1,0.4-0.1c0.3,0.6,0.5,1.2,0.7,1.9c-0.1,0-0.2,0.1-0.4,0.1c0.1,0.5,0.5,1,0.6,1.5
		c-0.6-0.3-1.1,0.1-1.8-0.2l-0.3-0.7l-1.4-0.3l-0.3-0.7l-1.4-0.3l-0.3-0.7c-0.5-0.2-0.8,0.3-1.3,0c-0.6-0.4-0.3-1-0.9-1.4
		c-0.3-0.2-0.8,0-1.3,0l-0.3-0.7c-0.1,0.1-0.2,0.1-0.4,0.1c-0.3-0.3-0.3-1.1-0.6-1.5c-0.1,0.1-0.2,0.1-0.4,0.1c-0.4-1-0.6-2-1.1-3
		c-0.1,0-0.2,0.1-0.4,0.1c-0.3-0.8-0.8-1.8-1-2.6l0.6-0.6c0-0.3-0.3-0.9-0.4-1.1c0.1,0,0.3-0.1,0.4-0.1c-0.3-1.7-1.3-3.6-1.9-5.2
		c-0.1,0-0.2,0.1-0.4,0.1c-0.2-0.3-0.2-0.8-0.4-1.1l-0.7,0.3c0,0,0.1-0.8,0.1-0.9c-0.5,0-1.5-0.7-1.5-0.7c-1.1-0.1-2.2,0.8-3,1.1
		l-0.3-0.7c-0.1,0.1-0.2,0.1-0.4,0.1l-0.3-0.7c0,0-0.8-0.1-0.9-0.1c0-0.1-0.1-0.3-0.1-0.4c-0.1,0.2-1.3,0.5-1.5,0.6
		c0.1,0.2,0.8,1.7,0.7,1.9c-0.7,0.8-0.9-0.6-1.6,0.2c0.7,1.3,0.8,1.9,1.6,3.2c0.1-0.1,0.3-0.1,0.4-0.1c0.2,0.4,0.3,1.1,0.6,1.5
		c0.1,0,0.3-0.1,0.4-0.1c0.2,0.4,0.2,1.1,0.6,1.5c0.1,0,0.3-0.1,0.4-0.1l0.3,0.7c0.1,0,0.3-0.1,0.4-0.1l0.3,0.7
		c0.2,0.1,0.5-0.5,0.6-0.6c0.4,0.7-0.1,0.2,0.5,0.2c0.3,0.8,0.4,1.5,0.8,2.2c0.1,0,0.3-0.1,0.4-0.1c0.8,1.5,1.2,3.3,1.8,4.8
		c-0.1,0-0.2,0.1-0.4,0.1c0.2,0.7,0,0.2,0.5,0.2l0.3,0.7c-1.1-0.4,0.4,1.5,0.6,1.5c-0.2-0.3-0.5,1.9,0.5,1.5c0.6,1.6,1,3.7,1.9,5.2
		l0.9,0.1c0.7,0.8,0.7,1.9,1.3,2.5c0.3,0.2,0.9-0.2,1.3,0c0,0,0.7,1,0.9,1.4c0.1,0,0.3-0.1,0.4-0.1c0.2,0.3,0.2,0.8,0.4,1.1l0.9,0.1
		c0.4,0.6,0,0.3-0.2,0.5c0.1,0.2,0.3,0.9,0.4,1.1c0,0,0.7,0.1,0.8,1c0,0-0.6,0.6-0.5,1c-0.4,0-0.8,0.4-1.1,0.4
		c-0.1-0.1-0.1-0.2-0.1-0.4l-0.7,0.3c0-0.1-0.1-0.2-0.1-0.4l-0.8,0.3l-0.3-0.7l-0.9-0.1l-0.3-0.7c-0.1-0.1-0.7-0.1-0.9-0.1
		c-0.1-0.3-0.2-0.9-0.4-1.1c-0.1,0-0.2,0.1-0.4,0.1c-1-1.5-1-3.7-1.9-5.2c-0.1,0-0.3,0.1-0.4,0.1c-0.1-0.2-0.3-0.9-0.4-1.1
		c-0.1,0-0.2,0.1-0.4,0.1c-0.2-0.4-0.3-1.2-0.6-1.5c-0.1,0-0.2,0.1-0.4,0.1c-0.6-0.6-0.4-0.7-0.9-1.4c-0.1,0-0.2,0.1-0.4,0.1
		c-0.2-0.3-0.2-0.9-0.4-1.1c0,0-0.8-0.1-0.9-0.1c-0.1-0.3-0.2-0.9-0.4-1.1c-0.1,0.1-0.2,0.1-0.4,0.1c-0.9-1.4-1.2-3.3-1.8-4.8
		c0.1,0,0.3-0.1,0.4-0.1c-0.3-1.1-0.8-1.9-1.1-3c-0.1,0-0.2,0.1-0.4,0.1c-0.3-0.7-0.5-2.1-1-2.6l-1.3,0l-0.3-0.8L362,268
		c-0.3-0.2-0.2-0.9-0.4-1.1c-0.1,0-0.2,0.1-0.4,0.1c-0.6-1-0.7-1.3-1.2-2.1c-1.5,0.5-0.1-0.7-1-0.5c-0.2,0-0.7,1-0.8,1.2
		c-0.3-0.4,0-1-0.7-0.6c-0.4-0.5-0.6-1-0.9-1.4c-0.1,0-0.3,0.1-0.4,0.1c-0.3-0.4-0.3-1.1-0.5-1.5c-0.1,0.1-0.2,0.1-0.4,0.1
		c-0.3-0.7-0.4-1.2-0.7-1.9c-0.1,0-0.2,0.1-0.4,0.1c-0.3-0.5-0.3-1.4-0.7-1.9c-0.2-0.2-0.7,0-1.3,0c-0.7-1.3-0.9-1.9-1.6-3.2
		c-0.1,0-0.2,0.1-0.4,0.1c-0.3-0.5-0.4-1.4-0.7-1.9c-0.1,0-0.2,0.1-0.4,0.1c-0.9-1.4-0.9-2.3-1.8-3.6c-0.1,0-0.3,0.1-0.4,0.1
		c-0.1-0.2-0.3-0.9-0.4-1.1c-0.1,0.1-0.2,0.1-0.4,0.1c-0.3-0.4-0.3-1.1-0.6-1.5c-0.1,0-0.2,0.1-0.4,0.1c-0.6-0.9-0.6-1.3-1.2-2.1
		c-0.1,0-0.2,0.1-0.4,0.1c-0.2-0.3-0.2-0.8-0.4-1.1c-1,0.7-1.2-0.1-1.6,0.2c-0.2,0.2,0,0.7,0,1.3c-0.3,0.1-1.3,0.3-1.5,0.6
		c-0.6-0.7-0.4-1-1.1-1.7c-0.1,0-0.2,0.1-0.4,0.1l-0.3-0.8c-0.1,0-0.3,0.1-0.4,0.1c-0.3-0.4-0.3-1.1-0.5-1.5c-0.1,0-0.2,0.1-0.4,0.1
		c-0.2-0.4-0.3-1.2-0.6-1.5c-0.1,0-0.3,0.1-0.4,0.1l-0.3-0.8l-1.4-0.3l-0.3-0.7c-0.1,0-0.2,0.1-0.4,0.1c-0.5-0.7-0.4-0.8-0.9-1.4
		c-0.1,0-0.2,0.1-0.4,0.1c-0.7-0.8-0.6-1.3-1.2-2.1c-0.1,0-0.2,0.1-0.4,0.1l-0.3-0.8c-0.1,0.1-0.2,0.1-0.4,0.2
		c-0.3-0.3-0.2-0.8-0.4-1.1c-0.1,0.1-0.2,0.1-0.4,0.1c-0.2-0.4-0.4-1.1-0.6-1.5c-0.1,0-0.2,0.1-0.4,0.1c-0.3-0.6-0.3-1.2-0.7-1.9
		c-0.1,0-0.2,0.1-0.4,0.1c-0.4-0.7-0.4-1.6-0.8-2.2c0,0-0.8-0.1-0.9-0.1c-0.2-0.7-0.5-1.2-0.7-1.9c0.1,0,0.3-0.1,0.4-0.1
		c-0.1-1-0.3-1.4-0.5-2.4c0.1,0,0.3-0.1,0.4-0.1c0.5,0.7,0.6,1.2,1.2,2.1c0.1,0,0.3-0.1,0.4-0.1c0.1,0.2,0.3,0.9,0.4,1.1
		c0.1,0,0.2-0.1,0.4-0.1c0.5,0.8,0.5,1.8,1,2.6c0.1,0,0.3-0.1,0.4-0.1c0.4,0.9,0.6,2.6,1.2,3.3c0.1,0,0.3-0.1,0.4-0.1
		c0,0.1,0.1,0.3,0.1,0.4c0.4-0.2,1-0.5,1.5-0.6c0.3,0.4,0.3,1.1,0.6,1.5c0.1-0.1,0.2-0.1,0.4-0.1c0.5,0.8,0.6,1.3,1.2,2.1
		c0.1,0,0.3-0.1,0.4-0.1c0.2,0.4,0.2,1.2,0.6,1.5c0.1,0,0.3-0.1,0.4-0.1c0.1,0.1,0.1,0.3,0.1,0.4c1,0.1,1.4,0.7,2.4,0.8
		c0,0.1,0.1,0.2,0.1,0.4c0.1,0,0.3-0.1,0.4-0.1c0.6,0.5,0.4,1,1.1,1.7c0.1,0,0.3-0.1,0.4-0.1l0.3,0.7c0.1,0,0.3-0.1,0.4-0.1
		c0.3,0.3,0.2,0.8,0.4,1.1c0.1,0,0.3-0.1,0.4-0.1c0.2,0.3,0.3,0.8,0.4,1.1c0.9,0.1-0.1-0.5,0.5,0.2c1.1-0.6,0.7-1.1,0.8-1.2
		c0.1-0.1,1.4-0.3,0.9,0.1c0.1,0,0.2-0.1,0.4-0.1c0.5,0.4,0.3,0.4,0.8,1c0.1,0,0.3-0.1,0.4-0.1c-0.2-0.8-0.2-0.1,0.2-0.5
		c-0.7-1.8-1.4-4.9-2.4-6.3c-0.1,0-0.3,0.1-0.4,0.1l-0.3-0.7c0,0-2.3-0.8-2.4-0.8c0-0.1-0.1-0.2-0.1-0.4c0.1,1.1-1.1-1.7-1.1-1.7
		l1-0.8c0,0,0.1-0.8,0.1-0.9c0.6-0.2,1.2-0.6,1.9-0.7l0.6,0.6c0.4,0,1.1-0.4,1.5-0.5c0,0.1,0.1,0.3,0.1,0.4c1.7,0.7-2.4-3.7,0.6,0.6
		c0.1,0,0.3-0.1,0.4-0.1c1.1,1.6,1.7,4.5,2.4,6.3c0.6,0.1,0.1-0.5,0.5,0.2c0.9-0.5,1-0.1,1.6-0.2c0.2-0.7,0.7-0.8,0.8-1.2l-0.3-0.8
		c0.1,0,0.3-0.1,0.4-0.1l-0.3-0.7c0.1,0,0.3-0.1,0.4-0.1c0-0.4-0.4-1.1-0.5-1.5c0.1-0.1,0.3-0.1,0.4-0.1c-0.2-0.7-0.1-0.2-0.5-0.2
		c-0.1-1-0.3,0.1,0.2-0.5c-0.1-0.2-0.4-0.9-0.4-1.1l0.7-0.3c-0.1-0.8-0.8-1.5-0.8-2.2c0.7-0.2,0.5,0.5,0.8,1l0.7-0.3
		c0-0.8-0.1-0.8-0.2-1.6c0.1,0,0.3-0.1,0.4-0.1c-0.1-0.4-0.4-0.7-0.4-1.1c0.1,0,0.3-0.1,0.4-0.1l-0.3-0.7c0.1-0.3,1.4-1.7,1.5-1.8
		c0.2-1-0.9-0.9-0.9-1.3l1-0.8c0-0.3-0.4-0.8-0.4-1.1c0.1,0,0.3-0.1,0.4-0.1c-0.2-0.5-0.3-0.7-0.4-1.1c0.1,0,0.3-0.1,0.4-0.1
		c-0.3-1.7-1.3-3.5-1.9-5.2C351.5,215.6,351.6,215.5,351.7,215.5z"/>
</g>
<line class="st12" x1="339.4" y1="230.3" x2="339.4" y2="176.2"/>
<line class="st12" x1="348.9" y1="246.1" x2="348.9" y2="191.1"/>
<line class="st12" x1="358.3" y1="255.6" x2="358.3" y2="201"/>
<line class="st12" x1="366.5" y1="269.3" x2="366.5" y2="212.9"/>
<line class="st12" x1="377.1" y1="269" x2="377.1" y2="213.9"/>
<line class="st13" x1="339.8" y1="230.3" x2="339.8" y2="176.2"/>
<line class="st13" x1="349.3" y1="246.1" x2="349.3" y2="191.1"/>
<line class="st13" x1="358.6" y1="255.6" x2="358.6" y2="201"/>
<line class="st13" x1="366.9" y1="269.3" x2="366.9" y2="212.9"/>
<line class="st13" x1="377.4" y1="269" x2="377.4" y2="213.9"/>
<path class="st11" d="M320.3,263.9c0.6-6.2,2.2-23.2,2.2-31.7l0,0c0-9.8-0.7-20-3.2-28.1l0,0c-1.2-4.1-2.9-7.6-5.4-10.4l0,0
	c-2.5-2.8-6.1-4.6-10.1-4.6l0,0c-4.3-0.1-8.1,1.6-10.2,4.7l0,0c-0.8,1.1-1.3,2.3-1.7,3.5c0,0-0.7,2.3-0.9,5.5c0,0.6-0.1,1.2-0.1,1.8
	l0,0c0,7.8,2.3,17.3,4.5,27.2l0,0c1.8,8,3.5,16.2,4.1,32.3l6.7,0c-0.6-16.9-2.5-25.6-4.3-33.8l0,0c-2.2-9.7-4.3-19-4.3-25.4
	c-0.1-3.3,0.6-5.3,0.6-5.3c0.3-0.8,0.6-1.5,0.9-2l0,0c0.9-1.1,1.9-1.8,4.8-1.9l0,0c2.2,0,3.6,0.7,5.2,2.4l0,0c4.9,5,7,19.9,6.9,34
	l0,0c0,8.6-1.6,25.6-2.2,31.7"/>
<path class="st10" d="M302.3,197.9l1.8,4.2l2.1,0.5l0.4,2.2c-3.1,2.6-5.2,3.7-7.3,4.8c-2.1,1.1-4.8,2-5.8,2.3
	c-1,0.3-3.3,0.7-5.6,1.1c-1.5,0.2-4.6,0.1-6,0.1c-1.5-0.1-2.9-0.4-3.2-0.5c-0.4-0.1-1-0.1-2-0.6c-1.1-0.6-1.6-1.3-1.9-1.7
	c-0.8-0.6-1-0.8-1.7-1.6c-2-2.4-2.3-2.7-2.8-3.4c-0.5-0.7,2.1-5.1,3-4.5c0.7,0.4,2.1,2.3,7.2,4.4l0.6,0.1c0,0,2.7,0.2,6-0.2
	c3.3-0.5,6.6-1.4,10-3.5C300.5,199.5,302.3,197.9,302.3,197.9z"/>
<g>
	<path class="st8" d="M278.7,205c-0.6,0.7-3,4.6-3,4.6"/>
</g>
<linearGradient id="SVGID_10_" gradientUnits="userSpaceOnUse" x1="309.5426" y1="255.696" x2="309.5426" y2="242.3191">
	<stop  offset="0" style="stop-color:#FFFFFF"/>
	<stop  offset="1" style="stop-color:#FFFFFF;stop-opacity:0"/>
</linearGradient>
<rect x="290.8" y="239.4" class="st17" width="37.5" height="25.9"/>
<line class="st18" x1="226.4" y1="93.9" x2="226.4" y2="299.7"/>
<g>
	<g>
		<g>
			<g>
				<path class="st19" d="M46.5,34L29.8,3.6l0,0l0-0.1C28.5,1.3,26.3,0,23.8,0c-2.5,0-4.8,1.4-6,3.5l0,0l0,0L0.9,34.1
					c-1.2,2.1-1.1,4.6,0.1,6.6c1.2,2.1,3.6,3.4,6.1,3.3H6.9h33.7h-0.1c2.5,0.1,4.8-1.2,6-3.4C47.7,38.6,47.7,36.1,46.5,34z"/>
			</g>
			<path class="st20" d="M43.1,35.8c0.5,0.9,0.6,2,0,2.9c-0.5,0.9-1.5,1.5-2.6,1.5H6.9c-1,0-2-0.4-2.6-1.4c-0.5-0.9-0.5-2,0-2.9
				L21.2,5.3c0.5-0.9,1.4-1.5,2.5-1.5c1.1,0,2,0.6,2.5,1.5L43.1,35.8z"/>
		</g>
	</g>
	<path class="st21" d="M34.6,22c-0.3-0.4-1.7,0-1.8-0.6c-0.1-0.5-0.3-2.3-1.4-1.4c-1.1,0.9-0.4,1.8-0.6,2.1
		c-0.3,0.2-1.2,0.8-1.9,1.3c-0.7-0.6-1.6-3.2-5.8-2.8c-2.7,0.3-3.3,1.5-3.8,1.5c-0.4-0.4-1.1-0.9-0.7-1.9c0.5-1,0.8-2.4-0.1-2.6
		c-0.9-0.1-1.7,0.2-1.8,0.7c-0.1,0.5,0,1.2-0.7,1.2c-0.5,0-1,0.4-1,1.2c0.2,0.8,0.4,1,0.8,0.9c0.4-0.1,1.1-0.3,1.2,0.2
		c0.1,0.4,0.7,1,0.8,1.6c-0.4,0.7-1.2,1.7-1.3,2.9c-0.2,1.8,0.7,2.9,0.3,3.2c-0.4,0.3-2.4,2.4-2.9,2.4c-0.6,0-2.2-1.2-2.8-0.3
		c-0.6,0.9-0.7,1.7,0,2.1c0.7,0.3,1.1,0.2,1.2,0.9c0.1,0.7,0.8,1.1,1.5,0.8c0.7-0.3,1.2-1,1.2-1.5c0-0.5,0.2-1.1,0.7-1.4
		c0.5-0.2,1.1-0.8,1.4-1c0.5-0.4,1.1-0.8,1.3-0.9c0.4,0.1,0.6,0,0.8,0.3c-0.2,0.4-0.3,0.8-0.3,0.9c-0.1,0.2-0.2,0.5,0.9,0.6
		c0.4,0.1,0.6,0.2,0.8-0.4c0.1-0.3,0.1-0.4,0.4-0.8c0.7,0.2,1.7,0.4,1.6,0.8c-0.2,0.5-0.5,1.1-0.3,1.3c0.5,0.1,1.4,0.2,2.8-0.2
		c0.4,1.2,1.9,2.4,1.2,3.7c-0.3,0.5,0.2,1.7,1.2,1.6c1.2-0.1,0.8-0.8,1.5-1.6c0.6-0.8,2.8,0.3,1.7-2.4c-0.4-1.1-1.6,0.3-2.2-0.2
		c-0.6-0.4-2.4-3-2.4-3.2c0-0.2-0.3-1.3,0.3-1.5c0.6-0.2,1.6-0.6,2-1.5c0.4-0.7,0.9-2,1-3.2c0.9-0.3,1.8-1.4,2.2-1.2
		c0.4,0.1,1.8,1.1,2.6,0.5C35.1,23.5,34.9,22.4,34.6,22z M19.5,28c-1.2,0.3-1.1-1-1.3-1.9c-0.2-0.9,0.3-2.1,1.2-2
		C21.1,24.1,20.7,27.7,19.5,28z M24,27.1c-1.3,1.9-2.6,1.7-2.7,0c-0.1-1.6,0.4-3,1.3-3.1C23.8,24,24.8,25.9,24,27.1z"/>
</g>
</svg>
