<?xml version="1.0" encoding="utf-8"?>
<!-- Generator: Adobe Illustrator 20.0.0, SVG Export Plug-In . SVG Version: 6.00 Build 0)  -->
<svg version="1.1" id="Calque_1" xmlns="http://www.w3.org/2000/svg" xmlns:xlink="http://www.w3.org/1999/xlink" x="0px" y="0px"
	 viewBox="0 0 472.9 255.5" style="enable-background:new 0 0 472.9 255.5;" xml:space="preserve">
<style type="text/css">
	.st0{fill:none;stroke:#000000;stroke-width:0.5;stroke-dasharray:3,3;}
	.st1{enable-background:new    ;}
	.st2{fill:none;stroke:#1A171B;stroke-width:0.8;stroke-linecap:round;stroke-linejoin:round;}
	.st3{fill:none;stroke:#1A171B;stroke-width:0.8;}
	.st4{fill:#FFFFFF;stroke:#1A171B;stroke-width:0.8;stroke-linecap:round;stroke-linejoin:round;}
	.st5{fill:#FFFFFF;stroke:#1A171B;stroke-width:0.8;}
	.st6{fill:#FFFFFF;}
	.st7{fill:#9B9C9E;stroke:#1A171B;stroke-width:0.8;stroke-linecap:round;stroke-linejoin:round;}
	.st8{fill:#FFFFFF;stroke:#1A171B;stroke-width:0.8;stroke-linecap:round;}
	.st9{fill:url(#SVGID_1_);stroke:#1A171B;stroke-width:0.8;}
	.st10{fill:none;stroke:#000000;stroke-width:6;stroke-dasharray:1.2,4;}
	.st11{fill:none;stroke:#FFFFFF;stroke-width:0.8;}
	.st12{fill:none;stroke:#000000;stroke-width:0.8;}
	.st13{fill:#CCCCCC;}
	.st14{fill:none;stroke:#1A171B;stroke-width:0.8;stroke-dasharray:4,4;}
	.st15{fill:url(#SVGID_2_);}
	.st16{fill:url(#SVGID_3_);}
	.st17{fill:url(#SVGID_4_);}
	.st18{fill:#666666;}
	.st19{fill:#1A171B;}
	.st20{fill:#E75300;}
</style>
<line class="st0" x1="196.2" y1="38.9" x2="196.2" y2="241.8"/>
<line class="st0" x1="335.9" y1="38.9" x2="335.9" y2="241.8"/>
<g>
	<g class="st1">
		<path d="M100.1,188.8h-3.5v-13.2h-4.3v-3.1c2.4,0.1,4.7-0.9,5.1-4h2.8V188.8z"/>
	</g>
</g>
<g>
	<g class="st1">
		<path d="M239.4,176.3c-0.1-4.6,2.1-8.2,6.3-8.2c3.2,0,5.9,2.4,5.9,6.4c0,6.2-5.6,6.6-8.1,10.8h8.2v3.5H239c0-4.7,2.5-6.7,5.5-9.1
			c1.5-1.2,3.6-2.5,3.6-5c0-1.9-1.1-3.1-2.6-3.1c-2.1,0-2.7,2.5-2.7,4.7H239.4z"/>
	</g>
</g>
<g>
	<g class="st1">
		<path d="M370.4,176.7c1.5,0.1,3.7-0.2,3.7-2.5c0-1.7-1.2-2.7-2.4-2.7c-1.8,0-2.7,1.5-2.7,3.6h-3.3c0.1-4.2,2.4-7,6-7
			c2.8,0,5.8,2,5.8,5.6c0,1.9-0.8,3.6-2.4,4.2v0.1c1.9,0.5,3.1,2.3,3.1,4.6c0,4.3-3.1,6.7-6.4,6.7c-3.9,0-6.5-2.7-6.4-7.4h3.3
			c0.1,2.2,1,4,3,4c1.6,0,2.8-1.2,2.8-3.2c0-3.1-2.3-3-4-3V176.7z"/>
	</g>
</g>
<g>
	<g>
		<path class="st2" d="M258.4,109.4c0,0,0.7-1.2,0.9-1.7"/>
	</g>
</g>
<polygon class="st3" points="169.8,99.6 171,95.5 175.1,94.5 178,97.6 176.8,101.7 172.7,102.6 "/>
<path class="st3" d="M171.7,97.4c0.6-1.2,2-1.7,3.2-1.2c1.2,0.6,1.7,2,1.1,3.2c-0.6,1.2-2,1.7-3.2,1.2
	C171.7,100.1,171.2,98.6,171.7,97.4z"/>
<path class="st3" d="M165.4,92.7c0,0,0.5,0.2,0.8,0.3c0.3,0.2,2,0.9,3,0.7c1-0.2,1.6-0.4,2.3-0.5c0,0,2.4-0.4,4.2,0.3
	c1.7,0.7,3.1,1.9,3.5,3.1c0.4,1.3,1.1,3.7-4.5,10.1s-7,7.3-7.8,7.7c-0.6,0.3-1,0.5-1.3,0.6"/>
<path class="st3" d="M165.5,98.4c0,0,2,0.7,2.7,2s2,2.5-2.7,8.9"/>
<g>
	<g>
		<g>
			<path class="st4" d="M168.2,133.7c-0.8,1.1-2.4,1.9-3.2,2.2c-1,0.4-3.1,0.7-3.5,0.7s-0.9,0.1-1.7-0.3c-1.1-0.5-1.3-1.4-1.4-1.9
				c-0.1-0.5,0-0.9,0-0.9s0-0.4,0.2-1.7c0.2-1.6,0.6-4,0.7-4.8c0.1-0.8,0.5-3.3,0.7-4.2c0.2-0.9,0.6-3.4,0.6-3.4s0.4-1.9,0.5-2.8
				c0.2-0.9,0.6-2.8,0.6-2.8s0.8-3.5,0.8-3.7c0-0.3,0.2-0.8,0.2-0.9s0.1-0.8,0.5-1.2c0.4-0.5,0.7-0.8,1.6-1c1-0.2,1.5,0.2,1.7,0.3
				c0.1,0.1,0.2,0.1,0.2,0.1s1.2,0.6,3,2s3,2.9,3.9,4.5c0.9,1.7,1.4,3.1,1.4,3.1l0.1,0.3c0,3.1-0.7,4.3-0.8,4.7
				c-0.1,0.6,2.7,1.1,3,0.7s0.4-0.6,1.3-2.2c0.3-0.5,0.3-0.7,0.5-1.2c0.2-0.3,0.4-0.7,0.5-1.4c0.1-0.6,0-1-0.1-1.2
				c0-0.2-0.2-1-0.4-1.8c-0.3-0.8-0.8-2.4-1.3-3.2c-0.7-1.1-1.4-2.3-1.8-2.7c-0.4-0.5-1.4-1.7-2.4-2.6s-2-1.8-4-2.9
				c-1.9-1-3.1-1.2-3.6-1.2c-0.5-0.1-1.6-0.2-3.3,0.4c-1.6,0.6-2.5,1.8-3.1,2.5c-0.4,0.5-0.9,1.4-1.3,3c-0.1,0.5-0.4,1.8-0.4,1.8
				s-0.6,3.1-0.8,3.9s-0.7,3.5-0.9,4.3s-0.6,3.5-0.7,4c-0.1,0.5-0.6,3.6-0.7,4.2c-0.1,0.7-0.4,3-0.6,4c-0.1,1-0.4,2.5-0.4,3.2
				s0.1,1.7,0.6,2.9c0.3,0.7,0.7,1.4,1.2,2c0.4,0.5,0.9,1,1.6,1.3c0.5,0.3,1,0.5,1.5,0.7c0.5,0.1,1.4,0.4,3,0.3
				c1.5-0.1,2.8-0.4,4.1-0.8c1.3-0.5,2.3-1,3.1-1.5s1.5-1.3,1.8-1.6c0.2-0.2,0.9-1.5,1.1-2.7c0.1-0.6-0.6-1-1.4-1.1
				C169.6,133.2,168.6,133,168.2,133.7z"/>
			<path class="st2" d="M174.8,121.3c0.5,0.1,1.9,0.4,1.9,0.4 M175.2,118.5c0.5,0.1,3,0.6,3,0.6"/>
		</g>
		<path class="st5" d="M177.2,120.9c0.3-0.8-0.4-1.2-0.8-1.5c-0.5-0.3-1.8-0.6-1.8-0.6s-0.7-0.2-1.2,1.1c-1.7,5-5.7,15.5-5.7,15.5
			c-0.4,1.2,0.4,1.4,0.4,1.4s0.2,0.1,0.7,0.2c0.8,0.2,1.2,0.2,1.4,0.3c0.9,0.2,1.2-0.8,1.2-0.8S173.7,128.8,177.2,120.9z"/>
		<path class="st4" d="M169.6,134.5c0,0-0.7-0.1-0.8,0.6c-0.1,0.7,0.6,0.8,0.6,0.8s0.7,0.1,0.8-0.5
			C170.2,134.7,169.8,134.5,169.6,134.5L169.6,134.5z"/>
	</g>
	<path class="st5" d="M146.8,175"/>
	<path class="st5" d="M142,174.6c0,0,10.9-30.6,11.2-31.1c0.4-0.5,3.5-4.9,3.5-4.9l1.3-4.2c0.7-2.3,1.7-1.9,3.1-1.5l2.4,0.7
		c1.3,0.4,2.5,0.6,1.8,2.9l-1.3,4.2c0,0-1.6,4.5-1.9,5.2c-0.9,1.8-5,9.9-15.1,33.9"/>
	<path class="st5" d="M147.2,180.4"/>
</g>
<path class="st5" d="M163.9,93.4c0,0,0.1,16.4,0.1,18.7s0,3.2,0.7,3.2s0.9,0,0.9-1s0-16.3,0-18.8c0-2.4,0.2-2.9-0.5-2.9
	C164.3,92.6,163.9,92.7,163.9,93.4z"/>
<g>
	<path class="st6" d="M128.7,217.6c3,0.2,6.2-3.5,8.1-7.8c0.1-0.3,0.3-0.8,0.6-1.7l0,0c0.2,0,0.6-0.1,0.8-0.6s4.6-17.2,4.7-17.8
		c0.1-0.5,0.2-0.7-0.2-0.9c0.4-3.4-0.4-7.5-2.5-8.1c-2.2-0.7-3.8,2.3-4.7,4.7c-0.6,1.6-4.3,12.7-5.1,15s-2.2,6.1-3.8,11.4
		C125.1,216.5,127.3,217.5,128.7,217.6z M130.2,212.6c2-6.6,6.7-20.1,8.8-25.6v-0.3c0.1,0.4,0.2,0.9,0.2,1.4
		c-0.2,0.1-0.3,0.4-0.4,0.6c-0.1,0.3-4.7,16.8-4.9,17.5c-0.1,0.5-0.1,0.6,0,0.8c0.2,0.2,0.7,0.4,1.1,0.6h-0.2c-1,1.9-3.1,4-4.8,5.2
		L130.2,212.6z"/>
	<path class="st3" d="M142.6,188.8c0.4-3.4-0.4-7.4-2.5-8c-2.2-0.7-3.8,2.3-4.7,4.7c-0.6,1.6-4.3,12.7-5.1,15s-2.3,6.1-3.8,11.4
		c-1.3,4.5,0.8,5.6,2.3,5.7c2.9,0.2,6.2-3.5,8.1-7.8c0.1-0.3,0.3-0.8,0.5-1.6"/>
	<path class="st3" d="M130,212.7c1.8-1.2,3.8-3.3,4.8-5.2"/>
	<path class="st3" d="M137.4,208.1c0.2,0,0.6-0.1,0.7-0.6c0.2-0.5,4.6-17.2,4.7-17.8c0.1-0.5,0.2-0.7-0.2-0.9c0,0-0.5-0.2-0.9-0.3
		l-0.7,1.9l-1.3-0.4l0.4-1.9c-0.2-0.1-0.4-0.1-0.8-0.1c-0.4,0-0.6,0.3-0.6,0.7c-0.1,0.3-4.7,16.8-4.9,17.5c-0.1,0.5-0.1,0.6,0,0.8
		c0,0,0.3,0.3,1.1,0.5L137.4,208.1z"/>
</g>
<path class="st5" d="M135.5,184.9c-2.6-1.4-0.6-6,0.2-7.9s2.5-2.5,5.9-2.2c3.4,0.4,4.9,5.2,5.5,5.9s-1.2,3.6-2.9,5.4
	c-1.7,1.8-5,0.2-5,0.2l0.8-2.2c0,0,2.2-4.1,0-4.7c0,0-2.7-1.3-3.6,0.7C135.6,182.3,135.5,184.9,135.5,184.9z"/>
<path class="st3" d="M140.6,179.7c0,0,2.3,1,1.9,1.9c-0.5,1-1.1,3.1-2.6,3.6"/>
<path class="st3" d="M155.1,138.6c0,0-2.2,2.6-2.6,3.3c-0.3,0.7-13.6,32.8-13.6,32.8"/>
<path class="st7" d="M291.2,158.7c3-12.7,18.1-97.3,25.5-114.8l0,0l5.3,2.2c-7.8,18.7-23.1,104.2-25.9,117.1l0,0
	c-0.6,2.5-1,4.9-1.5,7.1"/>
<polygon class="st3" points="259.6,100 260.8,96 264.9,95 267.8,98.1 266.6,102.1 262.5,103.1 "/>
<path class="st3" d="M261.6,97.9c0.6-1.2,2-1.7,3.2-1.1s1.7,2,1.2,3.2c-0.6,1.2-2,1.7-3.2,1.2C261.5,100.5,261,99.1,261.6,97.9z"/>
<path class="st3" d="M255.2,93.2c0,0,0.5,0.1,0.8,0.3c0.3,0.2,2,0.9,3,0.7c0.9-0.2,1.6-0.4,2.3-0.5c0,0,2.4-0.4,4.2,0.3
	c1.7,0.7,3.1,1.9,3.5,3.1c0.4,1.3,1.1,3.6-4.5,10.1c-5.6,6.4-7,7.3-7.8,7.7c-0.6,0.3-1,0.5-1.3,0.6"/>
<path class="st3" d="M255.4,98.9c0,0,2,0.7,2.7,2s2,2.5-2.7,8.9"/>
<path class="st4" d="M273,111c1.3,0.1,3-0.5,3.8-0.9c0.9-0.5,2.6-1.9,2.9-2.1c0.3-0.3,0.6-0.6,0.9-1.4c0.4-1.2-0.1-1.9-0.4-2.3
	s-0.7-0.6-0.7-0.6s-0.3-0.2-1.4-1c-1.3-0.9-3.4-2.2-4.1-2.7c-0.7-0.4-2.8-1.8-3.6-2.3c-0.8-0.5-2.9-1.8-2.9-1.8s-1.6-1-2.4-1.4
	c-0.8-0.5-2.5-1.5-2.5-1.5s-3.1-1.7-3.3-1.9c-0.2-0.1-0.7-0.4-0.8-0.5c-0.1-0.1-0.7-0.4-1.2-0.5c-0.6,0-1.1,0-1.8,0.5
	c-0.8,0.6-0.9,1.3-0.9,1.4c0,0.2-0.1,0.3-0.1,0.3s-0.3,1.3-0.5,3.6c-0.2,2.3,0.2,4.1,0.8,5.9s1.4,3.1,1.4,3.1l0.2,0.3
	c2.4,2,3.7,2.3,4.1,2.5c0.5,0.3-1,2.7-1.5,2.7c-0.5-0.1-0.7-0.1-2.5-0.5c-0.6-0.2-0.7-0.2-1.2-0.4c-0.3-0.1-0.8-0.2-1.4-0.5
	c-0.5-0.4-0.7-0.7-0.8-0.9c-0.1-0.2-0.7-0.8-1.1-1.5c-0.4-0.7-1.2-2.2-1.5-3.1c-0.4-1.2-0.8-2.5-0.9-3.1c-0.1-0.6-0.4-2.2-0.3-3.6
	c0-1.3,0-2.7,0.5-4.9c0.5-2.1,1.2-3.1,1.4-3.5c0.3-0.4,0.9-1.4,2.5-2.2c1.5-0.8,3-0.7,3.9-0.6c0.7,0,1.7,0.2,3.1,1
	c0.4,0.2,1.6,0.9,1.6,0.9s2.7,1.6,3.5,2c0.7,0.4,3.1,1.8,3.8,2.2c0.7,0.4,3.1,1.9,3.4,2.1c0.4,0.2,3.1,2,3.6,2.3
	c0.6,0.4,2.5,1.6,3.4,2.2c0.8,0.6,2.1,1.4,2.7,1.8c0.5,0.4,1.2,1.2,1.8,2.4c0.3,0.7,0.6,1.4,0.7,2.2c0.1,0.6,0.1,1.3-0.1,2.1
	c-0.1,0.6-0.3,1.1-0.5,1.6s-0.6,1.4-1.7,2.4c-1.1,1.1-2.1,1.9-3.3,2.5c-1.2,0.6-2.3,1.1-3.2,1.3c-0.9,0.2-1.9,0.2-2.4,0.2
	c-0.3,0-1.7-0.3-2.7-1c-0.5-0.3-0.3-1.1,0.1-1.8C271.7,111.7,272.2,110.9,273,111z"/>
<path class="st2" d="M273.6,111.3c0.8,0.1,1.9,0.1,3.3-0.4c2.4-1,4.1-2.2,5-3.5c0.8-1.4,0.6-3.3-1.4-4.5C279.3,102,260,90,258,88.7
	c-1.5-0.9-3.6-0.4-4.6,1.3c-1,1.6-1.3,4.5-1.2,5.8c0.1,3.2,0.8,6.1,3.4,9.8"/>
<path class="st2" d="M255.4,109c0,0,1.3-2.2,1.5-2.7"/>
<path class="st5" d="M257.4,109.3c-0.8-0.2-0.6-1.1-0.5-1.6s0.8-1.8,0.8-1.8s0.4-0.7,1.6-0.2c4.9,2,15.4,6.1,15.4,6.1
	c1.2,0.5,0.8,1.2,0.8,1.2s0,0.2-0.3,0.7c-0.4,0.7-0.6,1-0.8,1.2c-0.4,0.8-1.4,0.4-1.4,0.4S265.6,111.9,257.4,109.3z"/>
<path class="st4" d="M272.6,112.6c0,0,0.4-0.6,1-0.2s0.2,1,0.2,1s-0.4,0.6-0.9,0.2C272.4,113.2,272.5,112.8,272.6,112.6L272.6,112.6
	z"/>
<path class="st5" d="M253.7,93.9c0,0,0.1,16.4,0.1,18.7s0,3.2,0.7,3.2s0.9,0,0.9-1s0-16.3,0-18.8c0-2.4,0.2-2.9-0.5-2.9
	C254.1,93.1,253.7,93.2,253.7,93.9z"/>
<g>
	<path class="st4" d="M292.4,186.4c0,0.3,0.1,0.8,0.1,0.9c0,0.1,0.1,0.8,0,1.3c-0.2,0.6-0.4,1-1.2,1.5c-0.8,0.5-1.5,0.3-1.7,0.3
		s-0.3,0-0.3,0s-1.4-0.2-3.5-0.9c-2.2-0.7-3.8-1.7-5.2-3c-1.5-1.2-2.4-2.5-2.4-2.5l-0.2-0.3c-1-3-0.8-4.3-0.8-4.7
		c-0.1-0.6-2.9-0.1-3,0.4s-0.2,0.7-0.4,2.5c-0.1,0.6-0.1,0.8-0.1,1.3c-0.1,0.3-0.1,0.8,0,1.5c0.1,0.6,0.4,0.9,0.5,1.1
		c0.1,0.2,0.5,0.9,1,1.5c0.5,0.7,1.6,2,2.3,2.6c1,0.8,2.1,1.7,2.6,2s1.9,1.2,3.2,1.6c1.3,0.5,2.5,1,4.8,1.3c2.1,0.3,3.3,0.1,3.8,0
		s1.6-0.3,3-1.5c1.3-1.1,1.8-2.5,2-3.4c0.2-0.6,0.4-1.6,0.2-3.3c-0.1-0.5-0.2-1.9-0.2-1.9s-0.4-3.1-0.5-4c-0.1-0.8-0.5-3.5-0.6-4.4
		c-0.1-0.8-0.6-3.5-0.7-4s-0.7-3.6-0.8-4.2c-0.1-0.7-0.6-3-0.8-4c-0.2-1-0.5-2.5-0.7-3.2s-0.7-1.6-1.5-2.6c-0.5-0.5-1.1-1.1-1.8-1.5
		c-0.6-0.3-1.2-0.6-1.9-0.7c-0.6-0.1-1.2-0.2-1.7-0.1c-0.5,0-1.5,0.1-2.9,0.7c-1.4,0.6-2.5,1.3-3.6,2.1c-1,0.9-1.9,1.7-2.4,2.5
		c-0.6,0.8-1,1.7-1.1,2.1c-0.1,0.3-0.3,1.7-0.1,2.9c0.1,0.6,0.9,0.7,1.7,0.6c0.8-0.1,1.7-0.3,1.9-1.1c0.4-1.2,1.6-2.6,2.3-3.1
		c0.8-0.7,2.7-1.7,3.1-1.9s0.8-0.4,1.7-0.3c1.2,0.1,1.7,0.8,2,1.3c0.3,0.4,0.3,0.9,0.3,0.9s0.1,0.3,0.3,1.7"/>
	<path class="st2" d="M277.7,184.3c2.4,3.8,4.8,5.5,7.8,6.8c1.2,0.5,4,1.4,5.9,1.1c2-0.3,3.3-2,3-3.8c-0.4-2.3-4.3-24.7-4.5-26.2
		c-0.4-2.3-2.1-3.2-3.7-3c-1.6,0.3-3.3,1.4-5.1,3.3c-1,1.1-1.5,2.2-1.6,2.9"/>
</g>
<path class="st2" d="M275.1,180.5c0,0,1.4-0.2,1.9-0.2"/>
<g>
	<path class="st5" d="M275.8,166.1l0.1,0.7c0,0,0.1,0.5-0.3,0.8c0,0,0.8,2.4,0.8,4.7c0,1.4,0.1,3.3-0.4,4.5c0,0,0,0.5,0,0.8l0,0
		c0.1,0.6-0.3,1.2-0.4,1.6c-0.1,0.6-0.5,0.8-0.6,1.7c-0.1,0.8,0.8,1,1.3,1.1s1.6,0.2,1.6,0.2s0.2,0,0.5-0.1c0,0,0.2-0.1,0.3-0.1l0,0
		c0,0,0.3-0.3,0.5-1.1c0.1-0.9,0.3-2.1,0.3-2.1s0.2-0.7,0.3-0.9c0-0.2,0.2-1.1,0.3-1.3c0-0.7,0.1-0.8,0.2-1.8s0.3-2.5,0-4.5
		c-0.4-2.7-0.5-2.7-0.5-2.7s-0.3-0.3-0.4-0.9c-0.1-0.5-0.2-1.3-0.3-1.9v-0.1v-0.1l-0.1-0.7c-0.2-0.8-0.5-0.9-0.5-0.9
		s-0.2-0.1-0.7-0.1c-0.8,0.1-1.9,0.2-2.2,0.3c-0.3,0.1-0.2,1-0.2,1L275.8,166.1z"/>
</g>
<g>
	<g>
		<path class="st2" d="M277.5,183c-0.5,0-3.1,0.4-3.1,0.4"/>
	</g>
	<path class="st4" d="M277.2,165.9c0,0,0.7,0,0.7-0.7s-0.7-0.7-0.7-0.7s-0.7,0-0.7,0.6C276.5,165.8,277,165.9,277.2,165.9
		L277.2,165.9z"/>
</g>
<path class="st5" d="M280.9,114l-0.7-4.3c-0.4-2.4-1.5-2.1-2.9-1.9l-2.5,0.4c-1.4,0.2-2.5,0.3-2.1,2.7l0.7,4.3
	c0.2,1-0.1,8.9,0.1,10.1l4.3,26.8c0.2,1.2,2.3,4.5,2.4,5.5l0.6,4c0.4,2.4,1.5,2.1,2.9,1.9l2.5-0.4c1.4-0.2,2.5-0.3,2.1-2.7l-0.6-4
	c-0.2-1.1,0.7-4.8,0.6-6l-4.3-26.8C283.8,122.4,281,115,280.9,114z"/>
<path class="st5" d="M285.1,164.2c1.1-0.2,1.9-0.1,2.1-0.1s0.3-0.1,0.3-0.5s0-0.7-0.1-1.8s-0.2-2.7,0.1-3.6c0.3-0.9,0.6-1,1.6-1.4
	c0.4-0.2,0.3-0.6,0.1-0.9c-0.1-0.2-0.4-0.7-0.6-0.9s-0.3-0.4-1-0.1c-0.7,0.3-1.6,0.5-3.6,0.8l-0.4,0.1c-2,0.3-2.9,0.3-3.7,0.3
	c-0.7,0-0.8,0.2-0.9,0.4c-0.2,0.3-0.3,0.7-0.3,1c-0.1,0.3-0.1,0.8,0.4,0.8c1,0.1,1.4,0,1.9,0.8c0.6,0.8,0.9,2.3,1.2,3.4
	c0.3,1.1,0.3,1.4,0.5,1.7s0.3,0.4,0.4,0.3C283.2,164.7,283.9,164.4,285.1,164.2L285.1,164.2z"/>
<g>
	<path class="st8" d="M287.1,157.4c1.1-0.2,1.5-0.3,1.9-0.5"/>
	<path class="st8" d="M279.1,158.4c0.5,0.1,0.9,0.1,2-0.1"/>
</g>
<polygon class="st3" points="371.5,100 372.7,96 376.8,95 379.7,98.1 378.5,102.1 374.4,103.1 "/>
<path class="st3" d="M373.4,97.9c0.6-1.2,2-1.7,3.2-1.1s1.7,2,1.2,3.2c-0.6,1.2-2,1.7-3.2,1.2C373.4,100.5,372.8,99.1,373.4,97.9z"
	/>
<path class="st3" d="M367.1,93.2c0,0,0.5,0.1,0.8,0.3c0.3,0.2,2,0.9,3,0.7c1-0.2,1.6-0.4,2.3-0.5c0,0,2.4-0.4,4.2,0.3
	c1.7,0.7,3.1,1.9,3.5,3.1c0.4,1.3,1.1,3.6-4.5,10.1c-5.6,6.4-7,7.3-7.8,7.7c-0.6,0.3-1,0.5-1.3,0.6"/>
<path class="st3" d="M367.2,98.9c0,0,2,0.7,2.7,2s2,2.5-2.7,8.9"/>
<path class="st4" d="M401.3,135.9c1.3,0.1,3-0.5,3.8-0.9c0.9-0.5,2.6-1.8,2.9-2.1s0.6-0.6,0.9-1.4c0.4-1.2-0.1-1.9-0.4-2.3
	c-0.3-0.4-0.7-0.6-0.7-0.6s-0.3-0.2-1.4-0.9c-1.3-0.9-3.4-2.2-4.1-2.7c-0.7-0.4-2.8-1.8-3.6-2.3c-0.8-0.5-2.9-1.8-2.9-1.8
	s-1.6-1-2.4-1.4c-0.8-0.5-2.5-1.5-2.5-1.5s-3.1-1.7-3.3-1.9c-0.2-0.1-0.7-0.4-0.8-0.5c-0.1-0.1-0.6-0.4-1.2-0.4
	c-0.7-0.1-1.1,0-1.8,0.5c-0.8,0.6-0.9,1.3-0.9,1.4c0,0.2-0.1,0.3-0.1,0.3s-0.4,1.3-0.5,3.6c-0.2,2.2,0.2,4.1,0.8,5.9
	c0.6,1.8,1.4,3.1,1.4,3.1l0.2,0.3c2.4,2,3.7,2.3,4.1,2.5c0.5,0.3-1,2.7-1.5,2.7c-0.5-0.1-0.7-0.1-2.5-0.5c-0.6-0.2-0.7-0.2-1.2-0.4
	c-0.3-0.1-0.8-0.2-1.4-0.6c-0.5-0.4-0.7-0.7-0.8-0.8c-0.1-0.2-0.7-0.8-1.1-1.5s-1.2-2.2-1.5-3.1c-0.4-1.3-0.8-2.5-0.9-3.1
	s-0.4-2.2-0.3-3.6c0-1.3,0-2.7,0.5-4.9c0.5-2.1,1.2-3.1,1.4-3.5c0.3-0.4,0.9-1.4,2.5-2.2c1.5-0.8,3-0.7,3.9-0.6c0.7,0,1.7,0.2,3.1,1
	c0.4,0.2,1.6,0.9,1.6,0.9s2.7,1.5,3.5,2c0.7,0.4,3.1,1.8,3.8,2.2c0.7,0.4,3.1,1.9,3.4,2.1c0.4,0.2,3.1,1.9,3.6,2.3
	c0.6,0.4,2.5,1.6,3.4,2.2c0.8,0.6,2.1,1.4,2.7,1.8c0.5,0.5,1.2,1.2,1.8,2.4c0.3,0.7,0.6,1.4,0.7,2.2c0.1,0.6,0.1,1.4-0.1,2.1
	c-0.1,0.6-0.3,1.2-0.5,1.6c-0.2,0.5-0.6,1.4-1.7,2.4c-1.1,1.1-2.1,1.9-3.3,2.5c-1.2,0.6-2.3,1.1-3.2,1.3c-0.9,0.2-1.9,0.2-2.4,0.2
	c-0.3,0-1.7-0.3-2.7-1c-0.5-0.3-0.3-1.1,0.1-1.8C400,136.7,400.5,135.8,401.3,135.9z"/>
<path class="st2" d="M402,136.2c0.8,0.1,1.9,0.1,3.3-0.4c2.4-1,4.1-2.2,5-3.5c0.8-1.4,0.6-3.3-1.4-4.6c-1.2-0.8-20.6-12.8-22.6-14
	c-1.5-0.9-3.6-0.4-4.6,1.3c-1,1.6-1.3,4.5-1.2,5.8c0.1,3.2,0.8,6.1,3.4,9.8"/>
<path class="st2" d="M383.8,133.9c0,0,1.3-2.2,1.5-2.7"/>
<linearGradient id="SVGID_1_" gradientUnits="userSpaceOnUse" x1="386.489" y1="121.6824" x2="403.7859" y2="121.6824" gradientTransform="matrix(1 0 0 -1 0 255.53)">
	<stop  offset="0" style="stop-color:#E75300"/>
	<stop  offset="0.2286" style="stop-color:#EE8245"/>
	<stop  offset="0.5082" style="stop-color:#F5B794"/>
	<stop  offset="0.7392" style="stop-color:#FADECE"/>
	<stop  offset="0.9092" style="stop-color:#FEF6F2"/>
	<stop  offset="1" style="stop-color:#FFFFFF"/>
</linearGradient>
<path class="st9" d="M386.9,130.9c-0.7-0.4-0.4-1.2-0.2-1.7c0.2-0.5,1.1-1.6,1.1-1.6s0.5-0.6,1.6,0.2c4.3,3,13.7,9.3,13.7,9.3
	c1,0.7,0.5,1.3,0.5,1.3s-0.1,0.2-0.4,0.6c-0.5,0.6-0.8,0.8-1,1c-0.6,0.7-1.5,0-1.5,0S394.4,135.2,386.9,130.9z"/>
<path class="st4" d="M401,137.5c0,0,0.4-0.6,1-0.2c0.6,0.4,0.2,1,0.2,1s-0.4,0.6-0.9,0.2C400.7,138.1,400.9,137.7,401,137.5
	L401,137.5z"/>
<path class="st5" d="M365.6,93.9c0,0,0.1,16.4,0.1,18.7s0,3.2,0.7,3.2s0.9,0,0.9-1s0-16.3,0-18.8c0-2.4,0.2-2.9-0.5-2.9
	C366,93.1,365.6,93.2,365.6,93.9z"/>
<g>
	<path class="st4" d="M407.6,191c0.4-1.2,1.6-2.6,2.3-3.2c0.8-0.7,2.7-1.7,3.1-1.8c0.4-0.2,0.8-0.4,1.7-0.3c1.2,0.1,1.7,0.8,2,1.3
		c0.3,0.4,0.3,0.9,0.3,0.9s0.1,0.4,0.3,1.7c0.3,1.5,0.8,4,1,4.8c0.1,0.8,0.6,3.3,0.8,4.2c0.2,0.9,0.5,3.4,0.5,3.4s0.3,1.9,0.4,2.8
		c0.1,0.9,0.4,2.9,0.4,2.9s0.4,3.5,0.5,3.8c0,0.3,0.1,0.8,0.1,0.9c0,0.1,0.1,0.8,0,1.3c-0.2,0.6-0.4,1-1.2,1.5
		c-0.8,0.5-1.5,0.3-1.7,0.3s-0.3,0-0.3,0s-1.4-0.2-3.5-0.9c-2.2-0.7-3.8-1.7-5.2-3c-1.4-1.2-2.4-2.5-2.4-2.5l-0.2-0.3
		c-1-3-0.8-4.3-0.8-4.7c-0.1-0.6-2.9-0.1-3.1,0.4c-0.1,0.5-0.2,0.7-0.4,2.5c-0.1,0.6-0.1,0.8-0.1,1.3c-0.1,0.3-0.2,0.8,0,1.5
		c0.1,0.6,0.4,0.9,0.5,1.1c0.1,0.2,0.5,0.9,1,1.5c0.5,0.7,1.6,2,2.3,2.6c1,0.8,2.1,1.7,2.6,2s1.9,1.2,3.2,1.6c1.3,0.5,2.5,1,4.8,1.3
		c2.1,0.3,3.3,0.1,3.8,0s1.6-0.3,3-1.5c1.3-1.1,1.7-2.5,2-3.4c0.2-0.6,0.4-1.6,0.2-3.3c-0.1-0.5-0.2-1.9-0.2-1.9s-0.4-3.1-0.5-4
		c-0.1-0.8-0.5-3.5-0.6-4.4c-0.1-0.8-0.6-3.5-0.7-4s-0.7-3.6-0.8-4.2c-0.1-0.6-0.6-3-0.8-3.9c-0.2-1-0.5-2.5-0.7-3.2
		s-0.7-1.6-1.5-2.6c-0.5-0.5-1.1-1.1-1.8-1.5c-0.6-0.3-1.2-0.6-2-0.7c-0.6-0.1-1.2-0.2-1.7-0.1c-0.5,0-1.5,0.1-2.9,0.7
		c-1.4,0.6-2.5,1.3-3.6,2.1c-1,0.9-1.9,1.7-2.4,2.5c-0.6,0.8-1,1.7-1.1,2.1c-0.1,0.2-0.3,1.7-0.1,2.9c0.1,0.6,0.9,0.7,1.7,0.6
		C406.4,191.9,407.4,191.7,407.6,191z"/>
	<path class="st2" d="M406,209.2c2.4,3.7,4.8,5.5,7.8,6.8c1.2,0.5,4,1.4,5.9,1.1c2-0.3,3.3-2,3-3.8c-0.4-2.3-4.3-24.7-4.6-26.2
		c-0.4-2.3-2.1-3.2-3.7-3c-1.6,0.3-3.3,1.4-5.1,3.3c-1,1.1-1.5,2.2-1.6,2.9"/>
</g>
<path class="st2" d="M403.5,205.4c0,0,1.4-0.2,1.9-0.2"/>
<g>
	<path class="st5" d="M404.2,191l0.1,0.7c0,0,0.1,0.5-0.3,0.8c0,0,0.8,2.4,0.8,4.7c0,1.4,0.1,3.3-0.4,4.5c0,0,0,0.5,0,0.8l0,0
		c0.1,0.6-0.3,1.2-0.4,1.6c-0.1,0.6-0.5,0.8-0.6,1.7c-0.1,0.8,0.8,1,1.3,1.1s1.6,0.2,1.6,0.2s0.2,0,0.5-0.1c0,0,0.2-0.1,0.3-0.1l0,0
		c0,0,0.3-0.3,0.5-1.1c0.1-0.9,0.3-2.1,0.3-2.1s0.2-0.7,0.3-0.9c0-0.2,0.3-1.1,0.3-1.3c0-0.7,0.1-0.8,0.2-1.8s0.3-2.5,0-4.5
		c-0.4-2.7-0.5-2.7-0.5-2.7s-0.3-0.3-0.4-0.9c-0.1-0.5-0.2-1.3-0.3-1.9v-0.1v-0.1l-0.1-0.7c-0.2-0.8-0.4-0.9-0.4-0.9
		s-0.2-0.1-0.7-0.1c-0.8,0.1-1.9,0.2-2.2,0.3c-0.3,0.1-0.2,1-0.2,1L404.2,191z"/>
</g>
<g>
	<g>
		<path class="st2" d="M405.9,207.9c-0.5,0-3.1,0.4-3.1,0.4"/>
	</g>
	<path class="st4" d="M405.5,190.8c0,0,0.7,0,0.7-0.7s-0.7-0.7-0.7-0.7s-0.7,0-0.7,0.6C404.9,190.7,405.3,190.8,405.5,190.8
		L405.5,190.8z"/>
</g>
<path class="st5" d="M409.2,138.9l-0.7-4.3c-0.4-2.4-1.5-2.1-2.9-1.9l-2.5,0.4c-1.4,0.2-2.5,0.3-2.1,2.7l0.7,4.3
	c0.1,1-0.1,8.9,0.1,10.1l4.3,26.8c0.2,1.2,2.3,4.5,2.4,5.5l0.6,4c0.4,2.4,1.5,2.1,2.9,1.9l2.5-0.4c1.4-0.2,2.5-0.3,2.1-2.7l-0.6-4
	c-0.2-1.1,0.8-4.8,0.6-6l-4.3-26.8C412.1,147.3,409.4,139.9,409.2,138.9z"/>
<path class="st5" d="M413.4,189.1c1.1-0.2,1.9-0.1,2.1-0.1s0.3-0.1,0.3-0.5s0-0.7,0-1.8c-0.1-1.1-0.2-2.7,0.1-3.6
	c0.3-0.9,0.6-1,1.6-1.4c0.4-0.2,0.3-0.7,0.1-0.9c-0.1-0.2-0.4-0.6-0.6-0.9c-0.2-0.2-0.3-0.4-1-0.1c-0.7,0.3-1.6,0.5-3.6,0.8
	l-0.4,0.1c-2,0.3-2.9,0.3-3.7,0.3c-0.7,0-0.8,0.2-0.9,0.4c-0.2,0.3-0.3,0.7-0.3,1c-0.1,0.3-0.1,0.8,0.4,0.8c1,0.1,1.4,0,1.9,0.8
	c0.6,0.8,0.9,2.3,1.2,3.4c0.3,1.1,0.3,1.4,0.5,1.7c0.1,0.3,0.3,0.4,0.4,0.3C411.6,189.6,412.3,189.3,413.4,189.1L413.4,189.1z"/>
<g>
	<path class="st8" d="M415.4,182.3c1.1-0.2,1.5-0.3,1.9-0.5"/>
	<path class="st8" d="M407.4,183.4c0.5,0.1,0.9,0.1,2-0.1"/>
</g>
<g>
	<g>
		<path class="st2" d="M386.7,134.3c0,0,0.7-1.2,0.9-1.7"/>
	</g>
</g>
<path class="st2" d="M387.6,126c0,0,1.5-1,2.5,0.1"/>
<path class="st2" d="M386.5,124.2c0,0,3.4-2.1,5,0.7"/>
<path class="st10" d="M367.3,126.8c-1.4-0.4-2.8-1-4.2-1.8c-7-4-10.5-11.6-9.7-19.1c0.3-2.5,1.1-5.1,2.4-7.4"/>
<polyline class="st7" points="321.4,47 323.8,48 320.7,41.6 320.7,41.6 314,44 316.4,44.9 "/>
<path class="st7" d="M129.2,203.7c-3-8.7-6.1-18.8-8.3-34.3l0,0c-3.4-23.2-6.3-70-6.7-81l0,0l5.8-0.2c0.3,11.3,3.3,57.8,6.6,80.3
	l0,0c1.6,11.1,3.6,19.3,5.7,26.2L129.2,203.7z"/>
<polyline class="st7" points="120,89.1 122.5,89.1 117.3,84.3 117.2,84.3 112,89.1 114.5,89.1 "/>
<path class="st7" d="M139,239.6c-1.7-12.6-4.4-20.7-7.4-29.3c-0.1-0.3-0.2-0.6-0.3-0.9l0,0l3-8.8c0.2,0.4,0.3,0.9,0.5,1.3
	c0.7,1.9,1.3,3.7,2,5.6l0,0c3.3,9.1,6.4,18.1,8.1,32.1"/>
<path class="st3" d="M132.1,215.6c-2.5-0.9-1.9-2.9-1.9-2.9c0.3-1,0.6-2.1,1-3.3c2.3-7.1,5.9-17.6,7.8-22.3c0,0,0.4-1,0.8-1.7"/>
<path class="st7" d="M286.6,240.1c0-12.5,0-48.8,0-52.9l0,0c0-2.6,0.7-9.7,2.8-20.3l3,19.4c0,0.4,0,0.7,0,0.9l0,0
	c0,4.2,0,40.5,0,52.9"/>
<path class="st4" d="M292,182.7c0,0,0.4,3.5,0.5,3.8"/>
<path class="st4" d="M291.5,179.8c0.1,0.9,0.4,2.9,0.4,2.9"/>
<path class="st4" d="M291.1,177c0,0,0.3,1.9,0.4,2.8"/>
<path class="st4" d="M290.6,173.6c0.2,0.9,0.6,3.4,0.6,3.4"/>
<path class="st4" d="M289.8,169.4c0.1,0.8,0.6,3.3,0.8,4.2"/>
<path class="st4" d="M288.8,164.6c0.3,1.5,0.8,4,1,4.8"/>
<path class="st2" d="M428.4,203.3c0,0,7.4,1.7,6.7,7.7"/>
<path class="st2" d="M429.4,198c0,0,16,4.6,12,17.3"/>
<path class="st7" d="M416.2,219.7c0,5.2,1.6,12.6,3.4,20.4h-5.9c-1.7-7.5-3.2-14.7-3.2-20.7l0,0c0-0.5,0-1,0-1.6"/>
<path class="st7" d="M437.9,240.1c-0.2-7.5-0.9-15-2.7-21.1l0,0c-1.1-3.5-2.5-6.6-4.7-9l0,0c-2.2-2.4-5.3-4-8.8-4l0,0
	c-3.7-0.1-7,1.4-8.9,4.1l0,0c-0.7,0.9-1.1,2-1.5,3c0,0,2.6,1.6,5.4,2c0.2-0.7,0.5-1.3,0.8-1.7l0,0c0.8-1,1.6-1.6,4.2-1.7l0,0
	c1.9,0,3.1,0.7,4.5,2.1l0,0c3.9,3.9,5.8,15.1,6,26.3L437.9,240.1z"/>
<g>
	<path d="M454.9,216.7c0.3,0.6,0.8,1.2,1,2.2c-0.1,0-0.1,0-0.2,0.1c0.1,0.4,0.3,0.9,0.5,1.3c-0.1,0-0.1,0-0.2,0.1
		c0.1,0.4,0.3,0.2,0.4,0.5c-0.1,0-0.1,0-0.2,0.1l0.1,0.4c-0.1,0-0.1,0-0.2,0.1c0,0.3,0.2,0.6,0.3,0.9c-0.1,0-0.1,0-0.2,0.1
		c0.1,0.8,0.4,1,0.4,1.7c-0.1,0-0.1,0-0.2,0.1l0.1,0.4c-0.1,0-0.1,0-0.2,0.1c0,0.2,0.3,0.5,0.3,0.7c-0.8,0.3-0.2-0.2-0.5-0.2
		l-0.4,0.1c0,0.5,0.1,0.3,0.1,0.8c-0.1,0-0.1,0-0.2,0.1c0,0.2,0.2,0.5,0.3,0.7c-0.1,0-0.1,0-0.2,0.1l0.1,0.4c-0.1,0-0.1,0-0.2,0.1
		c0,0.2,0.4,0.2,0.3,0.3c-0.4,0.4,0.4,2.1,0.7,2.9c-0.1,0-0.1,0-0.2,0.1c-0.1,0-0.3-0.8-0.3-0.9c-0.1,0-0.1,0-0.2,0.1
		c0,0.1,0.2,0.4,0.2,0.6c-0.1,0-0.1,0-0.2,0.1c0.1,0.6,1,3.2,1.4,3.7c0.1,0,0.1,0,0.2-0.1c0.2,0.4,0.3,0.7,0.5,0.9h0.4
		c0.2,0.3,0,0.1-0.1,0.3c0.3,0.4,0.2,0.3,0.5,0.7c0.4-0.1,0.9-0.5,1.3-0.5c0,0.1,0.1,0.1,0.1,0.2l0.4-0.1c0,0.1,0,0.1,0.1,0.2
		c0.1,0,0.4-0.2,0.6-0.2c0,0.1,0.1,0.1,0.1,0.2c0.4,0,0.8,0.3,1.2,0.4c0,0.1,0,0.1,0.1,0.2l0.7,0.2c0.3,0.2,0.5,1,0.9,1.2
		c0.3,0.1,0.1-0.3,0.1-0.3l0.4-0.1c0.3,0.2,0.4,0.3,0.8,0.4c0,0.1,0,0.1,0.1,0.2c0.1,0,0.1-0.1,0.2-0.1c0.2,0.1,0.2,0.5,0.4,0.5
		l0.4-0.1l0.1,0.4c0.1,0,0.1,0,0.2-0.1c0.2,0.5,0.7,0.9,0.8,1.6c-0.1,0-0.1,0-0.2,0.1c0.1,0.2,0.2,0.3,0.2,0.6
		c-0.1,0-0.1,0.1-0.2,0.1c0.1,0.7,0.5,1.4,0.8,2c0.1,0,0.1,0,0.2-0.1c0.1,0.4,0.3,0.9,0.5,1.3c-0.1,0-0.1,0-0.2,0.1
		c0.1,0.3,0.3,0.6,0.4,0.9c0.1,0,0.1-0.1,0.2-0.1c0.1,0.3,0.2,0.7,0.3,0.9h0.4c0.2,0.1,0.3,0.5,0.5,0.7c0.1,0,0.1,0,0.2-0.1l0.1,0.4
		c0.3,0.2,0.1-0.3,0.1-0.3c0.1,0,0.1,0,0.2-0.1c0.2,0.3,0.2,0.3,0.4,0.5l0.4-0.1c0.2,0.2,0.1,0.6,0.3,0.7c0.1,0,0.1-0.1,0.2-0.1
		c0.2,0.3,0.2,0.6,0.3,0.9c-0.1,0-0.1,0-0.2,0.1c0,0.2,0.2,0.5,0.3,0.7c-0.3-0.1-0.6,0-0.9-0.1l-0.1-0.4l-0.7-0.2l-0.1-0.4l-0.7-0.2
		l-0.1-0.4c-0.2-0.1-0.4,0.2-0.6,0c-0.3-0.2-0.2-0.5-0.5-0.7c-0.2-0.1-0.4,0-0.6,0l-0.1-0.4c-0.1,0-0.1,0-0.2,0.1
		c-0.2-0.2-0.2-0.6-0.3-0.7c-0.1,0-0.1,0-0.2,0.1c-0.2-0.5-0.3-1-0.6-1.5c-0.1,0-0.1,0.1-0.2,0.1c-0.1-0.4-0.4-0.9-0.5-1.3l0.3-0.3
		c0-0.2-0.2-0.4-0.2-0.6c0.1,0,0.1,0,0.2-0.1c-0.1-0.9-0.7-1.8-1-2.6c-0.1,0-0.1,0-0.2,0.1c-0.1-0.1-0.1-0.4-0.2-0.6l-0.4,0.1v-0.4
		c-0.3,0-0.8-0.3-0.8-0.3c-0.5,0-1.1,0.4-1.5,0.6l-0.1-0.4c-0.1,0-0.1,0-0.2,0.1l-0.1-0.4H462c0-0.1,0-0.1-0.1-0.2
		c-0.1,0.1-0.6,0.2-0.7,0.3c0,0.1,0.4,0.9,0.3,0.9c-0.4,0.4-0.4-0.3-0.8,0.1c0.4,0.6,0.4,0.9,0.8,1.6c0.1,0,0.1,0,0.2-0.1
		c0.1,0.2,0.2,0.5,0.3,0.7c0.1,0,0.1,0,0.2-0.1c0.1,0.2,0.1,0.6,0.3,0.7c0.1,0,0.1,0,0.2-0.1l0.1,0.4c0.1,0,0.1,0,0.2-0.1l0.1,0.4
		c0.1,0,0.2-0.3,0.3-0.3c0.2,0.4-0.1,0.1,0.3,0.1c0.1,0.4,0.2,0.7,0.4,1.1c0.1,0,0.1,0,0.2-0.1c0.4,0.7,0.6,1.6,0.9,2.4
		c-0.1,0-0.1,0.1-0.2,0.1c0.1,0.3,0,0.1,0.3,0.1l0.1,0.4c-0.6-0.2,0.2,0.7,0.3,0.7c-0.1-0.1-0.3,0.9,0.3,0.7c0.3,0.8,0.5,1.9,1,2.6
		l0.4,0.1c0.4,0.4,0.3,0.9,0.7,1.2c0.1,0.1,0.4-0.1,0.6,0c0,0,0.3,0.5,0.5,0.7c0.1,0,0.1,0,0.2-0.1c0.1,0.1,0.1,0.4,0.2,0.6h0.4
		c0.2,0.3,0,0.1-0.1,0.3c0.1,0.1,0.1,0.5,0.2,0.6c0,0,0.4,0.1,0.4,0.5c0,0-0.3,0.3-0.2,0.5c-0.2,0-0.4,0.2-0.6,0.2
		c0-0.1-0.1-0.1-0.1-0.2l-0.4,0.1c0-0.1,0-0.1-0.1-0.2l-0.4,0.1l-0.1-0.4h-0.4l-0.1-0.4h-0.4c0-0.1-0.1-0.4-0.2-0.6
		c-0.1,0-0.1,0.1-0.2,0.1c-0.5-0.8-0.5-1.8-1-2.6c-0.1,0-0.1,0-0.2,0.1c0-0.1-0.1-0.5-0.2-0.6c-0.1,0-0.1,0-0.2,0.1
		c-0.1-0.2-0.1-0.6-0.3-0.8c-0.1,0-0.1,0-0.2,0.1c-0.3-0.3-0.2-0.3-0.5-0.7c-0.1,0-0.1,0.1-0.2,0.1c-0.1-0.1-0.1-0.4-0.2-0.6h-0.4
		c-0.1-0.2-0.1-0.5-0.2-0.6c-0.1,0-0.1,0-0.2,0.1c-0.4-0.7-0.6-1.7-0.9-2.4c0.1,0,0.1-0.1,0.2-0.1c-0.2-0.5-0.4-1-0.6-1.5
		c-0.1,0-0.1,0-0.2,0.1c-0.1-0.3-0.2-1-0.5-1.3h-0.6l-0.1-0.4L460,243c-0.1-0.1-0.1-0.4-0.2-0.6c-0.1,0-0.1,0-0.2,0.1
		c-0.3-0.5-0.3-0.7-0.6-1.1c-0.8,0.3,0-0.3-0.5-0.2c-0.1,0-0.4,0.5-0.4,0.6c-0.2-0.2,0-0.5-0.3-0.3c-0.2-0.2-0.3-0.5-0.5-0.7
		c-0.1,0-0.1,0.1-0.2,0.1c-0.1-0.2-0.2-0.5-0.3-0.7c-0.1,0-0.1,0-0.2,0.1c-0.1-0.3-0.2-0.6-0.3-0.9c-0.1,0-0.1,0-0.2,0.1
		c-0.2-0.3-0.1-0.7-0.3-0.9c-0.1-0.1-0.4,0-0.6,0c-0.4-0.6-0.4-0.9-0.8-1.6c-0.1,0-0.1,0-0.2,0.1c-0.2-0.3-0.2-0.7-0.3-0.9
		c-0.1,0-0.1,0-0.2,0.1c-0.4-0.7-0.4-1.2-0.9-1.8c-0.1,0-0.1,0-0.2,0.1c0-0.1-0.2-0.5-0.2-0.6c-0.1,0-0.1,0-0.2,0.1
		c-0.1-0.2-0.2-0.5-0.3-0.7c-0.1,0-0.1,0-0.2,0.1c-0.3-0.5-0.3-0.6-0.6-1c-0.1,0-0.1,0-0.2,0.1c-0.1-0.2-0.1-0.4-0.2-0.6
		c-0.5,0.3-0.6-0.1-0.8,0.1c-0.1,0.1,0,0.4,0,0.6c-0.2,0.1-0.6,0.1-0.7,0.3c-0.3-0.3-0.2-0.5-0.5-0.9c-0.1,0-0.1,0-0.2,0.1l-0.1-0.4
		c-0.1,0-0.1,0-0.2,0.1c-0.1-0.2-0.1-0.6-0.3-0.7c-0.1,0-0.1,0-0.2,0.1c-0.1-0.2-0.1-0.6-0.3-0.7c-0.1,0-0.1,0-0.2,0.1l-0.1-0.4
		l-0.7-0.2l-0.1-0.4c-0.1,0-0.1,0-0.2,0.1c-0.3-0.3-0.2-0.4-0.5-0.7c-0.1,0-0.1,0-0.2,0.1c-0.3-0.4-0.3-0.7-0.6-1
		c-0.1,0-0.1,0-0.2,0.1l-0.1-0.4c-0.1,0-0.1,0.1-0.2,0.1c-0.1-0.1-0.1-0.4-0.2-0.6c-0.1,0-0.1,0-0.2,0.1c-0.1-0.2-0.2-0.5-0.3-0.7
		c-0.1,0-0.1,0-0.2,0.1c-0.2-0.3-0.2-0.6-0.3-0.9c-0.1,0-0.1,0-0.2,0.1c-0.2-0.4-0.2-0.8-0.4-1.1h-0.4c-0.1-0.3-0.3-0.6-0.3-0.9
		c0.1,0,0.1,0,0.2-0.1c-0.1-0.5-0.2-0.7-0.2-1.2c0.1,0,0.1-0.1,0.2-0.1c0.3,0.4,0.3,0.6,0.6,1c0.1,0,0.1,0,0.2-0.1
		c0.1,0.1,0.1,0.5,0.2,0.6c0.1,0,0.1,0,0.2-0.1c0.2,0.4,0.3,0.9,0.5,1.3c0.1,0,0.1,0,0.2-0.1c0.2,0.5,0.3,1.3,0.6,1.7
		c0.1,0,0.1,0,0.2-0.1c0,0.1,0,0.1,0.1,0.2c0.2-0.1,0.5-0.2,0.7-0.3c0.1,0.2,0.2,0.5,0.3,0.7c0.1,0,0.1,0,0.2-0.1
		c0.3,0.4,0.3,0.6,0.6,1c0.1,0,0.1,0,0.2-0.1c0.1,0.2,0.1,0.6,0.3,0.7c0.1,0,0.1,0,0.2-0.1c0,0.1,0,0.1,0.1,0.2
		c0.5,0.1,0.7,0.3,1.2,0.4c0,0.1,0,0.1,0.1,0.2c0.1,0,0.1,0,0.2-0.1c0.3,0.3,0.2,0.5,0.5,0.9c0.1,0,0.1,0,0.2-0.1l0.1,0.4
		c0.1,0,0.1,0,0.2-0.1c0.1,0.1,0.1,0.4,0.2,0.6c0.1,0,0.1,0,0.2-0.1c0.1,0.1,0.1,0.4,0.2,0.6c0.4,0-0.1-0.3,0.3,0.1
		c0.5-0.3,0.4-0.5,0.4-0.6c0.1,0,0.7-0.2,0.4,0c0.1,0,0.1,0,0.2-0.1c0.2,0.2,0.1,0.2,0.4,0.5c0.1,0,0.1,0,0.2-0.1
		c-0.1-0.4-0.1,0,0.1-0.3c-0.3-0.9-0.7-2.5-1.2-3.2c-0.1,0-0.1,0-0.2,0.1l-0.1-0.4l-1.2-0.4c0-0.1,0-0.1-0.1-0.2
		c0.1,0.6-0.5-0.9-0.5-0.9l0.5-0.4v-0.4c0.3-0.1,0.6-0.3,0.9-0.3l0.3,0.3c0.2,0,0.6-0.2,0.7-0.3c0,0.1,0,0.1,0.1,0.2
		c0.8,0.3-1.2-1.8,0.3,0.3c0.1,0,0.1,0,0.2-0.1c0.6,0.8,0.8,2.2,1.2,3.2c0.3,0,0.1-0.3,0.3,0.1c0.5-0.2,0.5-0.1,0.8-0.1
		c0.1-0.3,0.4-0.4,0.4-0.6l-0.1-0.4c0.1,0,0.1,0,0.2-0.1l-0.1-0.4c0.1,0,0.1,0,0.2-0.1c0-0.2-0.2-0.5-0.3-0.7c0.1,0,0.1-0.1,0.2-0.1
		c-0.1-0.3,0-0.1-0.3-0.1c-0.1-0.5-0.2,0,0.1-0.3c0-0.1-0.2-0.4-0.2-0.6l0.4-0.1c0-0.4-0.4-0.7-0.4-1.1c0.4-0.1,0.2,0.2,0.4,0.5
		l0.4-0.1c0-0.4-0.1-0.4-0.1-0.8c0.1,0,0.1,0,0.2-0.1c0-0.2-0.2-0.4-0.2-0.6c0.1,0,0.1,0,0.2-0.1l-0.1-0.4c0-0.2,0.7-0.8,0.7-0.9
		c0.1-0.5-0.5-0.4-0.5-0.7l0.5-0.4c0-0.2-0.2-0.4-0.2-0.6c0.1,0,0.1,0,0.2-0.1c-0.1-0.2-0.2-0.3-0.2-0.6c0.1,0,0.1,0,0.2-0.1
		c-0.1-0.9-0.7-1.8-1-2.6C454.7,216.8,454.8,216.8,454.9,216.7z"/>
</g>
<line class="st11" x1="448.7" y1="224.2" x2="448.7" y2="197.1"/>
<line class="st11" x1="453.5" y1="232" x2="453.5" y2="204.6"/>
<line class="st11" x1="458.1" y1="236.8" x2="458.1" y2="209.5"/>
<line class="st11" x1="462.2" y1="243.6" x2="462.2" y2="215.5"/>
<line class="st11" x1="467.5" y1="243.5" x2="467.5" y2="215.9"/>
<line class="st12" x1="448.9" y1="224.2" x2="448.9" y2="197.1"/>
<line class="st12" x1="453.7" y1="232" x2="453.7" y2="204.6"/>
<line class="st12" x1="458.3" y1="236.8" x2="458.3" y2="209.5"/>
<line class="st12" x1="462.4" y1="243.6" x2="462.4" y2="215.5"/>
<line class="st12" x1="467.7" y1="243.5" x2="467.7" y2="215.9"/>
<path d="M303.4,44.8l0.2,0.4l0.1-0.1C303.7,45.2,303.9,44.3,303.4,44.8z"/>
<path d="M300.5,45.1l0.1,0.1c-0.2,0.1-0.3,0.6,0.3,0.2C300.7,45.3,300.7,44.8,300.5,45.1z"/>
<path d="M300.7,32c0.2,0.1-0.1,0.3-0.1,0.3S300.4,32,300.7,32z"/>
<path d="M307.4,28.9c0,0,0.4-0.1,0.5-0.1c0,0.2,0.1,0.4,0.1,0.6c0.1,0,0.1,0,0.2,0c0.1,0.3,0.1,0.6,0.1,0.9c-0.1,0-0.1,0-0.1,0
	c0,0.2,0.1,0.5,0.1,0.8c-0.1,0-0.1,0-0.2,0l0.1,0.3c-0.1,0-0.1,0-0.2,0v0.3h-0.1V32c-0.1,0-0.1,0-0.2,0v0.3c0,0-0.1,0-0.2,0l0.1,0.3
	c-0.1,0-0.1,0-0.2,0l0.1,0.3c-0.1,0-0.1,0-0.1,0c-0.1,0.4,0.3,0.6,0.3,0.7c-0.1,0-0.1,0-0.2,0c-0.1,0.3,0,0.2-0.1,0.5
	c-0.1,0-0.1,0-0.1,0l0.1,0.3c-0.1,0-0.1,0-0.2,0c0,0.3,0.2,0.6,0.2,0.9c-0.1,0-0.1,0-0.2,0c-0.1,0.3,0,0.3-0.1,0.5c0,0-0.1,0-0.2,0
	l0.1,0.3c-0.1,0.1-0.4,0-0.5,0.1l-0.1,0.3c-0.3,0.2-0.9,0-1.2,0.2c0,0.1,0,0.1,0,0.1c-0.3,0.2-0.1,0.2-0.2,0.5c-0.1,0-0.1,0-0.2,0
	l0.1,0.3c-0.1,0-0.1,0-0.2,0c0,0.2,0.1,0.4,0.1,0.6c-0.6,0.2-1,0.2-1.7,0.4c0,0.1,0,0.1,0,0.2h-0.3c0,0.1,0,0.1,0,0.2
	c-0.3,0.1,0-0.2-0.3-0.1c0,0.1,0,0.1,0,0.2l-0.3,0.1c0,0.1,0,0.1,0,0.2l-0.3,0.1l0.1,0.3c-0.1,0.1-0.4,0-0.5,0.1l0.1,0.3
	c-0.1,0-0.1,0-0.2,0v0.3c-0.1,0-0.1,0-0.2,0v0.3c0,0.1-0.2,0.1-0.3,0.2l0.1,0.3l-0.3,0.2l0.1,0.3c-0.1,0-0.1,0-0.2,0v0.1
	c-0.3,0.2-0.3,0.5-0.7,0.7c0,0.1,0,0.1,0,0.2l-0.3,0.1c0.1,0.1,0,0.3,0.1,0.5l0.3-0.1c0.2,0.3-0.7-0.1-0.2-0.1c0,0,0,0.1,0.1,0.1
	l0.3-0.2c0.1,0.1,0.4,0.4,0.4,0.5c0.1,0,0.3-0.2,0.4-0.2c0,0,0.2,0.2,0.3,0.2l0.3-0.2c0,0,0,0.1,0.1,0.1c0.3,0,0.7-0.4,1-0.4
	l0.2,0.3l0.3-0.2l0.3,0.2c0.3,0,0.5-0.2,0.9-0.3c0,0,0,0.1,0.1,0.1c0.2,0,0.3-0.2,0.4-0.2l0.1,0.1c0.3,0,0.3-0.1,0.5-0.1
	c0,0.3,0.3,0.4,0.4,0.7l-0.4,0.8c0.1,0.6-0.1-0.3,0.2,0.1c0.1,0.1,0.1,0.4,0.2,0.6c0-0.2,0.5,0.3,0,0.6c0.1,0.2,0.3,0.5,0.3,0.6
	l-0.3,0.2l0.1,0.3l-0.3,0.2c-0.1,0.2,0,0.4,0,0.6c-0.1,0-0.1,0-0.2,0c0,0.2,0,0.4,0,0.6c-0.1,0-0.1,0-0.2,0c0,0.1,0.1,0.3,0.1,0.4
	c-0.1,0-0.1,0-0.2,0c0,0.1,0.1,0.3,0.1,0.5c-0.1,0-0.1,0-0.1,0c0,0.2,0.1,0.3,0.1,0.5c-0.1,0-0.1,0-0.2,0l0.1,0.3
	c-0.1,0-0.1,0-0.2,0c0,0.1,0.1,0.4,0.1,0.4H305c0,0.3,0.2,0.6,0.2,0.9c0,0-0.1,0-0.2,0c0.1,0.3,0.1,0.6,0.2,0.9h0.1
	c0.1,0.1,0.2,0.5,0.3,0.6l0.3,0.1l0.1,0.3c0,0,0.1,0,0.2,0c0.1,0.1,0,0.5,0.2,0.6l0.3-0.1c0,0,0.2,0.2,0.2,0.3h0.1
	c0.1,0.1,0,0.4,0.1,0.4c0,0,0.4-0.1,0.5-0.1c0,0.1,0.2,0.3,0.2,0.3c-0.4,0-0.7,0.2-1,0.3l-0.2-0.3c-0.1,0-0.3,0.2-0.4,0.1
	c-0.1-0.1-0.1-0.5-0.3-0.6c-0.3,0-0.6,0.4-1,0.4l-0.1-0.3c-0.3,0,0,0.3-0.4,0.3c0,0-0.2-0.2-0.2-0.3l-0.3,0.1
	c-0.1-2.6-0.1,2.3,0.1-0.2c0-0.4-0.2-0.7-0.1-1.1l0.3-0.1c0-0.1,0.2-0.4,0.2-0.4c0-0.2-0.2-0.3-0.1-0.5c0.1,0,0.1,0,0.2,0
	c0-0.5-0.3-1.2-0.4-1.7c-0.1,0-0.1,0-0.1,0c-0.1-0.3-0.1,0,0.1-0.2c0-0.1-0.1-0.4-0.1-0.5c0.1,0,0.1,0,0.1,0c0-0.6-0.2-0.9-0.2-1.4
	c0.1,0,0.1,0,0.1,0c0-0.3,0-0.3,0-0.6c0.1,0,0.1,0,0.2,0c0-0.2-0.1-0.5,0-0.6l0.3-0.2c0-0.2-0.1-0.4-0.2-0.6c-0.1,0-0.1,0-0.2,0
	c0-0.1,0-0.1,0-0.1c-0.1,0-0.4,0-0.5,0c-0.1,0.2,0-0.9,0-0.6c-0.1,0-0.1,0-0.1,0l0.1,0.3c0,0-0.3-0.1-0.3-0.4c0.1,0,0.1,0,0.1,0
	l-0.1-0.3c0.1,0,0.1,1,0.2,1c0-0.2,0-0.4,0-0.6c0.1,0,0.1,0,0.1,0c0-0.1-0.1-0.4-0.1-0.4s0.2-0.2,0.3-0.2c0-0.1,0-0.4,0-0.5
	c-0.1,0.1-0.1,0.2-0.2,0.4l0.1,0.1c-0.2,0.3-0.1,0.6-0.4,0.8l-0.4-0.3c-0.2,0.1-0.5,0.3-0.7,0.4l-0.1-0.1c-0.1,0.1-0.3,0.2-0.4,0.2
	l0.1,0.1c-0.3,0.3-0.5,0.3-0.7,0.6l-0.3-0.5c-0.6,0.3,0.2-0.5,0-0.1l0.1,0.1c-0.3,0.3-1.1,0.2-1.5,0.4c0.1-0.3,0.5,0.4,0.7,0.2
	c-0.1-0.2-0.4-0.5-0.5-0.8c-0.1,0-0.5,0.3-0.5,0.3c0,0.1,0,0.1,0,0.2c-0.4,0.3-0.1,0.2-0.2,0.7l-0.7,0.2c-0.1,0.4,0.2,0.2,0.1,0.5
	l-0.3,0.1c-0.1,0.2,0,0.6,0,0.8c-0.1,0-0.1,0-0.2,0c0,0.1,0,0.3,0,0.5c-0.1,0-0.1,0-0.2,0v0.3h-0.3c-0.1,0-0.1,0.3-0.2,0.5
	c0,0-0.4,0.2-0.5,0.3v0.3c-0.1,0-0.1,0-0.2,0c-0.1,0.3-0.1,0.5-0.3,0.6c0,0.1,0,0.1,0,0.2c-0.1,0.1-0.4-0.1-0.5,0
	c0,0-0.1,0.2-0.2,0.3h-0.3c-0.1,0.1-0.1,0.4-0.2,0.5c-0.1,0-0.1,0-0.2,0c-0.1,0.3,0,0.6,0,0.9c0.1,0,0.1,0,0.2,0
	c0,0.4-0.2,0.6-0.2,1.1c-0.3-0.2-0.1-0.3-0.1-0.6h-0.3c-0.1,0,0.1,0.4-0.2,0.1V54c0,0.1,0,0.1,0,0.2c0.1,0,0.4,0,0.5,0
	c-0.1,0.6-0.1,1-0.2,1.7c0,0-0.1,0-0.2,0c-0.1,0.5,0,1.1-0.1,1.5c-0.1,0-0.1,0-0.2,0c-0.1,0.1,0,0.3,0,0.5c-0.1,0-0.1,0-0.2,0
	c-0.1,0.3-0.1,0.3-0.2,0.6c-0.1,0-0.1,0-0.2,0v0.3c0,0-0.1,0-0.2,0c-0.2,0.3,0,0.6-0.2,0.9l-0.3,0.1c-0.1,0.2-0.1,0.4-0.2,0.6
	c-0.1,0-0.1,0-0.2,0v0.3l-0.3,0.1c0,0.1,0,0.1,0,0.2c-0.3-0.1-0.3,0.1-0.3,0.1h-0.3c0-0.1-0.1-0.4-0.1-0.5l-0.3-0.2
	c0-0.2,0-0.7,0-0.9c0.1,0,0.1,0,0.2,0s0.1-0.2,0.2-0.3c0.1,0,0.1,0,0.2,0v-0.3l0.3-0.1c0-0.1,0-0.1,0-0.2c0.2-0.1,0.2-0.2,0.5-0.3
	c0-0.1,0-0.1,0-0.2c0,0,0.4,0,0.5,0c0.1-0.4,0.1-0.3,0.2-0.8c0,0,0.1,0,0.2,0c0-0.1,0-0.1,0-0.2c-0.4-0.2,0-0.8-0.1-1.2l-0.6-0.3
	c-0.1-0.4,0.3-1-0.1-1.2c0-0.1,0-0.1,0-0.2c0.1,0,0.1,0,0.1,0c0.1-0.3,0-0.5,0-0.8c0.1,0,0.1,0,0.2,0c0-0.1,0-0.3,0-0.5
	c0.1,0,0.1,0,0.2,0c0.1-0.1,0-0.3,0-0.5c0.1,0,0.1,0,0.2,0v-0.3l0.5-0.3c0.1-0.1,0.1-0.3,0.2-0.3c0.1-0.1,0.4,0,0.5-0.1s0-0.5,0-0.6
	c0.2-0.1,0.1,0.2,0.2-0.1c-0.1-0.1-0.2,0.1-0.1-0.2c0,0,0.1,0,0.2,0c0-0.1,0-0.4,0-0.5c-0.4-0.1-0.4,0-0.6-0.2c0,0,0.4-0.5,0.2-0.6
	c0,0,0,0.2,0.2-0.3c0.1,0,0.1,0,0.2,0v-0.3c0.1,0,0.1,0,0.2,0v-0.3c0.1,0,0.1,0,0.2,0V48c0.1,0,0.1,0,0.2,0c0.1-0.2,0.1-0.5,0.2-0.6
	l0.5-0.3c0.1-0.1,0.1-0.5,0.2-0.6c0,0,0.1,0,0.2,0v-0.3l0.3-0.1c0-0.1,0-0.1,0-0.2h0.3v-0.3c0.1,0,0.1,0,0.2,0c0-0.1,0,0,0-0.1
	c-0.2-0.1-0.4,0.2-0.4-0.3l0.4-0.4v-0.3l0.6-0.3c0.1-0.1-0.1-0.5-0.1-0.6s0.3-0.1,0.4-0.2c0-0.4-0.3-0.4-0.2-0.6l0.3-0.2
	c0-0.1-0.1-0.4-0.1-0.5c0.1,0,0.1,0,0.2,0c0-0.3,0-0.1-0.2-0.1v-0.3c0.1,0,0.1,0,0.2,0l-0.1-0.3c-0.1,0-0.1,0-0.2,0
	c0-0.6-0.1-1-0.1-1.6c-0.1,0-0.1,0-0.2,0c0,0,0-0.9,0.1-0.3l-0.1-0.5c-0.4-0.1-1,0.3-1.4,0.2c-0.1,0-0.2-0.4-0.2-0.4
	c-0.1,0-0.4,0.1-0.5,0.1c-0.1-0.2-0.1-0.6-0.1-0.8h-0.3c0-0.1,0-0.1,0-0.2c0-0.1,0-0.1,0-0.2c-0.1,0-1,0.3-1.2,0.4
	c0-0.3-0.1,0,0.1-0.2c0-0.2-0.1-0.5-0.1-0.6c0.2-0.9,0.1,0.9,0.1-0.2c1.5-0.3,2.7-0.3,4-0.7l-0.1,0.5c0,0,0.1,0,0.2,0
	c0,0.1,0,0.1,0,0.2c0.1,0,0.4-0.1,0.5-0.1c0.7-0.2,0.1-0.4,0.2-0.5h0.3c0.2,0.1,0.1,0.2,0.2,0.4l0.3-0.1l0.1-0.3c0.1,0,0.1,0,0.2,0
	l0.4-0.7h0.1l-0.1-0.3c-0.1,0-0.4,0-0.5,0.1l-0.1,0.3l-0.3,0.1c-0.3-0.1,0.3-0.3-0.2-0.1c0,0,0-0.1,0-0.2h0.3l0.1-0.5
	c0.4,0.1,0.3-0.5,0.1-0.3c0-0.1,0-0.1,0-0.2c-0.1,0-0.5,0.1-0.6,0.1c0-0.4,0.1-0.3,0.1-0.3c0-0.3-0.1-0.4-0.2-0.4c0-0.1,0-0.1,0-0.2
	c0.4-0.5-0.1,1.4,0.1-0.3c0,0,0.1,0,0.2,0l-0.1-0.3c0.1-0.1,0.4-0.3,0.6-0.4c0.1-0.2,0-0.2,0.1-0.5c0.1,0,0.4-0.3,0.7-0.3
	c0,0.1,0,0.1,0,0.1c0.3,0.1,0.2,0.2,0.5,0.2v-0.3c0.2-0.1,0.4-0.2,0.6-0.4c0.1,0.2-0.1,0.4-0.1,0.5l0.3-0.1c0.1,0.3-0.1,0.5,0,0.6
	l0.3-0.1c0.1,0.3,0.1,0.6,0.1,0.9c0.2,0,0.2-0.2,0.2,0.1h-0.1l0.1,0.3c-0.1,0-0.1,0-0.2,0l0.1,0.3c-0.1,0-0.1,0-0.2,0v0.3h-0.1v0.3
	c-0.1,0-0.1,0-0.1,0v0.3c-0.5,0.1-0.6,0-0.9,0c-0.1,0.3,0,0.2-0.1,0.5c0,0-0.1,0-0.2,0v0.3c0,0-0.1,0-0.2,0l0.1,0.3
	c-0.1,0-0.1,0-0.2,0l0.1,0.3c-0.1,0-0.1,0-0.2,0c0,0.1,0.1,0.3,0.1,0.5c0.3-0.1,0.4,0.2,0.8,0c0,0,0.1-0.3,0.3-0.4l0.2,0.3
	c0.3-0.1,0.7-0.1,1.1-0.2c0-0.1,0-0.1,0-0.1c0.2-0.1,0.4-0.1,0.6-0.1c0-0.1,0-0.1,0-0.2l0.3-0.1l0.1-0.3c0.6-0.2,0.2,0.4,0.5,0.2
	l0.1-0.3c0.3-0.2,0.6-0.1,0.7-0.3c0.1-0.1,0-0.6,0-0.8c0.1,0,0.1,0,0.2,0l0.1-0.3c0.1-0.1,0.3-0.1,0.4-0.2c0.1-0.2,0-0.2,0.1-0.5
	c0.1,0,0.1,0,0.2,0l-0.1-0.3c0.1-0.2,0.3-0.1,0.4-0.2c0.1-0.1-0.1-0.3-0.1-0.5c0,0,0.1,0,0.2,0c0-0.1,0-0.1,0-0.2
	c0.1-0.1,0.3-0.4,0.3-0.4c0.1,0,0.1,0,0.2,0l-0.1-0.3c0.1,0,0.1,0,0.2,0l-0.1-0.3c0.1,0,0.1,0,0.2,0v-0.3c0.1,0,0.1,0,0.1,0
	c0-0.4-0.2-0.4-0.2-0.4c-0.1-0.2,0-0.4-0.1-0.6c-0.1,0-0.1,0-0.2,0c-0.1-0.6,0.1,0.2,0.1-0.2c0.1-0.5-0.2-1-0.1-1.4
	c0-0.2,0.2,0.1,0.2,0.1l0.3-0.1c0-0.2-0.1-0.4-0.1-0.6C307.1,29.1,307.4,28.9,307.4,28.9z"/>
<path d="M291.2,30.8c0.2,0.4,0.2,0.6,0.3,1c0,0,0.1,0,0.2,0c0.1,0.3,0,0.5,0.1,0.8c0,0,0.1,0,0.2,0c0,0.1,0,0.1,0,0.2
	c-0.2,0.1-0.2,0.2-0.1,0.5c0.1,0,0.1,0,0.2,0c0,0.3,0.1,0.5,0.1,0.8c0.1,0,0.1,0,0.2,0c0.1,0.3,0,0.1-0.1,0.2c0,0.3,0,0.5,0.1,0.8
	l0.3-0.1c0.1,0.4-0.2,0.2-0.1,0.6c0.1,0,0.1,0,0.2,0c0.2,0.2,0.1,0.5,0.3,0.7c0,0,0.3,0.1,0.4,0.3c0.2-0.2,0.3,0.9,0.3,1
	c-0.1,0-0.3-0.3-0.5-0.1c0,0,0.1,0.5,0.1,0.6c-0.1,0-0.3,0.1-0.5,0.1c0-0.1,0-0.1,0-0.2l-0.3,0.1c-0.1-0.1-0.1-0.3-0.2-0.3
	s-0.1,0-0.2,0c-0.1-0.1,0-0.5-0.1-0.6H292v-0.3c-0.1,0-0.1,0-0.2,0c-0.1-0.3-0.1-0.8-0.2-1.1c-0.1-0.6,0,0.1-0.2-0.3
	c-0.2-0.3,0.1-0.5,0.1-0.5c0-0.3-0.1-0.5-0.1-0.8c0,0,0.6-0.4,0.1-0.3c-0.2,0-0.3-0.3-0.4-0.4c0.3,0.1,0.1-0.4,0.1-0.5
	c-0.8,0.1,0.4,0.1-0.2-0.1c-0.1,0.1-0.3,0.3-0.4,0.4c-0.1-0.2,0-0.3-0.1-0.5l-0.3-0.1l-0.1-0.3c0.1,0,0.1,0,0.2,0
	c0-0.1,0.1-0.3,0.1-0.3c0.2-0.1,0.3,0,0.5-0.1c0-0.1,0-0.1,0-0.2c0.2-0.1,0.2-0.2,0.4-0.4c-0.1-0.1-0.2-0.1-0.2-0.3
	c0.1,0,0.1,0,0.2,0L291.2,30.8C291.1,30.8,291.1,30.8,291.2,30.8z"/>
<g>
	<path d="M104.2,90.2c0,0.1,0,0.1,0,0.2c0.5-0.1-0.1,0,0.2,0.1c-0.1,0-0.4,0-0.5,0v-0.3c0.1,0,0.1,0,0.2,0
		C104.1,90.2,104.1,90.2,104.2,90.2z"/>
	<path d="M103.6,89.3v0.3h-0.3C103.6,89.5,103,89.3,103.6,89.3z"/>
	<path d="M95.4,85.3l-0.2,0.4c0,0-0.1,0-0.1-0.1C95.1,85.6,94.9,84.8,95.4,85.3z"/>
	<path d="M102,87.2v0.3c-0.1,0-0.3,0-0.5,0c0,0-0.1-0.3-0.2-0.3C101.5,87.2,101.8,87.2,102,87.2z"/>
	<path d="M98.3,85.5L98.3,85.5c0.1,0.2,0.2,0.7-0.4,0.3C98,85.7,98.1,85.3,98.3,85.5z"/>
	<path d="M105.3,78.4c0,0-0.1,0.4-0.1,0.5c0.1,0,0.1,0,0.2,0C105.4,78.8,105.6,78.3,105.3,78.4z"/>
	<path d="M91.4,69.3c0,0-0.4-0.1-0.5-0.1c0,0.2-0.1,0.4-0.1,0.6c-0.1,0-0.1,0-0.2,0c-0.1,0.3-0.1,0.6-0.2,0.9c0,0,0.1,0,0.2,0
		c0,0.2-0.1,0.5-0.1,0.8c0.1,0,0.1,0,0.2,0l-0.1,0.3c0.1,0,0.1,0,0.2,0v0.3h0.1v0.3c0,0,0.1,0,0.2,0L91,72.9c0.1,0,0.1,0,0.2,0
		l-0.1,0.3c0.1,0,0.1,0,0.2,0v0.3c0.1,0,0.1,0,0.2,0c0,0.4-0.3,0.6-0.3,0.7c0.1,0,0.1,0,0.2,0c0.1,0.3,0,0.2,0.1,0.5
		c0.1,0,0.1,0,0.2,0V75c0.1,0,0.1,0,0.2,0c0,0.3-0.2,0.6-0.2,0.9c0.1,0,0.1,0,0.2,0c0.1,0.3,0,0.3,0.1,0.5c0.1,0,0.1,0,0.2,0v0.3
		c0.1,0.1,0.3,0,0.5,0.1l0.1,0.3c0.3,0.2,0.9,0,1.2,0.2c0,0.1,0,0.1,0,0.2c0.3,0.2,0.1,0.2,0.2,0.5c0.1,0,0.1,0,0.2,0v0.3
		c0,0,0.1,0,0.2,0c0,0.2-0.1,0.4-0.1,0.6c0.6,0.2,1,0.2,1.7,0.4v0.1l0.3,0.1c0,0.1,0,0.1,0,0.2c0.3,0.1,0-0.2,0.3-0.1
		c0,0.1,0,0.1,0,0.1l0.3,0.1c0,0.1,0,0.1,0,0.2h0.3v0.3c0.1,0.1,0.4,0,0.5,0.1v0.3c0,0,0.1,0,0.2,0V81c0.1,0,0.1,0,0.2,0l-0.1,0.3
		c0,0.1,0.2,0.1,0.3,0.2v0.3l0.3,0.2l-0.1,0.3c0.1,0,0.1,0,0.2,0c0,0.1,0,0.1,0,0.2c0.3,0.2,0.3,0.5,0.7,0.7c0,0.1,0,0.1,0,0.2
		l0.3,0.1c-0.1,0.1,0,0.3-0.1,0.5l-0.3-0.1c-0.2,0.3,0.7-0.1,0.2-0.1c0,0,0,0.1-0.1,0.1L98.2,84c-0.1,0.1-0.4,0.5-0.4,0.5
		c-0.1,0-0.3-0.2-0.4-0.2c0,0-0.2,0.2-0.3,0.2l-0.3-0.2c0,0,0,0.1-0.1,0.1c-0.3,0-0.7-0.4-1-0.4l-0.2,0.3l-0.3-0.2l-0.3,0.2
		c-0.3,0-0.5-0.2-0.9-0.3l-0.1,0.1c-0.1,0-0.3-0.2-0.4-0.2c0,0.1-0.1,0.1-0.1,0.1c-0.1,0-0.1,0-0.3,0c0,0.3-0.3,0.4-0.4,0.7l0.4,0.8
		c-0.1,0.6,0.1-0.3-0.2,0.1c-0.1,0.1-0.1,0.4-0.2,0.6c0-0.2-0.5,0.4,0,0.6c-0.1,0.2-0.3,0.5-0.3,0.6l0.3,0.2l-0.1,0.3l0.3,0.2
		c0.1,0.2,0,0.4,0,0.6c0,0,0.1,0,0.2,0c0,0.2,0,0.4,0,0.6c0.1,0,0.1,0,0.2,0c0,0.1-0.1,0.3-0.1,0.4c0.1,0,0.1,0,0.2,0
		c0,0.1-0.1,0.3-0.1,0.4h0.1c0,0.1-0.1,0.3-0.1,0.4c0,0,0.1,0,0.2,0l-0.1,0.3c0.1,0,0.1,0,0.2,0c0,0.1-0.1,0.4-0.1,0.5
		c0.1,0,0.1,0,0.1,0c0,0.3-0.2,0.6-0.2,0.9c0.1,0,0.1,0,0.2,0c-0.1,0.3-0.1,0.6-0.2,0.9h-0.1c-0.1,0.1-0.2,0.5-0.3,0.6l-0.3,0.1
		l-0.1,0.3c-0.1,0-0.1,0-0.1,0c-0.1,0.1,0,0.5-0.2,0.6L92,94.6c0,0-0.2,0.2-0.2,0.3c-0.1,0-0.1,0-0.2,0c-0.1,0.1,0,0.4-0.1,0.5
		c0,0-0.4-0.1-0.5-0.1c0,0.1-0.2,0.3-0.2,0.3c0.4,0,0.7,0.2,1.1,0.3l0.2-0.3c0.1,0,0.3,0.2,0.5,0.1c0.1-0.1,0.1-0.5,0.3-0.6
		c0.3,0,0.6,0.4,1,0.4l0.1-0.3c0.3,0,0,0.3,0.4,0.3c0,0,0.2-0.2,0.2-0.3l0.3,0.1c0.1-2.6,0.1,2.3-0.1-0.2c0-0.4,0.2-0.7,0.1-1.1
		l-0.3-0.1c0-0.1-0.2-0.4-0.2-0.4c0-0.2,0.2-0.3,0.1-0.4c-0.1,0-0.1,0-0.2,0c0-0.5,0.3-1.2,0.4-1.7c0.1,0,0.1,0,0.1,0
		c0.1-0.3,0.1,0-0.1-0.2c0-0.1,0.1-0.4,0.1-0.4c-0.1,0-0.1,0-0.2,0c0-0.6,0.2-0.9,0.2-1.4h-0.1c0-0.3,0-0.3,0-0.6
		c-0.1,0-0.1,0-0.2,0c0-0.2,0.1-0.5,0-0.6L94.2,88c0-0.2,0.1-0.4,0.2-0.6c0,0,0.1,0,0.2,0c0-0.1,0-0.1,0-0.2c0.1,0,0.4,0,0.5,0
		c0.1,0.2,0-0.9,0-0.6c0.1,0,0.1,0,0.1,0L95,87.1c0,0,0.3-0.1,0.3-0.4c-0.1,0-0.1,0-0.1,0l0.1-0.3c0,0-0.1,1.1-0.2,1
		c0-0.2,0-0.4,0-0.6H95c0-0.1,0.1-0.4,0.1-0.4s-0.2-0.2-0.3-0.2c0-0.1,0-0.4,0-0.5c0.1,0.1,0.1,0.2,0.2,0.4c0,0,0,0.1-0.1,0.1
		c0.2,0.3,0.1,0.6,0.4,0.8l0.4-0.3c0.2,0.1,0.5,0.3,0.7,0.4c0,0,0-0.1,0.1-0.1s0.3,0.2,0.4,0.2c0,0,0,0.1-0.1,0.1
		c0.3,0.3,0.5,0.3,0.7,0.6l0.3-0.5c0.6,0.3-0.2-0.5,0-0.1l-0.1,0.1c0.3,0.3,1.1,0.2,1.5,0.4c-0.1-0.4-0.5,0.4-0.7,0.2
		c0.1-0.2,0.4-0.6,0.5-0.8c0,0,0.5,0.2,0.5,0.3c0,0.1,0,0.1,0,0.2c0.4,0.3,0.1,0.2,0.2,0.7l0.7,0.2c0.1,0.4-0.2,0.2-0.1,0.5l0.3,0.1
		c0.1,0.2,0,0.6,0,0.8c0.1,0,0.1,0,0.2,0c0,0.1,0,0.3,0,0.5c0.1,0,0.1,0,0.2,0v0.3h0.3c0.1,0,0.1,0.3,0.2,0.5c0,0,0.4,0.2,0.5,0.3
		v0.3c0.1,0,0.1,0,0.2,0c0.1,0.3,0.1,0.5,0.3,0.6c0,0.1,0,0.1,0,0.2c0.1,0.1,0.3-0.1,0.5,0c0,0,0.1,0.2,0.2,0.3h0.3
		c0.1,0.1,0.1,0.4,0.2,0.4s0.1,0,0.2,0c0.1,0.3,0,0.7,0,0.9c0,0-0.1,0-0.2,0c0,0.4,0.2,0.6,0.2,1.1c0.3-0.2,0.1-0.3,0.1-0.6h0.3
		c0.1,0-0.1,0.4,0.2,0.1v0.3c0,0.1,0,0.1,0,0.2c-0.1,0-0.4,0-0.5,0c0.1,0.6,0.1,1,0.2,1.7h0.1c0.1,0.5,0,1.1,0.1,1.6
		c0.1,0,0.1,0,0.2,0c0.1,0.1,0,0.3,0,0.5c0.1,0,0.1,0,0.1,0c0.1,0.3,0.1,0.3,0.2,0.6c0.1,0,0.1,0,0.2,0v0.3c0.1,0,0.1,0,0.2,0
		c0.1,0.3,0.1,0.6,0.2,0.9l0.3,0.1c0.1,0.2,0.1,0.4,0.2,0.6c0.1,0,0.1,0,0.2,0v0.3l0.3,0.1c0,0.1,0,0.1,0,0.2
		c0.3-0.1,0.2,0.1,0.3,0.1h0.3c0-0.1,0.1-0.4,0.1-0.5l0.3-0.2c0-0.2,0-0.7-0.1-0.9h-0.1c-0.1,0-0.1-0.2-0.2-0.3c0,0-0.1,0-0.2,0
		v-0.3l-0.3-0.1c0-0.1,0-0.1,0-0.2c-0.3-0.1-0.2-0.2-0.5-0.3c0-0.1,0-0.1,0-0.2c0,0-0.4,0-0.5,0c-0.1-0.4-0.1-0.3-0.2-0.8
		c0,0-0.1,0-0.2,0c0-0.1,0-0.1,0-0.2c0.4-0.2,0-0.8,0.1-1.2l0.6-0.3c0.1-0.4-0.3-1,0.1-1.2c0-0.1,0-0.1,0-0.2c-0.1,0-0.1,0-0.2,0
		c-0.1-0.3,0-0.5,0-0.8h-0.1c0-0.1,0-0.3,0-0.5c-0.1,0-0.1,0-0.2,0c-0.1-0.1,0-0.3,0-0.5c-0.1,0-0.1,0-0.2,0v-0.3l-0.5-0.3
		c-0.1-0.1-0.1-0.3-0.2-0.3c-0.1-0.1-0.4,0-0.5-0.1s0-0.5,0-0.6c-0.2-0.1-0.1,0.2-0.2-0.1c0.1-0.1,0.2,0.1,0.1-0.2c0,0-0.1,0-0.2,0
		c0-0.1,0-0.4,0-0.5c0.3-0.1,0.4,0,0.6-0.2c0,0-0.4-0.5-0.2-0.6c0,0,0,0.2-0.2-0.3c0,0-0.1,0-0.2,0v-0.3c0,0-0.1,0-0.2,0v-0.3
		c-0.1,0-0.1,0-0.2,0v-0.3c-0.1,0-0.1,0-0.2,0c-0.1-0.2-0.1-0.5-0.2-0.6l-0.5-0.3c-0.1-0.1-0.1-0.5-0.2-0.6c-0.1,0-0.1,0-0.2,0v-0.3
		l-0.3-0.1c0-0.1,0-0.1,0-0.2h-0.3v-0.3c-0.1,0-0.1,0-0.2,0c0-0.1,0,0,0-0.1c0.2-0.1,0.4,0.2,0.4-0.3l-0.4-0.4l0.1-0.3l-0.6-0.2
		c-0.1-0.1,0.1-0.5,0.1-0.6s-0.3-0.1-0.4-0.2c0-0.4,0.3-0.4,0.3-0.6l-0.3-0.2c0-0.1,0.1-0.4,0.1-0.5c0,0-0.1,0-0.2,0
		c0-0.3,0-0.1,0.2-0.1v-0.3h-0.1v-0.3c0,0,0.1,0,0.2,0c0-0.6,0.1-1,0.1-1.6h0.1c0,0,0-0.9-0.1-0.3l0.1-0.5c0.4-0.1,1,0.3,1.4,0.2
		c0.1,0,0.2-0.4,0.2-0.4c0.1,0,0.4,0.1,0.5,0.1c0.1-0.2,0.1-0.6,0.1-0.8h0.3c0,0,0-0.1,0-0.2s0-0.1,0-0.2c0.1,0,1,0.3,1.2,0.4
		c0-0.3,0.1,0-0.1-0.2c0-0.2,0.1-0.5,0.1-0.6c-0.2-0.9-0.1,0.9-0.1-0.2c-1.5-0.3-2.7-0.3-4-0.7l0.1,0.5c0,0-0.1,0-0.2,0
		c0,0.1,0,0.1,0,0.1c-0.1,0-0.4-0.1-0.5-0.1c-0.7-0.2-0.1-0.4-0.2-0.5l-0.3-0.1c-0.2,0.1-0.1,0.2-0.2,0.4h-0.3l-0.1-0.3
		c-0.1,0-0.1,0-0.2,0l0-0.8h-0.1v-0.3c0.1,0,0.4,0,0.5,0.1l0.1,0.3h0.3c0.3,0-0.3-0.3,0.2-0.1c0-0.1,0-0.1,0-0.2h-0.3l-0.1-0.5
		c-0.4,0.1-0.3-0.5-0.1-0.3c0-0.1,0-0.1,0-0.2c0.1,0,0.5,0.1,0.6,0.1c0-0.4-0.1-0.3-0.1-0.3c0-0.3,0.1-0.4,0.2-0.4
		c0-0.1,0-0.1,0-0.2c-0.4-0.5,0.1,1.4-0.1-0.3c-0.1,0-0.1,0-0.2,0v-0.3c-0.1-0.1-0.4-0.3-0.6-0.4c-0.1-0.2,0-0.2-0.1-0.5
		c-0.1,0-0.4-0.3-0.7-0.3c0,0.1,0,0.1,0,0.1c-0.3,0.1-0.2,0.2-0.5,0.2v-0.3c-0.2-0.1-0.4-0.2-0.6-0.4c-0.1,0.2,0.1,0.4,0.1,0.5
		L97,73.2c-0.1,0.3,0.1,0.5,0,0.6l-0.3-0.1c-0.1,0.3-0.1,0.6-0.1,0.9c-0.2,0-0.2-0.2-0.2,0.1c0.1,0,0.1,0,0.2,0L96.5,75
		c0.1,0,0.1,0,0.2,0l-0.1,0.3c0.1,0,0.1,0,0.1,0v0.3c0.1,0,0.1,0,0.2,0v0.3c0.1,0,0.1,0,0.2,0L97,76.5c0.5,0.1,0.6,0,0.9,0
		c0.1,0.3,0,0.2,0.1,0.5h0.1v0.3c0.1,0,0.1,0,0.2,0v0.3c0,0,0.1,0,0.2,0L98.3,78c0.1,0,0.1,0,0.2,0c0,0.1-0.1,0.3-0.1,0.5
		c-0.4-0.1-0.4,0.2-0.8,0c0,0-0.1-0.3-0.3-0.4l-0.2,0.3c-0.3-0.1-0.7-0.1-1.1-0.2c0-0.1,0-0.1,0-0.2c-0.2-0.1-0.4-0.1-0.6-0.1
		c0-0.1,0-0.1,0-0.2h-0.3L95,77.4c-0.6-0.2-0.2,0.4-0.5,0.2l-0.1-0.3c-0.3-0.2-0.6-0.1-0.7-0.3c-0.1-0.1,0-0.6,0-0.8
		c-0.1,0-0.1,0-0.2,0l-0.1-0.3c-0.1-0.1-0.3-0.1-0.4-0.2c-0.1-0.2,0-0.2-0.1-0.5c-0.1,0-0.1,0-0.2,0l0.1-0.3
		c-0.1-0.2-0.3-0.1-0.4-0.2s0.1-0.3,0.1-0.5c0,0-0.1,0-0.2,0c0-0.1,0-0.1,0-0.2c-0.1-0.1-0.3-0.4-0.3-0.4s-0.1,0-0.2,0v-0.3
		c-0.1,0-0.1,0-0.2,0V73c-0.1,0-0.1,0-0.1,0v-0.3c0,0-0.1,0-0.2,0c0-0.4,0.2-0.4,0.2-0.4c0.1-0.2,0-0.4,0.1-0.6c0.1,0,0.1,0,0.2,0
		c0.1-0.6-0.1,0.2-0.1-0.2c-0.1-0.5,0.2-1,0.1-1.4c-0.1-0.2-0.2,0.1-0.2,0.1h-0.3c0-0.2,0.1-0.5,0.1-0.6
		C91.6,69.5,91.4,69.4,91.4,69.3z"/>
	<path d="M107.6,71.2c-0.1,0.4-0.2,0.6-0.3,1c-0.1,0-0.1,0-0.2,0c-0.1,0.3,0,0.5-0.1,0.8c0,0-0.1,0-0.2,0c0,0.1,0,0.1,0,0.2
		c0.2,0.1,0.2,0.2,0.1,0.5c-0.1,0-0.1,0-0.2,0c0,0.3-0.1,0.5-0.1,0.8c-0.1,0-0.1,0-0.2,0c-0.1,0.3,0,0.1,0.1,0.2
		c0,0.3,0,0.5-0.1,0.8l-0.3-0.1c-0.1,0.4,0.2,0.2,0.1,0.6c-0.1,0-0.1,0-0.2,0c-0.1,0.2-0.1,0.5-0.3,0.7c0,0-0.3,0.1-0.4,0.3
		c-0.2-0.2-0.3,0.9-0.3,1c0.1,0,0.3-0.3,0.5-0.1c0,0-0.1,0.5-0.1,0.6c0.1,0,0.3,0.1,0.5,0.1c0-0.1,0-0.1,0-0.2h0.3
		c0.1-0.1,0.1-0.3,0.2-0.3s0.1,0,0.2,0c0.1-0.1,0-0.5,0.1-0.6c0,0,0.1,0,0.2,0v-0.3c0,0,0.1,0,0.2,0c0.1-0.3,0.1-0.8,0.2-1.1
		c0.1-0.6,0,0.1,0.2-0.3c0.2-0.3-0.1-0.5-0.1-0.5c0-0.3,0.2-0.5,0.1-0.8c0,0-0.6-0.4-0.1-0.3c0.2,0,0.3-0.3,0.4-0.4
		c-0.3,0.1-0.1-0.4-0.1-0.5c0.8,0.1-0.4,0.1,0.2-0.1c0.1,0.1,0.3,0.3,0.4,0.4c0.1-0.2,0-0.3,0.1-0.5l0.3-0.1v-0.3
		c-0.1,0-0.1,0-0.2,0c0-0.1-0.1-0.3-0.1-0.3c-0.2-0.1-0.3,0-0.5-0.1c0-0.1,0-0.1,0-0.2c-0.2-0.1-0.2-0.2-0.4-0.4
		c0.1-0.1,0.2-0.1,0.2-0.3c-0.1,0-0.1,0-0.2,0l0.1-0.3C107.7,71.2,107.6,71.2,107.6,71.2z"/>
</g>
<g>
	<path class="st13" d="M223.9,90.7c0,0.1,0,0.1,0,0.2c0.5-0.1-0.1,0,0.2,0.2c-0.1,0-0.4,0-0.5,0v-0.3c0.1,0,0.1,0,0.2,0
		C223.8,90.7,223.8,90.7,223.9,90.7z"/>
	<path class="st13" d="M223.4,89.8v0.3h-0.3C223.3,89.9,222.7,89.8,223.4,89.8z"/>
	<path class="st13" d="M215.1,85.7l-0.2,0.4c-0.1,0-0.1-0.1-0.1-0.1C214.8,86.1,214.6,85.3,215.1,85.7z"/>
	<path class="st13" d="M221.7,87.7V88c-0.1,0-0.3,0-0.5,0l-0.2-0.3C221.3,87.7,221.5,87.7,221.7,87.7z"/>
	<path class="st13" d="M218,86l-0.1,0.1c0.2,0.1,0.3,0.6-0.3,0.2C217.8,86.2,217.8,85.7,218,86z"/>
	<path class="st13" d="M225,78.9c0,0-0.1,0.4-0.1,0.5c0.1,0,0.1,0,0.1,0C225.1,79.2,225.3,78.8,225,78.9z"/>
	<path class="st13" d="M211.1,69.8c0,0-0.4-0.1-0.5-0.1c0,0.2-0.1,0.4-0.1,0.6c0,0-0.1,0-0.2,0c-0.1,0.3-0.1,0.6-0.2,0.9
		c0.1,0,0.1,0,0.2,0c0,0.2-0.1,0.5-0.1,0.8c0.1,0,0.1,0,0.2,0l-0.1,0.3c0.1,0,0.1,0,0.2,0v0.3c0,0,0.1,0,0.2,0l-0.1,0.3
		c0.1,0,0.1,0,0.2,0l-0.1,0.3c0.1,0,0.1,0,0.2,0l-0.1,0.3c0.1,0,0.1,0,0.2,0l-0.1,0.3c0.1,0,0.1,0,0.2,0c0,0.4-0.3,0.6-0.3,0.7h0.1
		c0.1,0.3,0,0.2,0.1,0.5c0,0,0.1,0,0.2,0l-0.1,0.3c0.1,0,0.1,0,0.2,0c0,0.3-0.2,0.6-0.2,0.9c0.1,0,0.1,0,0.2,0
		c0.1,0.3,0,0.3,0.1,0.5c0.1,0,0.1,0,0.2,0l-0.1,0.3c0.1,0.1,0.4,0,0.5,0.1l0.1,0.3c0.3,0.2,0.9,0,1.2,0.2c0,0,0,0.1,0,0.2
		c0.3,0.2,0.1,0.2,0.2,0.5c0,0,0.1,0,0.2,0l-0.1,0.3c0.1,0,0.1,0,0.2,0c0,0.2-0.1,0.4-0.1,0.6c0.6,0.2,1,0.2,1.7,0.4
		c0,0.1,0,0.1,0,0.2h0.3c0,0.1,0,0.1,0,0.2c0.3,0.1,0-0.2,0.3-0.1c0,0.1,0,0.1,0,0.2h0.3c0,0.1,0,0.1,0,0.2l0.3,0.1l-0.1,0.3
		c0.1,0.1,0.4,0,0.5,0.1l-0.1,0.3c0.1,0,0.1,0,0.2,0v0.3c0.1,0,0.1,0,0.2,0l-0.1,0.3c0,0.1,0.2,0.1,0.3,0.2l-0.1,0.3l0.3,0.2
		l-0.1,0.3c0.1,0,0.1,0,0.2,0c0,0.1,0,0.1,0,0.2c0.3,0.2,0.3,0.5,0.7,0.7c0,0.1,0,0.1,0,0.2h0.3c-0.1,0.1,0,0.3-0.1,0.5l-0.3-0.1
		c-0.2,0.3,0.7-0.1,0.2-0.1c0,0,0,0.1-0.1,0.1l-0.3-0.2c-0.1,0.1-0.4,0.4-0.4,0.5c-0.1,0-0.3-0.2-0.4-0.2c0,0-0.2,0.2-0.3,0.2
		l-0.3-0.2c0,0,0,0.1-0.1,0.1c-0.3,0-0.7-0.4-1-0.4l-0.2,0.3l-0.3-0.2l-0.3,0.2c-0.3,0-0.5-0.2-0.9-0.3l-0.1,0.1
		c-0.1,0-0.3-0.2-0.4-0.2l-0.1,0.1c-0.3,0-0.3-0.1-0.5-0.1c0,0.3-0.3,0.4-0.4,0.7l0.4,0.8c-0.1,0.6,0.1-0.3-0.2,0.1
		c-0.1,0.1-0.1,0.4-0.2,0.6c0-0.2-0.5,0.4,0,0.6c-0.1,0.2-0.3,0.5-0.3,0.6l0.3,0.2l-0.1,0.3l0.3,0.2c0.1,0.2,0,0.4,0,0.6
		c0,0,0.1,0,0.2,0c0,0.2,0,0.4,0,0.6c0,0,0.1,0,0.2,0c0,0.1-0.1,0.3-0.1,0.4c0.1,0,0.1,0,0.2,0c0,0.1-0.1,0.3-0.1,0.4
		c0.1,0,0.1,0,0.1,0c0,0.1-0.1,0.3-0.1,0.5c0.1,0,0.1,0,0.2,0l-0.1,0.3c0.1,0,0.1,0,0.2,0c0,0.1-0.1,0.4-0.1,0.5c0.1,0,0.1,0,0.1,0
		c0,0.3-0.2,0.6-0.2,0.9c0,0,0.1,0,0.2,0c-0.1,0.3-0.1,0.6-0.2,0.9c-0.1,0-0.1,0-0.1,0c-0.1,0.1-0.2,0.5-0.3,0.6l-0.3,0.1l-0.1,0.3
		c-0.1,0-0.1,0-0.1,0c-0.1,0.1,0,0.5-0.2,0.6l-0.3-0.1c0,0-0.2,0.2-0.2,0.3h-0.1c-0.1,0.1,0,0.4-0.1,0.4l-0.4-0.1
		c-0.1,0.1-0.2,0.3-0.2,0.3c0.4,0,0.7,0.2,1.1,0.3l0.2-0.3c0.1,0,0.4,0.2,0.4,0.1c0.1-0.1,0.1-0.5,0.3-0.6c0.3,0,0.6,0.4,1,0.4
		l0.1-0.3c0.3,0,0,0.3,0.4,0.3c0,0,0.2-0.2,0.2-0.3l0.3,0.1c0.1-2.6,0.1,2.3-0.1-0.2c0-0.4,0.2-0.7,0.1-1.1l-0.3-0.1
		c0-0.1-0.2-0.4-0.2-0.4c0-0.2,0.2-0.3,0.1-0.4c-0.1,0-0.1,0-0.1,0c0-0.5,0.3-1.2,0.4-1.7c0.1,0,0.1,0,0.1,0c0.1-0.3,0.1,0-0.1-0.2
		c0-0.1,0.1-0.4,0.1-0.5c-0.1,0-0.1,0-0.1,0c0-0.6,0.2-0.9,0.2-1.4c-0.1,0-0.1,0-0.2,0c0-0.3,0.1-0.3,0-0.6c-0.1,0-0.1,0-0.1,0
		c0-0.2,0.1-0.5,0-0.6l-0.3-0.2c0-0.2,0.1-0.4,0.2-0.6c0.1,0,0.1,0,0.2,0v-0.1c0.1,0,0.4,0,0.5,0c0.1,0.2,0-0.9,0-0.6
		c0.1,0,0.1,0,0.1,0l-0.1,0.3c0,0,0.3-0.1,0.3-0.4h-0.1l0.1-0.3c-0.1,0-0.1,1-0.2,1c0-0.2,0-0.4,0-0.6c-0.1,0-0.1,0-0.1,0
		c0-0.1,0.1-0.4,0.1-0.4s-0.2-0.2-0.3-0.2c0-0.1,0-0.4,0-0.5c0.1,0.1,0.1,0.2,0.2,0.4l-0.1,0.1c0.2,0.3,0.1,0.6,0.4,0.8l0.4-0.3
		c0.2,0.1,0.5,0.3,0.7,0.4l0.1-0.1c0.1,0,0.3,0.2,0.4,0.2c0,0,0,0.1-0.1,0.1c0.3,0.3,0.5,0.3,0.7,0.6l0.3-0.5c0.6,0.3-0.2-0.5,0-0.1
		l-0.1,0.1c0.3,0.3,1.1,0.2,1.5,0.4c-0.1-0.3-0.5,0.4-0.7,0.2c0.1-0.2,0.4-0.5,0.5-0.8c0.1,0,0.5,0.3,0.5,0.3s0,0.1,0,0.2
		c0.4,0.3,0.1,0.2,0.2,0.7l0.7,0.2c0.1,0.4-0.2,0.2-0.1,0.5l0.3,0.1c0.1,0.2,0,0.6,0,0.8c0.1,0,0.1,0,0.2,0c0,0.1,0,0.3,0,0.5
		c0.1,0,0.1,0,0.2,0v0.3h0.3c0.1,0,0.1,0.3,0.2,0.5c0,0,0.4,0.2,0.5,0.3v0.3c0.1,0,0.1,0,0.2,0c0.1,0.3,0.1,0.5,0.3,0.6
		c0,0.1,0,0.1,0,0.2c0.1,0.1,0.4-0.1,0.5,0c0,0,0.1,0.2,0.2,0.3h0.3c0.1,0.1,0.1,0.4,0.2,0.5c0.1,0,0.1,0,0.2,0c0.1,0.3,0,0.7,0,0.9
		c-0.1,0-0.1,0-0.2,0c0,0.4,0.2,0.6,0.2,1.1c0.3-0.2,0.1-0.3,0.1-0.6h0.3c0.1,0-0.1,0.4,0.2,0.1V95c0,0.1,0,0.1,0,0.2
		c-0.1,0-0.4,0-0.5,0c0.1,0.6,0.1,1,0.2,1.7c0.1,0,0.1,0,0.2,0c0.1,0.5,0,1.1,0.1,1.5c0,0,0.1,0,0.2,0c0.1,0.1,0,0.3,0,0.5
		c0.1,0,0.1,0,0.2,0c0.1,0.3,0.1,0.3,0.2,0.6c0,0,0.1,0,0.2,0v0.3h0.1c0.2,0.3,0.1,0.6,0.2,0.9l0.3,0.1c0.1,0.2,0.1,0.4,0.2,0.6
		c0.1,0,0.1,0,0.2,0v0.3l0.3,0.1c0,0.1,0,0.1,0,0.2c0.3-0.1,0.2,0.1,0.3,0.1h0.3c0-0.1,0.1-0.4,0.1-0.5l0.3-0.2c0-0.2,0-0.7-0.1-0.9
		c-0.1,0-0.1,0-0.2,0c-0.1,0-0.1-0.2-0.2-0.3c-0.1,0-0.1,0-0.2,0v-0.3l-0.3-0.1c0,0,0-0.1,0-0.2c-0.3-0.1-0.2-0.2-0.5-0.3
		c0-0.1,0-0.1,0-0.2c0,0-0.4,0-0.5,0c-0.1-0.4-0.1-0.3-0.2-0.8c-0.1,0-0.1,0-0.2,0c0-0.1,0-0.1,0-0.2c0.4-0.2,0-0.8,0.1-1.2l0.6-0.3
		c0.1-0.4-0.3-1,0.1-1.3c0-0.1,0-0.1,0-0.2c-0.1,0-0.1,0-0.2,0c-0.1-0.3,0-0.5,0-0.8c-0.1,0-0.1,0-0.2,0c0-0.2,0-0.3,0-0.5
		c-0.1,0-0.1,0-0.2,0c-0.1-0.1,0-0.3,0-0.5c-0.1,0-0.1,0-0.2,0V93l-0.5-0.3c-0.1-0.1-0.1-0.3-0.2-0.3c-0.1-0.1-0.4,0-0.5-0.1
		s0-0.5,0-0.6c-0.2-0.1-0.1,0.2-0.2-0.1c0.1-0.1,0.2,0.1,0.1-0.2c-0.1,0-0.1,0-0.2,0c0-0.1,0-0.4,0-0.5c0.4-0.1,0.4,0,0.6-0.2
		c0,0-0.4-0.5-0.2-0.6c0,0,0,0.2-0.2-0.3c0,0-0.1,0-0.2,0v-0.3c-0.1,0-0.1,0-0.2,0v-0.3c-0.1,0-0.1,0-0.2,0v-0.3c-0.1,0-0.1,0-0.2,0
		c-0.1-0.2-0.1-0.5-0.2-0.6l-0.5-0.3c-0.1-0.1-0.1-0.5-0.2-0.6c-0.1,0-0.1,0-0.2,0v-0.3l-0.3-0.1c0-0.1,0-0.1,0-0.2h-0.3v-0.3
		c0,0-0.1,0-0.2,0c0-0.1,0,0,0-0.1c0.2-0.1,0.4,0.2,0.4-0.3l-0.4-0.4l0.1-0.3l-0.6-0.3c-0.1-0.1,0.1-0.5,0.1-0.6s-0.3-0.1-0.4-0.2
		c0-0.4,0.3-0.4,0.3-0.6l-0.3-0.2c0-0.1,0.1-0.4,0.1-0.5h-0.1c0-0.3,0-0.1,0.2-0.1v-0.3c-0.1,0-0.1,0-0.2,0l0.1-0.3
		c0.1,0,0.1,0,0.1,0c0-0.6,0.1-1,0.1-1.6c0.1,0,0.1,0,0.2,0c0,0,0-0.9-0.1-0.3l0.1-0.5c0.4-0.1,1,0.3,1.4,0.2c0.1,0,0.2-0.4,0.2-0.4
		c0.1,0,0.4,0.1,0.5,0.1c0.1-0.2,0.1-0.6,0.1-0.8l0.3,0.1c0-0.1,0-0.1,0-0.1c0-0.1,0-0.1,0-0.2c0.1,0,1,0.3,1.2,0.4
		c0-0.3,0.1,0-0.1-0.2c0-0.2,0.1-0.5,0.1-0.6c-0.2-0.9-0.1,0.9-0.1-0.2c-1.5-0.3-2.7-0.3-4-0.7l0.1,0.5h-0.1c0,0.1,0,0.1,0,0.1
		c-0.1,0-0.4-0.1-0.5-0.1c-0.7-0.2-0.1-0.4-0.2-0.5l-0.3-0.1c-0.2,0.1-0.1,0.2-0.2,0.4l-0.3-0.1l-0.1-0.3c-0.1,0-0.1,0-0.2,0
		l-0.4-0.7c-0.1,0-0.1,0-0.2,0v-0.3c0.1,0,0.4,0,0.5,0.1l0.1,0.3h0.3c0.3,0-0.3-0.3,0.2-0.1v-0.1h-0.3l-0.1-0.5
		c-0.4,0.1-0.3-0.5-0.1-0.3c0-0.1,0-0.1,0-0.2c0.2,0,0.5,0.1,0.6,0.1c0-0.4-0.1-0.3-0.1-0.3c0-0.3,0.1-0.4,0.2-0.4
		c0-0.1,0-0.1,0-0.2c-0.4-0.5,0.1,1.4-0.1-0.3c-0.1,0-0.1,0-0.2,0l0.1-0.3c-0.1-0.1-0.4-0.3-0.6-0.4c-0.1-0.2,0-0.2-0.1-0.5
		c-0.1,0-0.4-0.3-0.7-0.3c0,0,0,0.1,0,0.2c-0.3,0.1-0.2,0.2-0.5,0.2v-0.3c-0.2-0.1-0.4-0.3-0.6-0.4c-0.1,0.2,0.1,0.4,0.1,0.5
		l-0.3-0.1c-0.1,0.3,0.1,0.5,0.1,0.6h-0.3c-0.1,0.3-0.1,0.6-0.2,0.9c-0.2,0-0.2-0.2-0.2,0.1c0.1,0,0.1,0,0.2,0V75c0.1,0,0.1,0,0.1,0
		v0.3c0.1,0,0.1,0,0.1,0l-0.1,0.3c0.1,0,0.1,0,0.2,0l-0.1,0.3c0.1,0,0.1,0,0.2,0l-0.1,0.3c0.5,0.1,0.6,0,0.9,0
		c0.1,0.3,0,0.2,0.1,0.5h0.1l-0.1,0.3c0.1,0,0.1,0,0.2,0v0.3h0.1l-0.1,0.3c0.1,0,0.1,0,0.2,0c0,0.1-0.1,0.3-0.1,0.5
		c-0.3-0.1-0.4,0.2-0.8,0c0,0-0.1-0.3-0.3-0.4l-0.2,0.3c-0.3-0.1-0.7-0.1-1.1-0.2c0-0.1,0-0.1,0-0.2c-0.2-0.1-0.4-0.1-0.6-0.1
		c0-0.1,0-0.1,0-0.2h-0.3l-0.1-0.3c-0.6-0.2-0.2,0.4-0.5,0.2l-0.1-0.3c-0.3-0.2-0.6-0.1-0.7-0.3c-0.1-0.1,0-0.6,0-0.8
		c0,0-0.1,0-0.2,0l-0.1-0.3c-0.1-0.1-0.3-0.1-0.4-0.2c-0.1-0.2,0-0.2-0.1-0.5c0,0-0.1,0-0.2,0v-0.3c-0.1-0.2-0.3-0.1-0.4-0.2
		c-0.1-0.1,0.1-0.4,0.1-0.5c-0.1,0-0.1,0-0.1,0c0-0.1,0-0.1,0-0.2c-0.1-0.1-0.3-0.4-0.3-0.4s-0.1,0-0.2,0l0.1-0.3
		c-0.1,0-0.1,0-0.2,0v-0.3c-0.1,0-0.1,0-0.1,0v-0.3H211c0-0.4,0.2-0.4,0.2-0.4c0.1-0.2,0-0.4,0.1-0.6c0.1,0,0.1,0,0.2,0
		c0.1-0.6-0.1,0.2-0.1-0.2c-0.1-0.5,0.2-1,0.1-1.4c-0.1-0.2-0.2,0.1-0.2,0.1l-0.3-0.1c0-0.2,0.1-0.5,0.1-0.6
		C211.3,70,211.1,69.8,211.1,69.8z"/>
	<path class="st13" d="M227.3,71.7c-0.1,0.4-0.2,0.6-0.3,1c-0.1,0-0.1,0-0.2,0c-0.1,0.3,0,0.5-0.1,0.8c0,0-0.1,0-0.2,0
		c0,0.1,0,0.1,0,0.2c0.2,0.1,0.2,0.2,0.1,0.5c-0.1,0-0.1,0-0.2,0c0,0.3-0.1,0.5-0.1,0.8h-0.1c-0.1,0.3,0,0.1,0.1,0.2
		c0,0.3,0,0.5-0.1,0.8h-0.3c-0.1,0.4,0.2,0.2,0.1,0.6c-0.1,0-0.1,0-0.2,0c-0.1,0.2-0.1,0.5-0.3,0.7c0,0-0.3,0.1-0.4,0.3
		c-0.2-0.2-0.3,0.9-0.3,1c0.1,0,0.3-0.3,0.5-0.1c0,0-0.1,0.5-0.1,0.6c0.1,0,0.3,0.1,0.5,0.1c0-0.1,0-0.1,0-0.2l0.3,0.1
		c0.1-0.1,0.1-0.3,0.2-0.3c0.1,0,0.1,0,0.1,0c0.1-0.1,0-0.5,0.1-0.6c0,0,0.1,0,0.2,0v-0.3c0.1,0,0.1,0,0.1,0
		c0.1-0.3,0.1-0.8,0.2-1.1c0.1-0.6,0,0.1,0.2-0.3c0.2-0.3-0.1-0.5-0.1-0.5c0-0.3,0.1-0.5,0.1-0.8c0,0-0.6-0.4-0.1-0.3
		c0.2,0,0.3-0.3,0.4-0.4c-0.3,0.1-0.1-0.4-0.1-0.5c0.8,0.1-0.4,0.1,0.2-0.1c0.1,0.1,0.3,0.3,0.4,0.4c0.1-0.2,0-0.3,0.1-0.5l0.3-0.1
		l0.1-0.3c-0.1,0-0.1,0-0.2,0c0-0.1-0.1-0.3-0.1-0.3c-0.2-0.1-0.3,0-0.5-0.1v-0.1c-0.2-0.1-0.2-0.2-0.4-0.4c0.1-0.1,0.2-0.1,0.2-0.3
		c-0.1,0-0.1,0-0.2,0l0.1-0.3C227.4,71.7,227.4,71.7,227.3,71.7z"/>
</g>
<path class="st13" d="M226.7,84.2"/>
<path class="st14" d="M231.5,74.7c0,0,13.3-21.8,54.6-26.1"/>
<linearGradient id="SVGID_2_" gradientUnits="userSpaceOnUse" x1="149.85" y1="21.644" x2="149.85" y2="30.3353" gradientTransform="matrix(1 0 0 -1 0 255.53)">
	<stop  offset="0" style="stop-color:#FFFFFF"/>
	<stop  offset="1" style="stop-color:#FFFFFF;stop-opacity:0"/>
</linearGradient>
<rect x="134.8" y="223.3" class="st15" width="30.1" height="16.8"/>
<linearGradient id="SVGID_3_" gradientUnits="userSpaceOnUse" x1="289.65" y1="19.9502" x2="289.65" y2="28.6394" gradientTransform="matrix(1 0 0 -1 0 255.53)">
	<stop  offset="0" style="stop-color:#FFFFFF"/>
	<stop  offset="1" style="stop-color:#FFFFFF;stop-opacity:0"/>
</linearGradient>
<rect x="274.6" y="225" class="st16" width="30.1" height="16.8"/>
<linearGradient id="SVGID_4_" gradientUnits="userSpaceOnUse" x1="424.05" y1="19.9502" x2="424.05" y2="28.6394" gradientTransform="matrix(1 0 0 -1 0 255.53)">
	<stop  offset="0" style="stop-color:#FFFFFF"/>
	<stop  offset="1" style="stop-color:#FFFFFF;stop-opacity:0"/>
</linearGradient>
<rect x="409" y="225" class="st17" width="30.1" height="16.8"/>
<g>
	<polygon class="st18" points="13.8,97 39.6,111 13.8,125 	"/>
</g>
<g>
	<g>
		<path class="st19" d="M242.8,87.5c0.6-8.2,9.7-13.9,17.2-14.8c8.2-1,16,2.8,19.4,10.4c0.4,0.9,2.7,0.2,2.3-0.6
			c-3.9-8.9-13.4-12.5-22.7-11c-8,1.3-18,7.4-18.6,16.2C240.4,88.8,242.7,88.3,242.8,87.5L242.8,87.5z"/>
	</g>
</g>
<g>
	<g>
		<path class="st19" d="M269.3,80.6c3.9,0.6,7.3,2.8,11.2,3.2c0.5,0,1.8-0.2,1.9-0.8c0.4-3.9-0.4-7.9,0.7-11.8
			c0.1-0.5-2.1-0.2-2.3,0.4c-1.1,3.9-0.3,8-0.7,12c0.6-0.3,1.3-0.5,1.9-0.8c-3.9-0.4-7.3-2.6-11.2-3.2
			C270.2,79.5,268.1,80.4,269.3,80.6L269.3,80.6z"/>
	</g>
</g>
<g>
	<g>
		<g>
			<g>
				<path class="st20" d="M46.5,34L29.8,3.6l0,0V3.5c-1.3-2.2-3.5-3.5-6-3.5s-4.8,1.4-6,3.5l0,0l0,0L0.9,34.1
					c-1.2,2.1-1.1,4.6,0.1,6.6c1.2,2.1,3.6,3.4,6.1,3.3H6.9h33.7h-0.1c2.5,0.1,4.8-1.2,6-3.4C47.7,38.6,47.7,36.1,46.5,34z"/>
			</g>
			<path class="st6" d="M43.1,35.8c0.5,0.9,0.6,2,0,2.9c-0.5,0.9-1.5,1.5-2.6,1.5H6.9c-1,0-2-0.4-2.6-1.4c-0.5-0.9-0.5-2,0-2.9
				L21.2,5.3c0.5-0.9,1.4-1.5,2.5-1.5s2,0.6,2.5,1.5L43.1,35.8z"/>
		</g>
	</g>
	<path class="st19" d="M34.6,22c-0.3-0.4-1.7,0-1.8-0.6s-0.3-2.3-1.4-1.4s-0.4,1.8-0.6,2.1c-0.3,0.2-1.2,0.8-1.9,1.3
		c-0.7-0.6-1.6-3.2-5.8-2.8c-2.7,0.3-3.3,1.5-3.8,1.5c-0.4-0.4-1.1-0.9-0.7-1.9c0.5-1,0.8-2.4-0.1-2.6c-0.9-0.1-1.7,0.2-1.8,0.7
		c-0.1,0.5,0,1.2-0.7,1.2c-0.5,0-1,0.4-1,1.2c0.2,0.8,0.4,1,0.8,0.9c0.4-0.1,1.1-0.3,1.2,0.2c0.1,0.4,0.7,1,0.8,1.6
		c-0.4,0.7-1.2,1.7-1.3,2.9c-0.2,1.8,0.7,2.9,0.3,3.2c-0.4,0.3-2.4,2.4-2.9,2.4c-0.6,0-2.2-1.2-2.8-0.3c-0.6,0.9-0.7,1.7,0,2.1
		c0.7,0.3,1.1,0.2,1.2,0.9c0.1,0.7,0.8,1.1,1.5,0.8s1.2-1,1.2-1.5s0.2-1.1,0.7-1.4c0.5-0.2,1.1-0.8,1.4-1c0.5-0.4,1.1-0.8,1.3-0.9
		c0.4,0.1,0.6,0,0.8,0.3c-0.2,0.4-0.3,0.8-0.3,0.9c-0.1,0.2-0.2,0.5,0.9,0.6c0.4,0.1,0.6,0.2,0.8-0.4c0.1-0.3,0.1-0.4,0.4-0.8
		c0.7,0.2,1.7,0.4,1.6,0.8c-0.2,0.5-0.5,1.1-0.3,1.3c0.5,0.1,1.4,0.2,2.8-0.2c0.4,1.2,1.9,2.4,1.2,3.7c-0.3,0.5,0.2,1.7,1.2,1.6
		c1.2-0.1,0.8-0.8,1.5-1.6c0.6-0.8,2.8,0.3,1.7-2.4c-0.4-1.1-1.6,0.3-2.2-0.2c-0.6-0.4-2.4-3-2.4-3.2s-0.3-1.3,0.3-1.5
		c0.6-0.2,1.6-0.6,2-1.5c0.4-0.7,0.9-2,1-3.2c0.9-0.3,1.8-1.4,2.2-1.2s1.8,1.1,2.6,0.5C35.1,23.5,34.9,22.4,34.6,22z M19.5,28
		c-1.2,0.3-1.1-1-1.3-1.9c-0.2-0.9,0.3-2.1,1.2-2C21.1,24.1,20.7,27.7,19.5,28z M24,27.1c-1.3,1.9-2.6,1.7-2.7,0
		c-0.1-1.6,0.4-3,1.3-3.1C23.8,24,24.8,25.9,24,27.1z"/>
</g>
</svg>
