<?xml version="1.0" encoding="utf-8"?>
<!-- Generator: Adobe Illustrator 20.0.0, SVG Export Plug-In . SVG Version: 6.00 Build 0)  -->
<svg version="1.1" id="Calque_1" xmlns="http://www.w3.org/2000/svg" xmlns:xlink="http://www.w3.org/1999/xlink" x="0px" y="0px"
	 viewBox="0 0 342.4 295.5" style="enable-background:new 0 0 342.4 295.5;" xml:space="preserve">
<style type="text/css">
	.st0{fill:#666666;}
	.st1{fill:url(#SVGID_1_);stroke:#58585A;stroke-width:0.8;}
	.st2{fill:#FFFFFF;}
	.st3{fill:#FFFFFF;stroke:#1A171B;stroke-width:0.8;}
	.st4{fill:none;stroke:#1A171B;stroke-width:0.8;}
	.st5{fill:url(#SVGID_2_);stroke:#1A171B;stroke-width:0.8;}
	.st6{fill:#9B9C9E;stroke:#1A171B;stroke-width:0.8;stroke-linecap:round;stroke-linejoin:round;}
	.st7{fill:url(#SVGID_3_);}
	.st8{fill:url(#SVGID_4_);}
	.st9{fill:#E75300;}
	.st10{fill:url(#SVGID_5_);}
	.st11{fill:url(#SVGID_6_);stroke:#000000;stroke-width:0.8;stroke-miterlimit:10;}
	.st12{fill:url(#SVGID_7_);}
	.st13{fill:url(#SVGID_8_);stroke:#58585A;stroke-width:0.8;}
	.st14{fill:none;stroke:#FFFFFF;stroke-width:0.8;}
	.st15{fill:none;stroke:#000000;stroke-width:0.8;}
	.st16{fill:url(#SVGID_9_);stroke:#000000;stroke-width:0.8;}
	.st17{fill:url(#SVGID_10_);}
	.st18{fill-rule:evenodd;clip-rule:evenodd;fill:#1A171B;}
</style>
<g>
	<polygon class="st0" points="158.2,90.1 184.3,104.2 158.2,118.4 	"/>
</g>
<linearGradient id="SVGID_1_" gradientUnits="userSpaceOnUse" x1="84.6309" y1="131.1815" x2="44.9562" y2="149.5673">
	<stop  offset="0" style="stop-color:#B3B3B3"/>
	<stop  offset="3.993338e-02" style="stop-color:#BDBDBD"/>
	<stop  offset="0.1514" style="stop-color:#D5D5D5"/>
	<stop  offset="0.278" style="stop-color:#E8E8E8"/>
	<stop  offset="0.4265" style="stop-color:#F5F5F5"/>
	<stop  offset="0.6174" style="stop-color:#FDFDFD"/>
	<stop  offset="1" style="stop-color:#FFFFFF"/>
</linearGradient>
<path class="st1" d="M1,26.1c14.4,12.6,34,26.1,47.2,32.2c15,6.9,18.8,9.9,19.2,26c0.3,15.3,2.6,30.1,4.1,45.1
	C72.9,144.3,44,279.8,44,293.8"/>
<g>
	<path class="st2" d="M100.5,79.1c-9.4-7-16.7-11.6-21.1-14.5c-4.3-2.9-24.8-16.9-27.9-18.9c-4.7-3-11.2-5.9-14.1-2
		c-2.8,3.8,1.2,11.7,6.2,16.9c-0.5,0.9-0.1,1.1,0.8,1.8c0.9,0.8,29.7,23.4,30.7,24.1c0.9,0.7,1.7,0.4,2,0.1v0
		c1.5,1.1,2.5,1.8,3.1,2.1c8.7,4.8,19,6.9,23.8,2.9C106.3,89.5,108.6,85.1,100.5,79.1z M95.6,85.1c-4.5,0.2-10.6-0.7-14.8-2.6
		l-0.4,0.3c0.6-0.7,1.1-1.7,1.1-2.3c0-0.5-0.1-0.7-0.9-1.3c-1.2-0.9-30.2-23-30.7-23.5c-0.4-0.4-0.9-0.7-1.4-0.6
		c-0.5-0.9-1-1.8-1.3-2.6l0.3,0.5C58.2,59.5,83.2,76.4,95.2,85L95.6,85.1z"/>
	<path class="st3" d="M51.9,61.7c-1.4,1.7-2,4.2-5.7,1.3c-6.1-4.8-12-14.9-8.7-19.3c2.9-3.9,9.4-1,14.1,2c3.1,1.9,23.6,16,27.9,18.9
		c4.3,2.9,11.6,7.5,21.1,14.5c8.1,6,5.8,10.4,3.5,12.6c-4.8,4-15.1,2-23.8-2.8c-0.9-0.5-2.1-1.4-4.5-3.1c-0.9-0.6-2.7-2.1-3.1-2.3
		c-0.6-0.4-0.9-0.3-1.4-0.2c-0.4,0.1-0.8-0.4-1.4-0.8c-1.2-0.9-1.4-1.5-0.5-2.7c1-1.4,1.7-1.5,3.2-0.4c0.6,0.5,1,0.8,0.8,1.2
		c-0.1,0.5-0.3,0.6,0.6,1.2c0.9,0.7,2.7,2.1,4.1,3.1"/>
	<path class="st3" d="M99.1,79.1c1.7,1.4,3.2,2.5,2.5,3.9c-1.5,3-13.8,2.6-20.8-0.6"/>
	<path class="st3" d="M95.2,85c-12-8.7-37-25.5-47.7-32.2"/>
	<path class="st4" d="M48.5,54.9c-4.4-7.9-3.6-11.5-0.2-10"/>
	<path class="st4" d="M40.4,41.9c-2.4,0.7-2.9,3-2.1,5.9c1.5,5.2,5.8,10.6,10.1,13.7c1.6,1.1,2.5,1.1,3.2-0.1"/>
	<radialGradient id="SVGID_2_" cx="62.4873" cy="70.9333" r="17.598" gradientUnits="userSpaceOnUse">
		<stop  offset="0" style="stop-color:#E75300"/>
		<stop  offset="0.2286" style="stop-color:#EE8245"/>
		<stop  offset="0.5082" style="stop-color:#F5B794"/>
		<stop  offset="0.7392" style="stop-color:#FADECE"/>
		<stop  offset="0.9092" style="stop-color:#FEF6F2"/>
		<stop  offset="1" style="stop-color:#FFFFFF"/>
	</radialGradient>
	<path class="st5" d="M77.2,86.6c-0.4,0.3-1.1,0.6-2.1-0.1c-0.9-0.7-29.8-23.4-30.7-24.1c-0.9-0.8-1.3-0.9-0.8-1.9
		c0,0,0.7,0.7,1.1,1.1c0.4,0.4,2.8,2.2,2.8,2.2s0,0,1.1,0.8c1.1,0.8,2.3,2.3,3.9,0.2c1.6-2-0.4-3.4-1.2-4c-0.8-0.6-2.6-1.9-3.8-2.8
		c-1.2-0.9-0.9-1.3-0.7-1.7c0.2-0.4,0.5-0.7,1.1-1.2c0.6-0.5,1.4-0.1,1.9,0.4C50.4,56,79.3,78.1,80.6,79c0.8,0.6,0.9,0.8,0.9,1.3
		c0,1.3-1.9,3.4-2.4,3.6c-0.8,0.3-1.2-0.2-1.9-0.7c-0.5-0.4-1-0.7-1.3-0.9c-1.8-1.4,0.2-2.9-2.2-4.7c-1.9-1.4-3.7-1.4-4.8,0.2
		c-0.6,0.9-0.5,2,0,2.6c0,0-0.1,0.3,0,0.6c0.1,0.3,0.3,0.9,1.3,1.5c0.9,0.6,1,0.5,1.6,0.6c0.5,0.1,0.9,0.2,1.5,0.7
		c0.6,0.5,2.1,1.7,2.6,2C76.2,85.9,77.2,86.6,77.2,86.6z"/>
	<path class="st4" d="M69.2,79.9c0.5-1.5,1.6-3,2.3-3.3"/>
</g>
<path class="st3" d="M1.3,7.5c9.7,7.7,23.4,18.2,28.2,21.1"/>
<path class="st3" d="M24.5,36.7c-1.3-1-14.4-11.2-24.2-18.8"/>
<path class="st3" d="M48.4,47.1c0,0-2,2.1-2.5,1.5c-0.2-0.2,0.7-1.9-0.3-3.1c-1.8-2-3.9-4.4-5.3-3.8c-2.5,1.2-4.3,3.1-3.8,6.1
	c0.1,0.3-1.4-0.6-2.9-1.5c-1.5-1-6.9-6.6-7.9-7.7c0,0-0.9,0.3-1.1-0.2c-0.2-0.5-0.8-0.6,0.3-2.3c1.1-1.8,5.1-7.3,5.1-7.3
	s1-1.6,1.9-0.1C31.8,28.6,53.8,41.4,48.4,47.1z"/>
<path class="st6" d="M120.8,2.1L120.8,2.1c-11.9,21.1-19.9,40.6-25.1,55.6l0,0c-4.1,12-6.4,21-7.4,25.9c0,0-0.1,0.5-0.1,0.7
	c0,0,2.2,0.4,3.1,0.4c0.9,0,2.7,0.2,3.6,0.2l0.3-1.5c1-4.7,3.2-13,6.8-23.5l0,0c5.1-14.6,13-33.8,24.6-54.4"/>
<path class="st6" d="M101.4,293.8c-2-13.2-11.9-84.8-11.9-84.8c-6.6-57.4,3.6-115.6,3.6-115.6s-2-0.3-3.5-0.7
	c-1.4-0.4-2.8-0.8-2.8-0.8c-0.1,0.2-0.1,0.7-0.1,0.7s-3.4,21.2-5.5,49.6c-0.9,11.7-0.9,42.8,1.8,65.9c0,0,9.4,70,11.9,85.7"/>
<linearGradient id="SVGID_3_" gradientUnits="userSpaceOnUse" x1="-41.1802" y1="313.3637" x2="-59.9665" y2="336.2443" gradientTransform="matrix(0.9765 -0.2156 0.2156 0.9765 94.145 -306.593)">
	<stop  offset="0" style="stop-color:#FFFFFF"/>
	<stop  offset="1" style="stop-color:#FFFFFF;stop-opacity:0"/>
</linearGradient>
<path class="st7" d="M119.7,0l8.8,5.2c0,0-10.4,16.3-19.2,40.2l-9.2-4.8C100.1,40.7,108.1,18.8,119.7,0z"/>
<linearGradient id="SVGID_4_" gradientUnits="userSpaceOnUse" x1="261.9763" y1="-311.9406" x2="242.7529" y2="-288.5276" gradientTransform="matrix(0.8438 0.5366 0.5366 -0.8438 43.4979 -114.8325)">
	<stop  offset="0" style="stop-color:#FFFFFF"/>
	<stop  offset="1" style="stop-color:#FFFFFF;stop-opacity:0"/>
</linearGradient>
<path class="st8" d="M93.5,295.5l10-0.5c0,0-2.2-20.8-6.1-45.8l-10.5,1.1C86.9,250.3,89,273.8,93.5,295.5z"/>
<g>
	<path class="st9" d="M105.2,73.5l-7.4-3.1c0.1-0.3,0.2-0.6,0.4-0.9l7.5,2.7C105.5,72.7,105.3,73.1,105.2,73.5z M107.2,65.5
		l-7.9-0.9c0-0.3,0.1-0.7,0.1-1l8,0.5C107.3,64.6,107.3,65.1,107.2,65.5z M99.1,58.5c0-0.3-0.1-0.6-0.2-0.8l7.8-1.8l0,0.2
		c0.1,0.4,0.1,0.8,0.2,1.2L99.1,58.5z M97.3,52.8c-0.1-0.3-0.3-0.6-0.5-0.9l7.1-3.8c0.2,0.4,0.4,0.8,0.6,1.2L97.3,52.8z M60.9,47.9
		l-6.1-5.2c0.3-0.4,0.6-0.7,0.9-1l5.8,5.5C61.3,47.4,61.1,47.6,60.9,47.9z M94,47.7c-0.2-0.3-0.5-0.5-0.7-0.7l5.8-5.5
		c0.3,0.3,0.6,0.7,0.9,1L94,47.7z M65.5,43.8L61,37.2c0.4-0.3,0.8-0.5,1.2-0.7l4.1,6.9C66,43.5,65.7,43.7,65.5,43.8z M89.4,43.7
		c-0.3-0.2-0.6-0.4-0.9-0.5l4-6.9c0.4,0.2,0.8,0.5,1.2,0.7L89.4,43.7z M70.9,41.2l-2.4-7.6c0.4-0.1,0.9-0.3,1.3-0.4l2.1,7.7
		C71.6,41,71.2,41.1,70.9,41.2z M83.9,41.2c-0.3-0.1-0.6-0.2-1-0.3l2-7.8c0.4,0.1,0.9,0.2,1.3,0.4L83.9,41.2z M76.9,40.2l-0.2-8
		c0.3,0,0.6,0,0.9,0l0.5,0l-0.1,8l-0.4,0C77.3,40.2,77.1,40.2,76.9,40.2z"/>
</g>
<radialGradient id="SVGID_5_" cx="69.558" cy="64.1928" r="18.4569" gradientUnits="userSpaceOnUse">
	<stop  offset="0" style="stop-color:#E75300"/>
	<stop  offset="0.2286" style="stop-color:#EE8245"/>
	<stop  offset="0.5082" style="stop-color:#F5B794"/>
	<stop  offset="0.7392" style="stop-color:#FADECE"/>
	<stop  offset="0.9092" style="stop-color:#FEF6F2"/>
	<stop  offset="1" style="stop-color:#FFFFFF"/>
</radialGradient>
<path class="st10" d="M48.5,53c0,0,7.9,4.9,14.5,9.3c6.6,4.4,23,15.5,23,15.5l2.6,1.8c0,0,1.7-6.4,2-7.2c0,0-12.6-8.3-15.9-10.6
	c-3.3-2.3-16.8-11.6-18.9-12.8c0,0-6-1.2-6.6,0.7C48.6,51.7,48.5,53,48.5,53z"/>
<linearGradient id="SVGID_6_" gradientUnits="userSpaceOnUse" x1="1315.9136" y1="916.9404" x2="1315.9136" y2="870.331" gradientTransform="matrix(1 0 0 1 -999.6465 -656.3672)">
	<stop  offset="0" style="stop-color:#919294"/>
	<stop  offset="0.3207" style="stop-color:#C0C0C1"/>
	<stop  offset="0.6087" style="stop-color:#E2E2E3"/>
	<stop  offset="0.8449" style="stop-color:#F7F7F8"/>
	<stop  offset="1" style="stop-color:#FFFFFF"/>
</linearGradient>
<polyline class="st11" points="326.6,214 326.6,238.6 334.6,238.6 316.3,260.6 316.3,260.6 297.9,238.6 305.9,238.6 305.9,214 "/>
<g>
	
		<linearGradient id="SVGID_7_" gradientUnits="userSpaceOnUse" x1="-1094.2112" y1="-1463.0831" x2="-1094.2112" y2="-1505.5782" gradientTransform="matrix(-1 0 0 -1 -779.7242 -1268.1866)">
		<stop  offset="0.4982" style="stop-color:#FFFFFF"/>
		<stop  offset="1" style="stop-color:#FFFFFF;stop-opacity:0"/>
	</linearGradient>
	<rect x="290.3" y="194.9" class="st12" width="48.5" height="42.5"/>
</g>
<linearGradient id="SVGID_8_" gradientUnits="userSpaceOnUse" x1="266.9644" y1="131.1822" x2="227.2896" y2="149.568">
	<stop  offset="0" style="stop-color:#B3B3B3"/>
	<stop  offset="3.993338e-02" style="stop-color:#BDBDBD"/>
	<stop  offset="0.1514" style="stop-color:#D5D5D5"/>
	<stop  offset="0.278" style="stop-color:#E8E8E8"/>
	<stop  offset="0.4265" style="stop-color:#F5F5F5"/>
	<stop  offset="0.6174" style="stop-color:#FDFDFD"/>
	<stop  offset="1" style="stop-color:#FFFFFF"/>
</linearGradient>
<path class="st13" d="M183.3,26.1c14.4,12.6,34,26.1,47.2,32.2c15,6.9,18.8,9.9,19.2,26c0.3,15.3,2.6,30.1,4.1,45.1
	c1.5,14.9-27.4,150.4-27.5,164.4"/>
<g>
	<path class="st3" d="M234.3,59.4c-1.3,1.7-1.9,4.1-5.6,1.2c-6-4.7-11.8-14.6-8.6-19c2.9-3.9,9.2-1,13.9,2c1.5,0.9,6.9,4.6,12.6,8.5
		c0.8,0.5,1.6,1.1,2.4,1.6c0.5,0.3,1,0.7,1.5,1c0.6,0.4,1.3,0.9,1.9,1.3l5.5,3.6l-1.6,0.9l0.1,1.1l-3.4,0.4l-0.5,1l-3.1,0.2
		c-0.4-0.2-0.7-0.5-1.1-0.7c-0.2-0.2-0.5-0.3-0.7-0.5c-0.2-0.2-0.5-0.3-0.7-0.5c-0.4-0.2-0.7-0.5-1.1-0.7c-0.4-0.2-0.7-0.5-1.1-0.7
		c-5.9-3.9-9.3-6.4-13-8.7"/>
	<path class="st3" d="M249.9,79.7c-0.3-0.6-0.2-1.8,0.7-2.4c1.5-1.1,3.2-0.7,4.6,1.2c1.8,2.4-0.6,3.3,0.8,5.1c0.2,0.3,0.6,0.8,1,1.2
		c0.5,0.7,0.7,1.3,1.6,1.2c0.6-0.1,2.9-1.6,3.3-2.7c0.2-0.5,0.1-0.7-0.5-1.5c-0.4-0.5-5.1-6.8-10.1-13.5l-2.1,2.9l-2-0.3l-3.1,2.9
		c0.3,0.4,0.6,0.8,0.9,1.2c4.6,6.4,8.8,12.2,9.1,12.5c0.7,0.9,1.5,0.8,1.9,0.6"/>
	<path class="st3" d="M230,61.6c0,0,0,0,1,0.8c1.1,0.8,2.3,2.2,3.8,0.2c1.5-2-0.4-3.4-1.2-3.9c-0.8-0.6-2.5-1.9-3.7-2.8
		c-1.2-0.9-0.9-1.3-0.6-1.7c0.2-0.4,0.5-0.7,1.1-1.2c0.6-0.5,1.4-0.1,1.9,0.3c0.2,0.2,5.2,4,11,8.5c0.4,0.3,0.9,0.7,1.3,1
		c0.6,0.4,1.2,0.9,1.8,1.3c0.7,0.6,1.4,1.1,2.2,1.7l-1.1,2.9l-2.6,0.3l-2.5,3.3c-0.4-0.3-0.9-0.7-1.3-1c-0.6-0.4-1.1-0.9-1.7-1.3
		c-6.3-5-12-9.5-12.4-9.8c-0.9-0.8-1.3-0.9-0.8-1.8"/>
	<path class="st3" d="M250.3,79.4c0.9-1.3,2.4-2.4,3.1-2.5"/>
</g>
<path class="st4" d="M222.4,39.9c-2.3,0.7-2.9,3-2,5.9c1.5,5.1,5.7,10.4,10,13.5c1.6,1.1,2.4,1.1,3.2-0.1"/>
<path class="st3" d="M178.9,18.4c2.2,1.5,31.6,22.5,31.6,22.5s1.2,0.8,2.2,1.4c0.9,0.6,2.2,1.1,3,2.8c0.8,1.7,2.8,3.4,4.8,4.8
	c0,0-1.4-3.1-1.7-4.3c-0.4-1.2-0.3-0.6-0.8-1.3c0,0,1.3,0.1,2.4-0.1l-0.8-7.7c-3.1-2.1-34.2-24-40.5-29.8"/>
<path class="st3" d="M273.6,91.3c-4.5-5.7-11.5-14.3-18.5-22.6c-0.2-0.3-0.4-0.5-0.6-0.8l-0.8-0.7l3.1,0.7l0.6-0.9l3.8,0.2v-1.1
	l1.1-0.8c0.8,1,1.5,1.8,2,2.4c3.3,3.9,9,10.2,16,19.4c6.1,7.9,2.6,11.5-0.1,12.9c-5.6,2.5-14.8-2.2-21.7-9.1
	c-0.7-0.7-1.6-1.9-3.4-4.2c-0.6-0.8-2-2.7-2.3-3c-0.4-0.5-0.8-0.5-1.2-0.6c-0.4-0.1-0.7-0.6-1.1-1.1c-0.9-1.1-0.9-1.8,0.3-2.7
	c1.3-1,2-1,3.2,0.5c0.5,0.6,0.7,1,0.5,1.4c-0.3,0.4-0.4,0.5,0.2,1.3c0.7,0.9,2,2.7,3.1,4.1"/>
<path class="st4" d="M278.8,86.8c1.2,1.7,2.4,3.2,1.3,4.4c-2.2,2.5-13.8-1.3-19.5-6.2"/>
<path class="st6" d="M258.9,211.7c-0.2-12.6-0.4-39.5,0-46.2c1.9-37.5,6-68.9,6-68.9s0.3,0.1,1.9,0.9c1.4,0.7,2.6,1.4,3.5,1.8
	c0.8,0.3,1.6,0.6,1.6,0.6s-7.2,59-6.2,111.8"/>
<path class="st6" d="M296,211.4c0.1-4-0.3-14.2-0.3-14.2c-2.8-93.2-16.5-103-17.2-104.4c-0.9-1.6-4.1-2.3-4.4-1.6
	c-0.4,0.7-1.4,0.1-1.8,0c-0.6-0.2-2.5-0.9-3.8-1.4c-1.4-0.5-2.2-1.2-2.2-1.2s1.2-2.9,5.7-3.7c4.5-0.8,16.3-4,23.1,35.8
	c3.6,21,6.2,49.7,7.5,76.1c0,0,0.7,11.4,0.8,14.7"/>
<g>
	<path d="M316.5,159.2c0.5,0.9,1.1,1.8,1.5,3.1c-0.1,0-0.2,0.1-0.3,0.1c0.2,0.6,0.5,1.3,0.7,1.9c-0.1,0-0.2,0.1-0.3,0.1
		c0.2,0.6,0.5,0.3,0.6,0.7c-0.1,0-0.2,0.1-0.3,0.1l0.2,0.5c-0.1,0-0.2,0.1-0.3,0.1c0,0.5,0.3,0.9,0.5,1.3c-0.1,0-0.2,0.1-0.3,0.1
		c0.2,1.1,0.5,1.5,0.6,2.5c-0.1,0-0.2,0.1-0.3,0.1l0.2,0.5c-0.1,0-0.2,0.1-0.3,0.1c0,0.3,0.4,0.7,0.4,1.1c-1.2,0.5-0.3-0.3-0.7-0.3
		l-0.5,0.2c0,0.7,0.1,0.5,0.1,1.2c-0.1,0-0.2,0.1-0.3,0.1c0,0.3,0.4,0.7,0.4,1.1c-0.1,0-0.2,0.1-0.3,0.1l0.2,0.5
		c-0.1,0-0.2,0.1-0.3,0.1c0,0.3,0.6,0.2,0.5,0.4c-0.6,0.6,0.5,3,1,4.2c-0.1,0-0.2,0.1-0.3,0.1c-0.1,0-0.4-1.2-0.5-1.3
		c-0.1,0-0.2,0.1-0.3,0.1c0.1,0.2,0.3,0.6,0.3,0.8c-0.1,0-0.2,0.1-0.3,0.1c0.1,0.9,1.5,4.6,2,5.4c0.1,0,0.2-0.1,0.3-0.1
		c0.3,0.5,0.4,0.9,0.8,1.2l0.6,0.1c0.3,0.4,0,0.2-0.2,0.4c0.4,0.5,0.3,0.4,0.7,1c0.6-0.2,1.2-0.6,1.9-0.7c0,0.1,0.1,0.2,0.1,0.3
		l0.5-0.2c0,0.1,0.1,0.2,0.1,0.3c0.2,0,0.6-0.3,0.8-0.3c0,0.1,0.1,0.2,0.1,0.3c0.6,0.1,1.1,0.5,1.7,0.6c0,0.1,0.1,0.2,0.1,0.3l1,0.2
		c0.4,0.3,0.7,1.5,1.2,1.7c0.5,0.2,0.2-0.4,0.2-0.4l0.5-0.2c0.4,0.2,0.6,0.4,1.1,0.5c0,0.1,0.1,0.2,0.1,0.3c0.1,0,0.2-0.1,0.3-0.1
		c0.2,0.2,0.4,0.7,0.6,0.7l0.5-0.2l0.2,0.5c0.1,0,0.2-0.1,0.3-0.1c0.3,0.7,1,1.2,1.2,2.3c-0.1,0-0.2,0.1-0.3,0.1
		c0.1,0.3,0.2,0.5,0.3,0.8c-0.1,0-0.2,0.1-0.3,0.1c0.2,0.9,0.8,2,1.1,2.9c0.1,0,0.2-0.1,0.3-0.1c0.2,0.6,0.5,1.3,0.7,1.9
		c-0.1,0-0.2,0.1-0.3,0.1c0.1,0.4,0.4,0.9,0.5,1.3c0.1,0,0.2-0.1,0.3-0.1c0.1,0.4,0.2,1,0.5,1.3l0.6,0.1c0.2,0.2,0.4,0.7,0.7,1
		c0.1,0,0.2-0.1,0.3-0.1l0.2,0.5c0.5,0.3,0.2-0.4,0.2-0.4c0.1,0,0.2-0.1,0.3-0.1c0.3,0.4,0.2,0.4,0.6,0.7l0.5-0.2
		c0.2,0.2,0.1,0.8,0.4,1.1c0.1,0,0.2-0.1,0.3-0.1c0.2,0.4,0.3,0.9,0.5,1.3c-0.1,0-0.2,0.1-0.3,0.1c0.1,0.3,0.3,0.7,0.4,1.1
		c-0.4-0.2-0.8,0.1-1.3-0.1l-0.2-0.5l-1-0.2l-0.2-0.5l-1-0.2l-0.2-0.5c-0.3-0.1-0.6,0.2-0.9,0c-0.4-0.3-0.2-0.7-0.7-1
		c-0.2-0.1-0.6,0-0.9,0l-0.2-0.5c-0.1,0-0.2,0.1-0.3,0.1c-0.2-0.2-0.2-0.8-0.4-1.1c-0.1,0-0.2,0.1-0.3,0.1c-0.3-0.7-0.5-1.5-0.8-2.1
		c-0.1,0-0.2,0.1-0.3,0.1c-0.2-0.6-0.6-1.3-0.7-1.9l0.4-0.5c0-0.2-0.2-0.6-0.3-0.8c0.1,0,0.2-0.1,0.3-0.1c-0.2-1.2-0.9-2.6-1.4-3.7
		c-0.1,0-0.2,0.1-0.3,0.1c-0.2-0.2-0.1-0.6-0.3-0.8l-0.5,0.2c0,0,0.1-0.6,0.1-0.6c-0.4,0-1.1-0.5-1.1-0.5c-0.8-0.1-1.6,0.6-2.1,0.8
		l-0.2-0.5c-0.1,0-0.2,0.1-0.3,0.1l-0.2-0.5c0,0-0.6-0.1-0.6-0.1c0-0.1-0.1-0.2-0.1-0.3c-0.1,0.2-0.9,0.3-1.1,0.4
		c0,0.1,0.6,1.2,0.5,1.3c-0.5,0.6-0.7-0.4-1.2,0.1c0.5,0.9,0.6,1.4,1.2,2.3c0.1,0,0.2-0.1,0.3-0.1c0.1,0.3,0.2,0.8,0.4,1.1
		c0.1,0,0.2-0.1,0.3-0.1c0.2,0.3,0.2,0.8,0.4,1.1c0.1,0,0.2-0.1,0.3-0.1l0.2,0.5c0.1,0,0.2-0.1,0.3-0.1l0.2,0.5
		c0.2,0.1,0.3-0.4,0.4-0.5c0.3,0.5-0.1,0.1,0.4,0.2c0.2,0.6,0.3,1,0.6,1.6c0.1,0,0.2-0.1,0.3-0.1c0.6,1,0.9,2.3,1.3,3.5
		c-0.1,0-0.2,0.1-0.3,0.1c0.2,0.5,0,0.1,0.4,0.2l0.2,0.5c-0.8-0.3,0.3,1.1,0.4,1.1c-0.1-0.2-0.4,1.4,0.4,1.1
		c0.4,1.2,0.7,2.7,1.4,3.7l0.6,0.1c0.5,0.6,0.5,1.3,1,1.8c0.2,0.2,0.6-0.1,0.9,0c0,0,0.5,0.8,0.7,1c0.1,0,0.2-0.1,0.3-0.1
		c0.1,0.2,0.1,0.6,0.3,0.8l0.6,0.1c0.3,0.4,0,0.2-0.2,0.4c0.1,0.2,0.2,0.6,0.3,0.8c0,0,0.5,0.1,0.6,0.7c0,0-0.4,0.4-0.3,0.7
		c-0.3,0-0.6,0.3-0.8,0.3c0-0.1-0.1-0.2-0.1-0.3l-0.5,0.2c0-0.1-0.1-0.2-0.1-0.3l-0.5,0.2l-0.2-0.5l-0.6-0.1l-0.2-0.5
		c0-0.1-0.5-0.1-0.6-0.1c-0.1-0.2-0.2-0.6-0.3-0.8c-0.1,0-0.2,0.1-0.3,0.1c-0.7-1.1-0.7-2.6-1.4-3.7c-0.1,0-0.2,0.1-0.3,0.1
		c-0.1-0.2-0.2-0.7-0.3-0.8c-0.1,0-0.2,0.1-0.3,0.1c-0.2-0.3-0.2-0.8-0.4-1.1c-0.1,0-0.2,0.1-0.3,0.1c-0.4-0.4-0.3-0.5-0.7-1
		c-0.1,0-0.2,0.1-0.3,0.1c-0.1-0.2-0.1-0.6-0.3-0.8c0,0-0.6-0.1-0.6-0.1c-0.1-0.2-0.2-0.7-0.3-0.8c-0.1,0-0.2,0.1-0.3,0.1
		c-0.6-1-0.9-2.4-1.3-3.5c0.1,0,0.2-0.1,0.3-0.1c-0.2-0.8-0.6-1.4-0.8-2.1c-0.1,0-0.2,0.1-0.3,0.1c-0.2-0.5-0.3-1.5-0.7-1.9l-0.9,0
		l-0.2-0.5l-1-0.2c-0.2-0.2-0.2-0.6-0.3-0.8c-0.1,0-0.2,0.1-0.3,0.1c-0.4-0.7-0.5-1-0.9-1.5c-1.1,0.4-0.1-0.5-0.7-0.3
		c-0.1,0-0.5,0.7-0.6,0.8c-0.2-0.3,0-0.7-0.5-0.4c-0.3-0.3-0.4-0.7-0.7-1c-0.1,0-0.2,0.1-0.3,0.1c-0.2-0.3-0.2-0.8-0.4-1.1
		c-0.1,0-0.2,0.1-0.3,0.1c-0.2-0.5-0.3-0.9-0.5-1.3c-0.1,0-0.2,0.1-0.3,0.1c-0.2-0.4-0.2-1-0.5-1.3c-0.1-0.1-0.5,0-0.9,0
		c-0.5-0.9-0.6-1.3-1.2-2.3c-0.1,0-0.2,0.1-0.3,0.1c-0.2-0.4-0.3-1-0.5-1.3c-0.1,0-0.2,0.1-0.3,0.1c-0.6-1-0.7-1.7-1.3-2.6
		c-0.1,0-0.2,0.1-0.3,0.1c-0.1-0.2-0.2-0.7-0.3-0.8c-0.1,0-0.2,0.1-0.3,0.1c-0.2-0.3-0.2-0.8-0.4-1.1c-0.1,0-0.2,0.1-0.3,0.1
		c-0.4-0.6-0.4-0.9-0.9-1.5c-0.1,0-0.2,0.1-0.3,0.1c-0.1-0.2-0.1-0.6-0.3-0.8c-0.7,0.5-0.9-0.1-1.2,0.1c-0.2,0.1,0,0.5,0,0.9
		c-0.2,0.1-0.9,0.2-1.1,0.4c-0.4-0.5-0.3-0.7-0.8-1.2c-0.1,0-0.2,0.1-0.3,0.1l-0.2-0.5c-0.1,0-0.2,0.1-0.3,0.1
		c-0.2-0.3-0.2-0.8-0.4-1.1c-0.1,0-0.2,0.1-0.3,0.1c-0.2-0.3-0.2-0.8-0.4-1.1c-0.1,0-0.2,0.1-0.3,0.1l-0.2-0.5l-1-0.2l-0.2-0.5
		c-0.1,0-0.2,0.1-0.3,0.1c-0.4-0.5-0.3-0.5-0.7-1c-0.1,0-0.2,0.1-0.3,0.1c-0.5-0.5-0.4-1-0.9-1.5c-0.1,0-0.2,0.1-0.3,0.1l-0.2-0.5
		c-0.1,0-0.2,0.1-0.3,0.1c-0.2-0.2-0.2-0.6-0.3-0.8c-0.1,0-0.2,0.1-0.3,0.1c-0.1-0.3-0.3-0.8-0.4-1.1c-0.1,0-0.2,0.1-0.3,0.1
		c-0.3-0.5-0.3-0.9-0.5-1.3c-0.1,0-0.2,0.1-0.3,0.1c-0.3-0.5-0.3-1.1-0.6-1.6c0,0-0.6-0.1-0.6-0.1c-0.2-0.5-0.4-0.9-0.5-1.3
		c0.1,0,0.2-0.1,0.3-0.1c-0.1-0.7-0.2-1-0.3-1.7c0.1,0,0.2-0.1,0.3-0.1c0.4,0.5,0.4,0.8,0.9,1.5c0.1,0,0.2-0.1,0.3-0.1
		c0.1,0.1,0.2,0.6,0.3,0.8c0.1,0,0.2-0.1,0.3-0.1c0.3,0.6,0.4,1.3,0.7,1.9c0.1,0,0.2-0.1,0.3-0.1c0.3,0.7,0.4,1.9,0.9,2.4
		c0.1,0,0.2-0.1,0.3-0.1c0,0.1,0.1,0.2,0.1,0.3c0.3-0.1,0.8-0.3,1.1-0.4c0.2,0.3,0.2,0.8,0.4,1.1c0.1,0,0.2-0.1,0.3-0.1
		c0.4,0.6,0.4,0.9,0.9,1.5c0.1,0,0.2-0.1,0.3-0.1c0.1,0.2,0.2,0.9,0.4,1.1c0.1,0,0.2-0.1,0.3-0.1c0,0.1,0.1,0.2,0.1,0.3
		c0.7,0.1,1,0.5,1.7,0.6c0,0.1,0.1,0.2,0.1,0.3c0.1,0,0.2-0.1,0.3-0.1c0.5,0.4,0.3,0.7,0.8,1.2c0.1,0,0.2-0.1,0.3-0.1l0.2,0.5
		c0.1,0,0.2-0.1,0.3-0.1c0.2,0.2,0.2,0.6,0.3,0.8c0.1,0,0.2-0.1,0.3-0.1c0.1,0.2,0.2,0.6,0.3,0.8c0.6,0.1-0.1-0.4,0.4,0.2
		c0.8-0.4,0.5-0.8,0.6-0.8c0.1-0.1,1-0.2,0.6,0.1c0.1,0,0.2-0.1,0.3-0.1c0.3,0.3,0.2,0.3,0.6,0.7c0.1,0,0.2-0.1,0.3-0.1
		c-0.2-0.6-0.1,0,0.2-0.4c-0.5-1.3-1-3.6-1.7-4.6c-0.1,0-0.2,0.1-0.3,0.1l-0.2-0.5c0,0-1.7-0.6-1.7-0.6c0-0.1-0.1-0.2-0.1-0.3
		c0.1,0.8-0.8-1.2-0.8-1.2l0.7-0.6c0,0,0.1-0.5,0.1-0.6c0.5-0.2,0.8-0.4,1.3-0.5l0.5,0.4c0.3,0,0.8-0.3,1.1-0.4
		c0,0.1,0.1,0.2,0.1,0.3c1.2,0.5-1.8-2.7,0.5,0.4c0.1,0,0.2-0.1,0.3-0.1c0.8,1.1,1.2,3.2,1.7,4.6c0.4,0,0.1-0.4,0.4,0.2
		c0.6-0.3,0.7-0.1,1.2-0.1c0.1-0.5,0.5-0.6,0.6-0.8L316,175c0.1,0,0.2-0.1,0.3-0.1l-0.2-0.5c0.1,0,0.2-0.1,0.3-0.1
		c0-0.3-0.3-0.8-0.4-1.1c0.1,0,0.2-0.1,0.3-0.1c-0.1-0.5-0.1-0.1-0.4-0.2c-0.1-0.7-0.2,0,0.2-0.4c-0.1-0.2-0.3-0.6-0.3-0.8l0.5-0.2
		c0-0.6-0.6-1-0.6-1.6c0.5-0.2,0.3,0.3,0.6,0.7l0.5-0.2c0-0.6-0.1-0.6-0.1-1.2c0.1,0,0.2-0.1,0.3-0.1c0-0.3-0.3-0.5-0.3-0.8
		c0.1,0,0.2-0.1,0.3-0.1l-0.2-0.5c0.1-0.2,1-1.2,1-1.3c0.1-0.7-0.7-0.7-0.7-1l0.7-0.6c0-0.2-0.3-0.6-0.3-0.8c0.1,0,0.2-0.1,0.3-0.1
		c-0.1-0.3-0.2-0.5-0.3-0.8c0.1,0,0.2-0.1,0.3-0.1c-0.2-1.3-0.9-2.5-1.4-3.7C316.3,159.3,316.4,159.3,316.5,159.2z"/>
</g>
<line class="st14" x1="307.6" y1="169.9" x2="307.6" y2="131"/>
<line class="st14" x1="314.5" y1="181.2" x2="314.5" y2="141.7"/>
<line class="st14" x1="321.2" y1="188.1" x2="321.2" y2="133"/>
<line class="st14" x1="327.1" y1="197.9" x2="327.1" y2="157.4"/>
<line class="st14" x1="334.7" y1="197.7" x2="334.7" y2="158.1"/>
<line class="st15" x1="307.9" y1="169.9" x2="307.9" y2="131"/>
<line class="st15" x1="314.8" y1="181.2" x2="314.8" y2="141.7"/>
<line class="st15" x1="321.4" y1="188.1" x2="321.4" y2="133"/>
<line class="st15" x1="327.4" y1="197.9" x2="327.4" y2="157.4"/>
<line class="st15" x1="335" y1="197.7" x2="335" y2="158.1"/>
<path class="st3" d="M234,49.8c0,0-2.2,3-2.9,2.5c-0.2-0.2,0.2-3.3-0.9-4.4c-1.9-2.1-4.3-4.7-5.8-3.9c-2.7,1.3-4.6,3.4-4,6.6
	c0.1,0.4-1.6-1.1-3.2-2.1c-1.6-1-7.6-6.4-8.6-7.6c0,0-1,0.3-1.2-0.2c-0.3-0.5-0.9-0.6,0.3-2.5c1.1-1.9,5.3-8,5.3-8s1.1-1.8,2.1-0.2
	C215.1,29.9,239.9,41.5,234,49.8z"/>
<linearGradient id="SVGID_9_" gradientUnits="userSpaceOnUse" x1="-58.9577" y1="-303.977" x2="-46.5896" y2="-309.0356" gradientTransform="matrix(0.9588 -0.284 0.284 0.9588 409.0042 327.4528)">
	<stop  offset="0" style="stop-color:#FFFFFF"/>
	<stop  offset="1" style="stop-color:#E75300"/>
</linearGradient>
<path class="st16" d="M246.8,43.2c0,0,6.7,11.8,7.9,8.3c1.9-5.2-1.4-19.3-1.4-19.3s4.6,20.3,9.7,21.1c5.1,0.8,14-17.4,19.4-26.4
	c0,0-12.7,28.6-10.4,30.8c2.3,2.2,13.3-2.8,25.1-5.7c0,0-34.4,13.7-17.7,21"/>
<linearGradient id="SVGID_10_" gradientUnits="userSpaceOnUse" x1="281.1193" y1="203.4794" x2="281.1193" y2="190.7972">
	<stop  offset="0" style="stop-color:#FFFFFF"/>
	<stop  offset="1" style="stop-color:#FFFFFF;stop-opacity:0"/>
</linearGradient>
<rect x="254.6" y="188.1" class="st17" width="53" height="24.5"/>
<g>
	<g>
		<g>
			<g>
				<path class="st9" d="M194.1,189.9l-16.7-30.4l0,0l0-0.1c-1.2-2.1-3.5-3.5-5.9-3.5c-2.5,0-4.8,1.4-6,3.5l0,0l0,0L148.4,190
					c-1.2,2.1-1.1,4.6,0.1,6.6c1.2,2.1,3.6,3.4,6.1,3.3h-0.1h33.7H188c2.5,0.1,4.8-1.2,6-3.4C195.2,194.5,195.2,192,194.1,189.9z"/>
			</g>
			<path class="st2" d="M190.6,191.7c0.5,0.9,0.6,2,0,2.9c-0.5,0.9-1.5,1.5-2.6,1.5h-33.7c-1,0-2-0.4-2.6-1.4c-0.5-0.9-0.5-2,0-2.9
				l16.9-30.6c0.5-0.9,1.4-1.5,2.5-1.5c1.1,0,2,0.6,2.5,1.5L190.6,191.7z"/>
		</g>
	</g>
	<path class="st18" d="M182.1,177.9c-0.3-0.4-1.7,0-1.8-0.6c-0.1-0.5-0.3-2.3-1.4-1.4c-1.1,0.9-0.4,1.8-0.6,2.1
		c-0.3,0.2-1.2,0.8-1.9,1.3c-0.7-0.6-1.6-3.2-5.8-2.8c-2.7,0.3-3.3,1.5-3.8,1.5c-0.4-0.4-1.1-0.9-0.7-1.9c0.5-1,0.8-2.4-0.1-2.6
		c-0.9-0.1-1.7,0.2-1.8,0.7c-0.1,0.5,0,1.2-0.7,1.2c-0.5,0-1,0.4-1,1.2c0.2,0.8,0.4,1,0.8,0.9c0.4-0.1,1.1-0.3,1.2,0.2
		c0.1,0.4,0.7,1,0.8,1.6c-0.4,0.7-1.2,1.7-1.3,2.9c-0.2,1.8,0.7,2.9,0.3,3.2c-0.4,0.3-2.4,2.4-2.9,2.4c-0.6,0-2.2-1.2-2.8-0.3
		c-0.6,0.9-0.7,1.7,0,2.1c0.7,0.3,1.1,0.2,1.2,0.9c0.1,0.7,0.8,1.1,1.5,0.8c0.7-0.3,1.2-1,1.2-1.5c0-0.5,0.2-1.1,0.7-1.4
		c0.5-0.2,1.1-0.8,1.4-1c0.5-0.4,1.1-0.8,1.3-0.9c0.4,0.1,0.6,0,0.8,0.3c-0.2,0.4-0.3,0.8-0.3,0.9c-0.1,0.2-0.2,0.5,0.9,0.6
		c0.4,0.1,0.6,0.2,0.8-0.4c0.1-0.3,0.1-0.4,0.4-0.8c0.7,0.2,1.7,0.4,1.6,0.8c-0.2,0.5-0.5,1.1-0.3,1.3c0.5,0.1,1.4,0.2,2.8-0.2
		c0.4,1.2,1.9,2.4,1.2,3.7c-0.3,0.5,0.2,1.7,1.2,1.6c1.2-0.1,0.8-0.8,1.5-1.6c0.6-0.8,2.8,0.3,1.7-2.4c-0.4-1.1-1.6,0.3-2.2-0.2
		c-0.6-0.4-2.4-3-2.4-3.2c0-0.2-0.3-1.3,0.3-1.5c0.6-0.2,1.6-0.6,2-1.5c0.4-0.7,0.9-2,1-3.2c0.9-0.3,1.8-1.4,2.2-1.2
		c0.4,0.1,1.8,1.1,2.6,0.5C182.6,179.4,182.4,178.2,182.1,177.9z M167,183.8c-1.2,0.3-1.1-1-1.3-1.9c-0.2-0.9,0.3-2.1,1.2-2
		C168.6,180,168.2,183.6,167,183.8z M171.5,183c-1.3,1.9-2.6,1.7-2.7,0c-0.1-1.6,0.4-3,1.3-3.1C171.4,179.8,172.4,181.8,171.5,183z"
		/>
</g>
</svg>
