<?xml version="1.0" encoding="utf-8"?>
<!-- Generator: Adobe Illustrator 20.0.0, SVG Export Plug-In . SVG Version: 6.00 Build 0)  -->
<svg version="1.1" id="Calque_1" xmlns="http://www.w3.org/2000/svg" xmlns:xlink="http://www.w3.org/1999/xlink" x="0px" y="0px"
	 viewBox="0 0 324.4 221.6" style="enable-background:new 0 0 324.4 221.6;" xml:space="preserve">
<style type="text/css">
	.st0{enable-background:new    ;}
	.st1{fill:url(#SVGID_1_);stroke:#000000;stroke-width:0.8;}
	.st2{fill:#FFFFFF;stroke:#1A171B;stroke-width:0.8;stroke-linecap:round;stroke-linejoin:round;}
	.st3{fill:none;stroke:#1A171B;stroke-width:0.8;stroke-linecap:round;stroke-linejoin:round;}
	.st4{fill:#FFFFFF;stroke:#1A171B;stroke-width:0.8;}
	.st5{fill:none;stroke:#1A171B;stroke-width:0.8;}
	.st6{fill:#FFFFFF;stroke:#1A171B;stroke-width:0.8;stroke-linecap:round;}
	.st7{fill:none;stroke:#C5C6C8;stroke-width:0.8;}
	.st8{fill:#E75300;stroke:#1A171B;stroke-width:1.6;}
	.st9{fill:url(#SVGID_2_);stroke:#1A171B;stroke-width:0.8;stroke-linecap:round;stroke-linejoin:round;}
	.st10{fill:url(#SVGID_3_);}
	.st11{fill:#E75300;}
	.st12{fill:none;stroke:#000000;stroke-width:0.5;stroke-dasharray:3,3;}
	.st13{fill:#666666;}
	.st14{fill:url(#SVGID_4_);stroke:#000000;stroke-width:0.8;stroke-miterlimit:10;}
	.st15{fill:url(#SVGID_5_);}
	.st16{fill:url(#SVGID_6_);stroke:#000000;stroke-width:0.8;stroke-miterlimit:10;}
	.st17{fill:url(#SVGID_7_);}
	.st18{fill:#FFFFFF;}
	.st19{fill:#1A171B;}
</style>
<g class="st0">
	<path d="M55.7,162.4h-3.5v-13.2h-4.3v-3.1c2.4,0.1,4.7-0.9,5.1-4h2.8V162.4z"/>
</g>
<g class="st0">
	<path d="M157.9,149.9c-0.1-4.6,2.1-8.2,6.3-8.2c3.2,0,5.9,2.4,5.9,6.4c0,6.2-5.6,6.6-8.1,10.8h8.2v3.5h-12.7c0-4.7,2.5-6.7,5.5-9.1
		c1.5-1.2,3.6-2.5,3.6-5c0-1.9-1.1-3.1-2.6-3.1c-2.1,0-2.7,2.5-2.7,4.7H157.9z"/>
</g>
<g class="st0">
	<path d="M261.8,150.3c1.5,0.1,3.7-0.2,3.7-2.5c0-1.7-1.2-2.7-2.4-2.7c-1.8,0-2.7,1.5-2.7,3.6h-3.3c0.1-4.2,2.4-7,6-7
		c2.8,0,5.8,2,5.8,5.6c0,1.9-0.8,3.6-2.4,4.2v0.1c1.9,0.5,3.1,2.3,3.1,4.6c0,4.3-3.1,6.7-6.4,6.7c-3.9,0-6.5-2.7-6.4-7.4h3.3
		c0.1,2.2,1,4,3,4c1.6,0,2.8-1.2,2.8-3.2c0-3.1-2.3-3-4-3V150.3z"/>
</g>
<linearGradient id="SVGID_1_" gradientUnits="userSpaceOnUse" x1="298.617" y1="142.5782" x2="303.1113" y2="151.6729" gradientTransform="matrix(1 0 0 -1 0 221.53)">
	<stop  offset="0" style="stop-color:#FFFFFF"/>
	<stop  offset="1" style="stop-color:#E75300"/>
</linearGradient>
<path class="st1" d="M286.2,74.7c0,0,4.8,6.1,5.2,4c0.6-3.1-2.4-10.8-2.4-10.8s4.3,11.1,7.2,11.1c2.9,0,6.5-11,8.8-16.6
	c0,0-4.8,17.3-3.3,18.3c1.5,1.1,7.3-2.7,13.8-5.4c0,0-18.3,10.7-8.3,13.4"/>
<g>
	<path class="st2" d="M87.8,101.1c0.1,2.1,1.7,4.7,2.6,5.8c1,1.3,3.7,3.6,4.3,4c0.6,0.4,1.2,0.8,2.6,1.1c2,0.3,3-0.8,3.6-1.4
		s0.7-1.3,0.7-1.3s0.2-0.5,1.1-2.6c1-2.4,2.7-6.1,3.2-7.3c0.5-1.2,2.1-5.1,2.7-6.5s2.1-5.3,2.1-5.3s1.1-2.9,1.6-4.4
		c0.5-1.4,1.6-4.5,1.6-4.5s1.9-5.5,2.1-5.9c0.1-0.4,0.4-1.2,0.5-1.4c0.1-0.2,0.5-1.2,0.4-2.1c-0.1-1.1-0.3-1.7-1.4-2.8
		c-1.2-1.1-2.3-1.1-2.6-1.1c-0.3,0-0.4-0.1-0.4-0.1s-2.3-0.2-6,0.2c-3.7,0.4-6.6,1.5-9.4,3s-4.6,3.2-4.6,3.2l-0.4,0.4
		c-2.6,4.4-2.7,6.6-2.9,7.3c-0.3,1-4.7-0.8-4.8-1.6c0-0.9,0-1.2,0.1-4.1c0.1-1,0.1-1.2,0.4-2.1c0-0.5,0-1.3,0.5-2.4
		c0.5-1,0.9-1.3,1.1-1.6c0.2-0.2,1.1-1.3,2.1-2.1c1.1-0.9,3.3-2.7,4.6-3.3c1.9-1,3.9-2,4.8-2.3s3.5-1.2,5.7-1.5s4.4-0.7,8.1-0.5
		c3.5,0.2,5.3,1,6,1.4c0.7,0.3,2.5,1.1,4.3,3.5c1.7,2.2,2,4.6,2.1,6.1c0.1,1.1,0.1,2.8-0.8,5.4c-0.3,0.7-1,2.9-1,2.9
		s-1.7,4.9-2.2,6.2c-0.5,1.3-2,5.5-2.5,6.8s-2.1,5.5-2.4,6.2s-2.3,5.5-2.7,6.5c-0.4,1-1.9,4.6-2.6,6.1s-1.7,3.8-2.2,4.8
		c-0.6,1-1.6,2.4-3.3,3.6c-1,0.7-2.1,1.3-3.4,1.7c-1,0.3-2.2,0.5-3.4,0.5c-1,0-1.9-0.1-2.8-0.4c-0.8-0.2-2.4-0.7-4.4-2.1
		c-2-1.5-3.6-2.9-5-4.6c-1.4-1.8-2.4-3.4-3.1-4.8c-0.6-1.4-1-3.1-1.1-3.8c-0.1-0.4,0-2.8,0.8-4.7c0.4-1,1.7-0.8,2.9-0.4
		C86.2,99.2,87.7,99.8,87.8,101.1z"/>
</g>
<path class="st3" d="M86.1,76.6c0,0,2.2,0.8,3,1"/>
<g>
	<path class="st4" d="M82.3,99.7l0.4-1.1c0,0,0.3-0.8-0.2-1.4c0,0,2.1-3.6,2.8-7.3c0.4-2.3,1.2-5.3,0.8-7.4c0,0,0.1-0.8,0.2-1.4l0,0
		c0.3-0.9-0.1-2-0.1-2.7c0-0.9-0.5-1.5-0.3-2.9c0.2-1.3,1.6-1.4,2.5-1.3c0.9,0,2.6,0.1,2.6,0.1s0.4,0,0.8,0.3c0,0,0.3,0.2,0.4,0.2
		l0,0c0,0,0.4,0.6,0.4,2c-0.1,1.4-0.2,3.5-0.2,3.5s0.1,1.2,0.1,1.6s0,1.9,0,2.1c-0.2,1.1-0.1,1.3-0.2,2.9c-0.2,1.6-0.4,4.2-1.6,7.2
		c-1.6,4.3-1.6,4.2-1.6,4.2s-0.6,0.4-0.9,1.3c-0.3,0.8-0.8,2-1.1,3l-0.1,0.2c0,0.1-0.1,0.1-0.1,0.2l-0.3,1.1c-0.5,1.2-1,1.3-1,1.3
		s-0.4,0.1-1.2-0.2c-1.2-0.3-3-1-3.4-1.3c-0.4-0.2,0-1.6,0-1.6L82.3,99.7z"/>
</g>
<g>
	<g>
		<path class="st3" d="M86,71.6c0,0,4,1.5,4.8,1.7"/>
	</g>
</g>
<polygon class="st5" points="114,52.6 117.6,46.7 124.5,46.8 127.9,52.9 124.3,58.8 117.3,58.7 "/>
<path class="st5" d="M117.9,50c1.4-1.7,3.9-1.9,5.6-0.5s1.9,3.9,0.5,5.6c-1.4,1.7-3.9,1.9-5.6,0.5C116.8,54.2,116.5,51.7,117.9,50z"
	/>
<path class="st5" d="M116.3,67.6c-9.5,6.4-11.8,7.1-13.2,7.4c-1,0.3-1.8,0.4-2.4,0.4"/>
<path class="st5" d="M110.1,40.4c0,0,13.3,3.3,15.7,5c2.5,1.8,4.1,4.2,4.2,6.4c0.1,1.9,0.2,5.3-7.6,11.4"/>
<path class="st5" d="M103.8,65.9c-0.1,0.1-0.5,0.3-0.6,0.4"/>
<path class="st5" d="M107.7,49c0,0,2.9,1.9,3.5,4.3c0.3,1.2,0.9,2.4,0,4.4"/>
<g>
	<path class="st2" d="M303.1,89.6c0.8,0.3,1.4,0.9,3.9,2.6c2.3,1.6,3.3,3.8,3.9,5.2c0.4,1,0.9,2.6,0.9,5.3c0,0.8-0.1,3.1-0.1,3.1
		s-0.2,5.2-0.2,6.5c0,1.4-0.2,5.8-0.3,7.2c-0.1,1.4-0.4,5.9-0.4,6.6c0,0.8-0.5,5.9-0.6,7s-0.4,4.9-0.6,6.6c-0.2,1.6-0.4,4.2-0.7,5.3
		c-0.2,1.1-0.8,2.7-2.1,4.4c-0.7,1-1.6,1.9-2.7,2.7c-0.9,0.6-1.9,1.2-3,1.5c-1,0.3-1.9,0.5-2.7,0.5c-0.8,0-2.5,0.1-4.9-0.7
		s-4.3-1.6-6.2-2.9c-1.8-1.3-3.3-2.5-4.4-3.6c-1-1.1-1.8-2.6-2.2-3.2c-0.2-0.4-0.8-2.7-0.7-4.7c0.1-1,1.4-1.3,2.7-1.2
		c1.3,0.1,2.9,0.2,3.3,1.4c0.8,2,3,3.9,4.2,4.8c1.4,0.9,4.6,2.3,5.3,2.5c0.7,0.2,1.4,0.5,2.8,0.2c2-0.3,2.7-1.7,3-2.4
		c0.4-0.8,0.3-1.5,0.3-1.5s0.1-0.6,0.3-2.8c0.3-2.6,0.7-6.6,0.8-7.9c0.1-1.3,0.4-5.4,0.6-7c0.1-1.6,0.3-5.6,0.3-5.6s0.2-3.1,0.2-4.6
		c0.1-1.5,0.2-4.7,0.2-4.7s0.1-5.8,0.2-6.2c0-0.4,0-1.3,0.1-1.5c0-0.2,0.1-1.3-0.3-2.1c-0.4-1-1.4-2.1-2.6-3c0,0,0.7-1.4-0.1-2.1
		c-0.8-0.7,0-2.1,0.6-2.4C302.5,92.5,303.1,89.6,303.1,89.6z"/>
</g>
<g>
	<path class="st4" d="M280.8,139.2l0.2-1.1c0,0,0.2-0.8-0.3-1.3c0,0,1.6-3.8,1.8-7.5c0.1-2.3,0.5-5.4-0.2-7.4c0,0,0-0.8,0-1.4l0,0
		c0.2-1-0.3-1.9-0.5-2.6c-0.2-0.9-0.7-1.4-0.7-2.8s1.4-1.5,2.3-1.6s2.6-0.2,2.6-0.2s0.4,0,0.9,0.2c0,0,0.3,0.1,0.4,0.2l0,0
		c0,0,0.5,0.5,0.6,1.9s0.2,3.5,0.2,3.5s0.3,1.2,0.3,1.5c0,0.4,0.3,1.8,0.3,2.1c0,1.1,0.1,1.3,0.2,2.9s0.1,4.2-0.6,7.3
		c-1,4.4-1.1,4.4-1.1,4.4s-0.5,0.5-0.7,1.4s-0.5,2.1-0.7,3.1v0.2c0,0,0,0.1,0,0.2l-0.2,1.1c-0.4,1.3-0.8,1.4-0.8,1.4s-0.3,0.1-1.2,0
		c-1.3-0.2-3.1-0.6-3.5-0.8s-0.3-1.6-0.3-1.6L280.8,139.2z"/>
</g>
<g>
	<path class="st2" d="M283,139.7c0,0,1.2,0.1,1.1,1.2c-0.1,1.1-1.2,1.1-1.2,1.1s-1.2-0.1-1.1-1.1C281.9,139.8,282.7,139.7,283,139.7
		L283,139.7z"/>
</g>
<g>
	<path class="st6" d="M305.8,150c-0.8-0.1-1.5-0.1-3.2,0.1"/>
</g>
<path class="st7" d="M110.9,58.2c0,0-2.1,4.5-6,7.2"/>
<path class="st2" d="M84.6,100.6c0,0,1.1,0.5,0.7,1.5s-1.5,0.7-1.5,0.7s-1.1-0.4-0.7-1.4C83.5,100.4,84.3,100.5,84.6,100.6
	L84.6,100.6z"/>
<path class="st4" d="M89.4,175.8l11.2-47.8c0.4-1.9-0.8-8.3-0.5-9.9l1.4-6.5c0.8-3.9-1.1-4.1-3.3-4.5l-4.1-0.9
	c-2.3-0.5-4-1.1-4.9,2.8l-1.4,6.5c-0.4,1.7-4,6.9-4.4,8.9l-12,50.8"/>
<path class="st8" d="M96.6,105c-1.8-0.4-2.9-0.9-3.2-1c-0.3-0.1-0.5,0-0.7,0.5c-0.3,0.6-0.4,1-1,2.8c-0.5,1.8-1.3,4.2-2.3,5.5
	s-1.5,1.1-3.2,1.2c-0.8,0-0.8,0.8-0.7,1.3c0.1,0.4,0.2,1.2,0.4,1.7c0.2,0.5,0.3,0.8,1.5,0.8s2.7,0.2,6,0.8l0.6,0.1
	c3.3,0.8,4.7,1.2,5.8,1.7c1.1,0.5,1.3,0.2,1.7-0.1c0.4-0.3,0.8-1,1.1-1.3c0.2-0.4,0.6-1.1-0.1-1.5c-1.5-0.8-2.1-0.8-2.5-2.4
	s-0.1-4.1,0.2-5.9c0.2-1.8,0.3-2.3,0.3-2.9s-0.2-0.7-0.5-0.8C99.7,105.4,98.4,105.5,96.6,105L96.6,105z"/>
<path class="st6" d="M89.4,114.3c-1.7-0.3-2.4-0.4-3.2-0.3"/>
<path class="st6" d="M102.4,117.4c-0.7-0.4-1.4-0.6-3.1-1"/>
<path class="st4" d="M107.1,40.4c0,0-6.6,26.1-7.5,29.8c-0.9,3.6-1.3,5-0.3,5.3s1.4,0.4,1.8-1.2s6.7-26,7.7-29.9
	c1.1-3.9,1.5-4.5,0.3-4.8C108.1,39.3,107.4,39.3,107.1,40.4z"/>
<path class="st7" d="M105,58.2c0,0-1.4,0.2-2,0.4"/>
<polygon class="st5" points="275.8,52 279.9,46.4 286.8,47.1 289.6,53.5 285.5,59.1 278.6,58.4 "/>
<path class="st5" d="M280,49.7c1.5-1.6,4.1-1.6,5.6,0c1.6,1.6,1.6,4.1,0,5.6c-1.5,1.6-4.1,1.6-5.6,0C278.5,53.8,278.5,51.3,280,49.7
	z"/>
<path class="st5" d="M260.7,73.6c0.6,0.1,1.4,0,2.4-0.2c1.4-0.2,3.7-0.8,13.8-6.3c0,0,4.3-2.2,6.6-3.8c8-5.8,8.4-8.8,8.5-10.7
	c0.1-2.2-1.4-4.8-3.7-6.8c-2.3-2-15.3-6.3-15.3-6.3"/>
<path class="st5" d="M269.9,47.9c0,0,2.7,2.2,3.1,4.6c0.2,1.2,0.7,2.5-0.3,4.4c0,0-2.8,4.7-6.9,7c-1.1,0.6-1.2,0.5-1.2,0.5
	c-0.1,0.1-0.5,0.3-0.6,0.3"/>
<polygon class="st5" points="198.6,52.7 202.4,46.8 209.4,47.2 212.6,53.4 208.8,59.3 201.8,58.9 "/>
<path class="st5" d="M202.7,50.2c1.5-1.7,4-1.8,5.7-0.3s1.8,4,0.3,5.7s-4,1.8-5.7,0.3C201.4,54.4,201.3,51.8,202.7,50.2z"/>
<path class="st5" d="M195,40.2c0,0,13.4,3.8,15.9,5.6c2.4,1.8,4,4.4,4.1,6.6c0,2.2,0.1,6.3-11.8,13.9c-11.9,7.6-14.5,8.3-16,8.7
	c-1,0.2-1.8,0.3-2.4,0.3"/>
<path class="st5" d="M192.4,49c0,0,2.8,2,3.4,4.5c0.6,2.4,2.1,4.8-8.4,12.8"/>
<g>
	
		<radialGradient id="SVGID_2_" cx="243.5184" cy="294.6342" r="5.0928" gradientTransform="matrix(1 1.600000e-03 1.600000e-03 -1 -58.7643 360.3896)" gradientUnits="userSpaceOnUse">
		<stop  offset="0" style="stop-color:#E75300"/>
		<stop  offset="0.978" style="stop-color:#FFFFFF"/>
	</radialGradient>
	<path class="st9" d="M178.4,106.9c0.5,2.1,2.5,4.3,3.6,5.3c1.3,1.1,4.4,2.9,5,3.2c0.6,0.3,1.3,0.6,2.8,0.6c2-0.1,2.9-1.3,3.3-2
		c0.5-0.7,0.5-1.5,0.5-1.5s0.1-0.6,0.6-2.8c0.6-2.5,1.5-6.5,1.8-7.9c0.3-1.3,1.1-5.4,1.4-7c0.3-1.5,1-5.6,1-5.6s0.6-3.1,0.8-4.6
		c0.3-1.5,0.8-4.7,0.8-4.7s0.9-5.8,0.9-6.3c0.1-0.4,0.2-1.3,0.2-1.5c0.1-0.2,0.3-1.2,0-2.1c-0.3-1-1.1-2.3-2.2-3.4
		c-1.1-1.1-2.3-1.1-2.6-1.2c-0.3,0-0.4-0.1-0.4-0.1s-2.3-0.3-6,0s-6.7,1.3-9.6,2.7c-2.8,1.4-4.8,3.1-4.8,3.1l-0.4,0.4
		c-2.8,4.4-2.9,6.6-3.2,7.3c-0.4,1-4.7-1-4.8-1.8c0-0.9,0-1.2,0.3-4.1c0.1-1,0.2-1.3,0.4-2.1c0-0.6,0.1-1.4,0.6-2.4s0.9-1.3,1.2-1.6
		c0.2-0.2,1.1-1.3,2.2-2.1c1.1-0.8,3.4-2.6,4.7-3.2c2-0.9,4-1.9,4.9-2.2s3.5-1.1,5.8-1.4c2.2-0.3,4.4-0.6,8.2-0.3
		c3.5,0.3,5.3,1.2,6,1.6c0.7,0.4,1.3,1.1,3.6,3.1c2.1,1.9,2.8,4.2,3.3,5.7c0.3,1,0.6,2.7,0.2,5.5c-0.1,0.8-0.4,3.1-0.4,3.1
		s-0.8,5.2-1,6.5c-0.2,1.4-1,5.8-1.2,7.2c-0.3,1.4-1.1,5.8-1.2,6.6c-0.1,0.7-1.2,5.9-1.5,7c-0.2,1.1-1.1,4.9-1.4,6.5
		c-0.4,1.6-0.9,4.1-1.3,5.2c-0.4,1.1-1.2,2.6-2.6,4.2c-0.8,0.9-1.8,1.7-3.1,2.4c-1,0.5-2,0.9-3.2,1.1c-1,0.2-2,0.2-2.8,0.2
		c-0.8-0.1-2.5-0.2-4.8-1.3c-2.3-1.1-4.1-2.2-5.8-3.7s-3-2.9-3.9-4.2c-0.9-1.3-1.5-2.9-1.8-3.5c-0.1-0.4-0.5-2.8-0.1-4.8
		c0.2-1,1.6-1.1,2.8-0.9C176.5,105.4,178.1,105.7,178.4,106.9z"/>
</g>
<path class="st3" d="M169.2,75.9c0,0,2.2,0.8,3,1.1"/>
<g>
	<path class="st4" d="M173.1,106.3l0.4-1.1c0,0,0.3-0.8-0.2-1.4c0,0,2.1-3.6,2.8-7.3c0.4-2.3,1.2-5.3,0.8-7.5c0,0,0.1-0.8,0.2-1.4
		l0,0c0.3-0.9-0.1-2-0.1-2.7c0-1-0.5-1.5-0.4-2.9c0.2-1.4,1.6-1.4,2.5-1.4s2.7,0.1,2.7,0.1s0.4,0,0.8,0.3c0,0,0.3,0.2,0.4,0.2l0,0
		c0,0,0.4,0.6,0.4,2c-0.1,1.4-0.2,3.6-0.2,3.6s0.2,1.2,0.1,1.6c0,0.4,0.1,1.9,0,2.1c-0.2,1.1,0,1.3-0.2,2.9
		c-0.1,1.7-0.4,4.2-1.5,7.3c-1.5,4.3-1.6,4.3-1.6,4.3s-0.6,0.5-0.9,1.3c-0.3,0.8-0.8,2-1.1,3l-0.1,0.2c0,0-0.1,0.1-0.1,0.2l-0.3,1.1
		c-0.5,1.3-1,1.3-1,1.3s-0.4,0.1-1.2-0.1c-1.3-0.3-3-1-3.4-1.3c-0.4-0.2-0.1-1.6-0.1-1.6L173.1,106.3z"/>
</g>
<g>
	<g>
		<path class="st3" d="M169.2,70.9c0,0,4,1.6,4.8,1.9"/>
	</g>
	<path class="st2" d="M175.2,107.1c0,0,1.2,0.3,1,1.3c-0.2,1.1-1.3,0.9-1.3,0.9s-1.2-0.2-1-1.3C174.1,107.1,174.9,107.1,175.2,107.1
		L175.2,107.1z"/>
</g>
<linearGradient id="SVGID_3_" gradientUnits="userSpaceOnUse" x1="251.2194" y1="300.0412" x2="263.4177" y2="292.7118" gradientTransform="matrix(1 1.600000e-03 1.600000e-03 -1 -58.7643 360.3896)">
	<stop  offset="0" style="stop-color:#FFFFFF"/>
	<stop  offset="0.5055" style="stop-color:#E75300"/>
	<stop  offset="1" style="stop-color:#FFFFFF"/>
</linearGradient>
<path class="st10" d="M195.5,58.3c0,0,2.2,0.2,3.5,0.6c1.3,0.4,2.6,1,3.2,1.5c0.6,0.5,1.9,1.7,2.2,2s1.2,1.1,1.8,1.9
	c0.6,0.8,1.1,2.1,1.4,2.9l-5.6,5c0,0,0.3-1.7-0.2-2.9c-0.5-1.2-1.8-2.6-2.7-3.3c-0.9-0.7-1.9-1-4.1-1.2c-2.2-0.2-4-0.2-4-0.2l1-6.3
	C191.9,58.4,194.6,58.1,195.5,58.3z"/>
<path class="st4" d="M192.1,40.2c0,0-7.4,26.1-8.4,29.8c-1.1,3.6-1.5,5-0.4,5.3c1,0.3,1.4,0.4,1.9-1.2s7.5-26,8.7-29.8
	c1.2-3.9,1.6-4.5,0.5-4.9C193.1,39.1,192.4,39.1,192.1,40.2z"/>
<path class="st6" d="M184.4,120.2c-1.8,0.3-2.4,0.5-3.2,0.9"/>
<path class="st6" d="M197.8,118.5c-0.8-0.1-1.5-0.1-3.3,0.1"/>
<g>
	<path class="st2" d="M274.5,86.4c0.3-0.7,1.1-2.6,1.3-6c0.2-3.8-0.2-5.9-0.6-8.1s-1.2-4.7-1.6-5.6s-1.3-2.9-2.3-4.8
		c-0.7-1.3-2.5-3.5-3.4-4.5s-1.9-1.9-2.2-2.1c-0.3-0.2-0.6-0.7-1.6-1.1c-1-0.5-1.8-0.5-2.4-0.5c-0.9-0.2-1.2-0.2-2.1-0.3
		c-2.9-0.1-3.3-0.1-4.1-0.1c-0.8,0.1-2.6,4.4-1.6,4.8c0.7,0.2,2.9,0.3,7.3,2.9l0.4,0.4c0,0,1.7,1.9,3.2,4.6c1.5,2.7,2.7,5.6,3.1,9.3
		c0.4,3.7,0.2,5.9,0.2,5.9s-0.1,0.2-0.1,0.4c0,0.3,0,1.4-1.1,2.6c0,0,1.1,1.1,2.2,0.4c1.1-0.8,2.2,1.2,2.2,1.2L274.5,86.4z"/>
</g>
<path class="st3" d="M256.8,55c0,0-0.8,2.2-1,3"/>
<g>
	<g>
		<path class="st3" d="M261.7,54.9c0,0-1.5,4-1.7,4.8"/>
	</g>
</g>
<path class="st4" d="M270,39.3c0,0-8.7,25.5-10,29c-1.2,3.5-1.7,4.9-0.7,5.3s1.4,0.5,1.9-1s8.9-25.3,10.2-29.1
	c1.4-3.8,1.9-4.4,0.7-4.8C271.1,38.2,270.4,38.2,270,39.3z"/>
<g>
	<polyline points="112.2,44.5 105.4,47 107.1,35.5 107.1,35.5 115.9,43.1 112.2,44.5 	"/>
</g>
<rect x="110.4" y="44.1" transform="matrix(0.939 -0.344 0.344 0.939 -10.6999 41.9269)" width="4.8" height="14"/>
<g>
	<polyline points="105.8,84.7 112.6,82.2 110.8,93.7 110.8,93.7 102.1,86 105.8,84.7 	"/>
</g>
<rect x="102.8" y="71.1" transform="matrix(0.9405 -0.3398 0.3398 0.9405 -20.2738 40.3984)" width="4.8" height="14"/>
<ellipse transform="matrix(0.2307 -0.973 0.973 0.2307 11.9062 151.4366)" class="st11" cx="101.7" cy="68.2" rx="1.7" ry="1.7"/>
<ellipse transform="matrix(0.2313 -0.9729 0.9729 0.2313 30.7083 159.4139)" class="st11" cx="116.2" cy="60.3" rx="1.7" ry="1.7"/>
<line class="st12" x1="143.4" y1="25.7" x2="143.4" y2="206.7"/>
<line class="st12" x1="240.1" y1="25.7" x2="240.1" y2="206.7"/>
<polygon class="st13" points="4.3,87.4 30.4,101.6 4.3,115.7 "/>
<linearGradient id="SVGID_4_" gradientUnits="userSpaceOnUse" x1="1149.511" y1="-628.3319" x2="1149.511" y2="-587.1659" gradientTransform="matrix(0.9915 -0.1298 -0.1298 -0.9915 -1018.428 -256.037)">
	<stop  offset="0" style="stop-color:#919294"/>
	<stop  offset="0.3207" style="stop-color:#C0C0C1"/>
	<stop  offset="0.6087" style="stop-color:#E2E2E3"/>
	<stop  offset="0.8449" style="stop-color:#F7F7F8"/>
	<stop  offset="1" style="stop-color:#FFFFFF"/>
</linearGradient>
<polyline class="st14" points="206.6,175.7 209.4,197.3 216.4,196.4 202.9,217.7 202.9,217.7 184.3,200.6 191.3,199.7 188.5,178.1 
	"/>
<linearGradient id="SVGID_5_" gradientUnits="userSpaceOnUse" x1="-1236.1279" y1="1792.3787" x2="-1236.1279" y2="1829.913" gradientTransform="matrix(-0.9915 0.1298 0.1298 0.9915 -1264.4945 -1456.2664)">
	<stop  offset="0.4982" style="stop-color:#FFFFFF"/>
	<stop  offset="1" style="stop-color:#FFFFFF;stop-opacity:0"/>
</linearGradient>
<polygon class="st15" points="172.6,163.2 215,157.7 219.9,194.9 177.4,200.4 "/>
<linearGradient id="SVGID_6_" gradientUnits="userSpaceOnUse" x1="1252.6897" y1="-645.3243" x2="1252.6897" y2="-604.1583" gradientTransform="matrix(0.9915 -0.1298 -0.1298 -0.9915 -1018.428 -256.037)">
	<stop  offset="0" style="stop-color:#919294"/>
	<stop  offset="0.3207" style="stop-color:#C0C0C1"/>
	<stop  offset="0.6087" style="stop-color:#E2E2E3"/>
	<stop  offset="0.8449" style="stop-color:#F7F7F8"/>
	<stop  offset="1" style="stop-color:#FFFFFF"/>
</linearGradient>
<polyline class="st16" points="311.1,179.2 313.9,200.7 320.9,199.8 307.4,221.2 307.3,221.2 288.8,204 295.8,203.1 292.9,181.6 "/>
<linearGradient id="SVGID_7_" gradientUnits="userSpaceOnUse" x1="-1339.2852" y1="1809.3655" x2="-1339.2852" y2="1846.9242" gradientTransform="matrix(-0.9915 0.1298 0.1298 0.9915 -1264.4945 -1456.2664)">
	<stop  offset="0.4982" style="stop-color:#FFFFFF"/>
	<stop  offset="1" style="stop-color:#FFFFFF;stop-opacity:0"/>
</linearGradient>
<polygon class="st17" points="277,166.7 319.5,161.1 324.4,198.3 281.9,203.9 "/>
<path class="st4" d="M206,173.6l-6.1-44.5c-0.3-2-3.8-7.5-4-9.1l-1.1-6.6c-0.6-4-2.5-3.4-4.8-3.1l-4.1,0.7c-2.3,0.4-4.2,0.5-3.5,4.4
	l1.1,6.6c0.3,1.8-1.2,8-0.9,9.9l6.1,44.5"/>
<path class="st8" d="M187.8,108.9c-1.8,0.3-3.1,0.2-3.4,0.2c-0.3,0-0.4,0.1-0.5,0.8c-0.1,0.6-0.1,1.1,0.1,2.9c0.1,1.9,0.3,4.4-0.2,6
	c-0.5,1.5-1.1,1.6-2.6,2.3c-0.7,0.3-0.4,1.1-0.2,1.5s0.6,1.1,1,1.4s0.6,0.6,1.7,0.2c1.2-0.4,2.6-0.8,5.9-1.4l0.6-0.1
	c3.3-0.5,4.8-0.6,6.1-0.5c1.2,0,1.3-0.2,1.6-0.7c0.3-0.4,0.4-1.2,0.5-1.7c0.1-0.4,0.1-1.3-0.6-1.3c-1.7-0.2-2.2,0-3.2-1.4
	c-0.9-1.3-1.5-3.8-2-5.6c-0.4-1.8-0.6-2.2-0.8-2.8c-0.3-0.6-0.4-0.6-0.7-0.6C190.9,108.1,189.7,108.7,187.8,108.9L187.8,108.9z"/>
<path class="st4" d="M310.1,176.8l-2.3-16.4c-0.3-1.9-3.6-7.4-3.9-9l-1-6.6c-0.6-3.9-2.4-3.4-4.7-3.1l-4.1,0.6
	c-2.3,0.3-4.1,0.4-3.6,4.3l1,6.6c0.3,1.7-1.3,7.8-1,9.8l2.3,16.4"/>
<path class="st8" d="M296,140.4c-1.8,0.3-3.1,0.1-3.4,0.2c-0.3,0-0.4,0.1-0.5,0.7c-0.1,0.6-0.1,1.1,0.1,2.9c0.1,1.8,0.3,4.4-0.2,5.9
	s-1.1,1.6-2.6,2.2c-0.7,0.3-0.4,1.1-0.2,1.4c0.2,0.4,0.6,1.1,1,1.4c0.4,0.3,0.5,0.6,1.7,0.2c1.2-0.4,2.6-0.8,5.9-1.3l0.6-0.1
	c3.3-0.4,4.8-0.5,6-0.4s1.3-0.2,1.6-0.7c0.3-0.4,0.5-1.2,0.6-1.6c0.1-0.4,0.1-1.2-0.6-1.3c-1.7-0.2-2.2-0.1-3.1-1.4
	c-0.9-1.3-1.5-3.8-1.9-5.6s-0.5-2.2-0.8-2.8c-0.2-0.6-0.4-0.6-0.7-0.6C299.1,139.6,297.9,140.2,296,140.4L296,140.4z"/>
<path class="st6" d="M292.6,151.5c-1.7,0.3-2.4,0.5-3.1,0.8"/>
<g>
	<g>
		<g>
			<path class="st11" d="M46.5,34L29.8,3.6l0,0V3.5c-1.3-2.2-3.5-3.5-6-3.5s-4.8,1.4-6,3.5l0,0l0,0L0.9,34.1
				c-1.2,2.1-1.1,4.6,0.1,6.6c1.2,2.1,3.6,3.4,6.1,3.3H6.9h33.7h-0.1c2.5,0.1,4.8-1.2,6-3.4C47.7,38.6,47.7,36.1,46.5,34z"/>
		</g>
		<path class="st18" d="M43.1,35.8c0.5,0.9,0.6,2,0,2.9c-0.5,0.9-1.5,1.5-2.6,1.5H6.9c-1,0-2-0.4-2.6-1.4c-0.5-0.9-0.5-2,0-2.9
			L21.2,5.3c0.5-0.9,1.4-1.5,2.5-1.5s2,0.6,2.5,1.5L43.1,35.8z"/>
	</g>
</g>
<path class="st19" d="M34.6,22c-0.3-0.4-1.7,0-1.8-0.6c-0.1-0.5-0.3-2.3-1.4-1.4s-0.4,1.8-0.6,2.1c-0.3,0.2-1.2,0.8-1.9,1.3
	c-0.7-0.6-1.6-3.2-5.8-2.8c-2.7,0.3-3.3,1.5-3.8,1.5c-0.4-0.4-1.1-0.9-0.7-1.9c0.5-1,0.8-2.4-0.1-2.6c-0.9-0.1-1.7,0.2-1.8,0.7
	c-0.1,0.5,0,1.2-0.7,1.2c-0.5,0-1,0.4-1,1.2c0.2,0.8,0.4,1,0.8,0.9c0.4-0.1,1.1-0.3,1.2,0.2c0.1,0.4,0.7,1,0.8,1.6
	c-0.4,0.7-1.2,1.7-1.3,2.9c-0.2,1.8,0.7,2.9,0.3,3.2c-0.4,0.3-2.4,2.4-2.9,2.4c-0.6,0-2.2-1.2-2.8-0.3c-0.6,0.9-0.7,1.7,0,2.1
	c0.7,0.3,1.1,0.2,1.2,0.9c0.1,0.7,0.8,1.1,1.5,0.8s1.2-1,1.2-1.5s0.2-1.1,0.7-1.4c0.5-0.2,1.1-0.8,1.4-1c0.5-0.4,1.1-0.8,1.3-0.9
	c0.4,0.1,0.6,0,0.8,0.3c-0.2,0.4-0.3,0.8-0.3,0.9c-0.1,0.2-0.2,0.5,0.9,0.6c0.4,0.1,0.6,0.2,0.8-0.4c0.1-0.3,0.1-0.4,0.4-0.8
	c0.7,0.2,1.7,0.4,1.6,0.8c-0.2,0.5-0.5,1.1-0.3,1.3c0.5,0.1,1.4,0.2,2.8-0.2c0.4,1.2,1.9,2.4,1.2,3.7c-0.3,0.5,0.2,1.7,1.2,1.6
	c1.2-0.1,0.8-0.8,1.5-1.6c0.6-0.8,2.8,0.3,1.7-2.4c-0.4-1.1-1.6,0.3-2.2-0.2c-0.6-0.4-2.4-3-2.4-3.2s-0.3-1.3,0.3-1.5
	c0.6-0.2,1.6-0.6,2-1.5c0.4-0.7,0.9-2,1-3.2c0.9-0.3,1.8-1.4,2.2-1.2c0.4,0.1,1.8,1.1,2.6,0.5C35.1,23.5,34.9,22.4,34.6,22z
	 M19.5,28c-1.2,0.3-1.1-1-1.3-1.9c-0.2-0.9,0.3-2.1,1.2-2C21.1,24.1,20.7,27.7,19.5,28z M24,27.1c-1.3,1.9-2.6,1.7-2.7,0
	c-0.1-1.6,0.4-3,1.3-3.1C23.8,24,24.8,25.9,24,27.1z"/>
</svg>
