<?xml version="1.0" encoding="utf-8"?>
<!-- Generator: Adobe Illustrator 20.0.0, SVG Export Plug-In . SVG Version: 6.00 Build 0)  -->
<svg version="1.1" id="Calque_1" xmlns="http://www.w3.org/2000/svg" xmlns:xlink="http://www.w3.org/1999/xlink" x="0px" y="0px"
	 viewBox="0 0 374.1 267" style="enable-background:new 0 0 374.1 267;" xml:space="preserve">
<style type="text/css">
	.st0{fill:#FFFFFF;stroke:#1A171B;stroke-width:0.8;}
	.st1{fill:none;stroke:#1A171B;stroke-width:0.8;}
	.st2{fill:#D8D9DA;stroke:#1A171B;stroke-width:0.8;}
	.st3{fill:#9B9C9E;stroke:#1A171B;stroke-width:0.8;stroke-linecap:round;stroke-linejoin:round;}
	.st4{fill:#D8D9DA;}
	.st5{fill:#1A171B;}
	.st6{fill:url(#SVGID_1_);}
	.st7{fill:url(#SVGID_2_);}
	.st8{fill:url(#SVGID_3_);}
	.st9{fill:url(#SVGID_4_);}
</style>
<path class="st0" d="M273.8,148.1c-6.4-4.3-7.3-10.5-7.5-11.8c-0.3-1.4-0.3-4.3-0.3-8.4c0-4,0-8.7-0.1-12.3c0-3.6,0-12.9-0.1-15.3
	c0-2.5-0.1-9.7-0.1-13.9c0-4.2-0.3-8.8,1.5-12.8c1.8-4,4.4-6.5,6.8-8c2.4-1.6,6.6-3.3,10.8-3.3c4.2,0,8.4,2.6,9.8,3.5
	c1.3,0.9,4.8,3.7,8.3,6.5c3.5,2.9,6.2,5,6.9,5.6c0.7,0.7,2.4,2.8,0.9,5.5c-1.5,2.7-4.9,3.4-6,3.7c0,0-1,0.2-1.4,0.3
	c-0.4,0.1-1.2-0.2-1.6-0.5c-0.4-0.3-1-1.2-1.8-2c-0.8-0.8-3.2-3.1-3.3-3.1c0,0-0.2,0.1-0.7-0.3c-0.5-0.4-1.7-1.5-2.6-2.1
	c-0.9-0.6-2.3-1.4-3.5-1.8c-1.2-0.5-1.4-0.7-1.8-1.2c-0.4-0.5-1.8-2.2-4.1-2.2c-2.4,0-5,2.2-5.7,3.9c-0.7,1.7-0.8,2.7-0.8,4.7
	c-0.1,2-0.2,6.4-0.3,7.7c0,1.2-0.1,3.4-0.1,4.7c0,1.3,0,5.1-0.1,6.9c0,1.8,0,7.6,0,9.1c0,1.5,0.2,8.7,0.3,11.7c0.1,3,0.3,8.1,0.5,10
	c0.2,1.9,0.3,3.5,2.4,5.3c2.1,1.8,4.9,1.6,6.1,1.1"/>
<path class="st1" d="M304.9,80.8c0-0.9,0.8-1.7,1.7-1.7c0.9,0,1.7,0.8,1.7,1.7c0,0.9-0.8,1.7-1.7,1.7
	C305.6,82.5,304.9,81.8,304.9,80.8z"/>
<path class="st1" d="M308.5,85.7c-2,1.7-5.9,5.6-5.9,5.6l0.7-3.9"/>
<line class="st1" x1="297.1" y1="113.1" x2="303" y2="87.7"/>
<path class="st1" d="M300.1,84.7c0,0-4.5,19.5-6.3,27.8"/>
<path class="st1" d="M276.2,141.8c-4.5-4.4-2.5-17.5-2.5-20.3c0.1-2.7-0.1-15.9-0.2-21.7c-0.2-5.8-0.7-14.9-0.6-17.7
	c0.2-2.8,1.3-6.6,3.5-8.7c2.2-2.1,3-2.3,4.3-2.8c1.3-0.5,4-0.9,4-3.3c0-2.4,0.2-3-1.6-2.8c-1.8,0.2-8.3,1.2-12.3,7.1
	c-4,5.9-3.2,10.7-3.2,20c0.1,9.3,0.3,23,0.3,27.8c0,4.8,0,11.1,0.2,13.9c0.2,2.8,0.9,7.9,5.9,12"/>
<path class="st1" d="M302.4,72.8c0,0-0.9,0.2-1.8,0.4c-0.9,0.2-2.1,0.6-2.7,0.4c-0.6-0.2-1.8-1.8-4.1-3.5c-2.3-1.8-5.9-4.5-8.4-3"/>
<path class="st1" d="M302.2,83.3c-0.2-0.1-0.6-0.4-1.7-1.2c-1.1-0.8-11-8.4-11.7-9c-0.7-0.6-1-1.2-1-2.1c0-0.9-0.1-1.6,0.2-2.6
	c0.3-1,1.2-0.8,1.2-0.8s0.7,0,2.9,1.6c2.2,1.6,3.2,2.7,4.4,3.8c1.2,1.1,1.9,1.3,2.7,2c0.8,0.7,2.8,2.6,4.5,5.4"/>
<path class="st1" d="M308.8,85.5c1.9-1,3.2-3.1,3-5.4c-0.3-2.8-2.7-4.9-5.4-4.9"/>
<polygon class="st0" points="288.5,2.7 279.8,2.7 280.1,77.3 288.7,76.1 "/>
<path class="st0" d="M284.2,59.9l-4.8,0.1l-0.3,0.5l0.1,3c2.2,6.2,1.9,14.3,1.9,14.3l7.1-0.2c0,0-0.7-8.2,1.2-14.4l-0.1-3l-0.3-0.5
	L284.2,59.9L284.2,59.9z"/>
<path class="st1" d="M297.9,115c-0.2,1.2-1.4,2-2.6,1.8l-1.5-0.3c-1.2-0.2-2-1.4-1.8-2.6l0,0c0.2-1.2,1.4-2,2.6-1.8l1.5,0.3
	C297.3,112.6,298.1,113.8,297.9,115L297.9,115z"/>
<path class="st0" d="M201,261.8c1.6-10.1,2.1-14.5,2.8-21.5c0.8-7.7,2.7-15.1,3.8-22.4c1.1-7.5,2.8-16,3.8-23.4
	c1.6-11.7-2.8-13.6-3.5-21.1c-0.6-6,2.1-13.2,3.5-18.5c1.6-5.7-1.4-8.1,2.3-13.2c3-4.1,8.8-5.1,10.1-10c1.6-6.4,7.4-9.6,12.2-12.6
	c3.4-19.5,6.5-13.3,28.6-13.8c5.1-1.1,8.3-4.8,14.1-3.1c3.3,1,8.5,5.9,9.8,6.1l-0.5,0.9c-4.5,3.2-7.7,8.8-12,12.3
	c-2.9,2.3-4.1,2.5-5.2,6.9c-0.9,3.7-0.6,6.6,1.4,9.7c4,5.9,4.4,11.8,5.1,18.8c0.6,6.2,1.8,16.9-1.1,22.4c-1.2,2.4-3.8,4.3-5.1,6.7
	c-1.7,2.9-3,6.2-4.1,9.4c-2.3,6.6-3.2,14-4.2,21c-1.1,7.5-1.3,15.7-1,23.4c0.4,7.4-0.2,14.7,0,22"/>
<path class="st1" d="M247.6,118.9c0.8,0.1,1.6-0.7,2.2-1c0.8-0.4,1.5-0.9,2.3-1.5c1.3-0.9,2.5-1.9,3.7-3c2.1-1.9,6.3-4.8,8.5-6.7
	c1.1-1,5.2-3.4,6.6-3.7"/>
<path class="st1" d="M281,109.5c-0.1-0.2-0.5,1.2-0.6,1.6c-0.1,0.7,0,1.5-0.1,2.2c-0.2,1.6,0.2,3.2-0.8,4.6"/>
<path class="st1" d="M272.5,121.1c0.3,2.1,0.5,2.8-1.1,4.8"/>
<path class="st1" d="M246.3,125.9c-1.4,0.7,1.2,2.6,1.6,3.3"/>
<path class="st1" d="M244.7,129.4c-0.3,0.6-0.2,1.7,0.4,2.2"/>
<path class="st1" d="M232.1,127.7c0.2-3.4,4.1-6,4.4-9.4"/>
<path class="st1" d="M226.9,135.7c-0.6,0.9-0.8,2-0.3,2.9"/>
<path class="st0" d="M84.2,90c0,0-1,0.2-1.3,0.3c-0.4,0.1-1.1-0.2-1.5-0.5c-0.4-0.3-1-1.1-1.8-2c-0.8-0.8-3.2-3.1-3.2-3.1
	c0,0-0.2,0.1-0.7-0.3c-0.5-0.4-1.7-1.5-2.6-2.1c-0.9-0.6-2.3-1.4-3.5-1.8c-1.2-0.5-1.4-0.7-1.8-1.1c-0.4-0.5-1.7-2.2-4.1-2.2
	c-2.4,0-4.9,2.1-5.7,3.9c-0.7,1.7-0.8,2.7-0.8,4.6c-0.1,1.9-0.2,6.4-0.3,7.6c0,1.2-0.1,3.3-0.1,4.6c0,1.3,0,5.1-0.1,6.8
	c0,1.7,0,7.5,0,9c0,1.5,0.2,8.6,0.3,11.6c0.1,3,0.3,8,0.5,9.8c0.2,1.9,0.3,3.4,2.4,5.2c2.1,1.8,4.8,1.6,6.1,1.1
	c1.2-0.5,1.9-1.1,2.1-1.2c0.3-0.1,0.6-0.3,1.1-0.3c0.5-0.1,2.5-0.7,3.5-1.4c1.1-0.7,3.1-2.4,4.6-3.7c1.4-1.3,3.4-3.3,4.3-4.4
	c0.9-1.1,1.8-1.8,2.2-2.2c0.4-0.4,1.8-1.7,3.3-4.6c1.4-2.9,1.5-3,1.5-3.2c0-0.2,0.2-0.9,0.5-1.7c0.3-0.8,0.6-1.6,0.8-2.3
	c0.2-0.7,0.3-2.5,2.2-2.8c1.9-0.3,2.7-0.4,2.7-0.4s0.1-0.3,0.8-0.5c0.8-0.2,1.5-0.5,2.5,0c1,0.6,1.2,1.4,1.2,3.7
	c0,2.4,0,3.9-0.5,6.2c-0.4,2.4-1.5,5.8-4.1,9.6c-2.6,3.7-5.9,7.8-8.6,10.2c-2.7,2.4-4.9,4.3-7.1,5.8c-2.2,1.5-5.9,3.5-9.8,4.4
	c-3.9,0.9-9.6,1.8-15.9-2.5c-6.3-4.3-7.2-10.4-7.5-11.7c-0.3-1.3-0.3-4.3-0.3-8.3c0-4,0-8.6-0.1-12.1c0-3.6,0-12.7-0.1-15.2
	c0-2.5-0.1-9.6-0.1-13.7c0-4.1-0.3-8.7,1.5-12.7c1.8-3.9,4.4-6.4,6.7-7.9c2.3-1.6,6.5-3.2,10.7-3.2c4.2,0,8.4,2.6,9.6,3.5
	c1.3,0.9,4.7,3.6,8.2,6.5c3.5,2.8,6.1,4.9,6.8,5.6c0.7,0.7,2.3,2.8,0.9,5.4C88.7,89,85.3,89.7,84.2,90z"/>
<path class="st1" d="M84.4,83.7c0-0.9,0.8-1.7,1.7-1.6c0.9,0,1.7,0.8,1.6,1.7c0,0.9-0.7,1.7-1.7,1.6S84.4,84.6,84.4,83.7z"/>
<line class="st1" x1="95.2" y1="113.2" x2="85.9" y2="89.7"/>
<path class="st1" d="M82.9,90.4c0,0,5.9,15.6,8.9,23.5"/>
<path class="st1" d="M91.1,131.2c0,0-0.6-0.4-3.5,0.8c-2,0.8-2.3,0.8-5.3,3.9c-3,3.1-8.3,8-12.4,9.5c-4,1.5-9.4,3-13.9-1.4
	c-4.5-4.4-2.5-17.3-2.5-20c0.1-2.7-0.1-15.7-0.2-21.4c-0.2-5.7-0.7-14.7-0.6-17.5c0.2-2.8,1.3-6.5,3.5-8.6c2.2-2.1,2.9-2.3,4.3-2.7
	c1.3-0.5,4-0.9,3.9-3.3c0-2.4,0.2-3-1.6-2.8c-1.8,0.2-8.3,1.2-12.2,7.1c-3.9,5.8-3.2,10.6-3.1,19.8c0.1,9.2,0.3,22.8,0.3,27.5
	c0,4.7,0,11,0.2,13.7c0.2,2.7,0.9,7.8,5.8,11.9c4.9,4.1,12.1,4.7,19,1.6c6.8-3,12.5-8.6,15.2-11.7C90.8,134.5,93.3,132.3,91.1,131.2
	z"/>
<path class="st1" d="M81.9,75.7c0,0-0.9,0.2-1.8,0.4c-0.9,0.2-2.1,0.6-2.7,0.4c-0.6-0.2-1.8-1.7-4.1-3.5c-2.3-1.8-5.8-4.4-8.3-2.9"
	/>
<path class="st1" d="M81.8,86.2c-0.2-0.1-0.6-0.4-1.7-1.2c-1.1-0.8-10.8-8.3-11.5-8.9c-0.7-0.6-1-1.2-1-2.1c0-0.9-0.1-1.6,0.2-2.6
	c0.3-1,1.2-0.8,1.2-0.8s0.7,0,2.9,1.6C74,73.9,75,75,76.2,76c1.1,1.1,1.9,1.3,2.7,2c0.8,0.6,2.8,2.6,4.4,5.3"/>
<path class="st1" d="M88.3,88.3c1.9-1,3.1-3,2.9-5.3c-0.3-2.8-2.6-4.9-5.4-4.8"/>
<polygon class="st0" points="67.2,2.7 58.5,2.7 58.8,79.9 67.4,78.7 "/>
<path class="st0" d="M62.9,62.6l-4.8,0.1l-0.3,0.5l0.1,3c2.2,6.2,1.9,14.3,1.9,14.3l7.1-0.2c0,0-0.7-8.2,1.2-14.4l-0.1-3l-0.3-0.5
	L62.9,62.6L62.9,62.6z"/>
<path class="st0" d="M8.2,262.2c4.3-17.1-7-24.1-7.8-45c-0.3-7.9,1.9-8.7,1.4-15.4c-0.6-9.3,10.4-12.6,15.1-19.4
	c1.9-1.9,3.5-3.8,4.7-4.9c0.8-1.5,4.3-2.5,5.1-3.9c4.6-1.5-2-1.7,6.2-17.4c2.2-4.3,0.3-4.2,7.6-12.4c2.5-2.8,4.1-5.1,6.5-8.2
	c2.4-1.6,8.7-5.3,11.8-5.9c1.8-0.4,3.1-0.2,4.8-0.3c2.2-0.2,2.9-2.8,5.3-1.8c4,1.7,3.3,6.4,2.1,9.6c-1.7,4.6-4.3,5.1-8.8,5.7
	c-0.1,4.8-5.3,6.5-8.2,9.4c5.4-4.6,15-5.9,21.6-2.9c1.6,0.7,2.3,0.6,3.6,1.9c1.7,1.7,1.3,3.5,2.3,4.9c2,2.7,5.5,4.3,6.8,7.7
	c2.3,5.8,0,12.7-1.3,18.5c-0.5,2-0.9,4.1-1.1,6.1c-0.8,8.6,2.5,17,0.4,24.9c-2.4,9-3.3,9.7-7.8,17.9c-2.2,4.1-7,9.8-9,13.8
	c-3.1,6.2-4.3,10.2-5,16.6"/>
<path class="st1" d="M62,243.5c-0.2-0.4-1.2-0.5-1.8-0.6c1.8,0.2,4.2,0.5,6-0.2"/>
<path class="st1" d="M59.4,246.1c1.4,0.4,2.3,1.7,3.7,1.9"/>
<path class="st1" d="M20.2,182c0.9-1.2,1.5-2.9,2.8-3.9"/>
<path class="st1" d="M37.9,180.6c1.2-1.4,1.4-2.9,3.1-3.9"/>
<path class="st1" d="M44.8,173c1.5,0.3,4.2-9.5,5.1-11.2c1.7-3.2,1.7-8.6,5.3-10.6"/>
<path class="st1" d="M75,198.9c0.3-1-1.1-2.4-1.8-3c-0.8-0.9-1.6-1.8-2.4-2.7c-1.5-1.7-1.9-4-2-6.3c-0.1-2.5,0.1-5.2-0.1-7.8
	c-0.1-1.4,0.2-2.6,0.2-4c0-1.4,1.8-2.4,1.8-3.7c0.1-3.5,4.2-10.6,7.9-12c1.3-0.5,2.7-0.6,4.1-0.4c0.7,0.1,1.3,0.1,1.9,0.4
	c0.4,0.2,2.2,1.7,2.5,2.1"/>
<path class="st1" d="M69.6,191c0.5,0.8,1.1,2.3,1.3,3.2c0.2,0.8,0,1.7-0.2,2.5"/>
<path class="st1" d="M68.8,179c0.4-1.2-0.1-2.9-0.3-4.1c-0.2-1.3-0.6-2.4-1.3-3.6c-0.2-0.4-0.6-1-0.6-1.4c0-0.5,0.6-1,0.9-1.4
	c0.7-1.1,1.2-2.2,1.8-3.3c0.4-0.9,0.9-1.8,1.2-2.7c0.2-0.9,0.3-1.9,0.5-2.9c0.2-0.9,0.5-1.7,0.5-2.7c0-0.7,0-2.1-0.2-2.5"/>
<path class="st1" d="M71.3,157.1c0.6-0.2,1.1-0.1,1.7-0.4c0.4-0.2,0.8-0.6,1.3-0.8"/>
<path class="st1" d="M86.4,161.1c-2.8-0.4-5.2,3.8-5.4,5.9c-0.1,1.4,1.6,1.8,2.9,2.6c1.3,0.7,2.4,1.5,3.5,2.4
	c1.2-0.8,1.2-2.9,1.7-3.9"/>
<path class="st2" d="M76.1,176.2"/>
<path class="st3" d="M137.8,261.8L137.8,261.8c1-8.2,1.5-16,1.5-23.3l0,0c0-26.5-6.3-47.1-15.1-60.8l0,0
	c-8.9-13.8-20.1-20.4-30.1-20.4l0,0c-1.9,0-3.7,0.2-5.5,0.7l0,0c-1.4,0.4-2.6,0.8-3.7,1.3c0,0-4.5-0.2-7.6,1.9
	c-3.1,2.1-5,5.3-6.2,10.4c-1.1,5.2-2.2,14.2-2.2,14.2c-0.5-3.2-0.8-6.5-0.8-9.7l0,0c-0.3-11.1,4.7-22.9,18.6-26.2l0,0
	c2.5-0.6,5-0.9,7.5-0.9l0,0c27.6,0.5,53.4,34.1,53.5,89.4l0,0c0,7.7-0.5,15.8-1.6,24.4l0,0"/>
<path class="st3" d="M83,262.5c0,0-0.5-9.1-1.4-19.6l0,0c-0.4-4.6-0.9-9.5-1.5-14c0,0,1.3-2.6,2.3-4.4c1-1.8,3.7-8.9,3.7-8.9
	c3.6,14.4,5,46.3,5.1,46.5l0,0h0"/>
<path class="st3" d="M307.7,262.2L307.7,262.2c0,0,0.6-7.5,0.6-18.8l0,0c0-19.1-1.8-48.9-10.9-69.8l0,0
	c-5.2-12.4-19.2-33.9-19.4-51.2l0,0c-0.3-8.8,5-17.5,16-19.9l0,0c2.5-0.6,5.1-0.9,7.8-0.9l0,0c30.3,0.4,68,38.2,68.1,133.3l0,0
	c0,8.6-0.3,17.6-0.9,27.1l0,0l-8.2-0.5c0.6-9.3,0.9-18.2,0.9-26.6l0,0c0-46.6-9.3-78.2-21.4-97.8l0,0c-12.2-19.7-27-27.3-38.4-27.3
	l0,0c-2,0-4,0.2-5.8,0.7l0,0c-8,2.3-9.4,5.5-9.8,11.9l0,0c-0.2,13,12.9,34.8,18.7,47.9l0,0c9.9,23,11.5,53.4,11.6,73l0,0
	c0,11.6-0.6,19.3-0.6,19.4l0,0l0,0"/>
<path class="st1" d="M264.7,183.7c-1.1,0.8-2.8,1.5-4.2,1.8c-0.5,0-0.6-0.3-0.4-0.9"/>
<path class="st0" d="M288.5,138.1c0.3-0.1,0.7-0.3,1.1-0.3c0.5-0.1,2.5-0.7,3.6-1.4c1.1-0.7,3.2-2.4,4.7-3.7
	c1.5-1.3,3.4-3.3,4.4-4.4c0.9-1.1,1.8-1.8,2.2-2.2c0.4-0.4,1.8-1.8,3.3-4.6c1.5-2.9,1.5-3,1.5-3.2c0-0.2,0.2-0.9,0.5-1.7
	c0.3-0.8,0.7-1.6,0.8-2.4c0.2-0.7,0.3-2.6,2.2-2.8c1.9-0.3,2.8-0.4,2.8-0.4s0.1-0.3,0.9-0.5c0.8-0.2,1.5-0.5,2.5,0
	c1,0.6,1.2,1.4,1.2,3.8c0,2.4,0,3.9-0.5,6.3c-0.4,2.4-1.5,5.9-4.1,9.7c-2.6,3.8-6,7.9-8.7,10.3c-2.7,2.4-5,4.4-7.2,5.9
	c-2.2,1.5-5.9,3.5-9.9,4.5"/>
<path class="st1" d="M293.3,147.1c6.9-3.1,12.7-8.6,15.4-11.8c2.7-3.2,5.2-5.4,3-6.5c0,0-0.6-0.4-3.5,0.8c-2,0.8-2.3,0.8-5.3,3.9
	c-3,3.1-8.4,8.1-12.5,9.6"/>
<path class="st0" d="M273.3,140.1c4.1-4.2,5.9-7.2,7.7-12.1c2.3-6.2,3.9-12.5,9.5-17c5.4-4.5,13.9-3,12.5,5.8
	c-0.9,6.3-4.7,11.7-6,17.9c-1.2,5.7-2.2,11.5-3.4,17.2c-1.1,5.5-3.6,10.5-5.3,15.9c-2.9,9.2-14,15.6-21.4,21.1"/>
<path class="st1" d="M299.7,109.3c-2.8-0.6-7.8,4.7-5.1,7.7c0.8,0.9,3.1,1.5,4.2,2.1c1.4,0.8,4-0.7,4.4-3"/>
<path class="st1" d="M295.3,117.2c1.4,0.1,2.2-0.3,3.4,0.5c0.8,0.5,0.9,0.7,1,1.6"/>
<path class="st1" d="M272.8,139.6c0.1,0,0-0.1,0.1-0.1c0.7,1.2,2.3,2.3,2.4,3.8"/>
<polygon class="st4" points="361.3,258.7 361,261.9 368.6,262.4 368.7,259.7 "/>
<path class="st5" d="M85.2,99l4.8,0.4c0,0-1.8-7.2-0.7-10.2l-1.8-0.9c0,0-0.7,0.7-2.1,1.1l0.4,1l-2.9,1.2l-0.4-1l-0.6,0.1L85.2,99z"
	/>
<path class="st5" d="M296.9,95l3.9,3.2c0,0,2.7-7.3,5.4-9.2l-1-1.8c0,0-1.1,0.2-2.5-0.3l-0.2,1.1l-3.2-0.6l0.3-1.1l-0.5-0.3
	L296.9,95z"/>
<linearGradient id="SVGID_1_" gradientUnits="userSpaceOnUse" x1="63.1365" y1="6.8599" x2="63.1365" y2="37.5112">
	<stop  offset="0" style="stop-color:#FFFFFF"/>
	<stop  offset="1" style="stop-color:#FFFFFF;stop-opacity:0"/>
</linearGradient>
<rect x="52.1" class="st6" width="22" height="42"/>
<linearGradient id="SVGID_2_" gradientUnits="userSpaceOnUse" x1="-1110.3635" y1="4074.5132" x2="-1110.3635" y2="4108.0835" gradientTransform="matrix(-1 0 0 -1 -993.7271 4334)">
	<stop  offset="0" style="stop-color:#FFFFFF"/>
	<stop  offset="1" style="stop-color:#FFFFFF;stop-opacity:0"/>
</linearGradient>
<rect x="78.1" y="221" class="st7" width="77" height="46"/>
<linearGradient id="SVGID_3_" gradientUnits="userSpaceOnUse" x1="-1329.3635" y1="4074.5132" x2="-1329.3635" y2="4108.0835" gradientTransform="matrix(-1 0 0 -1 -993.7271 4334)">
	<stop  offset="0" style="stop-color:#FFFFFF"/>
	<stop  offset="1" style="stop-color:#FFFFFF;stop-opacity:0"/>
</linearGradient>
<rect x="297.1" y="221" class="st8" width="77" height="46"/>
<linearGradient id="SVGID_4_" gradientUnits="userSpaceOnUse" x1="284.1364" y1="6.8599" x2="284.1364" y2="37.5112">
	<stop  offset="0" style="stop-color:#FFFFFF"/>
	<stop  offset="1" style="stop-color:#FFFFFF;stop-opacity:0"/>
</linearGradient>
<rect x="273.1" class="st9" width="22" height="42"/>
</svg>
