<?xml version="1.0" encoding="UTF-8"?>
<svg width="780" height="300" xmlns="http://www.w3.org/2000/svg" font-family="Arial,sans-serif">
<rect width="780" height="300" fill="white"/>
<rect x="20" y="20" width="760" height="270" rx="14" fill="#f3f8ff" stroke="#5b9bd5" stroke-width="1.5"/>
<text x="400" y="46" text-anchor="middle" font-size="16" fill="#333" font-weight="bold">Blog System</text>
<rect x="55" y="65" width="320" height="145" rx="10" fill="#ddeeff" stroke="#5b9bd5" stroke-width="1.5"/>
<text x="215" y="88" text-anchor="middle" font-size="13" fill="#333" font-weight="bold">Post (global)</text>
<text x="215" y="103" text-anchor="middle" font-size="10" fill="#666">tab = posts</text>
<text x="70" y="120" text-anchor="start" font-size="10" fill="#444">id, name, image, published</text>
<text x="70" y="135" text-anchor="start" font-size="10" fill="#444">us_post_id → locale_posts.id</text>
<text x="70" y="150" text-anchor="start" font-size="10" fill="#444">ka_post_id → locale_posts.id</text>
<text x="70" y="165" text-anchor="start" font-size="10" fill="#444">user_id → users.id</text>
<rect x="420" y="65" width="155" height="130" rx="8" fill="#e8f5e9" stroke="#4caf50" stroke-width="1.5"/>
<text x="497.5" y="123" text-anchor="middle" font-size="11" fill="#333" font-weight="bold">locale_post (EN)</text>
<text x="497.5" y="139" text-anchor="middle" font-size="9" fill="#666">tab = locale_posts</text><text x="435" y="120" text-anchor="start" font-size="10" fill="#555">id, locale = "en"</text>
<text x="435" y="135" text-anchor="start" font-size="10" fill="#555">title</text>
<text x="435" y="150" text-anchor="start" font-size="10" fill="#555">short_description</text>
<text x="435" y="165" text-anchor="start" font-size="10" fill="#555">text</text>
<rect x="595" y="65" width="155" height="130" rx="8" fill="#fff3e0" stroke="#ff9800" stroke-width="1.5"/>
<text x="672.5" y="123" text-anchor="middle" font-size="11" fill="#333" font-weight="bold">locale_post (KA)</text>
<text x="672.5" y="139" text-anchor="middle" font-size="9" fill="#666">tab = locale_posts</text><text x="610" y="120" text-anchor="start" font-size="10" fill="#555">id, locale = "ka"</text>
<text x="610" y="135" text-anchor="start" font-size="10" fill="#555">title</text>
<text x="610" y="150" text-anchor="start" font-size="10" fill="#555">short_description</text>
<text x="610" y="165" text-anchor="start" font-size="10" fill="#555">text</text>
<line x1="375" y1="125" x2="418" y2="110" stroke="#555" stroke-width="1.5"/>
<polygon points="418,110 411.2079300167758,115.90489503234262 409.00885426977914,109.60087789095219" fill="#555"/><line x1="375" y1="145" x2="593" y2="145" stroke="#555" stroke-width="1.5"/>
<polygon points="593,145 584.6420182798114,148.33828422471686 584.6420182798114,141.66171577528314" fill="#555"/><text x="396" y="118" text-anchor="middle" font-size="9" fill="#888">us_post_id</text>
<text x="485" y="140" text-anchor="middle" font-size="9" fill="#888">ka_post_id</text>
<rect x="55" y="235" width="180" height="40" rx="8" fill="#ede7f6" stroke="#673ab7" stroke-width="1.5"/>
<text x="145" y="248" text-anchor="middle" font-size="11" fill="#333" font-weight="bold">users</text>
<text x="145" y="264" text-anchor="middle" font-size="9" fill="#666">tab = users</text><line x1="215" y1="175" x2="140" y2="233" stroke="#673ab7" stroke-width="1.5"/>
<polygon points="140,233 144.5694188812983,225.2462647009822 148.65379388052847,230.52778409653845" fill="#673ab7"/></svg>