<?xml version='1.0' encoding='UTF-8'?>
<svg xmlns="http://www.w3.org/2000/svg" width="780" height="360" font-family="Arial,sans-serif">
<rect width="780" height="360" fill="white" />
<rect x="10" y="10" width="820" height="360" rx="14" fill="#e3f2fd" stroke="#1565c0" stroke-width="1.5" />
<rect x="25" y="55" width="250" height="165" rx="10" fill="#90caf9" stroke="#1565c0" stroke-width="1.5" />
<rect x="310" y="55" width="200" height="75" rx="8" fill="#fff9c4" stroke="#f9a825" stroke-width="1.5" />
<rect x="310" y="155" width="200" height="75" rx="8" fill="#c8e6c9" stroke="#43a047" stroke-width="1.5" />
<rect x="540" y="55" width="200" height="75" rx="8" fill="#ffe0b2" stroke="#e65100" stroke-width="1.5" />
<rect x="540" y="155" width="200" height="75" rx="8" fill="#b3e5fc" stroke="#0288d1" stroke-width="1.5" />
<rect x="25" y="260" width="250" height="75" rx="8" fill="#ede7f6" stroke="#673ab7" stroke-width="1.5" />
<line x1="275" y1="100" x2="308" y2="90" stroke="#555" stroke-width="1.5" />
<polygon points="308,90 300.9693346346947,95.61869598048304 299.0330804092466,89.22905703650444" fill="#555" /><line x1="275" y1="145" x2="308" y2="190" stroke="#555" stroke-width="1.5" />
<polygon points="308,190 300.3653842330195,185.23422177492776 305.7494023858154,181.28594179621075" fill="#555" /><line x1="510" y1="90" x2="538" y2="90" stroke="#555" stroke-width="1.5" />
<polygon points="538,90 529.6420182798114,93.33828422471684 529.6420182798114,86.66171577528316" fill="#555" /><line x1="510" y1="195" x2="538" y2="195" stroke="#555" stroke-width="1.5" />
<polygon points="538,195 529.6420182798114,198.33828422471686 529.6420182798114,191.66171577528314" fill="#555" /><line x1="150" y1="220" x2="150" y2="258" stroke="#673ab7" stroke-width="1.5" />
<polygon points="150,258 146.66171577528317,249.6420182798114 153.33828422471683,249.6420182798114" fill="#673ab7" /><text x="420" y="36" text-anchor="middle" font-size="16" fill="#333" font-weight="bold">Task System</text>
<text x="150" y="78" text-anchor="middle" font-size="13" fill="#333" font-weight="bold">Task</text>
<text x="150" y="93" text-anchor="middle" font-size="10" fill="#666">tab = tasks</text>
<text x="40" y="112" text-anchor="start" font-size="10" fill="#333">id, title, description</text>
<text x="40" y="127" text-anchor="start" font-size="10" fill="#333">status, priority, due_date</text>
<text x="40" y="142" text-anchor="start" font-size="10" fill="#333">from_user_id → users</text>
<text x="40" y="157" text-anchor="start" font-size="10" fill="#333">for_user_id → users</text>
<text x="40" y="172" text-anchor="start" font-size="10" fill="#555">→ orders (via order_tasks)</text>
<text x="40" y="187" text-anchor="start" font-size="10" fill="#555">→ product_options (via option_tasks)</text>
<text x="410" y="75" text-anchor="middle" font-size="11" fill="#333" font-weight="bold">order_tasks (pivot)</text>
<text x="325" y="91" text-anchor="start" font-size="10" fill="#555">task_id → tasks</text>
<text x="325" y="107" text-anchor="start" font-size="10" fill="#555">order_id → orders</text>
<text x="410" y="175" text-anchor="middle" font-size="11" fill="#333" font-weight="bold">product_option_tasks</text>
<text x="410" y="189" text-anchor="middle" font-size="9" fill="#666">(pivot)</text><text x="325" y="205" text-anchor="start" font-size="10" fill="#555">task_id → tasks</text>
<text x="325" y="221" text-anchor="start" font-size="10" fill="#555">product_option_id</text>
<text x="640" y="75" text-anchor="middle" font-size="11" fill="#333" font-weight="bold">Order</text>
<text x="640" y="89" text-anchor="middle" font-size="9" fill="#666">tab = orders</text><text x="555" y="105" text-anchor="start" font-size="10" fill="#555">id, status, payment</text>
<text x="640" y="175" text-anchor="middle" font-size="11" fill="#333" font-weight="bold">Product Option</text>
<text x="640" y="189" text-anchor="middle" font-size="9" fill="#666">tab = product_options</text><text x="555" y="205" text-anchor="start" font-size="10" fill="#555">id, product_id</text>
<text x="555" y="221" text-anchor="start" font-size="10" fill="#555">name, price, barcode</text>
<text x="150" y="280" text-anchor="middle" font-size="11" fill="#333" font-weight="bold">User (from/for)</text>
<text x="150" y="294" text-anchor="middle" font-size="9" fill="#666">tab = users</text><text x="40" y="310" text-anchor="start" font-size="10" fill="#555">from_user_id = creator</text>
<text x="40" y="326" text-anchor="start" font-size="10" fill="#555">for_user_id = assignee</text>
</svg>